<svg xmlns="http://www.w3.org/2000/svg" viewBox="0 0 1366 768"><defs><style>.cls-1{fill:#29abe2;}.cls-1,.cls-2,.cls-3,.cls-4,.cls-5,.cls-6,.cls-7{stroke:#000;stroke-miterlimit:10;}.cls-2{fill:#0071bc;}.cls-3{fill:#2e3192;}.cls-4{fill:#1b1464;}.cls-5,.cls-6,.cls-7{fill:#1a1a1a;}.cls-5{opacity:0.3;}.cls-6{opacity:0.2;}.cls-7{opacity:0.4;}.cls-8{opacity:0.1;font-size:1296px;fill:lime;font-family:ArialRoundedMTBold, Arial Rounded MT Bold;}</style></defs><title>BrianBanner</title><g id="Background"><rect class="cls-1" x="-5.5" y="-9.5" width="1402" height="797"/></g><g id="Waves"><path class="cls-2" d="M-243.47,26.57c76.52,89.61,198.64,208.74,376,292,329.7,154.77,609.35,72.48,946,60,594.8-22.05,1249.59,178.21,1254,314,8,246-2100.62,857.12-2570,152C-309.73,736-406.39,501.28-243.47,26.57Z"/><path class="cls-3" d="M-132.6,269.93c57.39,67.21,149,156.55,282,219,247.27,116.08,457,54.36,709.5,45,446.1-16.54,937.19,133.65,940.5,235.5,6,184.53-1575.47,642.84-1927.5,114C-182.29,802-254.79,626-132.6,269.93Z"/><path class="cls-4" d="M-21.74,513.28c38.27,44.81,99.33,104.37,188,146,164.86,77.39,304.68,36.24,473,30,297.4-11,624.8,89.11,627,157,4,123-1050.3,428.56-1285,76C-54.86,868-103.19,750.64-21.74,513.28Z"/></g><g id="Bars"><rect class="cls-5" x="221.37" y="-455.68" width="1270.88" height="1736.34" transform="translate(267.44 -333.78) rotate(25.99)"/><rect class="cls-5" x="630.95" y="-256.22" width="1270.88" height="1736.34" transform="translate(396.29 -493.11) rotate(25.99)"/><rect class="cls-5" x="1072.95" y="-40.22" width="1270.88" height="1736.34" transform="translate(535.66 -664.97) rotate(25.99)"/><rect class="cls-6" x="561.79" y="-248.49" width="190" height="2047.42" transform="matrix(0.41, -0.91, 0.91, 0.41, -318.54, 1059.94)"/><rect class="cls-7" x="792.4" y="-587.76" width="190" height="2047.42" transform="translate(128.21 1069.32) rotate(-66)"/></g><g id="Green"><text class="cls-8" transform="translate(-365.48 702.48) rotate(15)">B</text></g></svg>