<?xml version="1.0" encoding="UTF-8" standalone="no"?>
<!-- Generator: Adobe Illustrator 22.1.0, SVG Export Plug-In . SVG Version: 6.00 Build 0)  -->

<svg
   version="1.1"
   id="Layer_1"
   x="47px"
   y="0px"
   viewBox="47 0 238.40001 78.888888"
   height="113.6"
   xml:space="preserve"
   sodipodi:docname="okd_logo_resized.svg"
   width="238.40001"
   inkscape:version="1.1 (c4e8f9e, 2021-05-24)"
   inkscape:export-filename="/Users/brian/Documents/Projects/okd.io_new/docs/img/okdLogo.png"
   inkscape:export-xdpi="241.61"
   inkscape:export-ydpi="241.61"
   xmlns:inkscape="http://www.inkscape.org/namespaces/inkscape"
   xmlns:sodipodi="http://sodipodi.sourceforge.net/DTD/sodipodi-0.dtd"
   xmlns="http://www.w3.org/2000/svg"
   xmlns:svg="http://www.w3.org/2000/svg"><defs
   id="defs24" /><sodipodi:namedview
   id="namedview22"
   pagecolor="#ffffff"
   bordercolor="#111111"
   borderopacity="1"
   inkscape:pageshadow="0"
   inkscape:pageopacity="0"
   inkscape:pagecheckerboard="1"
   showgrid="false"
   inkscape:zoom="2.8575"
   inkscape:cx="170.25372"
   inkscape:cy="76.465442"
   inkscape:window-width="1893"
   inkscape:window-height="1003"
   inkscape:window-x="4640"
   inkscape:window-y="341"
   inkscape:window-maximized="0"
   inkscape:current-layer="Layer_1" />
<style
   type="text/css"
   id="style9">
	.st0{fill:#F22B29;}
	.st1{fill:#FFFFFF;}
</style>
<g
   id="g13"
   transform="translate(-0.5,-17.755554)">
	<path
   class="st0"
   d="m 86.4,35.3 c 10.8,0 20.1,3.8 27.7,11.3 7.7,7.5 11.5,16.7 11.5,27.5 0,10.8 -3.9,20.2 -11.6,28.1 C 106.3,110.1 97,114 86.3,114 75.8,114 66.7,110.1 59,102.2 51.3,94.4 47.5,85.1 47.5,74.4 c 0,-10.8 3.8,-20 11.3,-27.7 7.6,-7.6 16.8,-11.4 27.6,-11.4 z m -25,39.4 c 0,7 2.5,13.1 7.5,18.3 5,5.2 10.9,7.9 17.6,7.9 6.9,0 12.8,-2.6 17.8,-7.7 5,-5.1 7.5,-11.4 7.5,-18.6 0,-7.2 -2.5,-13.4 -7.5,-18.7 -5,-5.3 -10.9,-8 -17.8,-8 -6.5,0 -12.4,2.6 -17.5,8 -5,5.3 -7.6,11.5 -7.6,18.8 z"
   id="path11" />
</g>
<polygon
   class="st1"
   points="135.8,112.8 149.3,112.8 149.3,81.5 149.3,81.5 149.3,63.6 149.2,0.4 135.8,0.4 "
   id="polygon15"
   transform="translate(-0.5,-17.755554)" />
<path
   class="st1"
   d="m 199.2,90.044446 c 0,-5.9 -1.5,-11.6 -4.4,-17 -2.9,-5.4 -5.6,-9.2 -8.1,-11.3 -2.5,-2.1 -4.4,-3.5 -5.8,-4.1 l -4.4,-2.5 c 12.5,-6.4 19.6,-16 21.5,-28.7 l 1.2,-6.7 h -14.1 l -0.9,5.1 c -1.3,6.9 -5,12.7 -11.2,17.4 -4.9,3.7 -10.2,6 -15.9,6.8 v 12.7 c 6.8,0.8 12.5,3.1 17.2,6.9 6,4.8 9.5,11.6 10.4,20.3 l 0.6,6.1 h 14.2 z"
   id="path17" />
<path
   class="st1"
   d="m 271.8,-17.355554 v 51.3 20.8 c 0,8 -2.5,14.8 -7.6,20.3 -5.1,5.5 -11.2,8.3 -18.5,8.3 -7,0 -13.1,-2.5 -18,-7.6 -5,-5.1 -7.5,-11 -7.5,-17.8 0,-7.5 2.8,-13.7 8.3,-18.7 5.5,-5 12.2,-7.5 20.1,-7.5 0.6,0 1.4,0 2.4,0.1 1,0.1 2.4,0.3 4.3,0.7 2.4,0.7 5.1,1.7 8.1,3 v -14 c -3.6,-1.3 -6.6,-2.2 -8.9,-2.5 -2,-0.4 -4.4,-0.6 -7.3,-0.6 -11.8,0 -21.5,3.6 -29,10.8 -7.5,7.2 -11.3,16.6 -11.3,28.1 0,11.5 3.7,20.9 11.1,28.1 7.4,7.2 16.9,10.8 28.7,10.8 10.2,0 18.6,-2.8 25.1,-8.3 v 8.3 h 13.6 v -41.3 -21 -51.3 z"
   id="path19" />
</svg>
