<?xml version="1.0" encoding="utf-8"?>
<!-- Generator: Adobe Illustrator 16.0.0, SVG Export Plug-In . SVG Version: 6.00 Build 0)  -->
<!DOCTYPE svg PUBLIC "-//W3C//DTD SVG 1.1//EN" "http://www.w3.org/Graphics/SVG/1.1/DTD/svg11.dtd">
<svg version="1.1" id="Layer_1" xmlns="http://www.w3.org/2000/svg" xmlns:xlink="http://www.w3.org/1999/xlink" x="0px" y="0px"
	 width="216px" height="216px" viewBox="0 0 216 216" enable-background="new 0 0 216 216" xml:space="preserve">
<g>
	<g>
		<linearGradient id="SVGID_1_" gradientUnits="userSpaceOnUse" x1="79.2207" y1="81.1484" x2="132.4181" y2="134.3458">
			<stop  offset="0" style="stop-color:#E6E6E6"/>
			<stop  offset="0.5" style="stop-color:#F7F7F7"/>
			<stop  offset="1" style="stop-color:#C4C4C4"/>
		</linearGradient>
		<path fill="url(#SVGID_1_)" d="M99.891,90.868c-0.157-3.015-2.653-5.422-5.708-5.422c-3.155,0-5.723,2.567-5.723,5.723
			c0,1.134,0.336,2.189,0.907,3.08c-1.151,1.436-1.915,3.191-2.134,5.112c-0.439-0.814-1.069-1.51-1.83-2.027
			c1.713-0.177,3.059-1.612,3.059-3.371c0-1.879-1.529-3.407-3.407-3.407s-3.407,1.528-3.407,3.407c0,0.938,0.383,1.79,0.998,2.406
			c-0.149-0.012-0.299-0.023-0.451-0.023c-1.626,0-3.092,0.685-4.135,1.777c0.42-0.796,0.66-1.701,0.66-2.662
			c0-3.156-2.566-5.723-5.723-5.723c-3.155,0-5.723,2.567-5.723,5.723c0,2.39,1.474,4.439,3.559,5.295
			c-1.096,0.566-1.855,1.699-1.855,3.016c0,1.878,1.528,3.407,3.406,3.407c0.28,0,0.548-0.043,0.809-0.107
			c-0.371,0.359-0.71,0.749-1.022,1.161c-0.575-0.195-1.189-0.306-1.829-0.306c-3.156,0-5.723,2.567-5.723,5.723
			c0,2.774,1.983,5.092,4.605,5.612c-0.768,0.626-1.268,1.566-1.268,2.631c0,1.878,1.527,3.406,3.406,3.406
			c1.621,0,2.976-1.14,3.318-2.658c1.573,1.03,3.449,1.635,5.467,1.635c2.287,0,4.391-0.779,6.079-2.074
			c-0.305,0.511-0.491,1.1-0.491,1.735c0,1.878,1.528,3.406,3.406,3.406c1.879,0,3.407-1.528,3.407-3.406
			c0-1.879-1.528-3.407-3.407-3.407c-0.549,0-1.061,0.143-1.52,0.374c0.773-0.869,1.398-1.872,1.834-2.973
			c0.933,1.899,2.881,3.213,5.136,3.213c3.155,0,5.723-2.567,5.723-5.723c0-0.076-0.009-0.15-0.012-0.227
			c0.421,0.187,0.884,0.295,1.374,0.295c1.878,0,3.406-1.528,3.406-3.406c0-1.521-1.009-2.797-2.387-3.234
			c2.414-1.6,4.099-4.216,4.436-7.234c0.04-0.366,0.061-0.738,0.061-1.115C107.192,95.918,104.097,92.055,99.891,90.868z
			 M134.263,90.048c-9.698,0-17.588,7.891-17.588,17.59c0,9.698,7.89,17.588,17.588,17.588c9.699,0,17.59-7.89,17.59-17.588
			C151.853,97.938,143.962,90.048,134.263,90.048z"/>
	</g>
</g>
<path d="M134.253,125.226c-9.698,0-17.588-7.89-17.588-17.588c0-9.699,7.89-17.59,17.588-17.59c9.699,0,17.59,7.891,17.59,17.59
	C151.843,117.336,143.952,125.226,134.253,125.226z M134.253,92.048c-8.595,0-15.588,6.993-15.588,15.59
	c0,8.595,6.993,15.588,15.588,15.588c8.597,0,15.59-6.993,15.59-15.588C149.843,99.041,142.85,92.048,134.253,92.048z"/>
<path d="M132.464,129.255L132.464,129.255c-0.081-0.049-0.181-0.047-0.26,0.006l-3.946,2.672c-0.067,0.044-0.107,0.122-0.105,0.204
	s0.046,0.157,0.116,0.199l1.09,0.655c-5.627,6.238-12.958,9.674-20.771,9.674c-0.001,0-0.002,0-0.003,0
	c-8.56,0-16.746-4.254-22.462-11.671c-0.251-0.326-0.722-0.391-1.052-0.136c-0.328,0.253-0.389,0.724-0.136,1.052
	c6.001,7.788,14.621,12.255,23.649,12.255c0.002,0,0.002,0,0.003,0c8.337,0,16.144-3.69,22.081-10.386l0.997,0.6
	c0.07,0.043,0.157,0.047,0.229,0.011c0.074-0.037,0.122-0.106,0.134-0.188l0.549-4.715
	C132.588,129.396,132.545,129.304,132.464,129.255z"/>
<path d="M134.098,86.022c-5.945-9.337-15.483-14.912-25.514-14.913c-7.421,0-14.586,3.01-20.263,8.481l-1.043-0.903
	c-0.062-0.054-0.147-0.073-0.224-0.05c-0.08,0.024-0.139,0.084-0.165,0.162l-1.347,4.552c-0.026,0.088,0,0.186,0.072,0.248h0
	c0.071,0.062,0.169,0.077,0.256,0.039l4.345-1.958c0.074-0.032,0.127-0.102,0.139-0.183c0.012-0.081-0.018-0.163-0.081-0.216
	l-0.816-0.706c5.381-5.139,12.139-7.966,19.126-7.966c9.515,0.001,18.58,5.316,24.248,14.219c0.144,0.224,0.386,0.347,0.634,0.347
	c0.138,0,0.277-0.038,0.401-0.117C134.217,86.835,134.32,86.371,134.098,86.022z"/>
<g>
	<path fill="none" d="M93.49,109.805c-2.733-1.085-4.876-3.335-5.814-6.139c-0.29,0.994-0.842,1.874-1.577,2.565
		c1.905,1.418,3.293,3.49,3.818,5.886C90.753,110.939,92.021,110.09,93.49,109.805z"/>
	<path fill="none" d="M97.486,110.498c0.327,0.193,0.633,0.418,0.914,0.671c0.079-0.28,0.19-0.544,0.333-0.79
		C98.325,110.443,97.909,110.484,97.486,110.498z"/>
	<path fill="none" d="M77.114,104.714c-0.415-0.792-0.653-1.691-0.653-2.646c0-0.961,0.241-1.866,0.661-2.662
		c-0.74,0.775-1.694,1.34-2.767,1.604c0.86,0.619,1.426,1.623,1.426,2.76c0,0.634-0.186,1.222-0.489,1.731
		C75.868,105.182,76.477,104.917,77.114,104.714z"/>
	<path d="M102.687,108.848c2.414-1.6,4.099-4.216,4.435-7.234c0.041-0.366,0.062-0.738,0.062-1.115c0-4.581-3.096-8.444-7.302-9.631
		c-0.158-3.015-2.653-5.422-5.708-5.422c-3.156,0-5.723,2.567-5.723,5.723c0,1.134,0.336,2.189,0.907,3.08
		c-1.151,1.436-1.915,3.191-2.134,5.112c-0.439-0.814-1.069-1.51-1.83-2.027c1.713-0.177,3.058-1.612,3.058-3.371
		c0-1.879-1.528-3.407-3.407-3.407s-3.407,1.528-3.407,3.407c0,0.938,0.382,1.79,0.998,2.406c-0.15-0.012-0.299-0.023-0.452-0.023
		c-1.625,0-3.092,0.685-4.134,1.777c0.42-0.796,0.661-1.701,0.661-2.662c0-3.156-2.567-5.723-5.723-5.723
		c-3.155,0-5.723,2.567-5.723,5.723c0,2.39,1.474,4.439,3.559,5.295c-1.097,0.566-1.856,1.699-1.856,3.016
		c0,1.878,1.528,3.407,3.407,3.407c0.28,0,0.547-0.043,0.808-0.107c-0.371,0.359-0.71,0.749-1.022,1.161
		c-0.575-0.195-1.189-0.306-1.83-0.306c-3.155,0-5.723,2.567-5.723,5.723c0,2.774,1.984,5.092,4.606,5.612
		c-0.767,0.626-1.268,1.566-1.268,2.631c0,1.878,1.528,3.406,3.407,3.406c1.621,0,2.976-1.14,3.318-2.658
		c1.574,1.03,3.45,1.635,5.468,1.635c2.287,0,4.391-0.779,6.079-2.074c-0.305,0.511-0.491,1.1-0.491,1.735
		c0,1.878,1.528,3.406,3.407,3.406s3.407-1.528,3.407-3.406c0-1.879-1.528-3.407-3.407-3.407c-0.549,0-1.061,0.143-1.521,0.374
		c0.774-0.869,1.399-1.872,1.835-2.973c0.932,1.899,2.881,3.213,5.135,3.213c3.155,0,5.723-2.567,5.723-5.723
		c0-0.076-0.008-0.15-0.012-0.227c0.421,0.187,0.884,0.295,1.374,0.295c1.878,0,3.407-1.528,3.407-3.406
		C105.073,110.561,104.064,109.285,102.687,108.848z M85.045,92.055c1.051,0,1.907,0.855,1.907,1.907
		c0,1.051-0.855,1.906-1.907,1.906s-1.907-0.855-1.907-1.906C83.138,92.91,83.994,92.055,85.045,92.055z M101.667,113.988
		c-1.051,0-1.907-0.855-1.907-1.906c0-1.052,0.855-1.907,1.907-1.907s1.907,0.855,1.907,1.907
		C103.573,113.133,102.718,113.988,101.667,113.988z M94.582,119.643c-2.329,0-4.223-1.895-4.223-4.223s1.895-4.223,4.223-4.223
		s4.223,1.895,4.223,4.223S96.911,119.643,94.582,119.643z M73.259,121.892c0,1.051-0.855,1.906-1.907,1.906
		s-1.907-0.855-1.907-1.906c0-1.052,0.855-1.907,1.907-1.907S73.259,120.84,73.259,121.892z M66.108,113.648
		c0-2.328,1.894-4.223,4.223-4.223s4.223,1.895,4.223,4.223c0,2.329-1.895,4.224-4.223,4.224S66.108,115.978,66.108,113.648z
		 M73.038,118.948c-0.043-0.064-0.081-0.134-0.122-0.2c1.859-0.946,3.138-2.874,3.138-5.1c0-1.973-1.003-3.715-2.526-4.744
		c1.14-1.404,2.718-2.432,4.522-2.89c1.043,1.092,2.509,1.776,4.134,1.776c0.946,0,1.837-0.234,2.624-0.643
		c2.313,1.524,3.845,4.141,3.845,7.112c0,4.695-3.82,8.515-8.515,8.515c-2.157,0-4.124-0.813-5.626-2.141
		C74.226,119.917,73.701,119.33,73.038,118.948z M82.184,97.845c2.329,0,4.223,1.895,4.223,4.223s-1.894,4.223-4.223,4.223
		s-4.223-1.894-4.223-4.223S79.855,97.845,82.184,97.845z M86.099,106.231c0.735-0.691,1.287-1.571,1.577-2.565
		c0.938,2.803,3.081,5.054,5.814,6.139c-1.469,0.285-2.737,1.135-3.573,2.312C89.392,109.721,88.004,107.649,86.099,106.231z
		 M94.173,86.946c2.329,0,4.223,1.894,4.223,4.223s-1.894,4.223-4.223,4.223s-4.223-1.895-4.223-4.223S91.845,86.946,94.173,86.946z
		 M90.353,95.417c1.015,0.913,2.352,1.474,3.821,1.474c2.735,0,5.026-1.931,5.588-4.5c3.43,1.1,5.922,4.317,5.922,8.107
		c0,4.695-3.82,8.515-8.515,8.515s-8.515-3.82-8.515-8.515C88.654,98.593,89.291,96.838,90.353,95.417z M98.4,111.169
		c-0.281-0.253-0.587-0.478-0.914-0.671c0.423-0.014,0.839-0.055,1.248-0.119C98.59,110.625,98.479,110.889,98.4,111.169z
		 M72.987,91.237c2.329,0,4.223,1.895,4.223,4.223s-1.895,4.223-4.223,4.223s-4.223-1.894-4.223-4.223S70.659,91.237,72.987,91.237z
		 M74.281,103.771c0,1.051-0.855,1.907-1.907,1.907s-1.907-0.855-1.907-1.907s0.855-1.907,1.907-1.907S74.281,102.72,74.281,103.771
		z M74.355,101.011c1.073-0.265,2.026-0.83,2.767-1.604c-0.42,0.796-0.661,1.701-0.661,2.662c0,0.955,0.238,1.854,0.653,2.646
		c-0.638,0.203-1.247,0.468-1.822,0.788c0.303-0.509,0.489-1.097,0.489-1.731C75.781,102.633,75.215,101.63,74.355,101.011z
		 M89.132,125.842c-1.051,0-1.907-0.855-1.907-1.906c0-1.052,0.855-1.907,1.907-1.907s1.907,0.855,1.907,1.907
		C91.039,124.986,90.184,125.842,89.132,125.842z"/>
</g>
</svg>
