<?xml version="1.0" encoding="utf-8"?>
<!-- Generator: Adobe Illustrator 16.0.0, SVG Export Plug-In . SVG Version: 6.00 Build 0)  -->
<!DOCTYPE svg PUBLIC "-//W3C//DTD SVG 1.1//EN" "http://www.w3.org/Graphics/SVG/1.1/DTD/svg11.dtd">
<svg version="1.1" id="Layer_1" xmlns="http://www.w3.org/2000/svg" xmlns:xlink="http://www.w3.org/1999/xlink" x="0px" y="0px"
	 width="108px" height="108px" viewBox="0 0 108 108" enable-background="new 0 0 108 108" xml:space="preserve">
<g>
	<path fill="none" d="M81.847,68.01c-0.874-0.424-1.85-0.669-2.884-0.669c-3.658,0-6.633,2.976-6.633,6.634
		c0,1.521,0.519,2.919,1.384,4.039c0.457,0.593,1.008,1.107,1.638,1.517c1.04,0.679,2.279,1.077,3.611,1.077
		c3.657,0,6.633-2.976,6.633-6.633c0-1.824-0.739-3.478-1.935-4.678C83.137,68.771,82.521,68.338,81.847,68.01z"/>
	<path fill="none" d="M29.353,63.887c0-3.658-2.976-6.634-6.633-6.634c-0.373,0-0.735,0.039-1.091,0.098
		c-0.77,0.128-1.496,0.385-2.152,0.756c-2.02,1.138-3.39,3.3-3.39,5.78c0,3.657,2.976,6.633,6.633,6.633
		c0.355,0,0.702-0.036,1.043-0.091c0.77-0.122,1.499-0.371,2.157-0.736C27.964,68.562,29.353,66.385,29.353,63.887z"/>
	<path fill="none" d="M63.348,28.095c2.282,0,4.298-1.158,5.491-2.917c0.414-0.609,0.722-1.294,0.915-2.025
		c0.143-0.541,0.227-1.105,0.227-1.69c0-3.658-2.976-6.633-6.633-6.633c-2.862,0-5.299,1.825-6.228,4.37
		c-0.248,0.683-0.392,1.414-0.401,2.179c0,0.028-0.005,0.056-0.005,0.084C56.714,25.12,59.689,28.095,63.348,28.095z"/>
	<path fill="none" d="M82.566,51.594c-0.194,0.061-0.407,0.021-0.564-0.113c-0.161-0.128-0.243-0.332-0.215-0.536l1.245-9.919
		c-2.512-6.067-6.844-11.187-12.298-14.712c-1.583,2.402-4.302,3.993-7.387,3.993c-4.877,0-8.845-3.967-8.845-8.844
		c0-0.079,0.01-0.156,0.012-0.234c-0.373-0.013-0.742-0.042-1.118-0.042c-7.608,0-14.602,2.668-20.105,7.113l2.379,1.933
		c0.158,0.13,0.243,0.33,0.215,0.534c-0.021,0.206-0.146,0.384-0.332,0.473l-8.894,4.343c-3.359,5.069-5.323,11.14-5.323,17.664
		c0,0.641,0.043,1.272,0.081,1.903c0.425-0.063,0.858-0.106,1.301-0.106c4.876,0,8.844,3.968,8.844,8.845
		c0,3.272-1.792,6.131-4.444,7.659c4.244,6.072,10.517,10.626,17.845,12.626l0.292-3.376c0.02-0.202,0.138-0.383,0.322-0.477
		c0.181-0.098,0.399-0.094,0.576,0.01l8.617,4.942c6.389-0.271,12.3-2.421,17.194-5.909c-1.153-1.494-1.848-3.359-1.848-5.388
		c0-4.877,3.968-8.845,8.845-8.845c1.373,0,2.67,0.324,3.831,0.886c1.708-3.916,2.664-8.232,2.664-12.77
		c0-0.856-0.045-1.702-0.11-2.542L82.566,51.594z"/>
	<path d="M92.292,47.589l-7.709-8.528c-2.774-6.076-7.279-11.196-12.871-14.751c0.306-0.896,0.479-1.851,0.479-2.849
		c0-4.877-3.968-8.844-8.844-8.844c-4.033,0-7.436,2.715-8.496,6.411c-0.484-0.021-0.965-0.054-1.454-0.054
		c-8.302,0-15.923,2.969-21.86,7.899l-3.576-2.903c-0.159-0.129-0.373-0.168-0.566-0.106c-0.194,0.063-0.344,0.223-0.398,0.42
		l-2.969,11.319c-3.109,5.157-4.902,11.194-4.902,17.643c0,0.848,0.038,1.687,0.098,2.52c-3.143,1.356-5.35,4.484-5.35,8.121
		c0,4.876,3.968,8.844,8.844,8.844c0.793,0,1.56-0.114,2.292-0.312c4.61,6.805,11.595,11.873,19.759,13.998L44.4,90.691
		c-0.017,0.205,0.071,0.403,0.23,0.528c0.161,0.125,0.377,0.162,0.571,0.094l11.148-3.933c6.388-0.548,12.277-2.86,17.188-6.438
		c1.499,1.17,3.38,1.875,5.426,1.875c4.877,0,8.844-3.968,8.844-8.844c0-2.698-1.218-5.115-3.129-6.738
		c1.92-4.274,2.991-9.01,2.991-13.991c0-1.09-0.058-2.168-0.156-3.233l4.515-1.443c0.195-0.063,0.345-0.222,0.399-0.417
		C92.48,47.956,92.427,47.743,92.292,47.589z M56.719,21.377c0.01-0.765,0.153-1.496,0.401-2.179c0.929-2.545,3.365-4.37,6.228-4.37
		c3.657,0,6.633,2.975,6.633,6.633c0,0.585-0.084,1.149-0.227,1.69c-0.193,0.731-0.501,1.416-0.915,2.025
		c-1.193,1.759-3.209,2.917-5.491,2.917c-3.658,0-6.634-2.975-6.634-6.633C56.714,21.433,56.719,21.406,56.719,21.377z
		 M23.762,70.429c-0.341,0.055-0.688,0.091-1.043,0.091c-3.658,0-6.633-2.976-6.633-6.633c0-2.48,1.37-4.643,3.39-5.78
		c0.656-0.371,1.382-0.628,2.152-0.756c0.356-0.059,0.719-0.098,1.091-0.098c3.658,0,6.633,2.976,6.633,6.634
		c0,2.498-1.389,4.676-3.434,5.806C25.261,70.058,24.532,70.307,23.762,70.429z M85.596,73.975c0,3.657-2.976,6.633-6.633,6.633
		c-1.332,0-2.571-0.398-3.611-1.077c-0.63-0.409-1.181-0.924-1.638-1.517c-0.865-1.12-1.384-2.519-1.384-4.039
		c0-3.658,2.975-6.634,6.633-6.634c1.034,0,2.01,0.245,2.884,0.669c0.675,0.328,1.29,0.761,1.814,1.287
		C84.856,70.497,85.596,72.15,85.596,73.975z M82.794,66.016c-1.161-0.562-2.458-0.886-3.831-0.886
		c-4.877,0-8.845,3.968-8.845,8.845c0,2.028,0.694,3.894,1.848,5.388C67.072,82.851,61.161,85,54.772,85.271l-8.617-4.942
		c-0.177-0.104-0.395-0.107-0.576-0.01c-0.184,0.094-0.302,0.274-0.322,0.477l-0.292,3.376c-7.329-2-13.601-6.554-17.845-12.626
		c2.652-1.528,4.444-4.387,4.444-7.659c0-4.877-3.968-8.845-8.844-8.845c-0.443,0-0.875,0.043-1.301,0.106
		c-0.038-0.631-0.081-1.262-0.081-1.903c0-6.524,1.964-12.595,5.323-17.664l8.894-4.343c0.186-0.089,0.311-0.268,0.332-0.473
		c0.028-0.204-0.057-0.404-0.215-0.534l-2.379-1.933c5.504-4.445,12.498-7.113,20.105-7.113c0.376,0,0.745,0.029,1.118,0.042
		c-0.002,0.078-0.012,0.155-0.012,0.234c0,4.876,3.968,8.844,8.845,8.844c3.085,0,5.804-1.591,7.387-3.993
		c5.454,3.525,9.786,8.645,12.298,14.712l-1.245,9.919c-0.028,0.204,0.054,0.407,0.215,0.536c0.157,0.135,0.37,0.174,0.564,0.113
		l2.781-0.89c0.065,0.84,0.11,1.686,0.11,2.542C85.458,57.783,84.502,62.1,82.794,66.016z"/>
</g>
<path fill="none" d="M-30.063,135.999c-0.874-0.424-1.85-0.669-2.884-0.669c-3.658,0-6.633,2.976-6.633,6.634
	c0,1.521,0.519,2.919,1.384,4.039c0.457,0.593,1.008,1.107,1.638,1.517c1.04,0.679,2.279,1.077,3.611,1.077
	c3.657,0,6.633-2.976,6.633-6.633c0-1.824-0.739-3.478-1.935-4.678C-28.773,136.76-29.389,136.327-30.063,135.999z"/>
<path fill="none" d="M-82.558,131.876c0-3.658-2.976-6.634-6.634-6.634c-0.372,0-0.734,0.039-1.091,0.098
	c-0.771,0.128-1.495,0.385-2.151,0.756c-2.021,1.138-3.391,3.3-3.391,5.78c0,3.657,2.976,6.633,6.633,6.633
	c0.355,0,0.702-0.036,1.043-0.091c0.77-0.122,1.499-0.371,2.157-0.736C-83.946,136.552-82.558,134.374-82.558,131.876z"/>
<path fill="none" d="M-48.562,96.084c2.282,0,4.298-1.158,5.491-2.918c0.414-0.609,0.722-1.294,0.915-2.025
	c0.143-0.541,0.227-1.104,0.227-1.689c0-3.658-2.976-6.633-6.633-6.633c-2.862,0-5.299,1.824-6.228,4.369
	c-0.248,0.684-0.392,1.414-0.401,2.18c0,0.027-0.005,0.055-0.005,0.084C-55.196,93.109-52.221,96.084-48.562,96.084z"/>
<path fill="none" d="M-29.344,119.583c-0.194,0.061-0.407,0.021-0.564-0.113c-0.161-0.129-0.243-0.332-0.215-0.535l1.245-9.92
	c-2.512-6.067-6.844-11.187-12.298-14.712c-1.583,2.401-4.302,3.992-7.387,3.992c-4.877,0-8.845-3.967-8.845-8.844
	c0-0.079,0.01-0.156,0.013-0.234c-0.373-0.013-0.742-0.042-1.118-0.042c-7.608,0-14.602,2.669-20.105,7.113l2.38,1.933
	c0.157,0.13,0.242,0.33,0.215,0.533c-0.021,0.206-0.146,0.385-0.332,0.474l-8.895,4.343c-3.359,5.069-5.322,11.141-5.322,17.665
	c0,0.641,0.043,1.271,0.08,1.902c0.426-0.063,0.858-0.106,1.301-0.106c4.877,0,8.845,3.968,8.845,8.845
	c0,3.272-1.792,6.131-4.444,7.659c4.244,6.072,10.518,10.626,17.846,12.626l0.293-3.376c0.02-0.202,0.138-0.383,0.321-0.477
	c0.181-0.098,0.399-0.094,0.576,0.01l8.616,4.942c6.39-0.271,12.301-2.421,17.194-5.909c-1.153-1.494-1.848-3.359-1.848-5.388
	c0-4.877,3.968-8.845,8.845-8.845c1.373,0,2.67,0.324,3.831,0.886c1.708-3.916,2.664-8.232,2.664-12.77
	c0-0.856-0.045-1.702-0.11-2.542L-29.344,119.583z"/>
<linearGradient id="SVGID_1_" gradientUnits="userSpaceOnUse" x1="56.7139" y1="21.4614" x2="69.9805" y2="21.4614">
	<stop  offset="0" style="stop-color:#E6E6E6"/>
	<stop  offset="0.5031" style="stop-color:#F7F7F7"/>
	<stop  offset="1" style="stop-color:#C4C4C4"/>
</linearGradient>
<path fill="url(#SVGID_1_)" d="M56.719,21.377c0.01-0.766,0.153-1.496,0.401-2.18c0.929-2.545,3.365-4.369,6.228-4.369
	c3.657,0,6.633,2.975,6.633,6.633c0,0.585-0.084,1.148-0.227,1.689c-0.193,0.731-0.501,1.416-0.915,2.025
	c-1.193,1.76-3.209,2.918-5.491,2.918c-3.658,0-6.634-2.975-6.634-6.633C56.714,21.432,56.719,21.405,56.719,21.377z"/>
<linearGradient id="SVGID_2_" gradientUnits="userSpaceOnUse" x1="16.0859" y1="63.8867" x2="29.3525" y2="63.8867">
	<stop  offset="0" style="stop-color:#E6E6E6"/>
	<stop  offset="0.5031" style="stop-color:#F7F7F7"/>
	<stop  offset="1" style="stop-color:#C4C4C4"/>
</linearGradient>
<path fill="url(#SVGID_2_)" d="M23.762,70.429c-0.341,0.055-0.688,0.091-1.043,0.091c-3.657,0-6.633-2.976-6.633-6.633
	c0-2.48,1.37-4.643,3.391-5.78c0.656-0.371,1.381-0.628,2.151-0.756c0.356-0.059,0.719-0.098,1.091-0.098
	c3.658,0,6.634,2.976,6.634,6.634c0,2.498-1.389,4.676-3.434,5.806C25.261,70.058,24.531,70.307,23.762,70.429z"/>
<linearGradient id="SVGID_3_" gradientUnits="userSpaceOnUse" x1="72.3301" y1="73.9746" x2="85.5957" y2="73.9746">
	<stop  offset="0" style="stop-color:#E6E6E6"/>
	<stop  offset="0.5031" style="stop-color:#F7F7F7"/>
	<stop  offset="1" style="stop-color:#C4C4C4"/>
</linearGradient>
<path fill="url(#SVGID_3_)" d="M85.596,73.975c0,3.657-2.976,6.633-6.633,6.633c-1.332,0-2.571-0.398-3.611-1.077
	c-0.63-0.409-1.181-0.924-1.638-1.517c-0.865-1.12-1.384-2.519-1.384-4.039c0-3.658,2.975-6.634,6.633-6.634
	c1.034,0,2.01,0.245,2.884,0.669c0.675,0.328,1.29,0.761,1.814,1.287C84.856,70.497,85.596,72.15,85.596,73.975z"/>
</svg>
