<?xml version="1.0" encoding="utf-8"?>
<!-- Generator: Adobe Illustrator 15.0.2, SVG Export Plug-In . SVG Version: 6.00 Build 0)  -->
<!DOCTYPE svg PUBLIC "-//W3C//DTD SVG 1.1//EN" "http://www.w3.org/Graphics/SVG/1.1/DTD/svg11.dtd">
<svg version="1.1" id="Layer_1" xmlns="http://www.w3.org/2000/svg" xmlns:xlink="http://www.w3.org/1999/xlink" x="0px" y="0px"
	 width="216px" height="216px" viewBox="0 0 216 216" enable-background="new 0 0 216 216" xml:space="preserve">
<g>
	<linearGradient id="SVGID_1_" gradientUnits="userSpaceOnUse" x1="77.4121" y1="76.8438" x2="141.7271" y2="141.1587">
		<stop  offset="0" style="stop-color:#E6E6E6"/>
		<stop  offset="0.5031" style="stop-color:#F7F7F7"/>
		<stop  offset="1" style="stop-color:#C4C4C4"/>
	</linearGradient>
	<path fill="url(#SVGID_1_)" d="M133.031,70.133H86.108c-2.647,0-4.802,2.154-4.802,4.802v68.134c0,2.646,2.154,4.8,4.802,4.8
		h46.923c2.646,0,4.801-2.153,4.801-4.8V74.935C137.832,72.287,135.678,70.133,133.031,70.133z"/>
	<path d="M133.03,70.133H86.106c-2.646,0-4.8,2.154-4.8,4.802v68.134c0,2.646,2.153,4.8,4.8,4.8h46.924
		c2.647,0,4.801-2.153,4.801-4.8V74.935C137.831,72.287,135.678,70.133,133.03,70.133z M135.831,143.068
		c0,1.544-1.256,2.8-2.801,2.8H86.106c-1.545,0-2.8-1.256-2.8-2.8V74.935c0-1.545,1.255-2.802,2.8-2.802h46.924
		c1.545,0,2.801,1.257,2.801,2.802V143.068z M130.014,79.088h-7.393v-3.441c0-1.021-0.831-1.853-1.853-1.853H98.372
		c-1.023,0-1.854,0.831-1.854,1.853v3.441h-7.393c-1.599,0-2.897,1.212-2.897,2.702v58.179c0,1.49,1.299,2.702,2.897,2.702h40.889
		c1.597,0,2.897-1.212,2.897-2.702V81.79C132.911,80.3,131.61,79.088,130.014,79.088z M98.018,79.088v-3.441
		c0-0.194,0.159-0.353,0.354-0.353h22.396c0.194,0,0.353,0.158,0.353,0.353v3.441v1.5v0.681c0,0.194-0.158,0.353-0.353,0.353H98.372
		c-0.195,0-0.354-0.158-0.354-0.353v-0.681V79.088z M131.411,139.969c0,0.663-0.628,1.202-1.397,1.202H89.125
		c-0.771,0-1.397-0.539-1.397-1.202V81.79c0-0.663,0.626-1.202,1.397-1.202h7.393v0.681c0,1.021,0.831,1.853,1.854,1.853h22.396
		c1.021,0,1.853-0.831,1.853-1.853v-0.681h7.393c0.77,0,1.397,0.539,1.397,1.202V139.969z M128.965,93.232
		c0,0.414-0.335,0.75-0.749,0.75h-20.527c-0.414,0-0.75-0.336-0.75-0.75s0.336-0.75,0.75-0.75h20.527
		C128.63,92.482,128.965,92.818,128.965,93.232z M128.965,98.265c0,0.414-0.335,0.75-0.749,0.75h-20.527
		c-0.414,0-0.75-0.336-0.75-0.75s0.336-0.75,0.75-0.75h20.527C128.63,97.515,128.965,97.851,128.965,98.265z M128.965,110.05
		c0,0.414-0.335,0.75-0.749,0.75h-20.527c-0.414,0-0.75-0.336-0.75-0.75s0.336-0.75,0.75-0.75h20.527
		C128.63,109.3,128.965,109.636,128.965,110.05z M128.965,115.082c0,0.414-0.335,0.75-0.749,0.75h-20.527
		c-0.414,0-0.75-0.336-0.75-0.75s0.336-0.75,0.75-0.75h20.527C128.63,114.332,128.965,114.668,128.965,115.082z M128.965,127.191
		c0,0.414-0.335,0.75-0.749,0.75h-20.527c-0.414,0-0.75-0.336-0.75-0.75s0.336-0.75,0.75-0.75h20.527
		C128.63,126.441,128.965,126.777,128.965,127.191z M128.965,132.224c0,0.414-0.335,0.75-0.749,0.75h-20.527
		c-0.414,0-0.75-0.336-0.75-0.75s0.336-0.75,0.75-0.75h20.527C128.63,131.474,128.965,131.81,128.965,132.224z M91.729,101.015
		h10.066c0.414,0,0.75-0.336,0.75-0.75V90.2c0-0.05-0.02-0.094-0.028-0.141l1.376-2.314c0.283-0.475,0.128-1.089-0.347-1.371
		c-0.475-0.283-1.089-0.125-1.372,0.348l-1.623,2.729h-8.822c-0.413,0-0.749,0.336-0.749,0.75v10.064
		C90.98,100.679,91.316,101.015,91.729,101.015z M92.48,90.95h7.179l-2.849,4.786l-0.931-1.745
		c-0.261-0.487-0.867-0.672-1.354-0.411c-0.486,0.26-0.671,0.865-0.411,1.353l1.766,3.31c0.016,0.026,0.037,0.047,0.053,0.071
		c0.02,0.03,0.04,0.059,0.062,0.085c0.069,0.084,0.148,0.162,0.246,0.223c0.004,0.002,0.006,0.007,0.011,0.01
		c0,0.001,0.003,0.001,0.003,0.001c0.033,0.02,0.068,0.028,0.104,0.044c0.126,0.058,0.263,0.095,0.403,0.096h0.001h0.002l0,0
		c0.082,0,0.164-0.011,0.244-0.031c0.029-0.008,0.058-0.023,0.088-0.034c0.045-0.017,0.093-0.029,0.138-0.053
		c0,0,0.002-0.003,0.005-0.004c0.106-0.058,0.193-0.136,0.268-0.222c0.02-0.022,0.039-0.046,0.057-0.069
		c0.021-0.026,0.043-0.047,0.059-0.075l3.424-5.752v6.983H92.48V90.95z M101.796,123.978H91.729c-0.413,0-0.749,0.336-0.749,0.75
		v10.064c0,0.414,0.336,0.75,0.749,0.75h10.066c0.414,0,0.75-0.336,0.75-0.75v-10.064
		C102.546,124.313,102.21,123.978,101.796,123.978z M98.179,129.76l2.867-2.868v5.736L98.179,129.76z M99.632,125.478l-2.867,2.868
		l-2.868-2.868H99.632z M92.48,126.89l2.869,2.87l-2.869,2.87V126.89z M93.896,134.042l2.868-2.868l2.867,2.868H93.896z
		 M103.53,103.177c-0.482-0.273-1.091-0.105-1.364,0.374l-1.843,3.233h-8.594c-0.413,0-0.749,0.336-0.749,0.75v10.063
		c0,0.414,0.336,0.75,0.749,0.75h10.066c0.414,0,0.75-0.336,0.75-0.75v-10.063c0-0.146-0.053-0.274-0.126-0.39l1.484-2.604
		C104.178,104.062,104.009,103.45,103.53,103.177z M101.046,116.848H92.48v-8.563h6.987l-2.639,4.631l-0.934-1.899
		c-0.243-0.494-0.838-0.698-1.34-0.456c-0.494,0.243-0.697,0.843-0.455,1.339l1.766,3.593c0.019,0.041,0.05,0.072,0.074,0.109
		c0.018,0.027,0.035,0.056,0.055,0.081c0.073,0.088,0.159,0.167,0.264,0.229c0.004,0.002,0.006,0.007,0.01,0.009
		c0.05,0.028,0.104,0.044,0.156,0.063c0.025,0.009,0.05,0.023,0.075,0.031c0.086,0.023,0.175,0.036,0.263,0.036h0.002l0,0
		l0.001-0.001c0.136,0,0.27-0.035,0.402-0.093c0.013-0.005,0.024-0.003,0.037-0.009c0.007-0.004,0.012-0.011,0.019-0.015
		c0.105-0.055,0.196-0.126,0.271-0.21c0.019-0.02,0.035-0.044,0.053-0.066c0.027-0.037,0.061-0.069,0.084-0.111l3.414-5.988V116.848
		z"/>
</g>
</svg>
