<?xml version="1.0" encoding="utf-8"?>
<!-- Generator: Adobe Illustrator 18.1.0, SVG Export Plug-In . SVG Version: 6.00 Build 0)  -->
<svg version="1.1" id="Layer_1" xmlns="http://www.w3.org/2000/svg" xmlns:xlink="http://www.w3.org/1999/xlink" x="0px" y="0px"
	 viewBox="0 0 144 144" enable-background="new 0 0 144 144" xml:space="preserve">
<g>
	<linearGradient id="SVGID_1_" gradientUnits="userSpaceOnUse" x1="44.805" y1="42.6083" x2="100.7018" y2="98.505">
		<stop  offset="0" style="stop-color:#E6E6E6"/>
		<stop  offset="0.5" style="stop-color:#F7F7F7"/>
		<stop  offset="1" style="stop-color:#C4C4C4"/>
	</linearGradient>
	<path fill="url(#SVGID_1_)" d="M101.5,56.7c0-1.6-1.3-2.9-2.9-2.9h-3.3v-3.3c0-1.6-1.3-2.9-2.9-2.9h-3v-3c0-1.6-1.3-2.9-2.9-2.9
		H46.8c-1.6,0-2.9,1.3-2.9,2.9v39.7c0,1.6,1.3,2.9,2.9,2.9h2.9l0.1-0.1v3.2c0,1.6,1.3,2.9,2.9,2.9H56v3.3c0,1.6,1.3,2.9,2.9,2.9
		h39.7c1.6,0,2.9-1.3,2.9-2.9V56.7z"/>
	<path fill="#231F20" d="M108.3,73c-0.2-2-2.2-3.7-5.9-4.9V56.7c0-2-1.6-3.6-3.6-3.6h-2.5v-2.5c0-2-1.6-3.6-3.6-3.6H91
		c0.4-6.1,0-10.6-1.4-12.7c-0.7-1.1-1.6-1.4-2.2-1.4C85,32.5,82.2,35.3,79,41H65.1c-5.1-5-8.9-7-11.3-6c-1.7,0.7-2.4,2.7-2.1,6H47
		c-2,0-3.6,1.6-3.6,3.6v28.3c-3.5,1.8-5.2,3.7-5,5.8c0.2,2.1,2.3,3.5,5,4.6v1.1c0,2,1.6,3.6,3.6,3.6h2.3v2.3c0,2,1.6,3.6,3.6,3.6
		h2.5v2.5c0,2,1.6,3.6,3.6,3.6h4.6c0.3,4.7,1.5,7.2,3.7,7.5c0.1,0,0.2,0,0.3,0c2.3,0,5-2.9,7.6-7.5h10.3c4.4,4.4,7.9,6.6,10.3,6.6
		c0.5,0,0.9-0.1,1.3-0.3c0.6-0.3,1.4-0.9,1.9-2.2c0.3-1,0.4-2.5,0.2-4.2c1.8-0.2,3.2-1.7,3.2-3.6V79.2
		C105.8,77.6,108.6,75.5,108.3,73z M68.2,44.2c-0.6-0.6-1.1-1.2-1.6-1.7h20.2c1.2,0,2.1,1,2.1,2.1v2.3H70.5
		C69.7,46,68.9,45.1,68.2,44.2z M88.9,48.4c-0.1,1.5-0.3,3-0.6,4.7H75.4c-1.2-1.6-2.4-3.2-3.6-4.7H88.9z M84.6,66.7
		c-1.1-1.8-2.2-3.5-3.4-5.3h5.5c-0.4,2-0.9,4.2-1.5,6.4C85.1,67.5,84.9,67.1,84.6,66.7z M56.9,60.5v-3.7c0-1.2,1-2.1,2.1-2.1h14.8
		c1.4,1.9,2.8,3.8,4.2,5.9H56.9z M80.6,60.5c-1.4-2-2.7-4-4.1-5.9h11.6c-0.3,1.9-0.6,3.8-1.1,5.9H80.6z M72.7,53.1H59.1
		c-2,0-3.6,1.6-3.6,3.6v26.8c-1.6-0.1-3.2-0.3-4.7-0.5V50.6c0-1.2,1-2.1,2.1-2.1H69C70.2,49.9,71.5,51.5,72.7,53.1z M56.9,61.5h21.8
		c1.4,2.1,2.8,4.2,4.1,6.4c0.6,1,1.2,2,1.8,2.9c0,0,0,0,0,0.1c-1.2,4.3-2.4,8.2-3.7,11.8c-2.2,0.3-4.6,0.6-6.9,0.7
		c-6.1,0.5-11.9,0.6-17,0.2V61.5z M86,73.2c1.6,2.8,3,5.4,4.2,7.9c-2.2,0.5-4.6,0.9-7.1,1.3C84.1,79.4,85.1,76.3,86,73.2z
		 M86.7,70.3c0.8-3,1.5-6,2.1-8.8h12.1v16.2c-1,0.4-2.1,0.9-3.4,1.3c-1.6,0.6-3.4,1.1-5.3,1.5C90.7,77.3,88.8,73.8,86.7,70.3z
		 M100.9,56.7v3.7H89c0.4-2,0.8-4,1-5.9h8.7C100,54.6,100.9,55.6,100.9,56.7z M92.6,48.4c1.2,0,2.1,1,2.1,2.1v2.5h-4.5
		c0.2-1.6,0.4-3.2,0.5-4.7H92.6z M87.1,34.8c0.1,0,0.4,0,0.8,0.6c0.7,1.1,1.2,3.4,1.2,6.6c-0.6-0.6-1.5-1-2.4-1h-5.5
		C84,36.2,86.1,34.6,87.1,34.8z M54.6,37c1-0.4,3.4,0.5,7.3,4h-8.1C53.6,38.8,53.9,37.3,54.6,37z M47,42.5h16.6c0.9,0.9,2,2,3,3.2
		c0.4,0.4,0.7,0.8,1.1,1.3H52.9c-2,0-3.6,1.6-3.6,3.6v32.2c-1.8-0.3-3.2-0.7-4.4-1.1v-37C44.8,43.5,45.8,42.5,47,42.5z M40.3,78.5
		c-0.1-1,1-2.1,3-3.3v5.9C41.3,80.2,40.4,79.3,40.3,78.5z M47,86.5c-1.2,0-2.1-1-2.1-2.1v-0.6c1.4,0.4,3,0.8,4.4,1v1.7H47z
		 M52.9,92.4c-1.2,0-2.1-1-2.1-2.1V85c1.5,0.2,3,0.4,4.7,0.5v6.9H52.9z M56.9,96.5V85.6c2.1,0.1,4.4,0.2,6.7,0.2
		c3.4,0,6.9-0.1,10.5-0.4c2-0.2,4-0.4,6-0.6c-2.1,5.7-4.3,10.4-6.2,13.8H59.1C57.9,98.6,56.9,97.6,56.9,96.5z M67.6,105.6
		c-0.8-0.1-1.7-1.6-2-5.5H73C70.7,103.8,68.8,105.7,67.6,105.6z M82.3,84.5c3.1-0.4,6-1,8.7-1.6c3.1,6.5,5,11.9,5.8,15.7h-9.8
		c0,0-0.1-0.1-0.1-0.1l-0.1,0.1H76.2C78.3,94.7,80.4,89.8,82.3,84.5z M97.1,103.6c-0.2,0.7-0.6,0.8-0.7,0.9c-1,0.4-3.6-0.6-7.7-4.4
		h8.5C97.4,101.6,97.3,102.8,97.1,103.6z M100.9,96.5c0,1.1-0.8,2-1.9,2.1c-0.8-4.2-2.8-9.8-5.9-16.2c1.8-0.5,3.5-1,5-1.5
		c0.9-0.3,1.8-0.6,2.7-1V96.5z M102.4,77v-6.8c2.4,0.9,3.9,1.9,3.9,3C106.4,74.1,105.3,75.5,102.4,77z"/>
</g>
</svg>
