<?xml version="1.0" encoding="utf-8"?>
<!-- Generator: Adobe Illustrator 16.0.4, SVG Export Plug-In . SVG Version: 6.00 Build 0)  -->
<!DOCTYPE svg PUBLIC "-//W3C//DTD SVG 1.1//EN" "http://www.w3.org/Graphics/SVG/1.1/DTD/svg11.dtd">
<svg version="1.1" id="Layer_1" xmlns="http://www.w3.org/2000/svg" xmlns:xlink="http://www.w3.org/1999/xlink" x="0px" y="0px"
	 width="216px" height="216px" viewBox="0 0 216 216" enable-background="new 0 0 216 216" xml:space="preserve">
<g>
	<defs>
		<path id="SVGID_1_" d="M95.167,95.645c-1.644-0.586-3.362-0.883-5.119-0.883c-7.135,0-13.273,4.908-14.89,11.783
			c-6.375,0.235-11.747,4.662-13.167,10.932c-0.062,0.281,0.004,0.578,0.185,0.806c0.181,0.224,0.454,0.356,0.744,0.356h90.031
			c0.464,0,0.86-0.334,0.938-0.791c0.201-1.165,0.298-2.236,0.298-3.277c0-9.103-6.355-16.929-15.195-18.835
			c-2.931-9.574-11.861-16.212-21.923-16.212C106.979,79.523,98.124,86.099,95.167,95.645"/>
	</defs>
	<clipPath id="SVGID_2_">
		<use xlink:href="#SVGID_1_"  overflow="visible"/>
	</clipPath>
	
		<linearGradient id="SVGID_3_" gradientUnits="userSpaceOnUse" x1="0" y1="216.1387" x2="1" y2="216.1387" gradientTransform="matrix(47.8032 47.8032 47.8032 -47.8032 -10239.4316 10415.8105)">
		<stop  offset="0" style="stop-color:#E6E7E8"/>
		<stop  offset="0.5031" style="stop-color:#F6F6F6"/>
		<stop  offset="1" style="stop-color:#CBCCCE"/>
	</linearGradient>
	<polygon clip-path="url(#SVGID_2_)" fill="url(#SVGID_3_)" points="108.058,33.394 173.745,99.081 108.058,164.768 42.371,99.081 	
		"/>
</g>
<g>
	<defs>
		<rect id="SVGID_4_" width="216" height="216"/>
	</defs>
	<clipPath id="SVGID_5_">
		<use xlink:href="#SVGID_4_"  overflow="visible"/>
	</clipPath>
	<path clip-path="url(#SVGID_5_)" d="M138.99,95.734c-2.929-9.574-11.86-16.211-21.922-16.211c-10.088,0-18.944,6.576-21.901,16.121
		c-1.643-0.586-3.361-0.883-5.119-0.883c-7.135,0-13.273,4.909-14.89,11.784c-6.375,0.234-11.747,4.662-13.167,10.931
		c-0.062,0.28,0.004,0.578,0.186,0.805c0.181,0.225,0.453,0.357,0.743,0.357h90.031c0.464,0,0.86-0.334,0.938-0.791
		c0.2-1.164,0.298-2.236,0.298-3.277C154.188,105.468,147.831,97.64,138.99,95.734 M152.135,116.736H64.17
		c1.636-4.941,6.215-8.295,11.585-8.295h0.008l0.146,0.006c0.483,0.045,0.875-0.32,0.959-0.781
		c1.156-6.375,6.699-11.002,13.18-11.002c1.736,0,3.423,0.343,5.027,0.996c0.993,0.482,3.114,1.709,4.423,3.908
		c0.157,0.26,0.451,0.387,0.738,0.336c0.083-0.016,0.165-0.043,0.24-0.09c0.338-0.201,0.449-0.639,0.248-0.976
		c-1.127-1.891-2.729-3.137-3.949-3.877c2.47-9.157,10.782-15.536,20.293-15.536c9.14,0,17.202,5.844,19.965,14.491
		c-2.454-0.016-4.279,0.871-4.388,0.916c-0.361,0.15-0.537,0.566-0.386,0.931c0.15,0.364,0.567,0.537,0.931,0.387
		c0.027-0.012,2.541-1.012,5.4-0.539c7.964,1.721,13.694,8.76,13.694,16.959C152.285,115.266,152.236,115.979,152.135,116.736"/>
</g>
</svg>
