<?xml version="1.0" encoding="utf-8"?>
<!-- Generator: Adobe Illustrator 16.0.4, SVG Export Plug-In . SVG Version: 6.00 Build 0)  -->
<!DOCTYPE svg PUBLIC "-//W3C//DTD SVG 1.1//EN" "http://www.w3.org/Graphics/SVG/1.1/DTD/svg11.dtd">
<svg version="1.1" id="Layer_1" xmlns="http://www.w3.org/2000/svg" xmlns:xlink="http://www.w3.org/1999/xlink" x="0px" y="0px"
	 width="144px" height="144px" viewBox="0 0 144 144" enable-background="new 0 0 144 144" xml:space="preserve">
<g>
	<defs>
		<path id="SVGID_1_" d="M44.235,42.458c-1.104,0-2,0.895-2,2v55.084c0,1.105,0.896,2,2,2h55.53c1.104,0,2-0.895,2-2V44.458
			c0-1.105-0.896-2-2-2H44.235z"/>
	</defs>
	<clipPath id="SVGID_2_">
		<use xlink:href="#SVGID_1_"  overflow="visible"/>
	</clipPath>
	
		<linearGradient id="SVGID_3_" gradientUnits="userSpaceOnUse" x1="0" y1="144" x2="1" y2="144" gradientTransform="matrix(58.1351 58.1351 58.1351 -58.1351 -8328.5234 8414.3945)">
		<stop  offset="0" style="stop-color:#E6E7E8"/>
		<stop  offset="0.5" style="stop-color:#F6F6F6"/>
		<stop  offset="1" style="stop-color:#CBCCCE"/>
	</linearGradient>
	<polygon clip-path="url(#SVGID_2_)" fill="url(#SVGID_3_)" points="72,12.693 131.307,72 72,131.307 12.693,72 	"/>
</g>
<g>
	<defs>
		<rect id="SVGID_4_" width="144" height="144"/>
	</defs>
	<clipPath id="SVGID_5_">
		<use xlink:href="#SVGID_4_"  overflow="visible"/>
	</clipPath>
	<path clip-path="url(#SVGID_5_)" fill="#231F20" d="M97.336,102.542h-2c-0.553,0-1-0.447-1-1s0.447-1,1-1h2c0.553,0,1,0.447,1,1
		S97.889,102.542,97.336,102.542 M91.336,102.542h-2c-0.553,0-1-0.447-1-1s0.447-1,1-1h2c0.553,0,1,0.447,1,1
		S91.889,102.542,91.336,102.542 M85.336,102.542h-2c-0.553,0-1-0.447-1-1s0.447-1,1-1h2c0.553,0,1,0.447,1,1
		S85.889,102.542,85.336,102.542 M79.336,102.542h-2c-0.553,0-1-0.447-1-1s0.447-1,1-1h2c0.553,0,1,0.447,1,1
		S79.889,102.542,79.336,102.542 M73.336,102.542h-2c-0.552,0-1-0.447-1-1s0.448-1,1-1h2c0.553,0,1,0.447,1,1
		S73.889,102.542,73.336,102.542 M67.336,102.542h-2c-0.552,0-1-0.447-1-1s0.448-1,1-1h2c0.552,0,1,0.447,1,1
		S67.889,102.542,67.336,102.542 M61.336,102.542h-2c-0.552,0-1-0.447-1-1s0.448-1,1-1h2c0.552,0,1,0.447,1,1
		S61.889,102.542,61.336,102.542 M55.336,102.542h-2c-0.552,0-1-0.447-1-1s0.448-1,1-1h2c0.552,0,1,0.447,1,1
		S55.889,102.542,55.336,102.542 M49.336,102.542h-2c-0.552,0-1-0.447-1-1s0.448-1,1-1h2c0.552,0,1,0.447,1,1
		S49.889,102.542,49.336,102.542 M43.367,102.344c-0.146,0-0.295-0.032-0.435-0.1c-0.925-0.447-1.551-1.321-1.674-2.339
		c-0.067-0.548,0.324-1.046,0.872-1.113c0.549-0.063,1.047,0.324,1.113,0.873c0.041,0.338,0.25,0.629,0.559,0.778
		c0.498,0.24,0.706,0.838,0.465,1.336C44.095,102.136,43.738,102.344,43.367,102.344 M101.179,101.956
		c-0.256,0-0.511-0.098-0.706-0.292c-0.392-0.39-0.392-1.023-0.002-1.414c0.189-0.189,0.294-0.441,0.294-0.71v-0.427
		c0-0.553,0.447-1,1-1s1,0.447,1,1v0.429c-0.001,0.802-0.313,1.554-0.878,2.12C101.691,101.858,101.436,101.956,101.179,101.956
		 M42.235,96.786c-0.553,0-1-0.447-1-1v-2c0-0.553,0.447-1,1-1c0.552,0,1,0.447,1,1v2C43.235,96.339,42.788,96.786,42.235,96.786
		 M101.765,96.113c-0.553,0-1-0.447-1-1v-2c0-0.553,0.447-1,1-1s1,0.447,1,1v2C102.765,95.666,102.317,96.113,101.765,96.113
		 M42.235,90.786c-0.553,0-1-0.447-1-1v-2c0-0.553,0.447-1,1-1c0.552,0,1,0.447,1,1v2C43.235,90.339,42.788,90.786,42.235,90.786
		 M101.765,90.113c-0.553,0-1-0.447-1-1v-2c0-0.553,0.447-1,1-1s1,0.447,1,1v2C102.765,89.666,102.317,90.113,101.765,90.113
		 M42.235,84.786c-0.553,0-1-0.447-1-1v-2c0-0.553,0.447-1,1-1c0.552,0,1,0.447,1,1v2C43.235,84.339,42.788,84.786,42.235,84.786
		 M101.765,84.113c-0.553,0-1-0.447-1-1v-2c0-0.553,0.447-1,1-1s1,0.447,1,1v2C102.765,83.666,102.317,84.113,101.765,84.113
		 M42.235,78.786c-0.553,0-1-0.447-1-1v-2c0-0.553,0.447-1,1-1c0.552,0,1,0.447,1,1v2C43.235,78.339,42.788,78.786,42.235,78.786
		 M101.765,78.113c-0.553,0-1-0.447-1-1v-2c0-0.553,0.447-1,1-1s1,0.447,1,1v2C102.765,77.666,102.317,78.113,101.765,78.113
		 M42.235,72.786c-0.553,0-1-0.448-1-1v-2c0-0.552,0.447-1,1-1c0.552,0,1,0.448,1,1v2C43.235,72.338,42.788,72.786,42.235,72.786
		 M101.765,72.113c-0.553,0-1-0.447-1-1v-2c0-0.552,0.447-1,1-1s1,0.448,1,1v2C102.765,71.666,102.317,72.113,101.765,72.113
		 M42.235,66.786c-0.553,0-1-0.448-1-1v-2c0-0.552,0.447-1,1-1c0.552,0,1,0.448,1,1v2C43.235,66.338,42.788,66.786,42.235,66.786
		 M101.765,66.113c-0.553,0-1-0.447-1-1v-2c0-0.552,0.447-1,1-1s1,0.448,1,1v2C102.765,65.666,102.317,66.113,101.765,66.113
		 M42.235,60.786c-0.553,0-1-0.448-1-1v-2c0-0.552,0.447-1,1-1c0.552,0,1,0.448,1,1v2C43.235,60.338,42.788,60.786,42.235,60.786
		 M101.765,60.113c-0.553,0-1-0.447-1-1v-2c0-0.552,0.447-1,1-1s1,0.448,1,1v2C102.765,59.666,102.317,60.113,101.765,60.113
		 M42.235,54.786c-0.553,0-1-0.448-1-1v-2c0-0.552,0.447-1,1-1c0.552,0,1,0.448,1,1v2C43.235,54.338,42.788,54.786,42.235,54.786
		 M101.765,54.113c-0.553,0-1-0.447-1-1v-2c0-0.552,0.447-1,1-1s1,0.448,1,1v2C102.765,53.666,102.317,54.113,101.765,54.113
		 M42.235,48.786c-0.553,0-1-0.448-1-1v-2c0-0.552,0.447-1,1-1c0.552,0,1,0.448,1,1v2C43.235,48.338,42.788,48.786,42.235,48.786
		 M101.765,48.113c-0.553,0-1-0.447-1-1v-2c0-0.552,0.447-1,1-1s1,0.448,1,1v2C102.765,47.666,102.317,48.113,101.765,48.113
		 M43.768,43.513c-0.452,0-0.862-0.309-0.971-0.768c-0.129-0.537,0.203-1.077,0.74-1.205c0.228-0.055,0.463-0.082,0.699-0.082h1.529
		c0.552,0,1,0.448,1,1s-0.448,1-1,1h-1.529c-0.079,0-0.158,0.009-0.235,0.027C43.922,43.504,43.846,43.513,43.768,43.513
		 M99.765,43.458h-2c-0.553,0-1-0.448-1-1s0.447-1,1-1h2c0.553,0,1,0.448,1,1S100.317,43.458,99.765,43.458 M93.765,43.458h-2
		c-0.553,0-1-0.448-1-1s0.447-1,1-1h2c0.553,0,1,0.448,1,1S94.317,43.458,93.765,43.458 M87.765,43.458h-2c-0.553,0-1-0.448-1-1
		s0.447-1,1-1h2c0.553,0,1,0.448,1,1S88.317,43.458,87.765,43.458 M81.765,43.458h-2c-0.553,0-1-0.448-1-1s0.447-1,1-1h2
		c0.553,0,1,0.448,1,1S82.317,43.458,81.765,43.458 M75.765,43.458h-2c-0.553,0-1-0.448-1-1s0.447-1,1-1h2c0.553,0,1,0.448,1,1
		S76.317,43.458,75.765,43.458 M69.765,43.458h-2c-0.552,0-1-0.448-1-1s0.448-1,1-1h2c0.552,0,1,0.448,1,1
		S70.316,43.458,69.765,43.458 M63.765,43.458h-2c-0.552,0-1-0.448-1-1s0.448-1,1-1h2c0.552,0,1,0.448,1,1
		S64.316,43.458,63.765,43.458 M57.765,43.458h-2c-0.552,0-1-0.448-1-1s0.448-1,1-1h2c0.552,0,1,0.448,1,1
		S58.316,43.458,57.765,43.458 M51.765,43.458h-2c-0.552,0-1-0.448-1-1s0.448-1,1-1h2c0.552,0,1,0.448,1,1
		S52.316,43.458,51.765,43.458"/>
	<path clip-path="url(#SVGID_5_)" fill="#231F20" d="M93.261,73.714c-0.099-1.231-1.314-2.233-3.602-2.979v-6.906
		c0-1.215-0.988-2.204-2.204-2.204h-1.541v-1.541c0-1.215-0.988-2.204-2.205-2.204h-1.012c0.266-3.698,0-6.457-0.845-7.704
		c-0.442-0.651-0.974-0.838-1.342-0.88c-1.438-0.165-3.154,1.515-5.096,4.99h-8.447c-3.078-3.022-5.376-4.246-6.844-3.625
		c-1.039,0.441-1.459,1.666-1.266,3.625h-2.877c-1.216,0-2.205,0.989-2.205,2.205v17.164c-2.108,1.099-3.137,2.274-3.037,3.498
		c0.102,1.268,1.386,2.156,3.037,2.778v0.694c0,1.216,0.989,2.205,2.205,2.205h1.388v1.389c0,1.216,0.989,2.204,2.205,2.204h1.541
		v1.541c0,1.216,0.988,2.205,2.204,2.205h2.817c0.182,2.851,0.935,4.384,2.25,4.534c0.061,0.007,0.123,0.011,0.185,0.011
		c1.395,0,3.01-1.759,4.634-4.545h6.237c2.68,2.665,4.783,4.012,6.271,4.012c0.29,0,0.559-0.052,0.804-0.154
		c0.372-0.157,0.87-0.518,1.133-1.335c0.202-0.633,0.229-1.499,0.096-2.553c1.077-0.144,1.913-1.059,1.913-2.175V77.491
		C91.692,76.528,93.387,75.257,93.261,73.714 M68.849,56.247c-0.335-0.37-0.661-0.716-0.982-1.05h12.249
		c0.714,0,1.294,0.58,1.294,1.294v1.389H70.272C69.793,57.313,69.317,56.762,68.849,56.247 M81.427,58.791
		c-0.083,0.884-0.197,1.833-0.341,2.834h-7.845c-0.743-0.991-1.481-1.939-2.213-2.834H81.427z M78.849,69.9
		c-0.665-1.085-1.35-2.147-2.037-3.19h3.369c-0.262,1.244-0.562,2.545-0.903,3.896C79.136,70.371,78.993,70.136,78.849,69.9
		 M62.026,66.102v-2.273c0-0.713,0.58-1.293,1.293-1.293h8.986c0.848,1.137,1.696,2.329,2.54,3.566H62.026z M76.413,66.102
		c-0.823-1.231-1.659-2.423-2.492-3.566h7.029c-0.177,1.126-0.39,2.317-0.644,3.566H76.413z M71.622,61.625h-8.303
		c-1.216,0-2.204,0.989-2.204,2.204v16.28c-1-0.083-1.943-0.197-2.835-0.333V60.084c0-0.713,0.58-1.293,1.294-1.293h9.771
		C70.095,59.68,70.856,60.624,71.622,61.625 M62.026,66.71h13.234c0.842,1.254,1.674,2.547,2.483,3.868
		c0.371,0.604,0.728,1.198,1.073,1.786c-0.003,0.014-0.007,0.028-0.01,0.043c-0.709,2.608-1.461,5.009-2.228,7.184
		c-1.366,0.184-2.771,0.336-4.206,0.452c-3.682,0.298-7.221,0.335-10.348,0.129V66.71z M79.657,73.814
		c0.953,1.673,1.803,3.273,2.555,4.784c-1.357,0.305-2.802,0.571-4.308,0.801C78.534,77.576,79.124,75.695,79.657,73.814
		 M80.138,72.054c0.485-1.834,0.906-3.625,1.263-5.344h7.348v9.866c-0.587,0.26-1.263,0.522-2.039,0.788
		c-0.982,0.335-2.059,0.645-3.204,0.932C82.523,76.304,81.395,74.206,80.138,72.054 M88.748,63.829v2.273h-7.225
		c0.247-1.232,0.458-2.424,0.635-3.566h5.297C88.168,62.536,88.748,63.116,88.748,63.829 M83.709,58.791
		c0.714,0,1.294,0.58,1.294,1.293v1.541h-2.711c0.139-0.99,0.249-1.935,0.331-2.834H83.709z M80.375,50.483
		c0.065,0.008,0.262,0.03,0.488,0.364c0.445,0.657,0.707,2.04,0.739,4.025c-0.393-0.36-0.912-0.586-1.486-0.586h-3.325
		C78.487,51.392,79.719,50.408,80.375,50.483 M60.63,51.854c0.61-0.259,2.085,0.317,4.443,2.432h-4.916
		C60.008,52.949,60.177,52.046,60.63,51.854 M55.981,55.197h10.061c0.574,0.56,1.186,1.192,1.848,1.921
		c0.22,0.243,0.446,0.506,0.669,0.762h-8.985c-1.216,0-2.205,0.989-2.205,2.204v19.544c-1.069-0.196-1.958-0.418-2.682-0.656v-22.48
		C54.688,55.777,55.267,55.197,55.981,55.197 M51.95,77.056c-0.047-0.582,0.614-1.298,1.826-2.015v3.592
		C52.527,78.097,51.988,77.525,51.95,77.056 M55.981,81.92c-0.714,0-1.294-0.58-1.294-1.294v-0.384
		c0.872,0.264,1.798,0.465,2.682,0.62v1.058H55.981z M59.574,85.513c-0.714,0-1.294-0.58-1.294-1.293v-3.212
		c0.893,0.132,1.841,0.238,2.835,0.319v4.186H59.574z M62.026,87.965v-6.571c1.289,0.083,2.643,0.127,4.049,0.127
		c2.049,0,4.201-0.09,6.397-0.267c1.236-0.1,2.453-0.229,3.644-0.38c-1.283,3.464-2.587,6.291-3.772,8.385h-9.024
		C62.606,89.259,62.026,88.679,62.026,87.965 M68.523,93.518c-0.482-0.056-1.035-0.974-1.195-3.348h4.478
		C70.421,92.427,69.242,93.6,68.523,93.518 M77.448,80.692c1.87-0.269,3.653-0.595,5.31-0.974c1.892,3.95,3.06,7.229,3.536,9.54
		h-5.93c-0.019-0.019-0.037-0.037-0.057-0.056l-0.056,0.056H73.72C75.006,86.884,76.284,83.909,77.448,80.692 M86.416,92.296
		c-0.135,0.424-0.337,0.51-0.404,0.538c-0.622,0.268-2.167-0.339-4.696-2.664h5.138C86.581,91.096,86.57,91.817,86.416,92.296
		 M88.748,87.965c0,0.662-0.502,1.203-1.145,1.279c-0.48-2.542-1.722-5.957-3.559-9.831c1.086-0.278,2.111-0.578,3.056-0.899
		c0.54-0.184,1.099-0.39,1.647-0.617V87.965z M89.659,76.141v-4.123c1.474,0.532,2.34,1.175,2.39,1.794
		C92.096,74.382,91.438,75.219,89.659,76.141"/>
</g>
</svg>
