<?xml version="1.0" encoding="utf-8"?>
<!-- Generator: Adobe Illustrator 16.0.4, SVG Export Plug-In . SVG Version: 6.00 Build 0)  -->
<!DOCTYPE svg PUBLIC "-//W3C//DTD SVG 1.1//EN" "http://www.w3.org/Graphics/SVG/1.1/DTD/svg11.dtd">
<svg version="1.1" id="Layer_1" xmlns="http://www.w3.org/2000/svg" xmlns:xlink="http://www.w3.org/1999/xlink" x="0px" y="0px"
	 width="144px" height="144px" viewBox="0 0 144 144" enable-background="new 0 0 144 144" xml:space="preserve">
<g>
	<defs>
		<path id="SVGID_1_" d="M72.873,80.737c-0.053,0.059-0.102,0.114-0.154,0.173c1.749,1.945,3.312,3.79,4.82,5.575
			c7.173,8.491,11.912,14.102,23.204,14.102c15.487,0,28.128-12.382,28.564-27.764l-7.948,9.509
			c-0.079,0.095-0.196,0.149-0.32,0.149h-0.002c-0.123,0-0.241-0.056-0.32-0.151l-4.285-5.188
			c-2.204,6.73-8.544,11.365-15.688,11.365c-8.981,0-15.285-7.585-15.55-7.908l-6.107-7.917L72.873,80.737z"/>
	</defs>
	<clipPath id="SVGID_2_">
		<use xlink:href="#SVGID_1_"  overflow="visible"/>
	</clipPath>
	
		<linearGradient id="SVGID_3_" gradientUnits="userSpaceOnUse" x1="0" y1="143.8525" x2="1" y2="143.8525" gradientTransform="matrix(30.6882 30.6882 30.6882 -30.6882 -4331.5103 4483.2915)">
		<stop  offset="0" style="stop-color:#E6E7E8"/>
		<stop  offset="0.5" style="stop-color:#F6F6F6"/>
		<stop  offset="1" style="stop-color:#CBCCCE"/>
	</linearGradient>
	<polygon clip-path="url(#SVGID_2_)" fill="url(#SVGID_3_)" points="101.014,44.389 143.26,86.635 101.014,128.882 58.767,86.635 	
		"/>
</g>
<g>
	<defs>
		<path id="SVGID_4_" d="M16.357,63.236l-0.114-0.037c-0.061,0.19-0.246,0.317-0.449,0.288L8.69,62.451
			c-0.432-0.047-0.753,0.038-0.842,0.226c-0.101,0.21,0.018,0.643,0.44,1.063l14.777,17.672l14.65-17.729
			c0.445-0.451,0.562-0.885,0.46-1.094c-0.091-0.188-0.413-0.27-0.86-0.219l-7.081,1.075c-0.229,0.035-0.44-0.122-0.476-0.35
			c-0.026-0.172,0.057-0.333,0.197-0.419c3.085-4.498,8.166-7.183,13.619-7.183c8.981,0,15.286,7.585,15.551,7.908l6.107,7.917
			l6.213-8.054c0.053-0.059,0.102-0.116,0.155-0.174c-1.593-1.785-3.045-3.499-4.447-5.158
			c-7.127-8.428-12.275-14.518-23.579-14.518C31.109,43.414,20.172,51.38,16.357,63.236"/>
	</defs>
	<clipPath id="SVGID_5_">
		<use xlink:href="#SVGID_4_"  overflow="visible"/>
	</clipPath>
	
		<linearGradient id="SVGID_6_" gradientUnits="userSpaceOnUse" x1="0" y1="144.0215" x2="1" y2="144.0215" gradientTransform="matrix(33.0235 33.0235 33.0235 -33.0235 -4732.1992 4802.7305)">
		<stop  offset="0" style="stop-color:#E6E7E8"/>
		<stop  offset="0.5" style="stop-color:#F6F6F6"/>
		<stop  offset="1" style="stop-color:#CBCCCE"/>
	</linearGradient>
	<polygon clip-path="url(#SVGID_5_)" fill="url(#SVGID_6_)" points="39.673,11.487 90.599,62.413 39.673,113.339 -11.252,62.413 	
		"/>
</g>
<g>
	<defs>
		<path id="SVGID_7_" d="M77.166,57.931c-1.591,1.882-3.236,3.828-5.081,5.867L59.132,80.59c-0.272,0.333-6.577,7.918-15.558,7.918
			c-7.238,0-13.6-4.71-15.748-11.549l-4.437,5.371c-0.079,0.096-0.213,0.151-0.321,0.151c-0.123,0-0.241-0.055-0.321-0.149
			l-7.731-9.247c0.573,15.261,13.159,27.502,28.558,27.502c11.304,0,16.452-6.09,23.579-14.518c1.59-1.881,3.235-3.827,5.082-5.866
			L85.186,63.41c0.272-0.332,6.576-7.917,15.558-7.917c5.468,0,10.572,2.702,13.653,7.226l-0.118,0.081
			c0.057,0.084,0.086,0.187,0.069,0.295c-0.034,0.228-0.247,0.385-0.476,0.35l-7.096-1.077c-0.431-0.049-0.754,0.033-0.845,0.221
			c-0.103,0.209,0.015,0.643,0.435,1.065l14.675,17.758l14.751-17.643c0.448-0.449,0.567-0.882,0.467-1.092
			c-0.09-0.189-0.413-0.272-0.858-0.224l-7.087,1.034c-0.23,0.032-0.44-0.124-0.474-0.353c-0.01-0.066,0-0.13,0.021-0.191
			c-3.9-11.69-14.765-19.529-27.118-19.529C89.439,43.414,84.291,49.504,77.166,57.931"/>
	</defs>
	<clipPath id="SVGID_8_">
		<use xlink:href="#SVGID_7_"  overflow="visible"/>
	</clipPath>
	
		<linearGradient id="SVGID_9_" gradientUnits="userSpaceOnUse" x1="0" y1="144.0117" x2="1" y2="144.0117" gradientTransform="matrix(57.176 57.176 57.176 -57.176 -8188.0918 8276.1992)">
		<stop  offset="0" style="stop-color:#E6E7E8"/>
		<stop  offset="0.5" style="stop-color:#F6F6F6"/>
		<stop  offset="1" style="stop-color:#CBCCCE"/>
	</linearGradient>
	<polygon clip-path="url(#SVGID_8_)" fill="url(#SVGID_9_)" points="75.688,-17.257 164.945,72.001 75.688,161.259 -13.57,72.001 	
		"/>
</g>
<g>
	<defs>
		<path id="SVGID_10_" d="M77.539,86.485c-1.508-1.785-3.071-3.63-4.82-5.575c0.053-0.059,0.102-0.114,0.154-0.173l6.213-8.055
			l6.107,7.917c0.265,0.323,6.568,7.908,15.55,7.908c7.145,0,13.484-4.635,15.688-11.365l4.285,5.188
			c0.079,0.096,0.197,0.151,0.32,0.151h0.002c0.124,0,0.241-0.055,0.32-0.149l7.948-9.509
			c-0.437,15.382-13.077,27.764-28.564,27.764C89.451,100.587,84.712,94.977,77.539,86.485 M43.574,56.327
			c8.579,0,14.842,7.526,14.897,7.593l6.234,8.081l-6.227,8.07c-0.062,0.077-6.325,7.602-14.904,7.602
			c-7.056,0-13.236-4.715-15.105-11.491l9.863-11.938c0.642-0.646,0.875-1.437,0.594-2.018c-0.15-0.311-0.571-0.814-1.721-0.682
			l-6.069,0.921C34.096,58.604,38.678,56.327,43.574,56.327 M85.846,80.081L79.613,72l6.226-8.071
			c0.062-0.076,6.315-7.602,14.904-7.602c4.907,0,9.502,2.294,12.463,6.173l-6.32-0.959c-1.137-0.129-1.555,0.373-1.706,0.684
			c-0.279,0.581-0.047,1.372,0.568,1.989l10.048,12.16c-1.933,6.663-8.089,11.299-15.053,11.299
			C92.165,87.673,85.901,80.148,85.846,80.081 M43.574,43.414c11.304,0,16.452,6.09,23.579,14.518
			c1.402,1.659,2.854,3.373,4.447,5.158c-0.053,0.058-0.102,0.115-0.155,0.174l-6.213,8.054l-6.107-7.917
			c-0.265-0.323-6.57-7.908-15.551-7.908c-5.453,0-10.534,2.685-13.619,7.183c-0.14,0.086-0.223,0.247-0.197,0.419
			c0.036,0.228,0.247,0.385,0.476,0.35l7.081-1.075c0.447-0.051,0.769,0.031,0.86,0.219c0.102,0.209-0.015,0.643-0.46,1.094
			l-14.65,17.729L8.288,63.74c-0.422-0.42-0.541-0.853-0.44-1.063c0.089-0.188,0.41-0.273,0.842-0.226l7.104,1.036
			c0.203,0.029,0.388-0.098,0.449-0.288l0.114,0.037C20.172,51.38,31.109,43.414,43.574,43.414 M59.132,80.59l12.953-16.792
			c1.845-2.039,3.49-3.985,5.081-5.867c7.125-8.427,12.273-14.517,23.577-14.517c12.354,0,23.218,7.839,27.118,19.529
			c-0.021,0.061-0.031,0.125-0.021,0.191c0.033,0.229,0.243,0.385,0.474,0.353l7.087-1.034c0.445-0.048,0.769,0.035,0.858,0.224
			c0.101,0.21-0.019,0.643-0.467,1.092l-14.751,17.643l-14.675-17.758c-0.42-0.422-0.537-0.856-0.435-1.065
			c0.091-0.188,0.414-0.27,0.845-0.221l7.096,1.077c0.229,0.035,0.441-0.122,0.476-0.35c0.017-0.108-0.013-0.211-0.069-0.295
			l0.118-0.081c-3.081-4.524-8.186-7.226-13.653-7.226c-8.981,0-15.285,7.585-15.558,7.917L72.234,80.203
			c-1.846,2.039-3.491,3.985-5.082,5.866c-7.127,8.428-12.275,14.518-23.579,14.518c-15.399,0-27.985-12.241-28.558-27.502
			l7.731,9.247c0.08,0.095,0.198,0.149,0.321,0.149c0.108,0,0.242-0.056,0.321-0.151l4.437-5.371
			c2.148,6.839,8.51,11.549,15.748,11.549C52.555,88.508,58.86,80.923,59.132,80.59 M76.529,57.393
			c-1.378,1.629-2.807,3.311-4.371,5.07c-1.559-1.751-2.989-3.437-4.368-5.07C60.519,48.794,55.266,42.58,43.574,42.58
			c-12.703,0-23.861,8.042-27.89,20.047l-6.888-1.003c-1.133-0.123-1.553,0.381-1.701,0.693c-0.277,0.582-0.041,1.373,0.578,1.986
			l6.482,7.752c0.031,16.197,13.216,29.365,29.419,29.365c11.691,0,16.945-6.214,24.216-14.812c1.377-1.63,2.804-3.312,4.37-5.071
			c1.716,1.909,3.255,3.728,4.74,5.487c7.062,8.357,12.164,14.396,23.843,14.396c16.223,0,29.42-13.198,29.42-29.421h-0.167
			l6.411-7.668c0.645-0.642,0.883-1.433,0.604-2.015c-0.147-0.312-0.562-0.814-1.716-0.691l-6.671,0.973
			c-4.037-11.988-15.195-20.019-27.881-20.019C89.052,42.58,83.799,48.794,76.529,57.393"/>
	</defs>
	<clipPath id="SVGID_11_">
		<use xlink:href="#SVGID_10_"  overflow="visible"/>
	</clipPath>
	
		<linearGradient id="SVGID_12_" gradientUnits="userSpaceOnUse" x1="0" y1="143.9824" x2="1" y2="143.9824" gradientTransform="matrix(72.5054 72.5054 72.5054 -72.5054 -10404.8975 10474.2393)">
		<stop  offset="0" style="stop-color:#E6E7E8"/>
		<stop  offset="0.5" style="stop-color:#F6F6F6"/>
		<stop  offset="1" style="stop-color:#CBCCCE"/>
	</linearGradient>
	<polygon clip-path="url(#SVGID_11_)" fill="url(#SVGID_12_)" points="72.054,-22.656 166.711,72.001 72.054,166.657 
		-22.603,72.001 	"/>
</g>
<g>
	<defs>
		<rect id="SVGID_13_" width="144" height="144"/>
	</defs>
	<clipPath id="SVGID_14_">
		<use xlink:href="#SVGID_13_"  overflow="visible"/>
	</clipPath>
	<path clip-path="url(#SVGID_14_)" fill="#231F20" d="M64.795,72.254l-6.43-8.334c-0.055-0.067-6.318-7.593-14.896-7.593
		c-5.215,0-10.074,2.583-12.997,6.91l-0.691-0.467c3.078-4.557,8.195-7.277,13.688-7.277c8.98,0,15.285,7.585,15.549,7.908
		l6.438,8.343L64.795,72.254z"/>
	<path clip-path="url(#SVGID_14_)" fill="#231F20" d="M100.638,101.42c-11.68,0-16.782-6.039-23.842-14.396
		c-1.577-1.867-3.207-3.797-5.052-5.835l0.619-0.561c1.854,2.049,3.489,3.985,5.07,5.856c7.173,8.492,11.913,14.102,23.205,14.102
		c15.762,0,28.586-12.824,28.586-28.586h0.834C130.058,88.222,116.859,101.42,100.638,101.42"/>
	<path clip-path="url(#SVGID_14_)" fill="#231F20" d="M120.933,82.481L120.933,82.481c-0.125,0-0.243-0.057-0.32-0.152
		l-14.97-18.116c-0.615-0.617-0.849-1.409-0.568-1.989c0.15-0.31,0.568-0.813,1.706-0.684l7.111,1.079
		c0.229,0.035,0.385,0.248,0.351,0.475c-0.035,0.228-0.248,0.386-0.476,0.35l-7.097-1.077c-0.431-0.049-0.754,0.033-0.844,0.22
		c-0.103,0.211,0.014,0.645,0.434,1.067l14.675,17.757l14.751-17.644c0.448-0.447,0.567-0.88,0.468-1.091
		c-0.091-0.189-0.413-0.272-0.858-0.224l-7.088,1.034c-0.229,0.033-0.44-0.125-0.473-0.352c-0.034-0.229,0.125-0.44,0.352-0.474
		l7.103-1.035c1.154-0.123,1.568,0.38,1.718,0.691c0.276,0.583,0.04,1.373-0.605,2.015l-15.048,18
		C121.174,82.426,121.056,82.481,120.933,82.481"/>
	<path clip-path="url(#SVGID_14_)" fill="#231F20" d="M22.961,82.481c-0.124,0-0.241-0.056-0.32-0.15L7.567,64.303
		c-0.619-0.614-0.856-1.404-0.579-1.986c0.149-0.312,0.566-0.817,1.701-0.694l7.119,1.037c0.227,0.034,0.385,0.245,0.352,0.474
		c-0.033,0.227-0.247,0.382-0.473,0.352L8.584,62.45c-0.431-0.046-0.753,0.037-0.843,0.226c-0.1,0.211,0.018,0.644,0.441,1.063
		l14.777,17.672l14.649-17.729c0.446-0.45,0.562-0.884,0.461-1.094c-0.091-0.188-0.413-0.27-0.861-0.219l-7.081,1.075
		c-0.227,0.036-0.44-0.122-0.475-0.35c-0.035-0.227,0.122-0.44,0.35-0.475l7.097-1.077c1.148-0.131,1.57,0.371,1.72,0.682
		c0.281,0.581,0.048,1.373-0.593,2.018L23.284,82.329C23.205,82.425,23.086,82.481,22.961,82.481L22.961,82.481z"/>
	<path clip-path="url(#SVGID_14_)" fill="#231F20" d="M43.468,101.42c-16.222,0-29.42-13.198-29.42-29.42h0.834
		c0,15.762,12.824,28.586,28.586,28.586c11.304,0,16.453-6.09,23.578-14.518c1.591-1.881,3.236-3.827,5.081-5.867L85.08,63.41
		c0.271-0.333,6.576-7.918,15.558-7.918c5.468,0,10.57,2.702,13.652,7.226l-0.688,0.47c-2.927-4.296-7.773-6.861-12.964-6.861
		c-8.589,0-14.843,7.525-14.904,7.601L72.768,80.736c-1.857,2.055-3.498,3.995-5.084,5.871
		C60.413,95.207,55.159,101.42,43.468,101.42"/>
	<path clip-path="url(#SVGID_14_)" fill="#231F20" d="M43.468,88.507c-7.507,0-14.075-5.065-15.972-12.32l0.807-0.211
		c1.801,6.888,8.037,11.697,15.165,11.697c8.579,0,14.842-7.525,14.904-7.602l12.966-16.808c1.857-2.055,3.498-3.995,5.084-5.871
		c7.271-8.599,12.523-14.813,24.215-14.813c12.798,0,24.047,8.173,27.991,20.338l-0.794,0.257
		c-3.832-11.819-14.762-19.76-27.197-19.76c-11.305,0-16.452,6.089-23.578,14.517c-1.591,1.881-3.235,3.827-5.081,5.867
		L59.025,80.59C58.754,80.922,52.449,88.507,43.468,88.507"/>
	<path clip-path="url(#SVGID_14_)" fill="#231F20" d="M100.638,88.507c-8.981,0-15.286-7.585-15.55-7.908l-6.438-8.344l0.66-0.51
		l6.43,8.335c0.056,0.067,6.318,7.593,14.897,7.593c7.035,0,13.25-4.731,15.114-11.508l0.804,0.222
		C114.593,83.523,108.048,88.507,100.638,88.507"/>
	<path clip-path="url(#SVGID_14_)" fill="#231F20" d="M71.783,63.416c-1.709-1.904-3.248-3.724-4.737-5.485
		c-7.125-8.428-12.274-14.517-23.578-14.517c-12.465,0-23.403,7.965-27.217,19.821l-0.795-0.255
		c3.927-12.202,15.184-20.4,28.012-20.4c11.691,0,16.945,6.213,24.215,14.813c1.485,1.755,3.02,3.571,4.721,5.466L71.783,63.416z"/>
</g>
</svg>
