<?xml version="1.0" encoding="utf-8"?>
<!-- Generator: Adobe Illustrator 16.0.4, SVG Export Plug-In . SVG Version: 6.00 Build 0)  -->
<!DOCTYPE svg PUBLIC "-//W3C//DTD SVG 1.1//EN" "http://www.w3.org/Graphics/SVG/1.1/DTD/svg11.dtd">
<svg version="1.1" id="Layer_1" xmlns="http://www.w3.org/2000/svg" xmlns:xlink="http://www.w3.org/1999/xlink" x="0px" y="0px"
	 width="140px" height="140px" viewBox="0 0 140 140" enable-background="new 0 0 140 140" xml:space="preserve">
<g>
	<defs>
		<rect id="SVGID_1_" width="140" height="140"/>
	</defs>
	<clipPath id="SVGID_2_">
		<use xlink:href="#SVGID_1_"  overflow="visible"/>
	</clipPath>
	<polygon clip-path="url(#SVGID_2_)" fill="#231F20" points="78.817,59.537 107.347,31.009 108.8,32.463 80.249,61.012 	"/>
	<polygon clip-path="url(#SVGID_2_)" fill="#231F20" points="61.087,80.368 32.557,108.896 31.104,107.441 59.655,78.893 	"/>
	<g clip-path="url(#SVGID_2_)">
		<defs>
			<rect id="SVGID_3_" width="140" height="140"/>
		</defs>
		<clipPath id="SVGID_4_">
			<use xlink:href="#SVGID_3_"  overflow="visible"/>
		</clipPath>
		<path clip-path="url(#SVGID_4_)" fill="#231F20" d="M37.296,113.633c-3.018,3.019-7.911,3.019-10.929,0
			c-3.017-3.017-3.017-7.911,0-10.929c3.018-3.017,7.911-3.017,10.929,0C40.313,105.722,40.313,110.616,37.296,113.633"/>
		<path clip-path="url(#SVGID_4_)" fill="#231F20" d="M113.633,37.296c3.019-3.018,3.019-7.911,0-10.929
			c-3.017-3.017-7.911-3.017-10.929,0c-3.017,3.018-3.017,7.911,0,10.929C105.722,40.313,110.616,40.313,113.633,37.296"/>
		<polygon clip-path="url(#SVGID_4_)" fill="#231F20" points="80.463,78.817 108.991,107.347 107.537,108.8 78.988,80.249 		"/>
		<polygon clip-path="url(#SVGID_4_)" fill="#231F20" points="59.632,61.087 31.104,32.557 32.558,31.104 61.107,59.655 		"/>
		<path clip-path="url(#SVGID_4_)" fill="#231F20" d="M26.367,37.296c-3.018-3.018-3.018-7.911,0-10.929
			c3.017-3.017,7.911-3.017,10.929,0c3.017,3.018,3.017,7.911,0,10.929C34.278,40.313,29.384,40.313,26.367,37.296"/>
		<path clip-path="url(#SVGID_4_)" fill="#231F20" d="M102.704,113.633c3.019,3.019,7.911,3.019,10.929,0
			c3.018-3.017,3.018-7.911,0-10.929c-3.018-3.017-7.91-3.017-10.929,0C99.688,105.722,99.688,110.616,102.704,113.633"/>
	</g>
	<g clip-path="url(#SVGID_2_)">
		<defs>
			<path id="SVGID_5_" d="M63.154,70c0-3.775,3.071-6.846,6.846-6.846c3.776,0,6.846,3.071,6.846,6.846
				c0,3.775-3.069,6.846-6.846,6.846C66.225,76.846,63.154,73.775,63.154,70 M66.51,38.611c-0.347,0.021-0.847,0.462-1.024,0.879
				c-0.165,0.387-0.649,6.702-0.717,7.597c-2.457,0.556-4.769,1.492-6.868,2.749c-1.197-1.024-4.911-4.193-5.512-4.583
				c-0.719-0.466-1.613,0.202-1.613,0.202s-1.713,1.524-2.531,2.341c-0.817,0.817-1.986,2.199-2.216,2.46
				c-0.23,0.261-0.271,0.926-0.102,1.346c0.136,0.337,3.231,3.97,4.449,5.393c-1.56,2.333-2.709,4.96-3.359,7.779
				c-1.12,0.086-7.149,0.551-7.527,0.711c-0.416,0.178-0.857,0.677-0.88,1.025c-0.022,0.348-0.172,2.151-0.172,3.306
				c0,1.156,0.134,3.445,0.134,3.445s0.16,1.105,0.998,1.283c0.747,0.16,6.235,0.588,7.405,0.678
				c0.654,2.947,1.854,5.688,3.497,8.107c-1.14,1.331-4.406,5.159-4.545,5.505c-0.169,0.42-0.128,1.085,0.102,1.346
				c0.23,0.262,1.399,1.644,2.216,2.46c0.818,0.817,2.531,2.342,2.531,2.342s0.894,0.668,1.613,0.201
				c0.635-0.413,4.753-3.932,5.692-4.736c2.055,1.206,4.31,2.108,6.703,2.648c0.103,1.355,0.546,7.048,0.702,7.415
				c0.177,0.416,0.677,0.857,1.024,0.88c0.347,0.022,2.151,0.172,3.307,0.172c1.154,0,3.444-0.134,3.444-0.134
				s1.104-0.16,1.283-0.998c0.157-0.732,0.571-6.025,0.673-7.335c2.393-0.54,4.646-1.442,6.703-2.648
				c0.939,0.805,5.055,4.323,5.691,4.736c0.719,0.467,1.612-0.201,1.612-0.201s1.715-1.524,2.531-2.342
				c0.816-0.816,1.985-2.198,2.216-2.46c0.23-0.261,0.272-0.926,0.103-1.346c-0.141-0.346-3.405-4.174-4.546-5.505
				c1.644-2.419,2.844-5.16,3.498-8.107c1.17-0.09,6.656-0.518,7.404-0.678c0.838-0.178,0.998-1.283,0.998-1.283
				s0.134-2.289,0.134-3.445c0-1.155-0.149-2.958-0.173-3.306c-0.021-0.348-0.462-0.847-0.879-1.025
				c-0.378-0.16-6.408-0.625-7.525-0.711c-0.65-2.819-1.801-5.446-3.36-7.779c1.218-1.423,4.312-5.056,4.449-5.393
				c0.17-0.42,0.128-1.085-0.103-1.346c-0.23-0.261-1.399-1.643-2.216-2.46s-2.531-2.341-2.531-2.341s-0.894-0.668-1.612-0.202
				c-0.602,0.39-4.315,3.559-5.513,4.583c-2.1-1.257-4.412-2.193-6.868-2.749c-0.067-0.867-0.521-6.741-0.687-7.517
				c-0.179-0.838-1.283-0.997-1.283-0.997s-2.29-0.135-3.444-0.135C68.661,38.438,66.857,38.588,66.51,38.611"/>
		</defs>
		<clipPath id="SVGID_6_">
			<use xlink:href="#SVGID_5_"  overflow="visible"/>
		</clipPath>
		
			<linearGradient id="SVGID_7_" gradientUnits="userSpaceOnUse" x1="0" y1="140.002" x2="1" y2="140.002" gradientTransform="matrix(44.1767 44.1767 44.1767 -44.1767 -6136.8066 6232.873)">
			<stop  offset="0" style="stop-color:#E6E7E8"/>
			<stop  offset="0.5" style="stop-color:#F6F6F6"/>
			<stop  offset="1" style="stop-color:#CBCCCE"/>
		</linearGradient>
		<polygon clip-path="url(#SVGID_6_)" fill="url(#SVGID_7_)" points="70,6.876 133.124,70 70,133.124 6.876,70 		"/>
	</g>
	<g clip-path="url(#SVGID_2_)">
		<defs>
			<rect id="SVGID_8_" width="140" height="140"/>
		</defs>
		<clipPath id="SVGID_9_">
			<use xlink:href="#SVGID_8_"  overflow="visible"/>
		</clipPath>
		<path clip-path="url(#SVGID_9_)" fill="#221F1F" d="M69.816,102.144c-0.98,0-2.382-0.104-3.056-0.153
			c-0.13-0.01-0.229-0.017-0.287-0.021c-0.615-0.039-1.283-0.668-1.523-1.232c-0.054-0.128-0.197-0.464-0.714-7.174
			c-2.133-0.521-4.178-1.331-6.09-2.409c-1.651,1.412-4.848,4.132-5.442,4.517c-0.264,0.172-0.564,0.259-0.89,0.259
			c-0.719,0-1.32-0.433-1.386-0.483l-0.039-0.03c-0.07-0.063-1.736-1.546-2.555-2.365c-0.693-0.692-1.611-1.756-2.052-2.268
			c-0.086-0.1-0.151-0.175-0.19-0.219c-0.406-0.462-0.434-1.38-0.205-1.948c0.055-0.136,0.182-0.449,4.357-5.332
			c-1.506-2.306-2.594-4.831-3.24-7.516c-1.911-0.149-6.349-0.505-7.056-0.656c-0.974-0.208-1.37-1.209-1.452-1.768l-0.004-0.05
			c-0.006-0.095-0.136-2.319-0.136-3.479c0-0.978,0.103-2.378,0.153-3.051c0.009-0.133,0.017-0.234,0.021-0.292
			c0.038-0.614,0.668-1.283,1.232-1.523c0.13-0.055,0.469-0.199,7.288-0.723c0.637-2.56,1.678-4.973,3.1-7.187
			c-4.083-4.777-4.208-5.087-4.263-5.221c-0.229-0.568-0.201-1.487,0.205-1.948c0.039-0.044,0.104-0.119,0.19-0.219
			c0.441-0.511,1.359-1.575,2.052-2.268c0.819-0.819,2.485-2.301,2.555-2.364l0.039-0.032c0.066-0.049,0.666-0.482,1.386-0.482
			c0.326,0,0.626,0.087,0.89,0.259c0.56,0.362,3.406,2.775,5.259,4.36c1.957-1.126,4.058-1.968,6.259-2.507
			c0.529-6.887,0.673-7.226,0.728-7.356c0.24-0.564,0.908-1.194,1.523-1.233c0.057-0.003,0.157-0.01,0.287-0.02
			c0.674-0.05,2.076-0.153,3.056-0.153c1.159,0,3.384,0.13,3.479,0.135l0.05,0.005c0.559,0.081,1.56,0.478,1.768,1.452
			c0.154,0.72,0.515,5.236,0.665,7.17c2.201,0.539,4.302,1.381,6.259,2.507c1.854-1.585,4.7-3.998,5.259-4.36
			c0.265-0.172,0.564-0.259,0.891-0.259c0.719,0,1.32,0.433,1.386,0.482l0.039,0.032c0.07,0.063,1.736,1.545,2.555,2.364
			c0.696,0.696,1.616,1.762,2.059,2.275l0.184,0.212c0.407,0.462,0.435,1.38,0.204,1.948c-0.054,0.134-0.179,0.444-4.262,5.221
			c1.422,2.213,2.463,4.627,3.1,7.187c6.819,0.524,7.158,0.668,7.288,0.723c0.564,0.24,1.193,0.908,1.233,1.522
			c0.003,0.059,0.011,0.16,0.021,0.293c0.049,0.673,0.152,2.073,0.152,3.051c0,1.159-0.13,3.384-0.136,3.479l-0.006,0.049
			c-0.079,0.559-0.477,1.56-1.45,1.768c-0.708,0.151-5.146,0.507-7.057,0.656c-0.646,2.685-1.733,5.21-3.239,7.516
			c4.175,4.882,4.301,5.196,4.355,5.332c0.23,0.568,0.203,1.486-0.204,1.948l-0.184,0.212c-0.442,0.514-1.362,1.579-2.059,2.274
			c-0.818,0.819-2.484,2.302-2.555,2.365l-0.039,0.03c-0.065,0.051-0.667,0.483-1.386,0.483c-0.326,0-0.626-0.087-0.891-0.259
			c-0.595-0.386-3.792-3.104-5.441-4.517c-1.913,1.078-3.958,1.888-6.091,2.409c-0.168,2.159-0.503,6.301-0.65,6.988
			c-0.208,0.974-1.209,1.37-1.768,1.452l-0.05,0.004C73.2,102.014,70.976,102.144,69.816,102.144 M66.03,100.305
			c0.115,0.244,0.414,0.483,0.526,0.506c0.05,0.003,0.154,0.01,0.289,0.021c0.66,0.049,2.033,0.149,2.971,0.149
			c1.05,0,3.093-0.115,3.378-0.131c0.106-0.022,0.699-0.157,0.781-0.541c0.117-0.545,0.429-4.251,0.661-7.258l0.032-0.428
			l0.42-0.095c2.302-0.52,4.501-1.39,6.535-2.584l0.358-0.21l0.315,0.271c2.303,1.973,5.158,4.386,5.63,4.69
			c0.074,0.048,0.156,0.071,0.258,0.071c0.275,0,0.579-0.174,0.674-0.24c0.204-0.181,1.738-1.552,2.484-2.298
			c0.665-0.665,1.6-1.749,1.999-2.211l0.191-0.221c0.058-0.088,0.1-0.47,0.008-0.723c-0.219-0.356-1.958-2.45-4.456-5.367
			l-0.289-0.338l0.25-0.366c1.632-2.403,2.779-5.063,3.41-7.907l0.094-0.42l0.43-0.034c3.034-0.233,6.774-0.548,7.328-0.666
			c0.381-0.081,0.519-0.676,0.541-0.782c0.016-0.285,0.131-2.327,0.131-3.377c0-0.935-0.101-2.306-0.149-2.966
			c-0.01-0.138-0.018-0.243-0.021-0.304c-0.021-0.102-0.261-0.401-0.505-0.516c-0.423-0.1-3.43-0.376-7.366-0.676l-0.426-0.033
			l-0.097-0.416c-0.627-2.721-1.729-5.274-3.275-7.588l-0.245-0.366l0.287-0.335c2.957-3.455,4.189-4.981,4.359-5.255
			c0.092-0.253,0.05-0.634-0.014-0.73l-0.185-0.213c-0.4-0.463-1.335-1.546-2-2.212c-0.745-0.745-2.277-2.113-2.483-2.297
			c-0.109-0.075-0.406-0.24-0.675-0.24c-0.102,0-0.184,0.022-0.258,0.071c-0.38,0.246-2.469,1.985-5.45,4.537l-0.318,0.272
			l-0.358-0.215c-2.075-1.242-4.329-2.144-6.699-2.681l-0.418-0.095l-0.033-0.427c-0.255-3.323-0.562-6.912-0.675-7.44
			c-0.081-0.382-0.669-0.518-0.782-0.541c-0.289-0.017-2.328-0.131-3.377-0.131c-0.938,0-2.311,0.101-2.971,0.149
			c-0.135,0.01-0.239,0.018-0.299,0.022c-0.102,0.022-0.401,0.261-0.516,0.505c-0.102,0.426-0.374,3.395-0.682,7.435l-0.032,0.428
			l-0.419,0.095c-2.369,0.537-4.623,1.439-6.698,2.681L57.84,50.55l-0.318-0.272c-2.981-2.552-5.07-4.29-5.45-4.537
			c-0.075-0.049-0.157-0.071-0.258-0.071c-0.267,0-0.562,0.163-0.676,0.241c-0.208,0.185-1.738,1.552-2.482,2.296
			c-0.663,0.663-1.562,1.705-1.994,2.206c-0.089,0.103-0.157,0.182-0.197,0.227c-0.057,0.088-0.099,0.469-0.008,0.722
			c0.17,0.274,1.403,1.801,4.36,5.255l0.287,0.335l-0.245,0.366c-1.547,2.314-2.65,4.867-3.276,7.588l-0.096,0.416l-0.426,0.033
			c-3.937,0.3-6.944,0.576-7.366,0.676c-0.244,0.115-0.484,0.414-0.506,0.526c-0.003,0.051-0.011,0.156-0.021,0.294
			c-0.048,0.659-0.149,2.031-0.149,2.966c0,1.05,0.115,3.093,0.131,3.377c0.021,0.107,0.157,0.7,0.541,0.782
			c0.553,0.118,4.293,0.433,7.328,0.666l0.429,0.034l0.094,0.42c0.631,2.844,1.779,5.504,3.411,7.907l0.249,0.366l-0.289,0.338
			c-2.499,2.918-4.237,5.012-4.456,5.367c-0.091,0.253-0.049,0.635,0.014,0.729c0.034,0.038,0.102,0.117,0.191,0.22
			c0.432,0.501,1.331,1.543,1.994,2.205c0.745,0.745,2.277,2.114,2.483,2.298c0.109,0.075,0.406,0.24,0.675,0.24
			c0.101,0,0.183-0.023,0.258-0.071c0.47-0.305,3.327-2.718,5.63-4.69l0.315-0.271l0.357,0.21c2.036,1.194,4.235,2.064,6.537,2.583
			l0.419,0.096l0.032,0.428C65.665,96.989,65.93,99.885,66.03,100.305"/>
		<path clip-path="url(#SVGID_9_)" d="M70,77.947c-4.382,0-7.947-3.564-7.947-7.948c0-4.382,3.565-7.947,7.947-7.947
			s7.947,3.565,7.947,7.947C77.947,74.383,74.382,77.947,70,77.947 M70,63.154c-3.775,0-6.846,3.071-6.846,6.846
			s3.071,6.847,6.846,6.847c3.775,0,6.846-3.072,6.846-6.847S73.775,63.154,70,63.154"/>
		<g opacity="0.75" clip-path="url(#SVGID_9_)">
			<g>
				<defs>
					<rect id="SVGID_10_" x="38.438" y="38.438" width="63.124" height="63.124"/>
				</defs>
				<clipPath id="SVGID_11_">
					<use xlink:href="#SVGID_10_"  overflow="visible"/>
				</clipPath>
				<path clip-path="url(#SVGID_11_)" fill="#6E6F71" d="M101.39,66.51c-0.021-0.348-0.463-0.848-0.88-1.025
					c-0.378-0.16-6.407-0.625-7.526-0.711c-0.649-2.819-1.8-5.447-3.359-7.78c1.218-1.422,4.312-5.056,4.449-5.393
					c0.17-0.419,0.128-1.085-0.103-1.346c-0.229-0.261-1.398-1.643-2.216-2.459c-0.816-0.817-2.531-2.341-2.531-2.341
					s-0.894-0.668-1.612-0.202c-0.602,0.389-4.315,3.559-5.513,4.583c-2.099-1.257-4.412-2.193-6.868-2.75
					c-0.066-0.867-0.521-6.741-0.687-7.517c-0.179-0.837-1.283-0.997-1.283-0.997s-2.289-0.134-3.445-0.134
					c-1.155,0-2.959,0.15-3.306,0.172c-0.348,0.022-0.847,0.463-1.024,0.88c-0.165,0.387-0.649,6.702-0.717,7.596
					c-2.456,0.557-4.769,1.493-6.868,2.75c-1.197-1.024-4.911-4.194-5.512-4.583c-0.719-0.466-1.613,0.202-1.613,0.202
					s-1.714,1.524-2.531,2.341c-0.817,0.816-1.986,2.198-2.216,2.459c-0.23,0.261-0.272,0.927-0.102,1.346
					c0.136,0.337,3.231,3.971,4.449,5.393c-1.56,2.333-2.71,4.961-3.359,7.78c-1.119,0.086-7.149,0.551-7.527,0.711
					c-0.417,0.177-0.858,0.677-0.88,1.025c-0.022,0.347-0.172,2.151-0.172,3.306c0,1.155,0.134,3.445,0.134,3.445
					s0.16,1.104,0.998,1.282c0.748,0.16,6.235,0.588,7.405,0.678c0.654,2.947,1.854,5.688,3.497,8.106
					c-1.14,1.332-4.405,5.16-4.545,5.506c-0.17,0.421-0.128,1.085,0.102,1.347c0.23,0.261,1.399,1.643,2.216,2.46
					c0.817,0.816,2.531,2.341,2.531,2.341s0.894,0.667,1.613,0.202c0.636-0.413,4.753-3.934,5.692-4.737
					c2.056,1.206,4.31,2.108,6.702,2.649c0.104,1.354,0.547,7.048,0.703,7.415c0.177,0.416,0.676,0.856,1.024,0.879
					c0.347,0.021,2.151,0.173,3.306,0.173c1.156,0,3.445-0.135,3.445-0.135s1.104-0.16,1.283-0.997
					c0.157-0.733,0.571-6.026,0.672-7.335c2.394-0.541,4.647-1.443,6.703-2.649c0.939,0.804,5.056,4.324,5.692,4.737
					c0.719,0.465,1.612-0.202,1.612-0.202s1.715-1.524,2.531-2.341c0.817-0.817,1.986-2.199,2.216-2.46
					c0.23-0.262,0.272-0.926,0.103-1.347c-0.141-0.346-3.405-4.174-4.545-5.506c1.643-2.418,2.843-5.159,3.497-8.106
					c1.17-0.09,6.656-0.518,7.404-0.678c0.838-0.179,0.998-1.282,0.998-1.282s0.134-2.29,0.134-3.445
					C101.562,68.662,101.412,66.857,101.39,66.51 M70,76.847c-3.775,0-6.846-3.071-6.846-6.847c0-3.774,3.071-6.847,6.846-6.847
					c3.775,0,6.846,3.072,6.846,6.847C76.846,73.775,73.775,76.847,70,76.847"/>
			</g>
		</g>
	</g>
</g>
</svg>
