<?xml version="1.0" encoding="utf-8"?>
<!-- Generator: Adobe Illustrator 16.0.4, SVG Export Plug-In . SVG Version: 6.00 Build 0)  -->
<!DOCTYPE svg PUBLIC "-//W3C//DTD SVG 1.1//EN" "http://www.w3.org/Graphics/SVG/1.1/DTD/svg11.dtd">
<svg version="1.1" id="Layer_1" xmlns="http://www.w3.org/2000/svg" xmlns:xlink="http://www.w3.org/1999/xlink" x="0px" y="0px"
	 width="144px" height="144px" viewBox="0 0 144 144" enable-background="new 0 0 144 144" xml:space="preserve">
<g>
	<defs>
		<path id="SVGID_1_" d="M47.488,16.697l-13.434,5.332c-0.981,0.389-1.624,1.338-1.624,2.393v78.041h79.14V24.394
			c0-1.047-0.612-1.998-1.566-2.43l-11.617-5.267H47.488z"/>
	</defs>
	<clipPath id="SVGID_2_">
		<use xlink:href="#SVGID_1_"  overflow="visible"/>
	</clipPath>
	
		<linearGradient id="SVGID_3_" gradientUnits="userSpaceOnUse" x1="0" y1="144.0215" x2="1" y2="144.0215" gradientTransform="matrix(79.1244 79.1244 79.1244 -79.1244 -11361.4189 11417.249)">
		<stop  offset="0" style="stop-color:#E6E7E8"/>
		<stop  offset="0.5" style="stop-color:#F6F6F6"/>
		<stop  offset="1" style="stop-color:#CBCCCE"/>
	</linearGradient>
	<polygon clip-path="url(#SVGID_2_)" fill="url(#SVGID_3_)" points="72,-22.873 154.453,59.58 72,142.033 -10.453,59.58 	"/>
</g>
<g>
	<defs>
		<rect id="SVGID_4_" width="144" height="144"/>
	</defs>
	<clipPath id="SVGID_5_">
		<use xlink:href="#SVGID_4_"  overflow="visible"/>
	</clipPath>
	<polygon clip-path="url(#SVGID_5_)" fill="#231F20" points="76.29,57.644 90.17,43.765 90.877,44.472 76.986,58.361 	"/>
	<polygon clip-path="url(#SVGID_5_)" fill="#231F20" points="67.664,67.779 53.784,81.657 53.077,80.95 66.967,67.062 	"/>
	<path clip-path="url(#SVGID_5_)" fill="#231F20" d="M56.089,83.963c-1.468,1.468-3.849,1.468-5.317,0
		c-1.468-1.468-1.468-3.849,0-5.317c1.468-1.468,3.849-1.468,5.317,0C57.557,80.114,57.557,82.495,56.089,83.963"/>
	<path clip-path="url(#SVGID_5_)" fill="#231F20" d="M93.229,46.823c1.468-1.468,1.468-3.849,0-5.317
		c-1.468-1.468-3.85-1.468-5.317,0c-1.468,1.468-1.468,3.849,0,5.317C89.379,48.291,91.761,48.291,93.229,46.823"/>
	<path clip-path="url(#SVGID_5_)" fill="#231F20" d="M113.121,24.689c0-1.589-0.937-3.041-2.385-3.698l-11.938-5.412H47.119
		l-13.736,5.452c-1.521,0.603-2.504,2.05-2.504,3.687v78.374v1.468v19.688c0,2.302,1.818,4.174,4.052,4.174h74.139
		c2.234,0,4.052-1.872,4.052-4.174V104.56v-1.468V24.689z M47.648,18.342h50.554l11.017,4.995H35.064L47.648,18.342z
		 M110.357,124.247c0,0.778-0.576,1.411-1.288,1.411H34.931c-0.711,0-1.289-0.633-1.289-1.411V104.56
		c0-0.777,0.578-1.411,1.289-1.411h74.139c0.712,0,1.288,0.634,1.288,1.411V124.247z M110.357,100.621
		c-0.406-0.143-0.835-0.237-1.288-0.237H34.931c-0.453,0-0.882,0.095-1.289,0.237V26.1h76.716V100.621z"/>
	<path clip-path="url(#SVGID_5_)" fill="#6D6E70" d="M110.357,124.247c0,0.778-0.576,1.411-1.288,1.411H34.931
		c-0.711,0-1.289-0.633-1.289-1.411V104.56c0-0.777,0.578-1.411,1.289-1.411h74.139c0.712,0,1.288,0.634,1.288,1.411V124.247z"/>
	<path clip-path="url(#SVGID_5_)" fill="#231F20" d="M66.47,60.684h-1.005c-0.276,0-0.5-0.223-0.5-0.5c0-0.276,0.224-0.5,0.5-0.5
		h1.005c0.277,0,0.5,0.224,0.5,0.5C66.97,60.461,66.747,60.684,66.47,60.684 M63.454,60.684h-1.005c-0.277,0-0.5-0.223-0.5-0.5
		c0-0.276,0.223-0.5,0.5-0.5h1.005c0.276,0,0.5,0.224,0.5,0.5C63.954,60.461,63.73,60.684,63.454,60.684 M60.438,60.684h-1.005
		c-0.277,0-0.5-0.223-0.5-0.5c0-0.276,0.223-0.5,0.5-0.5h1.005c0.276,0,0.5,0.224,0.5,0.5
		C60.938,60.461,60.714,60.684,60.438,60.684 M57.422,60.684h-1.005c-0.277,0-0.5-0.223-0.5-0.5c0-0.276,0.223-0.5,0.5-0.5h1.005
		c0.276,0,0.5,0.224,0.5,0.5C57.922,60.461,57.698,60.684,57.422,60.684 M54.406,60.684H53.4c-0.276,0-0.5-0.223-0.5-0.5
		c0-0.276,0.224-0.5,0.5-0.5h1.006c0.276,0,0.5,0.224,0.5,0.5C54.906,60.461,54.682,60.684,54.406,60.684 M51.39,60.684h-1.005
		c-0.277,0-0.5-0.223-0.5-0.5c0-0.276,0.223-0.5,0.5-0.5h1.005c0.276,0,0.5,0.224,0.5,0.5C51.89,60.461,51.666,60.684,51.39,60.684
		 M48.374,60.684h-1.005c-0.277,0-0.5-0.223-0.5-0.5c0-0.276,0.223-0.5,0.5-0.5h1.005c0.276,0,0.5,0.224,0.5,0.5
		C48.874,60.461,48.65,60.684,48.374,60.684 M45.358,60.684h-1.005c-0.277,0-0.5-0.223-0.5-0.5c0-0.276,0.223-0.5,0.5-0.5h1.005
		c0.276,0,0.5,0.224,0.5,0.5C45.858,60.461,45.634,60.684,45.358,60.684 M42.342,60.684h-1.006c-0.276,0-0.5-0.223-0.5-0.5
		c0-0.276,0.224-0.5,0.5-0.5h1.006c0.276,0,0.5,0.224,0.5,0.5C42.842,60.461,42.618,60.684,42.342,60.684 M39.326,60.684h-0.999
		c-0.276,0-0.503-0.223-0.503-0.5c0-0.276,0.22-0.5,0.497-0.5h1.005c0.276,0,0.5,0.224,0.5,0.5
		C39.826,60.461,39.602,60.684,39.326,60.684 M68.48,60.682c-0.263,0-0.483-0.205-0.499-0.471c-0.016-0.275,0.195-0.512,0.47-0.528
		c0.182-0.011,0.351-0.108,0.452-0.261c0.152-0.231,0.462-0.295,0.693-0.141c0.23,0.152,0.293,0.462,0.141,0.693
		c-0.274,0.414-0.733,0.678-1.227,0.707C68.5,60.682,68.49,60.682,68.48,60.682 M37.243,59.286c-0.276,0-0.5-0.223-0.5-0.5v-1.005
		c0-0.277,0.224-0.5,0.5-0.5c0.277,0,0.5,0.223,0.5,0.5v1.005C37.743,59.063,37.52,59.286,37.243,59.286 M69.5,58.223
		c-0.276,0-0.5-0.223-0.5-0.5v-1.005c0-0.277,0.224-0.5,0.5-0.5s0.5,0.223,0.5,0.5v1.005C70,58,69.776,58.223,69.5,58.223
		 M37.243,56.27c-0.276,0-0.5-0.224-0.5-0.5v-1.005c0-0.277,0.224-0.5,0.5-0.5c0.277,0,0.5,0.223,0.5,0.5v1.005
		C37.743,56.046,37.52,56.27,37.243,56.27 M69.5,55.207c-0.276,0-0.5-0.224-0.5-0.5v-1.005c0-0.277,0.224-0.5,0.5-0.5
		s0.5,0.223,0.5,0.5v1.005C70,54.983,69.776,55.207,69.5,55.207 M37.243,53.254c-0.276,0-0.5-0.224-0.5-0.5v-1.005
		c0-0.277,0.224-0.5,0.5-0.5c0.277,0,0.5,0.223,0.5,0.5v1.005C37.743,53.03,37.52,53.254,37.243,53.254 M69.5,52.191
		c-0.276,0-0.5-0.224-0.5-0.5v-1.005c0-0.277,0.224-0.5,0.5-0.5s0.5,0.223,0.5,0.5v1.005C70,51.967,69.776,52.191,69.5,52.191
		 M37.243,50.238c-0.276,0-0.5-0.223-0.5-0.5v-1.005c0-0.276,0.224-0.5,0.5-0.5c0.277,0,0.5,0.224,0.5,0.5v1.005
		C37.743,50.015,37.52,50.238,37.243,50.238 M69.5,49.175c-0.276,0-0.5-0.224-0.5-0.5v-1.006c0-0.276,0.224-0.5,0.5-0.5
		s0.5,0.224,0.5,0.5v1.006C70,48.951,69.776,49.175,69.5,49.175 M37.243,47.222c-0.276,0-0.5-0.223-0.5-0.5v-1.005
		c0-0.277,0.224-0.5,0.5-0.5c0.277,0,0.5,0.223,0.5,0.5v1.005C37.743,46.999,37.52,47.222,37.243,47.222 M69.5,46.159
		c-0.276,0-0.5-0.224-0.5-0.5v-1.006c0-0.276,0.224-0.5,0.5-0.5s0.5,0.224,0.5,0.5v1.006C70,45.935,69.776,46.159,69.5,46.159
		 M37.243,44.206c-0.276,0-0.5-0.224-0.5-0.5v-1.005c0-0.277,0.224-0.5,0.5-0.5c0.277,0,0.5,0.223,0.5,0.5v1.005
		C37.743,43.982,37.52,44.206,37.243,44.206 M69.5,43.143c-0.276,0-0.5-0.224-0.5-0.5v-1.006c0-0.276,0.224-0.5,0.5-0.5
		s0.5,0.224,0.5,0.5v1.006C70,42.919,69.776,43.143,69.5,43.143 M37.243,41.19c-0.276,0-0.5-0.224-0.5-0.5v-1.005
		c0-0.277,0.224-0.5,0.5-0.5c0.277,0,0.5,0.223,0.5,0.5v1.005C37.743,40.966,37.52,41.19,37.243,41.19 M69.5,40.127
		c-0.276,0-0.5-0.224-0.5-0.5v-1.006c0-0.276,0.224-0.5,0.5-0.5s0.5,0.224,0.5,0.5v1.006C70,39.903,69.776,40.127,69.5,40.127
		 M37.243,38.174c-0.276,0-0.5-0.224-0.5-0.5v-1.005c0-0.277,0.224-0.5,0.5-0.5c0.277,0,0.5,0.223,0.5,0.5v1.005
		C37.743,37.95,37.52,38.174,37.243,38.174 M69.5,37.111c-0.276,0-0.5-0.224-0.5-0.5v-1.005c0-0.277,0.224-0.5,0.5-0.5
		s0.5,0.223,0.5,0.5v1.005C70,36.887,69.776,37.111,69.5,37.111 M37.243,35.158c-0.276,0-0.5-0.224-0.5-0.5v-1.006
		c0-0.276,0.224-0.5,0.5-0.5c0.277,0,0.5,0.224,0.5,0.5v1.006C37.743,34.934,37.52,35.158,37.243,35.158 M69.5,34.095
		c-0.276,0-0.5-0.224-0.5-0.5v-1.006c0-0.276,0.224-0.5,0.5-0.5s0.5,0.224,0.5,0.5v1.006C70,33.871,69.776,34.095,69.5,34.095
		 M37.243,32.142c-0.276,0-0.5-0.224-0.5-0.5v-1.006c0-0.276,0.224-0.5,0.5-0.5c0.277,0,0.5,0.224,0.5,0.5v1.006
		C37.743,31.918,37.52,32.142,37.243,32.142 M69.5,31.079c-0.276,0-0.5-0.224-0.5-0.5v-1.006c0-0.276,0.224-0.5,0.5-0.5
		s0.5,0.224,0.5,0.5v1.006C70,30.855,69.776,31.079,69.5,31.079 M37.419,29.161c-0.093,0-0.188-0.026-0.272-0.081
		c-0.231-0.151-0.297-0.46-0.146-0.692c0.27-0.416,0.728-0.684,1.223-0.716c0.269-0.016,0.513,0.191,0.531,0.468
		c0.017,0.275-0.191,0.513-0.467,0.53c-0.182,0.012-0.35,0.11-0.45,0.263C37.743,29.081,37.583,29.161,37.419,29.161 M68.429,28.669
		h-1.018c-0.276,0-0.5-0.224-0.5-0.5s0.224-0.5,0.5-0.5h1.006c0.276,0,0.506,0.224,0.506,0.5S68.706,28.669,68.429,28.669
		 M65.4,28.669h-1.005c-0.276,0-0.5-0.224-0.5-0.5s0.224-0.5,0.5-0.5H65.4c0.277,0,0.5,0.224,0.5,0.5S65.677,28.669,65.4,28.669
		 M62.384,28.669h-1.005c-0.276,0-0.5-0.224-0.5-0.5s0.224-0.5,0.5-0.5h1.005c0.277,0,0.5,0.224,0.5,0.5
		S62.661,28.669,62.384,28.669 M59.368,28.669h-1.005c-0.277,0-0.5-0.224-0.5-0.5s0.223-0.5,0.5-0.5h1.005
		c0.277,0,0.5,0.224,0.5,0.5S59.645,28.669,59.368,28.669 M56.353,28.669h-1.006c-0.276,0-0.5-0.224-0.5-0.5s0.224-0.5,0.5-0.5
		h1.006c0.276,0,0.5,0.224,0.5,0.5S56.629,28.669,56.353,28.669 M53.336,28.669h-1.005c-0.276,0-0.5-0.224-0.5-0.5
		s0.224-0.5,0.5-0.5h1.005c0.277,0,0.5,0.224,0.5,0.5S53.613,28.669,53.336,28.669 M50.32,28.669h-1.005c-0.276,0-0.5-0.224-0.5-0.5
		s0.224-0.5,0.5-0.5h1.005c0.277,0,0.5,0.224,0.5,0.5S50.597,28.669,50.32,28.669 M47.304,28.669h-1.005c-0.277,0-0.5-0.224-0.5-0.5
		s0.223-0.5,0.5-0.5h1.005c0.277,0,0.5,0.224,0.5,0.5S47.581,28.669,47.304,28.669 M44.288,28.669h-1.005
		c-0.277,0-0.5-0.224-0.5-0.5s0.223-0.5,0.5-0.5h1.005c0.276,0,0.5,0.224,0.5,0.5S44.564,28.669,44.288,28.669 M41.272,28.669
		h-1.005c-0.277,0-0.5-0.224-0.5-0.5s0.223-0.5,0.5-0.5h1.005c0.276,0,0.5,0.224,0.5,0.5S41.548,28.669,41.272,28.669"/>
	<path clip-path="url(#SVGID_5_)" fill="#231F20" d="M103.728,60.684h-1.006c-0.276,0-0.5-0.223-0.5-0.5c0-0.276,0.224-0.5,0.5-0.5
		h1.006c0.276,0,0.5,0.224,0.5,0.5C104.228,60.461,104.004,60.684,103.728,60.684 M100.711,60.684h-1.005
		c-0.276,0-0.5-0.223-0.5-0.5c0-0.276,0.224-0.5,0.5-0.5h1.005c0.276,0,0.5,0.224,0.5,0.5
		C101.211,60.461,100.987,60.684,100.711,60.684 M97.695,60.684H96.69c-0.276,0-0.5-0.223-0.5-0.5c0-0.276,0.224-0.5,0.5-0.5h1.005
		c0.276,0,0.5,0.224,0.5,0.5C98.195,60.461,97.972,60.684,97.695,60.684 M94.68,60.684h-1.006c-0.276,0-0.5-0.223-0.5-0.5
		c0-0.276,0.224-0.5,0.5-0.5h1.006c0.276,0,0.5,0.224,0.5,0.5C95.18,60.461,94.956,60.684,94.68,60.684 M91.663,60.684h-1.005
		c-0.276,0-0.5-0.223-0.5-0.5c0-0.276,0.224-0.5,0.5-0.5h1.005c0.276,0,0.5,0.224,0.5,0.5
		C92.163,60.461,91.939,60.684,91.663,60.684 M88.647,60.684h-1.006c-0.276,0-0.5-0.223-0.5-0.5c0-0.276,0.224-0.5,0.5-0.5h1.006
		c0.276,0,0.5,0.224,0.5,0.5C89.147,60.461,88.924,60.684,88.647,60.684 M85.631,60.684h-1.005c-0.276,0-0.5-0.223-0.5-0.5
		c0-0.276,0.224-0.5,0.5-0.5h1.005c0.276,0,0.5,0.224,0.5,0.5C86.131,60.461,85.907,60.684,85.631,60.684 M82.615,60.684h-1.006
		c-0.276,0-0.5-0.223-0.5-0.5c0-0.276,0.224-0.5,0.5-0.5h1.006c0.276,0,0.5,0.224,0.5,0.5
		C83.115,60.461,82.892,60.684,82.615,60.684 M79.599,60.684h-1.005c-0.276,0-0.5-0.223-0.5-0.5c0-0.276,0.224-0.5,0.5-0.5h1.005
		c0.276,0,0.5,0.224,0.5,0.5C80.099,60.461,79.875,60.684,79.599,60.684 M76.583,60.684h-0.999c-0.276,0-0.503-0.223-0.503-0.5
		c0-0.276,0.221-0.5,0.497-0.5h1.005c0.276,0,0.5,0.224,0.5,0.5C77.083,60.461,76.859,60.684,76.583,60.684 M105.738,60.682
		c-0.263,0-0.483-0.204-0.499-0.47c-0.017-0.275,0.193-0.512,0.469-0.529c0.185-0.011,0.351-0.107,0.454-0.263
		c0.152-0.23,0.464-0.292,0.692-0.139c0.23,0.153,0.293,0.463,0.14,0.693c-0.274,0.413-0.732,0.678-1.226,0.707
		C105.757,60.682,105.748,60.682,105.738,60.682 M74.5,59.287c-0.276,0-0.5-0.224-0.5-0.5v-1.006c0-0.276,0.224-0.5,0.5-0.5
		s0.5,0.224,0.5,0.5v1.006C75,59.063,74.776,59.287,74.5,59.287 M106.757,58.222c-0.276,0-0.5-0.223-0.5-0.5v-1.005
		c0-0.276,0.224-0.5,0.5-0.5s0.5,0.224,0.5,0.5v1.005C107.257,57.999,107.033,58.222,106.757,58.222 M74.5,56.271
		c-0.276,0-0.5-0.224-0.5-0.5v-1.006c0-0.276,0.224-0.5,0.5-0.5s0.5,0.224,0.5,0.5v1.006C75,56.047,74.776,56.271,74.5,56.271
		 M106.757,55.207c-0.276,0-0.5-0.224-0.5-0.5v-1.006c0-0.276,0.224-0.5,0.5-0.5s0.5,0.224,0.5,0.5v1.006
		C107.257,54.983,107.033,55.207,106.757,55.207 M74.5,53.254c-0.276,0-0.5-0.223-0.5-0.5v-1.005c0-0.276,0.224-0.5,0.5-0.5
		s0.5,0.224,0.5,0.5v1.005C75,53.031,74.776,53.254,74.5,53.254 M106.757,52.19c-0.276,0-0.5-0.223-0.5-0.5v-1.005
		c0-0.276,0.224-0.5,0.5-0.5s0.5,0.224,0.5,0.5v1.005C107.257,51.967,107.033,52.19,106.757,52.19 M74.5,50.239
		c-0.276,0-0.5-0.224-0.5-0.5v-1.006c0-0.276,0.224-0.5,0.5-0.5s0.5,0.224,0.5,0.5v1.006C75,50.015,74.776,50.239,74.5,50.239
		 M106.757,49.174c-0.276,0-0.5-0.223-0.5-0.5v-1.005c0-0.276,0.224-0.5,0.5-0.5s0.5,0.224,0.5,0.5v1.005
		C107.257,48.951,107.033,49.174,106.757,49.174 M74.5,47.223c-0.276,0-0.5-0.224-0.5-0.5v-1.006c0-0.276,0.224-0.5,0.5-0.5
		s0.5,0.224,0.5,0.5v1.006C75,46.999,74.776,47.223,74.5,47.223 M106.757,46.158c-0.276,0-0.5-0.223-0.5-0.5v-1.005
		c0-0.276,0.224-0.5,0.5-0.5s0.5,0.224,0.5,0.5v1.005C107.257,45.935,107.033,46.158,106.757,46.158 M74.5,44.207
		c-0.276,0-0.5-0.224-0.5-0.5v-1.006c0-0.276,0.224-0.5,0.5-0.5s0.5,0.224,0.5,0.5v1.006C75,43.983,74.776,44.207,74.5,44.207
		 M106.757,43.142c-0.276,0-0.5-0.223-0.5-0.5v-1.005c0-0.277,0.224-0.5,0.5-0.5s0.5,0.223,0.5,0.5v1.005
		C107.257,42.919,107.033,43.142,106.757,43.142 M74.5,41.19c-0.276,0-0.5-0.223-0.5-0.5v-1.005c0-0.276,0.224-0.5,0.5-0.5
		s0.5,0.224,0.5,0.5v1.005C75,40.967,74.776,41.19,74.5,41.19 M106.757,40.126c-0.276,0-0.5-0.224-0.5-0.5v-1.005
		c0-0.277,0.224-0.5,0.5-0.5s0.5,0.223,0.5,0.5v1.005C107.257,39.902,107.033,40.126,106.757,40.126 M74.5,38.174
		c-0.276,0-0.5-0.223-0.5-0.5v-1.005c0-0.276,0.224-0.5,0.5-0.5s0.5,0.224,0.5,0.5v1.005C75,37.951,74.776,38.174,74.5,38.174
		 M106.757,37.11c-0.276,0-0.5-0.224-0.5-0.5v-1.005c0-0.276,0.224-0.5,0.5-0.5s0.5,0.224,0.5,0.5v1.005
		C107.257,36.886,107.033,37.11,106.757,37.11 M74.5,35.158c-0.276,0-0.5-0.223-0.5-0.5v-1.005c0-0.276,0.224-0.5,0.5-0.5
		s0.5,0.224,0.5,0.5v1.005C75,34.935,74.776,35.158,74.5,35.158 M106.757,34.094c-0.276,0-0.5-0.223-0.5-0.5v-1.005
		c0-0.276,0.224-0.5,0.5-0.5s0.5,0.224,0.5,0.5v1.005C107.257,33.871,107.033,34.094,106.757,34.094 M74.5,32.142
		c-0.276,0-0.5-0.223-0.5-0.5v-1.005c0-0.277,0.224-0.5,0.5-0.5s0.5,0.223,0.5,0.5v1.005C75,31.919,74.776,32.142,74.5,32.142
		 M106.757,31.078c-0.276,0-0.5-0.223-0.5-0.5v-1.005c0-0.277,0.224-0.5,0.5-0.5s0.5,0.223,0.5,0.5v1.005
		C107.257,30.855,107.033,31.078,106.757,31.078 M74.674,29.161c-0.094,0-0.189-0.027-0.274-0.083
		c-0.23-0.152-0.294-0.462-0.143-0.693c0.273-0.414,0.73-0.68,1.224-0.713c0.248-0.01,0.513,0.191,0.531,0.467
		c0.018,0.275-0.19,0.513-0.467,0.531c-0.185,0.013-0.35,0.109-0.454,0.266C74.996,29.082,74.837,29.161,74.674,29.161
		 M105.686,28.669h-1.018c-0.276,0-0.5-0.224-0.5-0.5s0.224-0.5,0.5-0.5h1.005c0.276,0,0.506,0.224,0.506,0.5
		S105.962,28.669,105.686,28.669 M102.657,28.669h-1.006c-0.276,0-0.5-0.224-0.5-0.5s0.224-0.5,0.5-0.5h1.006
		c0.276,0,0.5,0.224,0.5,0.5S102.934,28.669,102.657,28.669 M99.641,28.669h-1.005c-0.276,0-0.5-0.224-0.5-0.5s0.224-0.5,0.5-0.5
		h1.005c0.276,0,0.5,0.224,0.5,0.5S99.917,28.669,99.641,28.669 M96.625,28.669h-1.006c-0.276,0-0.5-0.224-0.5-0.5
		s0.224-0.5,0.5-0.5h1.006c0.276,0,0.5,0.224,0.5,0.5S96.901,28.669,96.625,28.669 M93.608,28.669h-1.005
		c-0.276,0-0.5-0.224-0.5-0.5s0.224-0.5,0.5-0.5h1.005c0.276,0,0.5,0.224,0.5,0.5S93.885,28.669,93.608,28.669 M90.593,28.669
		h-1.006c-0.276,0-0.5-0.224-0.5-0.5s0.224-0.5,0.5-0.5h1.006c0.276,0,0.5,0.224,0.5,0.5S90.869,28.669,90.593,28.669
		 M87.576,28.669h-1.005c-0.276,0-0.5-0.224-0.5-0.5s0.224-0.5,0.5-0.5h1.005c0.276,0,0.5,0.224,0.5,0.5
		S87.853,28.669,87.576,28.669 M84.561,28.669h-1.005c-0.276,0-0.5-0.224-0.5-0.5s0.224-0.5,0.5-0.5h1.005
		c0.276,0,0.5,0.224,0.5,0.5S84.837,28.669,84.561,28.669 M81.545,28.669h-1.006c-0.276,0-0.5-0.224-0.5-0.5s0.224-0.5,0.5-0.5
		h1.006c0.276,0,0.5,0.224,0.5,0.5S81.821,28.669,81.545,28.669 M78.528,28.669h-1.005c-0.276,0-0.5-0.224-0.5-0.5
		s0.224-0.5,0.5-0.5h1.005c0.276,0,0.5,0.224,0.5,0.5S78.805,28.669,78.528,28.669"/>
	<path clip-path="url(#SVGID_5_)" fill="#231F20" d="M38.32,97.708c-0.277,0-0.5-0.224-0.5-0.5c0-0.226,0.15-0.417,0.355-0.479
		l0.152-0.022h0.998c0.277,0,0.5,0.224,0.5,0.5s-0.223,0.5-0.5,0.5L38.32,97.708z M66.47,97.707h-1.006c-0.276,0-0.5-0.224-0.5-0.5
		s0.224-0.5,0.5-0.5h1.006c0.276,0,0.5,0.224,0.5,0.5S66.746,97.707,66.47,97.707 M63.454,97.707h-1.006c-0.276,0-0.5-0.224-0.5-0.5
		s0.224-0.5,0.5-0.5h1.006c0.276,0,0.5,0.224,0.5,0.5S63.73,97.707,63.454,97.707 M60.438,97.707h-1.006c-0.276,0-0.5-0.224-0.5-0.5
		s0.224-0.5,0.5-0.5h1.006c0.276,0,0.5,0.224,0.5,0.5S60.714,97.707,60.438,97.707 M57.422,97.707h-1.005
		c-0.277,0-0.5-0.224-0.5-0.5s0.223-0.5,0.5-0.5h1.005c0.276,0,0.5,0.224,0.5,0.5S57.698,97.707,57.422,97.707 M54.406,97.707H53.4
		c-0.276,0-0.5-0.224-0.5-0.5s0.224-0.5,0.5-0.5h1.006c0.276,0,0.5,0.224,0.5,0.5S54.682,97.707,54.406,97.707 M51.39,97.707h-1.006
		c-0.276,0-0.5-0.224-0.5-0.5s0.224-0.5,0.5-0.5h1.006c0.276,0,0.5,0.224,0.5,0.5S51.666,97.707,51.39,97.707 M48.374,97.707h-1.006
		c-0.276,0-0.5-0.224-0.5-0.5s0.224-0.5,0.5-0.5h1.006c0.276,0,0.5,0.224,0.5,0.5S48.65,97.707,48.374,97.707 M45.357,97.707h-1.005
		c-0.276,0-0.5-0.224-0.5-0.5s0.224-0.5,0.5-0.5h1.005c0.277,0,0.5,0.224,0.5,0.5S45.634,97.707,45.357,97.707 M42.341,97.707
		h-1.005c-0.276,0-0.5-0.224-0.5-0.5s0.224-0.5,0.5-0.5h1.005c0.277,0,0.5,0.224,0.5,0.5S42.618,97.707,42.341,97.707 M68.48,97.705
		c-0.263,0-0.483-0.205-0.499-0.471c-0.016-0.275,0.195-0.513,0.47-0.528c0.182-0.011,0.351-0.108,0.452-0.262
		c0.152-0.229,0.462-0.293,0.694-0.141c0.23,0.152,0.293,0.463,0.14,0.693c-0.274,0.414-0.733,0.679-1.227,0.707
		C68.5,97.705,68.49,97.705,68.48,97.705 M37.243,96.309c-0.276,0-0.5-0.224-0.5-0.5v-1.005c0-0.276,0.224-0.5,0.5-0.5
		c0.277,0,0.5,0.224,0.5,0.5v1.005C37.743,96.085,37.52,96.309,37.243,96.309 M69.5,95.246c-0.276,0-0.5-0.224-0.5-0.5V93.74
		c0-0.276,0.224-0.5,0.5-0.5s0.5,0.224,0.5,0.5v1.006C70,95.022,69.776,95.246,69.5,95.246 M37.243,93.293
		c-0.276,0-0.5-0.224-0.5-0.5v-1.006c0-0.276,0.224-0.5,0.5-0.5c0.277,0,0.5,0.224,0.5,0.5v1.006
		C37.743,93.069,37.52,93.293,37.243,93.293 M69.5,92.23c-0.276,0-0.5-0.224-0.5-0.5v-1.006c0-0.276,0.224-0.5,0.5-0.5
		s0.5,0.224,0.5,0.5v1.006C70,92.007,69.776,92.23,69.5,92.23 M37.243,90.276c-0.276,0-0.5-0.224-0.5-0.5v-1.005
		c0-0.276,0.224-0.5,0.5-0.5c0.277,0,0.5,0.224,0.5,0.5v1.005C37.743,90.053,37.52,90.276,37.243,90.276 M69.5,89.214
		c-0.276,0-0.5-0.224-0.5-0.5v-1.005c0-0.276,0.224-0.5,0.5-0.5s0.5,0.224,0.5,0.5v1.005C70,88.99,69.776,89.214,69.5,89.214
		 M37.243,87.261c-0.276,0-0.5-0.224-0.5-0.5v-1.006c0-0.276,0.224-0.5,0.5-0.5c0.277,0,0.5,0.224,0.5,0.5v1.006
		C37.743,87.037,37.52,87.261,37.243,87.261 M69.5,86.198c-0.276,0-0.5-0.224-0.5-0.5v-1.006c0-0.276,0.224-0.5,0.5-0.5
		s0.5,0.224,0.5,0.5v1.006C70,85.975,69.776,86.198,69.5,86.198 M37.243,84.244c-0.276,0-0.5-0.224-0.5-0.5v-1.005
		c0-0.277,0.224-0.5,0.5-0.5c0.277,0,0.5,0.223,0.5,0.5v1.005C37.743,84.021,37.52,84.244,37.243,84.244 M69.5,83.182
		c-0.276,0-0.5-0.224-0.5-0.5v-1.005c0-0.276,0.224-0.5,0.5-0.5s0.5,0.224,0.5,0.5v1.005C70,82.958,69.776,83.182,69.5,83.182
		 M37.243,81.229c-0.276,0-0.5-0.224-0.5-0.5v-1.006c0-0.276,0.224-0.5,0.5-0.5c0.277,0,0.5,0.224,0.5,0.5v1.006
		C37.743,81.005,37.52,81.229,37.243,81.229 M69.5,80.166c-0.276,0-0.5-0.224-0.5-0.5V78.66c0-0.276,0.224-0.5,0.5-0.5
		s0.5,0.224,0.5,0.5v1.006C70,79.942,69.776,80.166,69.5,80.166 M37.243,78.213c-0.276,0-0.5-0.225-0.5-0.5v-1.006
		c0-0.276,0.224-0.5,0.5-0.5c0.277,0,0.5,0.224,0.5,0.5v1.006C37.743,77.988,37.52,78.213,37.243,78.213 M69.5,77.149
		c-0.276,0-0.5-0.224-0.5-0.5v-1.005c0-0.276,0.224-0.5,0.5-0.5s0.5,0.224,0.5,0.5v1.005C70,76.926,69.776,77.149,69.5,77.149
		 M37.243,75.196c-0.276,0-0.5-0.224-0.5-0.5v-1.005c0-0.276,0.224-0.5,0.5-0.5c0.277,0,0.5,0.224,0.5,0.5v1.005
		C37.743,74.973,37.52,75.196,37.243,75.196 M69.5,74.134c-0.276,0-0.5-0.224-0.5-0.5v-1.006c0-0.275,0.224-0.5,0.5-0.5
		s0.5,0.225,0.5,0.5v1.006C70,73.91,69.776,74.134,69.5,74.134 M37.243,72.181c-0.276,0-0.5-0.224-0.5-0.5v-1.006
		c0-0.276,0.224-0.5,0.5-0.5c0.277,0,0.5,0.224,0.5,0.5v1.006C37.743,71.957,37.52,72.181,37.243,72.181 M69.5,71.117
		c-0.276,0-0.5-0.223-0.5-0.5v-1.005c0-0.276,0.224-0.5,0.5-0.5s0.5,0.224,0.5,0.5v1.005C70,70.895,69.776,71.117,69.5,71.117
		 M37.243,69.165c-0.276,0-0.5-0.224-0.5-0.5v-1.006c0-0.276,0.224-0.5,0.5-0.5c0.277,0,0.5,0.224,0.5,0.5v1.006
		C37.743,68.94,37.52,69.165,37.243,69.165 M69.5,68.102c-0.276,0-0.5-0.223-0.5-0.5v-1.005c0-0.277,0.224-0.5,0.5-0.5
		s0.5,0.223,0.5,0.5v1.005C70,67.878,69.776,68.102,69.5,68.102 M37.419,66.184c-0.093,0-0.188-0.026-0.272-0.081
		c-0.231-0.151-0.297-0.46-0.146-0.692c0.27-0.416,0.728-0.684,1.223-0.716c0.269-0.021,0.513,0.192,0.531,0.468
		c0.017,0.275-0.191,0.513-0.467,0.53c-0.182,0.012-0.35,0.11-0.45,0.263C37.743,66.104,37.583,66.184,37.419,66.184 M68.43,65.691
		h-1.019c-0.276,0-0.5-0.224-0.5-0.5s0.224-0.5,0.5-0.5h1.006c0.276,0,0.506,0.224,0.506,0.5S68.706,65.691,68.43,65.691
		 M65.4,65.691h-1.005c-0.276,0-0.5-0.224-0.5-0.5s0.224-0.5,0.5-0.5H65.4c0.277,0,0.5,0.224,0.5,0.5S65.677,65.691,65.4,65.691
		 M62.384,65.691h-1.005c-0.276,0-0.5-0.224-0.5-0.5s0.224-0.5,0.5-0.5h1.005c0.277,0,0.5,0.224,0.5,0.5
		S62.661,65.691,62.384,65.691 M59.368,65.691h-1.005c-0.277,0-0.5-0.224-0.5-0.5s0.223-0.5,0.5-0.5h1.005
		c0.277,0,0.5,0.224,0.5,0.5S59.645,65.691,59.368,65.691 M56.353,65.691h-1.006c-0.276,0-0.5-0.224-0.5-0.5s0.224-0.5,0.5-0.5
		h1.006c0.276,0,0.5,0.224,0.5,0.5S56.629,65.691,56.353,65.691 M53.336,65.691h-1.005c-0.276,0-0.5-0.224-0.5-0.5
		s0.224-0.5,0.5-0.5h1.005c0.277,0,0.5,0.224,0.5,0.5S53.613,65.691,53.336,65.691 M50.32,65.691h-1.005c-0.276,0-0.5-0.224-0.5-0.5
		s0.224-0.5,0.5-0.5h1.005c0.277,0,0.5,0.224,0.5,0.5S50.597,65.691,50.32,65.691 M47.304,65.691h-1.005c-0.277,0-0.5-0.224-0.5-0.5
		s0.223-0.5,0.5-0.5h1.005c0.277,0,0.5,0.224,0.5,0.5S47.581,65.691,47.304,65.691 M44.288,65.691h-1.005
		c-0.277,0-0.5-0.224-0.5-0.5s0.223-0.5,0.5-0.5h1.005c0.276,0,0.5,0.224,0.5,0.5S44.564,65.691,44.288,65.691 M41.272,65.691
		h-1.005c-0.277,0-0.5-0.224-0.5-0.5s0.223-0.5,0.5-0.5h1.005c0.276,0,0.5,0.224,0.5,0.5S41.548,65.691,41.272,65.691"/>
	<path clip-path="url(#SVGID_5_)" fill="#231F20" d="M103.728,97.707h-1.006c-0.276,0-0.5-0.224-0.5-0.5s0.224-0.5,0.5-0.5h1.006
		c0.276,0,0.5,0.224,0.5,0.5S104.004,97.707,103.728,97.707 M100.711,97.707h-1.005c-0.276,0-0.5-0.224-0.5-0.5s0.224-0.5,0.5-0.5
		h1.005c0.276,0,0.5,0.224,0.5,0.5S100.987,97.707,100.711,97.707 M97.695,97.707h-1.006c-0.276,0-0.5-0.224-0.5-0.5
		s0.224-0.5,0.5-0.5h1.006c0.276,0,0.5,0.224,0.5,0.5S97.972,97.707,97.695,97.707 M94.679,97.707h-1.005
		c-0.276,0-0.5-0.224-0.5-0.5s0.224-0.5,0.5-0.5h1.005c0.276,0,0.5,0.224,0.5,0.5S94.955,97.707,94.679,97.707 M91.663,97.707
		h-1.006c-0.276,0-0.5-0.224-0.5-0.5s0.224-0.5,0.5-0.5h1.006c0.276,0,0.5,0.224,0.5,0.5S91.939,97.707,91.663,97.707
		 M88.646,97.707h-1.005c-0.276,0-0.5-0.224-0.5-0.5s0.224-0.5,0.5-0.5h1.005c0.276,0,0.5,0.224,0.5,0.5
		S88.923,97.707,88.646,97.707 M85.631,97.707h-1.005c-0.276,0-0.5-0.224-0.5-0.5s0.224-0.5,0.5-0.5h1.005
		c0.276,0,0.5,0.224,0.5,0.5S85.907,97.707,85.631,97.707 M82.615,97.707h-1.006c-0.276,0-0.5-0.224-0.5-0.5s0.224-0.5,0.5-0.5
		h1.006c0.276,0,0.5,0.224,0.5,0.5S82.892,97.707,82.615,97.707 M79.599,97.707h-1.005c-0.276,0-0.5-0.224-0.5-0.5
		s0.224-0.5,0.5-0.5h1.005c0.276,0,0.5,0.224,0.5,0.5S79.875,97.707,79.599,97.707 M76.583,97.707h-0.999
		c-0.276,0-0.504-0.224-0.504-0.5s0.221-0.5,0.497-0.5h1.006c0.276,0,0.5,0.224,0.5,0.5S76.859,97.707,76.583,97.707
		 M105.738,97.705c-0.264,0-0.483-0.205-0.499-0.471c-0.017-0.275,0.194-0.513,0.47-0.528c0.185-0.011,0.349-0.106,0.452-0.263
		c0.154-0.229,0.465-0.293,0.693-0.141c0.229,0.152,0.293,0.463,0.141,0.693c-0.274,0.414-0.733,0.68-1.228,0.708
		C105.757,97.705,105.748,97.705,105.738,97.705 M74.5,96.31c-0.276,0-0.5-0.224-0.5-0.5v-1.006c0-0.276,0.224-0.5,0.5-0.5
		s0.5,0.224,0.5,0.5v1.006C75,96.086,74.776,96.31,74.5,96.31 M106.757,95.245c-0.276,0-0.5-0.224-0.5-0.5V93.74
		c0-0.276,0.224-0.5,0.5-0.5s0.5,0.224,0.5,0.5v1.005C107.257,95.021,107.033,95.245,106.757,95.245 M74.5,93.293
		c-0.276,0-0.5-0.224-0.5-0.5v-1.005c0-0.276,0.224-0.5,0.5-0.5s0.5,0.224,0.5,0.5v1.005C75,93.069,74.776,93.293,74.5,93.293
		 M106.757,92.229c-0.276,0-0.5-0.224-0.5-0.5v-1.006c0-0.276,0.224-0.5,0.5-0.5s0.5,0.224,0.5,0.5v1.006
		C107.257,92.006,107.033,92.229,106.757,92.229 M74.5,90.277c-0.276,0-0.5-0.224-0.5-0.5v-1.006c0-0.276,0.224-0.5,0.5-0.5
		s0.5,0.224,0.5,0.5v1.006C75,90.054,74.776,90.277,74.5,90.277 M106.757,89.214c-0.276,0-0.5-0.224-0.5-0.5v-1.006
		c0-0.276,0.224-0.5,0.5-0.5s0.5,0.224,0.5,0.5v1.006C107.257,88.99,107.033,89.214,106.757,89.214 M74.5,87.261
		c-0.276,0-0.5-0.224-0.5-0.5v-1.005c0-0.276,0.224-0.5,0.5-0.5s0.5,0.224,0.5,0.5v1.005C75,87.037,74.776,87.261,74.5,87.261
		 M106.757,86.197c-0.276,0-0.5-0.224-0.5-0.5v-1.005c0-0.276,0.224-0.5,0.5-0.5s0.5,0.224,0.5,0.5v1.005
		C107.257,85.974,107.033,86.197,106.757,86.197 M74.5,84.245c-0.276,0-0.5-0.224-0.5-0.5v-1.006c0-0.277,0.224-0.5,0.5-0.5
		s0.5,0.223,0.5,0.5v1.006C75,84.021,74.776,84.245,74.5,84.245 M106.757,83.182c-0.276,0-0.5-0.224-0.5-0.5v-1.006
		c0-0.276,0.224-0.5,0.5-0.5s0.5,0.224,0.5,0.5v1.006C107.257,82.958,107.033,83.182,106.757,83.182 M74.5,81.229
		c-0.276,0-0.5-0.224-0.5-0.5v-1.005c0-0.276,0.224-0.5,0.5-0.5s0.5,0.224,0.5,0.5v1.005C75,81.005,74.776,81.229,74.5,81.229
		 M106.757,80.165c-0.276,0-0.5-0.224-0.5-0.5V78.66c0-0.276,0.224-0.5,0.5-0.5s0.5,0.224,0.5,0.5v1.005
		C107.257,79.941,107.033,80.165,106.757,80.165 M74.5,78.213c-0.276,0-0.5-0.224-0.5-0.5v-1.005c0-0.276,0.224-0.5,0.5-0.5
		s0.5,0.224,0.5,0.5v1.005C75,77.989,74.776,78.213,74.5,78.213 M106.757,77.149c-0.276,0-0.5-0.224-0.5-0.5v-1.006
		c0-0.276,0.224-0.5,0.5-0.5s0.5,0.224,0.5,0.5v1.006C107.257,76.926,107.033,77.149,106.757,77.149 M74.5,75.197
		c-0.276,0-0.5-0.224-0.5-0.5v-1.006c0-0.276,0.224-0.5,0.5-0.5s0.5,0.224,0.5,0.5v1.006C75,74.974,74.776,75.197,74.5,75.197
		 M106.757,74.133c-0.276,0-0.5-0.224-0.5-0.5v-1.005c0-0.276,0.224-0.5,0.5-0.5s0.5,0.224,0.5,0.5v1.005
		C107.257,73.909,107.033,74.133,106.757,74.133 M74.5,72.181c-0.276,0-0.5-0.223-0.5-0.5v-1.005c0-0.276,0.224-0.5,0.5-0.5
		s0.5,0.224,0.5,0.5v1.005C75,71.958,74.776,72.181,74.5,72.181 M106.757,71.117c-0.276,0-0.5-0.224-0.5-0.5v-1.006
		c0-0.276,0.224-0.5,0.5-0.5s0.5,0.224,0.5,0.5v1.006C107.257,70.894,107.033,71.117,106.757,71.117 M74.5,69.165
		c-0.276,0-0.5-0.223-0.5-0.5v-1.005c0-0.277,0.224-0.5,0.5-0.5s0.5,0.223,0.5,0.5v1.005C75,68.941,74.776,69.165,74.5,69.165
		 M106.757,68.102c-0.276,0-0.5-0.224-0.5-0.5v-1.006c0-0.276,0.224-0.5,0.5-0.5s0.5,0.224,0.5,0.5v1.006
		C107.257,67.877,107.033,68.102,106.757,68.102 M74.674,66.184c-0.094,0-0.189-0.027-0.274-0.083
		c-0.23-0.152-0.294-0.462-0.143-0.693c0.273-0.414,0.73-0.68,1.224-0.713c0.248-0.012,0.513,0.191,0.531,0.467
		c0.018,0.275-0.19,0.513-0.467,0.531c-0.185,0.013-0.35,0.109-0.454,0.266C74.996,66.104,74.837,66.184,74.674,66.184
		 M105.687,65.691h-1.019c-0.276,0-0.5-0.224-0.5-0.5s0.224-0.5,0.5-0.5h1.005c0.276,0,0.507,0.224,0.507,0.5
		S105.963,65.691,105.687,65.691 M102.657,65.691h-1.006c-0.276,0-0.5-0.224-0.5-0.5s0.224-0.5,0.5-0.5h1.006
		c0.276,0,0.5,0.224,0.5,0.5S102.934,65.691,102.657,65.691 M99.641,65.691h-1.005c-0.276,0-0.5-0.224-0.5-0.5s0.224-0.5,0.5-0.5
		h1.005c0.276,0,0.5,0.224,0.5,0.5S99.917,65.691,99.641,65.691 M96.625,65.691h-1.006c-0.276,0-0.5-0.224-0.5-0.5
		s0.224-0.5,0.5-0.5h1.006c0.276,0,0.5,0.224,0.5,0.5S96.901,65.691,96.625,65.691 M93.608,65.691h-1.005
		c-0.276,0-0.5-0.224-0.5-0.5s0.224-0.5,0.5-0.5h1.005c0.276,0,0.5,0.224,0.5,0.5S93.885,65.691,93.608,65.691 M90.593,65.691
		h-1.006c-0.276,0-0.5-0.224-0.5-0.5s0.224-0.5,0.5-0.5h1.006c0.276,0,0.5,0.224,0.5,0.5S90.869,65.691,90.593,65.691
		 M87.576,65.691h-1.005c-0.276,0-0.5-0.224-0.5-0.5s0.224-0.5,0.5-0.5h1.005c0.276,0,0.5,0.224,0.5,0.5
		S87.853,65.691,87.576,65.691 M84.561,65.691h-1.005c-0.276,0-0.5-0.224-0.5-0.5s0.224-0.5,0.5-0.5h1.005
		c0.276,0,0.5,0.224,0.5,0.5S84.837,65.691,84.561,65.691 M81.545,65.691h-1.006c-0.276,0-0.5-0.224-0.5-0.5s0.224-0.5,0.5-0.5
		h1.006c0.276,0,0.5,0.224,0.5,0.5S81.821,65.691,81.545,65.691 M78.528,65.691h-1.005c-0.276,0-0.5-0.224-0.5-0.5
		s0.224-0.5,0.5-0.5h1.005c0.276,0,0.5,0.224,0.5,0.5S78.805,65.691,78.528,65.691"/>
	<polygon clip-path="url(#SVGID_5_)" fill="#231F20" points="77.091,67.024 90.97,80.904 90.263,81.611 76.373,67.721 	"/>
	<polygon clip-path="url(#SVGID_5_)" fill="#231F20" points="66.956,58.398 53.077,44.518 53.784,43.812 67.673,57.701 	"/>
	<path clip-path="url(#SVGID_5_)" fill="#231F20" d="M50.771,46.823c-1.468-1.468-1.468-3.849,0-5.317
		c1.468-1.468,3.849-1.468,5.317,0c1.468,1.468,1.468,3.849,0,5.317C54.621,48.291,52.24,48.291,50.771,46.823"/>
	<path clip-path="url(#SVGID_5_)" fill="#231F20" d="M87.911,83.963c1.468,1.468,3.849,1.468,5.317,0
		c1.468-1.468,1.468-3.849,0-5.317c-1.469-1.468-3.85-1.468-5.317,0C86.443,80.114,86.443,82.495,87.911,83.963"/>
	<path clip-path="url(#SVGID_5_)" fill="#6E6F71" d="M85.257,61.38c-0.005-0.059-0.009-0.104-0.01-0.131
		c-0.01-0.044-0.112-0.172-0.218-0.222c-0.181-0.043-1.474-0.161-3.167-0.29l-0.183-0.014l-0.041-0.179
		c-0.271-1.17-0.743-2.268-1.409-3.263l-0.105-0.157l0.123-0.144c1.272-1.486,1.803-2.142,1.875-2.26
		c0.039-0.109,0.021-0.272-0.006-0.313l-0.08-0.092c-0.171-0.199-0.572-0.665-0.858-0.951c-0.321-0.32-0.979-0.909-1.068-0.988
		c-0.047-0.032-0.175-0.103-0.29-0.103c-0.044,0-0.079,0.01-0.111,0.031c-0.163,0.105-1.061,0.853-2.344,1.95l-0.136,0.117
		l-0.155-0.092c-0.892-0.534-1.861-0.922-2.88-1.153l-0.18-0.041l-0.015-0.184c-0.108-1.428-0.24-2.971-0.29-3.198
		c-0.034-0.165-0.287-0.223-0.336-0.233c-0.124-0.007-1.001-0.056-1.452-0.056c-0.404,0-0.994,0.043-1.278,0.064
		c-0.058,0.004-0.102,0.007-0.128,0.009c-0.044,0.009-0.173,0.112-0.222,0.217c-0.044,0.184-0.161,1.46-0.293,3.197l-0.014,0.184
		l-0.18,0.041c-1.019,0.231-1.988,0.619-2.88,1.153l-0.154,0.092l-0.137-0.117c-1.282-1.097-2.18-1.845-2.344-1.95
		c-0.032-0.021-0.067-0.031-0.111-0.031c-0.115,0-0.241,0.07-0.29,0.103c-0.09,0.08-0.747,0.668-1.067,0.988
		c-0.285,0.285-0.672,0.733-0.858,0.948c-0.038,0.045-0.067,0.078-0.084,0.098c-0.025,0.038-0.043,0.201-0.004,0.31
		c0.073,0.118,0.604,0.775,1.875,2.26l0.123,0.144l-0.105,0.157c-0.665,0.995-1.139,2.093-1.409,3.263l-0.041,0.179l-0.183,0.014
		c-1.693,0.129-2.986,0.247-3.167,0.29c-0.105,0.05-0.208,0.178-0.218,0.227c-0.001,0.022-0.004,0.067-0.009,0.126
		c-0.021,0.284-0.064,0.873-0.064,1.275c0,0.452,0.049,1.33,0.057,1.452c0.009,0.046,0.067,0.301,0.232,0.337
		c0.238,0.05,1.846,0.186,3.151,0.286l0.184,0.014l0.041,0.181c0.271,1.223,0.764,2.367,1.466,3.4l0.107,0.158l-0.124,0.145
		c-1.074,1.254-1.822,2.155-1.916,2.307c-0.039,0.109-0.021,0.273,0.006,0.314c0.015,0.016,0.044,0.05,0.082,0.095
		c0.186,0.215,0.573,0.663,0.858,0.948c0.32,0.32,0.979,0.909,1.067,0.988c0.047,0.032,0.175,0.104,0.29,0.104
		c0.044,0,0.079-0.011,0.111-0.031c0.203-0.131,1.431-1.168,2.421-2.017l0.135-0.116l0.154,0.091
		c0.875,0.513,1.821,0.887,2.811,1.109l0.18,0.041l0.014,0.185c0.129,1.692,0.244,2.938,0.287,3.119
		c0.049,0.104,0.178,0.208,0.226,0.218c0.022,0.001,0.066,0.004,0.124,0.008c0.284,0.021,0.875,0.065,1.278,0.065
		c0.451,0,1.329-0.051,1.452-0.058c0.046-0.009,0.302-0.066,0.336-0.231c0.051-0.235,0.185-1.828,0.284-3.121l0.015-0.185
		l0.18-0.041c0.99-0.223,1.936-0.597,2.811-1.109l0.154-0.091l0.135,0.116c0.99,0.849,2.219,1.886,2.421,2.017
		c0.032,0.021,0.067,0.031,0.111,0.031c0.118,0,0.249-0.075,0.29-0.104c0.087-0.078,0.747-0.668,1.068-0.988
		c0.286-0.286,0.688-0.751,0.858-0.951l0.083-0.095c0.024-0.038,0.042-0.202,0.003-0.311c-0.094-0.153-0.842-1.053-1.916-2.307
		l-0.124-0.145l0.107-0.158c0.702-1.033,1.195-2.177,1.467-3.4l0.04-0.181l0.185-0.014c1.305-0.1,2.912-0.236,3.15-0.286
		c0.164-0.035,0.223-0.291,0.233-0.337c0.007-0.122,0.056-1,0.056-1.452C85.32,62.253,85.277,61.664,85.257,61.38 M72,66.089
		c-1.853,0-3.354-1.502-3.354-3.355c0-1.852,1.502-3.355,3.354-3.355s3.355,1.503,3.355,3.355
		C75.355,64.587,73.853,66.089,72,66.089"/>
	<path clip-path="url(#SVGID_5_)" fill="#231F20" d="M71.92,76.305c-0.435,0-1.083-0.049-1.296-0.065l-0.116-0.007
		c-0.191-0.036-0.373-0.218-0.441-0.361c-0.073-0.285-0.206-1.835-0.311-3.207c-1.013-0.229-1.983-0.611-2.881-1.139
		c-0.508,0.435-2.183,1.865-2.448,2.037c-0.245,0.154-0.628-0.041-0.678-0.076c-0.149-0.131-0.789-0.703-1.103-1.018
		c-0.295-0.294-0.698-0.762-0.87-0.962l-0.081-0.092c-0.107-0.156-0.107-0.413-0.053-0.563c0.175-0.295,1.545-1.9,1.961-2.386
		c-0.719-1.059-1.226-2.232-1.504-3.486c-0.668-0.051-2.87-0.225-3.183-0.291c-0.309-0.066-0.404-0.423-0.426-0.531
		c-0.012-0.179-0.061-1.051-0.061-1.502c0-0.42,0.046-1.032,0.065-1.294l0.008-0.119c0.033-0.176,0.2-0.365,0.361-0.441
		c0.289-0.073,1.926-0.212,3.255-0.314c0.276-1.198,0.761-2.324,1.444-3.345c-1.083-1.264-1.791-2.12-1.897-2.289
		c-0.083-0.215-0.07-0.463,0.006-0.579l0.105-0.126c0.172-0.199,0.575-0.666,0.87-0.961c0.35-0.35,1.071-0.991,1.079-0.997
		c0.083-0.062,0.463-0.253,0.703-0.096c0.249,0.162,1.74,1.431,2.369,1.97c0.916-0.548,1.91-0.945,2.953-1.182
		c0.107-1.408,0.243-2.997,0.3-3.236c0.084-0.191,0.263-0.372,0.413-0.404l0.147-0.012c0.341-0.025,0.908-0.066,1.31-0.066
		c0.442,0,1.289,0.047,1.454,0.055c0.156,0.027,0.513,0.122,0.579,0.431c0.067,0.311,0.243,2.553,0.296,3.232
		c1.044,0.236,2.037,0.634,2.953,1.182c0.63-0.539,2.121-1.809,2.37-1.97c0.234-0.154,0.626,0.04,0.679,0.076
		c0.055,0.046,0.759,0.673,1.103,1.017c0.296,0.296,0.7,0.765,0.873,0.965l0.078,0.091c0.106,0.155,0.106,0.412,0.053,0.562
		c-0.124,0.212-0.833,1.068-1.92,2.337v0.001c0.683,1.02,1.169,2.146,1.444,3.344c1.327,0.101,2.961,0.24,3.206,0.297
		c0.208,0.092,0.373,0.276,0.403,0.411l0.015,0.164c0.021,0.298,0.064,0.89,0.064,1.296c0,0.462-0.05,1.35-0.058,1.468
		c-0.047,0.256-0.182,0.512-0.429,0.565c-0.314,0.067-2.516,0.24-3.184,0.291c-0.278,1.255-0.785,2.428-1.504,3.486
		c0.416,0.487,1.788,2.093,1.938,2.34c0.083,0.211,0.07,0.46-0.006,0.577l-0.104,0.123c-0.139,0.162-0.565,0.658-0.871,0.963
		c-0.3,0.301-0.895,0.835-1.05,0.974l-0.053,0.044c-0.031,0.021-0.436,0.23-0.677,0.077c-0.268-0.173-1.942-1.603-2.45-2.038
		c-0.897,0.527-1.867,0.91-2.882,1.139v0.001c-0.051,0.662-0.223,2.847-0.289,3.154c-0.062,0.295-0.391,0.395-0.528,0.424
		C73.264,76.256,72.377,76.305,71.92,76.305 M70.588,75.736l0.072,0.005c0.21,0.016,0.844,0.063,1.26,0.063
		c0.448,0,1.318-0.049,1.439-0.056c0.04-0.011,0.102-0.042,0.115-0.059c0.028-0.155,0.141-1.396,0.27-3.064l0.029-0.367l0.359-0.081
		c0.964-0.218,1.885-0.583,2.738-1.083l0.31-0.181l0.27,0.233c1.277,1.094,2.239,1.896,2.394,1.996
		c0.013-0.01,0.09-0.045,0.124-0.068c0.153-0.14,0.737-0.664,1.033-0.959c0.192-0.194,0.478-0.509,0.846-0.937l0.047-0.054
		c0.003-0.034,0.002-0.08-0.006-0.102c-0.049-0.072-0.662-0.82-1.871-2.232l-0.249-0.29l0.215-0.316
		c0.684-1.006,1.165-2.12,1.43-3.313l0.08-0.362l0.369-0.028c1.683-0.13,2.936-0.243,3.118-0.282
		c-0.003-0.008,0.027-0.082,0.039-0.139c0.003-0.084,0.052-0.956,0.052-1.405c0-0.388-0.042-0.967-0.062-1.246l-0.007-0.115
		c-0.002,0.018-0.049-0.027-0.077-0.04c-0.094-0.017-1.239-0.128-3.08-0.268l-0.366-0.028L81.395,60.6
		c-0.262-1.138-0.724-2.208-1.373-3.178l-0.209-0.316l0.245-0.288c1.35-1.576,1.799-2.142,1.852-2.228
		c-0.007,0.012-0.013-0.027-0.016-0.058l-0.045-0.052c-0.155-0.18-0.565-0.656-0.848-0.938c-0.335-0.334-1.051-0.972-1.058-0.978
		c-0.016-0.008-0.089-0.04-0.124-0.04c-0.09,0.064-0.765,0.615-2.292,1.921l-0.272,0.234l-0.309-0.185
		c-0.871-0.521-1.816-0.899-2.808-1.123l-0.36-0.082l-0.027-0.368c-0.133-1.712-0.247-2.984-0.286-3.165
		c-0.019-0.003-0.073-0.026-0.141-0.04c-0.14-0.005-0.97-0.051-1.404-0.051c-0.384,0-0.961,0.041-1.237,0.061l-0.095,0.007
		c-0.025,0.022-0.058,0.056-0.069,0.079c-0.017,0.093-0.126,1.224-0.27,3.11l-0.028,0.367l-0.36,0.082
		c-0.992,0.224-1.937,0.602-2.807,1.123l-0.308,0.185l-0.274-0.234c-1.526-1.306-2.202-1.857-2.317-1.931
		c-0.009,0.01-0.084,0.042-0.122,0.069c-0.115,0.104-0.737,0.662-1.034,0.959c-0.282,0.281-0.676,0.739-0.844,0.934l-0.049,0.057
		c-0.003,0.033-0.002,0.081,0.006,0.104c0.029,0.035,0.482,0.607,1.83,2.181l0.246,0.288l-0.21,0.316
		c-0.649,0.969-1.111,2.039-1.373,3.179l-0.083,0.359l-0.367,0.027c-1.865,0.143-2.985,0.251-3.128,0.285
		c0.019,0.002-0.01,0.027-0.029,0.052l-0.004,0.056c-0.02,0.275-0.065,0.875-0.065,1.276c0,0.443,0.048,1.298,0.056,1.434
		c0.009,0.036,0.04,0.104,0.058,0.12c0.159,0.029,1.413,0.142,3.095,0.272l0.369,0.028l0.08,0.362
		c0.265,1.192,0.746,2.306,1.43,3.313l0.215,0.316l-0.25,0.291c-1.201,1.402-1.823,2.163-1.892,2.276
		c0.007-0.017,0.012,0.026,0.016,0.057l0.048,0.055c0.169,0.197,0.564,0.654,0.845,0.936c0.309,0.31,0.936,0.869,1.05,0.973
		c0.021,0.013,0.096,0.045,0.131,0.045c0.13-0.09,1.091-0.893,2.369-1.986l0.271-0.233l0.307,0.181
		c0.854,0.501,1.776,0.865,2.74,1.083l0.36,0.082l0.028,0.367c0.141,1.837,0.248,2.94,0.281,3.081
		C70.534,75.691,70.563,75.718,70.588,75.736 M72.001,66.339c-1.988,0-3.605-1.617-3.605-3.606c0-1.987,1.617-3.604,3.605-3.604
		c1.986,0,3.604,1.617,3.604,3.604C75.604,64.722,73.987,66.339,72.001,66.339 M72.001,59.629c-1.712,0-3.105,1.393-3.105,3.104
		c0,1.713,1.393,3.106,3.105,3.106c1.711,0,3.104-1.393,3.104-3.106C75.104,61.022,73.712,59.629,72.001,59.629"/>
</g>
</svg>
