<?xml version="1.0" encoding="utf-8"?>
<!-- Generator: Adobe Illustrator 16.0.4, SVG Export Plug-In . SVG Version: 6.00 Build 0)  -->
<!DOCTYPE svg PUBLIC "-//W3C//DTD SVG 1.1//EN" "http://www.w3.org/Graphics/SVG/1.1/DTD/svg11.dtd">
<svg version="1.1" id="Layer_1" xmlns="http://www.w3.org/2000/svg" xmlns:xlink="http://www.w3.org/1999/xlink" x="0px" y="0px"
	 width="144px" height="144px" viewBox="0 0 144 144" enable-background="new 0 0 144 144" xml:space="preserve">
<g>
	<defs>
		<path id="SVGID_1_" d="M53.682,24.683l-10.037,3.986c-0.734,0.29-1.215,1-1.215,1.788v58.317v31.784h59.14V88.774V30.435
			c0-0.782-0.458-1.492-1.17-1.815l-8.683-3.937H53.682z"/>
	</defs>
	<clipPath id="SVGID_2_">
		<use xlink:href="#SVGID_1_"  overflow="visible"/>
	</clipPath>
	
		<linearGradient id="SVGID_3_" gradientUnits="userSpaceOnUse" x1="0" y1="144.0166" x2="1" y2="144.0166" gradientTransform="matrix(75.0195 75.0195 75.0195 -75.0195 -10768.3018 10840.3877)">
		<stop  offset="0" style="stop-color:#E6E7E8"/>
		<stop  offset="0.5" style="stop-color:#F6F6F6"/>
		<stop  offset="1" style="stop-color:#CBCCCE"/>
	</linearGradient>
	<polygon clip-path="url(#SVGID_2_)" fill="url(#SVGID_3_)" points="72,-4.887 149.508,72.621 72,150.129 -5.508,72.621 	"/>
</g>
<g>
	<defs>
		<rect id="SVGID_4_" width="144" height="144"/>
	</defs>
	<clipPath id="SVGID_5_">
		<use xlink:href="#SVGID_4_"  overflow="visible"/>
	</clipPath>
	<path clip-path="url(#SVGID_5_)" fill="#6D6E70" d="M99.765,102.221c0,0.562-0.418,1.021-0.933,1.021H45.167
		c-0.514,0-0.932-0.458-0.932-1.021v-14.25c0-0.563,0.418-1.022,0.932-1.022h53.665c0.515,0,0.933,0.459,0.933,1.022V102.221z"/>
	<path clip-path="url(#SVGID_5_)" fill="#231F20" d="M49.291,113.863c0.761,0,1.376-0.615,1.376-1.375s-0.615-1.375-1.376-1.375
		c-0.759,0-1.375,0.615-1.375,1.375S48.532,113.863,49.291,113.863"/>
	<path clip-path="url(#SVGID_5_)" fill="#231F20" d="M54.17,113.863c0.759,0,1.375-0.615,1.375-1.375s-0.616-1.375-1.375-1.375
		c-0.76,0-1.375,0.615-1.375,1.375S53.41,113.863,54.17,113.863"/>
	<path clip-path="url(#SVGID_5_)" fill="#231F20" d="M93.501,116.91h2.998c0.276,0,0.501-0.224,0.501-0.5v-8
		c0-0.276-0.225-0.5-0.501-0.5h-2.998c-0.276,0-0.501,0.224-0.501,0.5v8C93,116.687,93.225,116.91,93.501,116.91 M94,108.91h2v7h-2
		V108.91z"/>
	<path clip-path="url(#SVGID_5_)" fill="#231F20" d="M87.5,116.91h3c0.276,0,0.5-0.224,0.5-0.5v-8c0-0.276-0.224-0.5-0.5-0.5h-3
		c-0.276,0-0.5,0.224-0.5,0.5v8C87,116.687,87.224,116.91,87.5,116.91 M88,108.91h2v7h-2V108.91z"/>
	<path clip-path="url(#SVGID_5_)" fill="#231F20" d="M71.387,67.925c0,0.276,0.224,0.5,0.5,0.5h1.005c0.276,0,0.501-0.224,0.501-0.5
		s-0.225-0.5-0.501-0.5h-1.005C71.611,67.425,71.387,67.649,71.387,67.925"/>
	<path clip-path="url(#SVGID_5_)" fill="#231F20" d="M81.954,44.852c0.276,0,0.5-0.224,0.5-0.5v-1.005c0-0.277-0.224-0.5-0.5-0.5
		s-0.5,0.223-0.5,0.5v1.005C81.454,44.627,81.678,44.852,81.954,44.852"/>
	<path clip-path="url(#SVGID_5_)" fill="#231F20" d="M73.833,36.41h1.005c0.276,0,0.5-0.224,0.5-0.5s-0.224-0.5-0.5-0.5h-1.005
		c-0.276,0-0.5,0.224-0.5,0.5S73.557,36.41,73.833,36.41"/>
	<path clip-path="url(#SVGID_5_)" fill="#231F20" d="M65.355,67.925c0,0.276,0.224,0.5,0.5,0.5h1.005c0.277,0,0.5-0.224,0.5-0.5
		s-0.223-0.5-0.5-0.5h-1.005C65.579,67.425,65.355,67.649,65.355,67.925"/>
	<path clip-path="url(#SVGID_5_)" fill="#231F20" d="M67.801,36.41h1.005c0.277,0,0.5-0.224,0.5-0.5s-0.223-0.5-0.5-0.5h-1.005
		c-0.276,0-0.5,0.224-0.5,0.5S67.525,36.41,67.801,36.41"/>
	<path clip-path="url(#SVGID_5_)" fill="#231F20" d="M68.371,67.925c0,0.276,0.224,0.5,0.5,0.5h1.005c0.277,0,0.5-0.224,0.5-0.5
		s-0.223-0.5-0.5-0.5h-1.005C68.595,67.425,68.371,67.649,68.371,67.925"/>
	<path clip-path="url(#SVGID_5_)" fill="#231F20" d="M70.816,36.41h1.005c0.277,0,0.5-0.224,0.5-0.5s-0.223-0.5-0.5-0.5h-1.005
		c-0.276,0-0.5,0.224-0.5,0.5S70.541,36.41,70.816,36.41"/>
	<path clip-path="url(#SVGID_5_)" fill="#231F20" d="M81.454,47.368c0,0.276,0.224,0.5,0.5,0.5s0.5-0.224,0.5-0.5v-1.005
		c0-0.277-0.224-0.5-0.5-0.5s-0.5,0.223-0.5,0.5V47.368z"/>
	<path clip-path="url(#SVGID_5_)" fill="#231F20" d="M81.954,41.835c0.276,0,0.5-0.224,0.5-0.5v-1.005c0-0.277-0.224-0.5-0.5-0.5
		s-0.5,0.223-0.5,0.5v1.005C81.454,41.611,81.678,41.835,81.954,41.835"/>
	<path clip-path="url(#SVGID_5_)" fill="#231F20" d="M81.954,38.819c0.276,0,0.5-0.224,0.5-0.5v-1.005c0-0.277-0.224-0.5-0.5-0.5
		s-0.5,0.223-0.5,0.5v1.005C81.454,38.595,81.678,38.819,81.954,38.819"/>
	<path clip-path="url(#SVGID_5_)" fill="#231F20" d="M81.954,48.878c-0.276,0-0.5,0.224-0.5,0.5v1.005c0,0.277,0.224,0.5,0.5,0.5
		s0.5-0.223,0.5-0.5v-1.005C82.454,49.103,82.23,48.878,81.954,48.878"/>
	<path clip-path="url(#SVGID_5_)" fill="#231F20" d="M76.849,36.41h1.006c0.276,0,0.5-0.224,0.5-0.5s-0.224-0.5-0.5-0.5h-1.006
		c-0.276,0-0.5,0.224-0.5,0.5S76.572,36.41,76.849,36.41"/>
	<path clip-path="url(#SVGID_5_)" fill="#231F20" d="M74.403,67.925c0,0.276,0.224,0.5,0.5,0.5h1.005c0.276,0,0.5-0.224,0.5-0.5
		s-0.224-0.5-0.5-0.5h-1.005C74.627,67.425,74.403,67.649,74.403,67.925"/>
	<path clip-path="url(#SVGID_5_)" fill="#231F20" d="M79.865,36.41h1.018c0.276,0,0.493-0.224,0.493-0.5s-0.229-0.5-0.506-0.5
		h-1.005c-0.276,0-0.5,0.224-0.5,0.5S79.589,36.41,79.865,36.41"/>
	<path clip-path="url(#SVGID_5_)" fill="#231F20" d="M49.697,48.932c0.276,0,0.5-0.224,0.5-0.5v-1.005c0-0.277-0.224-0.5-0.5-0.5
		s-0.5,0.223-0.5,0.5v1.005C49.197,48.708,49.421,48.932,49.697,48.932"/>
	<path clip-path="url(#SVGID_5_)" fill="#231F20" d="M52.72,36.41h1.005c0.277,0,0.5-0.224,0.5-0.5s-0.223-0.5-0.5-0.5H52.72
		c-0.276,0-0.5,0.224-0.5,0.5S52.444,36.41,52.72,36.41"/>
	<path clip-path="url(#SVGID_5_)" fill="#231F20" d="M49.697,64.012c0.276,0,0.5-0.224,0.5-0.5v-1.005c0-0.277-0.224-0.5-0.5-0.5
		s-0.5,0.223-0.5,0.5v1.005C49.197,63.788,49.421,64.012,49.697,64.012"/>
	<path clip-path="url(#SVGID_5_)" fill="#231F20" d="M50.278,67.925c0,0.276,0.227,0.5,0.503,0.5h0.999c0.276,0,0.5-0.224,0.5-0.5
		s-0.224-0.5-0.5-0.5h-1.005C50.499,67.425,50.278,67.649,50.278,67.925"/>
	<path clip-path="url(#SVGID_5_)" fill="#231F20" d="M55.736,36.41h1.005c0.277,0,0.5-0.224,0.5-0.5s-0.223-0.5-0.5-0.5h-1.005
		c-0.276,0-0.5,0.224-0.5,0.5S55.46,36.41,55.736,36.41"/>
	<path clip-path="url(#SVGID_5_)" fill="#231F20" d="M49.6,36.821c0.084,0.055,0.179,0.081,0.272,0.081
		c0.164,0,0.324-0.08,0.42-0.227c0.1-0.153,0.268-0.251,0.45-0.263c0.275-0.018,0.484-0.256,0.467-0.531
		c-0.018-0.276-0.257-0.484-0.531-0.467c-0.495,0.032-0.953,0.299-1.224,0.715C49.303,36.36,49.369,36.67,49.6,36.821"/>
	<path clip-path="url(#SVGID_5_)" fill="#231F20" d="M53.291,67.925c0,0.276,0.224,0.5,0.5,0.5h1.005c0.277,0,0.5-0.224,0.5-0.5
		s-0.223-0.5-0.5-0.5h-1.005C53.515,67.425,53.291,67.649,53.291,67.925"/>
	<path clip-path="url(#SVGID_5_)" fill="#231F20" d="M49.697,67.028c0.276,0,0.5-0.224,0.5-0.5v-1.005c0-0.277-0.224-0.5-0.5-0.5
		s-0.5,0.223-0.5,0.5v1.005C49.197,66.804,49.421,67.028,49.697,67.028"/>
	<path clip-path="url(#SVGID_5_)" fill="#231F20" d="M49.697,42.899c0.276,0,0.5-0.224,0.5-0.5v-1.005c0-0.277-0.224-0.5-0.5-0.5
		s-0.5,0.223-0.5,0.5v1.005C49.197,42.675,49.421,42.899,49.697,42.899"/>
	<path clip-path="url(#SVGID_5_)" fill="#231F20" d="M49.697,57.979c0.276,0,0.5-0.224,0.5-0.5v-1.005c0-0.277-0.224-0.5-0.5-0.5
		s-0.5,0.223-0.5,0.5v1.005C49.197,57.755,49.421,57.979,49.697,57.979"/>
	<path clip-path="url(#SVGID_5_)" fill="#231F20" d="M49.697,60.996c0.276,0,0.5-0.224,0.5-0.5v-1.005c0-0.277-0.224-0.5-0.5-0.5
		s-0.5,0.223-0.5,0.5v1.005C49.197,60.771,49.421,60.996,49.697,60.996"/>
	<path clip-path="url(#SVGID_5_)" fill="#231F20" d="M49.697,54.963c0.276,0,0.5-0.224,0.5-0.5v-1.005c0-0.277-0.224-0.5-0.5-0.5
		s-0.5,0.223-0.5,0.5v1.005C49.197,54.739,49.421,54.963,49.697,54.963"/>
	<path clip-path="url(#SVGID_5_)" fill="#231F20" d="M49.697,51.947c0.276,0,0.5-0.224,0.5-0.5v-1.005c0-0.276-0.224-0.5-0.5-0.5
		s-0.5,0.224-0.5,0.5v1.005C49.197,51.723,49.421,51.947,49.697,51.947"/>
	<path clip-path="url(#SVGID_5_)" fill="#231F20" d="M49.697,45.916c0.276,0,0.5-0.224,0.5-0.5v-1.005c0-0.277-0.224-0.5-0.5-0.5
		s-0.5,0.223-0.5,0.5v1.005C49.197,45.691,49.421,45.916,49.697,45.916"/>
	<path clip-path="url(#SVGID_5_)" fill="#231F20" d="M49.697,39.883c0.276,0,0.5-0.224,0.5-0.5v-1.005c0-0.277-0.224-0.5-0.5-0.5
		s-0.5,0.223-0.5,0.5v1.005C49.197,39.659,49.421,39.883,49.697,39.883"/>
	<path clip-path="url(#SVGID_5_)" fill="#231F20" d="M62.339,67.925c0,0.276,0.224,0.5,0.5,0.5h1.005c0.277,0,0.5-0.224,0.5-0.5
		s-0.223-0.5-0.5-0.5h-1.005C62.563,67.425,62.339,67.649,62.339,67.925"/>
	<path clip-path="url(#SVGID_5_)" fill="#231F20" d="M59.323,67.925c0,0.276,0.224,0.5,0.5,0.5h1.005c0.277,0,0.5-0.224,0.5-0.5
		s-0.223-0.5-0.5-0.5h-1.005C59.547,67.425,59.323,67.649,59.323,67.925"/>
	<path clip-path="url(#SVGID_5_)" fill="#231F20" d="M61.769,36.41h1.005c0.277,0,0.5-0.224,0.5-0.5s-0.223-0.5-0.5-0.5h-1.005
		c-0.276,0-0.5,0.224-0.5,0.5S61.493,36.41,61.769,36.41"/>
	<path clip-path="url(#SVGID_5_)" fill="#231F20" d="M64.785,36.41h1.005c0.277,0,0.5-0.224,0.5-0.5s-0.223-0.5-0.5-0.5h-1.005
		c-0.276,0-0.5,0.224-0.5,0.5S64.509,36.41,64.785,36.41"/>
	<path clip-path="url(#SVGID_5_)" fill="#231F20" d="M56.307,67.925c0,0.276,0.224,0.5,0.5,0.5h1.005c0.277,0,0.5-0.224,0.5-0.5
		s-0.223-0.5-0.5-0.5h-1.005C56.531,67.425,56.307,67.649,56.307,67.925"/>
	<path clip-path="url(#SVGID_5_)" fill="#231F20" d="M58.752,36.41h1.005c0.277,0,0.5-0.224,0.5-0.5s-0.223-0.5-0.5-0.5h-1.005
		c-0.276,0-0.5,0.224-0.5,0.5S58.477,36.41,58.752,36.41"/>
	<path clip-path="url(#SVGID_5_)" fill="#231F20" d="M87.696,71.707c0,0.276,0.224,0.5,0.5,0.5s0.5-0.224,0.5-0.5v-1.005
		c0-0.277-0.224-0.5-0.5-0.5s-0.5,0.223-0.5,0.5V71.707z"/>
	<path clip-path="url(#SVGID_5_)" fill="#231F20" d="M88.196,45.062c0.276,0,0.5-0.224,0.5-0.5v-1.005c0-0.277-0.224-0.5-0.5-0.5
		s-0.5,0.223-0.5,0.5v1.005C87.696,44.838,87.92,45.062,88.196,45.062"/>
	<path clip-path="url(#SVGID_5_)" fill="#231F20" d="M87.207,74.665c0.493-0.028,0.952-0.293,1.227-0.707
		c0.153-0.23,0.091-0.54-0.14-0.692c-0.229-0.151-0.54-0.093-0.692,0.14c-0.104,0.155-0.269,0.251-0.453,0.262
		c-0.275,0.016-0.486,0.253-0.47,0.528c0.016,0.266,0.235,0.471,0.499,0.471C87.187,74.666,87.197,74.666,87.207,74.665"/>
	<path clip-path="url(#SVGID_5_)" fill="#231F20" d="M61.038,73.668h-1.005c-0.277,0-0.5,0.224-0.5,0.5s0.223,0.5,0.5,0.5h1.005
		c0.276,0,0.5-0.224,0.5-0.5S61.314,73.668,61.038,73.668"/>
	<path clip-path="url(#SVGID_5_)" fill="#231F20" d="M55.439,66.738c0,0.276,0.224,0.5,0.5,0.5s0.5-0.224,0.5-0.5v-1.005
		c0-0.277-0.224-0.5-0.5-0.5s-0.5,0.223-0.5,0.5V66.738z"/>
	<path clip-path="url(#SVGID_5_)" fill="#231F20" d="M58.022,73.668h-0.975c-0.292-0.03-0.531,0.212-0.53,0.499
		c0,0.225,0.148,0.414,0.351,0.478l1.154,0.023c0.276,0,0.5-0.224,0.5-0.5S58.298,73.668,58.022,73.668"/>
	<path clip-path="url(#SVGID_5_)" fill="#231F20" d="M64.054,74.668c0.276,0,0.5-0.224,0.5-0.5s-0.224-0.5-0.5-0.5h-1.005
		c-0.277,0-0.5,0.224-0.5,0.5s0.223,0.5,0.5,0.5H64.054z"/>
	<path clip-path="url(#SVGID_5_)" fill="#231F20" d="M87.696,68.691c0,0.276,0.224,0.5,0.5,0.5s0.5-0.224,0.5-0.5v-1.005
		c0-0.277-0.224-0.5-0.5-0.5s-0.5,0.223-0.5,0.5V68.691z"/>
	<path clip-path="url(#SVGID_5_)" fill="#231F20" d="M88.196,48.079c0.276,0,0.5-0.224,0.5-0.5v-1.005c0-0.277-0.224-0.5-0.5-0.5
		s-0.5,0.223-0.5,0.5v1.005C87.696,47.854,87.92,48.079,88.196,48.079"/>
	<path clip-path="url(#SVGID_5_)" fill="#231F20" d="M87.696,56.626c0,0.276,0.224,0.5,0.5,0.5s0.5-0.224,0.5-0.5v-1.005
		c0-0.277-0.224-0.5-0.5-0.5s-0.5,0.223-0.5,0.5V56.626z"/>
	<path clip-path="url(#SVGID_5_)" fill="#231F20" d="M87.696,65.675c0,0.276,0.224,0.5,0.5,0.5s0.5-0.224,0.5-0.5V64.67
		c0-0.277-0.224-0.5-0.5-0.5s-0.5,0.223-0.5,0.5V65.675z"/>
	<path clip-path="url(#SVGID_5_)" fill="#231F20" d="M88.196,51.094c0.276,0,0.5-0.224,0.5-0.5v-1.005c0-0.276-0.224-0.5-0.5-0.5
		s-0.5,0.224-0.5,0.5v1.005C87.696,50.87,87.92,51.094,88.196,51.094"/>
	<path clip-path="url(#SVGID_5_)" fill="#231F20" d="M67.07,74.668c0.276,0,0.5-0.224,0.5-0.5s-0.224-0.5-0.5-0.5h-1.005
		c-0.277,0-0.5,0.224-0.5,0.5s0.223,0.5,0.5,0.5H67.07z"/>
	<path clip-path="url(#SVGID_5_)" fill="#231F20" d="M87.696,53.61c0,0.276,0.224,0.5,0.5,0.5s0.5-0.224,0.5-0.5v-1.005
		c0-0.277-0.224-0.5-0.5-0.5s-0.5,0.223-0.5,0.5V53.61z"/>
	<path clip-path="url(#SVGID_5_)" fill="#231F20" d="M70.086,74.668c0.276,0,0.5-0.224,0.5-0.5s-0.224-0.5-0.5-0.5h-1.005
		c-0.277,0-0.5,0.224-0.5,0.5s0.223,0.5,0.5,0.5H70.086z"/>
	<path clip-path="url(#SVGID_5_)" fill="#231F20" d="M55.439,63.722c0,0.276,0.224,0.5,0.5,0.5s0.5-0.224,0.5-0.5v-1.005
		c0-0.277-0.224-0.5-0.5-0.5s-0.5,0.223-0.5,0.5V63.722z"/>
	<path clip-path="url(#SVGID_5_)" fill="#231F20" d="M76.118,74.668c0.276,0,0.5-0.224,0.5-0.5s-0.224-0.5-0.5-0.5h-1.006
		c-0.276,0-0.5,0.224-0.5,0.5s0.224,0.5,0.5,0.5H76.118z"/>
	<path clip-path="url(#SVGID_5_)" fill="#231F20" d="M87.696,62.659c0,0.276,0.224,0.5,0.5,0.5s0.5-0.224,0.5-0.5v-1.005
		c0-0.277-0.224-0.5-0.5-0.5s-0.5,0.223-0.5,0.5V62.659z"/>
	<path clip-path="url(#SVGID_5_)" fill="#231F20" d="M87.696,59.643c0,0.276,0.224,0.5,0.5,0.5s0.5-0.224,0.5-0.5v-1.005
		c0-0.277-0.224-0.5-0.5-0.5s-0.5,0.223-0.5,0.5V59.643z"/>
	<path clip-path="url(#SVGID_5_)" fill="#231F20" d="M73.102,74.668c0.276,0,0.5-0.224,0.5-0.5s-0.224-0.5-0.5-0.5h-1.005
		c-0.276,0-0.5,0.224-0.5,0.5s0.224,0.5,0.5,0.5H73.102z"/>
	<path clip-path="url(#SVGID_5_)" fill="#231F20" d="M80.075,41.652c-0.276,0-0.5,0.224-0.5,0.5s0.224,0.5,0.5,0.5h1.005
		c0.276,0,0.5-0.224,0.5-0.5s-0.224-0.5-0.5-0.5H80.075z"/>
	<path clip-path="url(#SVGID_5_)" fill="#231F20" d="M77.059,41.652c-0.276,0-0.5,0.224-0.5,0.5s0.224,0.5,0.5,0.5h1.006
		c0.276,0,0.5-0.224,0.5-0.5s-0.224-0.5-0.5-0.5H77.059z"/>
	<path clip-path="url(#SVGID_5_)" fill="#231F20" d="M55.939,71.265c-0.276,0-0.5,0.224-0.5,0.5v1.005c0,0.276,0.224,0.5,0.5,0.5
		s0.5-0.224,0.5-0.5v-1.005C56.439,71.489,56.215,71.265,55.939,71.265"/>
	<path clip-path="url(#SVGID_5_)" fill="#231F20" d="M55.939,68.249c-0.276,0-0.5,0.224-0.5,0.5v1.005c0,0.277,0.224,0.5,0.5,0.5
		s0.5-0.223,0.5-0.5v-1.005C56.439,68.473,56.215,68.249,55.939,68.249"/>
	<path clip-path="url(#SVGID_5_)" fill="#231F20" d="M55.439,48.642c0,0.276,0.224,0.5,0.5,0.5s0.5-0.224,0.5-0.5v-1.005
		c0-0.277-0.224-0.5-0.5-0.5s-0.5,0.223-0.5,0.5V48.642z"/>
	<path clip-path="url(#SVGID_5_)" fill="#231F20" d="M74.043,41.652c-0.276,0-0.5,0.224-0.5,0.5s0.224,0.5,0.5,0.5h1.005
		c0.276,0,0.5-0.224,0.5-0.5s-0.224-0.5-0.5-0.5H74.043z"/>
	<path clip-path="url(#SVGID_5_)" fill="#231F20" d="M64.995,41.652c-0.276,0-0.5,0.224-0.5,0.5s0.224,0.5,0.5,0.5H66
		c0.277,0,0.5-0.224,0.5-0.5s-0.223-0.5-0.5-0.5H64.995z"/>
	<path clip-path="url(#SVGID_5_)" fill="#231F20" d="M58.962,41.652c-0.276,0-0.5,0.224-0.5,0.5s0.224,0.5,0.5,0.5h1.005
		c0.277,0,0.5-0.224,0.5-0.5s-0.223-0.5-0.5-0.5H58.962z"/>
	<path clip-path="url(#SVGID_5_)" fill="#231F20" d="M61.979,41.652c-0.276,0-0.5,0.224-0.5,0.5s0.224,0.5,0.5,0.5h1.005
		c0.277,0,0.5-0.224,0.5-0.5s-0.223-0.5-0.5-0.5H61.979z"/>
	<path clip-path="url(#SVGID_5_)" fill="#231F20" d="M55.696,42.371c-0.151,0.231-0.085,0.541,0.146,0.692
		c0.084,0.055,0.179,0.081,0.272,0.081c0.164,0,0.324-0.08,0.42-0.227c0.099-0.153,0.268-0.252,0.45-0.263
		c0.275-0.018,0.484-0.256,0.467-0.531c-0.018-0.276-0.257-0.485-0.531-0.467C56.425,41.687,55.967,41.955,55.696,42.371"/>
	<path clip-path="url(#SVGID_5_)" fill="#231F20" d="M83.091,42.652h1.006c0.276,0,0.5-0.224,0.5-0.5s-0.224-0.5-0.5-0.5h-1.006
		c-0.276,0-0.5,0.224-0.5,0.5S82.814,42.652,83.091,42.652"/>
	<path clip-path="url(#SVGID_5_)" fill="#231F20" d="M71.027,41.652c-0.276,0-0.5,0.224-0.5,0.5s0.224,0.5,0.5,0.5h1.005
		c0.276,0,0.5-0.224,0.5-0.5s-0.224-0.5-0.5-0.5H71.027z"/>
	<path clip-path="url(#SVGID_5_)" fill="#231F20" d="M86.107,42.652h1.018c0.276,0,0.493-0.224,0.493-0.5s-0.229-0.5-0.506-0.5
		h-1.005c-0.276,0-0.5,0.224-0.5,0.5S85.831,42.652,86.107,42.652"/>
	<path clip-path="url(#SVGID_5_)" fill="#231F20" d="M68.011,41.652c-0.276,0-0.5,0.224-0.5,0.5s0.224,0.5,0.5,0.5h1.005
		c0.277,0,0.5-0.224,0.5-0.5s-0.223-0.5-0.5-0.5H68.011z"/>
	<path clip-path="url(#SVGID_5_)" fill="#231F20" d="M55.439,54.674c0,0.276,0.224,0.5,0.5,0.5s0.5-0.224,0.5-0.5v-1.005
		c0-0.277-0.224-0.5-0.5-0.5s-0.5,0.223-0.5,0.5V54.674z"/>
	<path clip-path="url(#SVGID_5_)" fill="#231F20" d="M55.939,46.125c0.276,0,0.5-0.224,0.5-0.5v-1.005c0-0.277-0.224-0.5-0.5-0.5
		s-0.5,0.223-0.5,0.5v1.005C55.439,45.901,55.664,46.125,55.939,46.125"/>
	<path clip-path="url(#SVGID_5_)" fill="#231F20" d="M55.439,57.689c0,0.276,0.224,0.5,0.5,0.5s0.5-0.224,0.5-0.5v-1.005
		c0-0.276-0.224-0.5-0.5-0.5s-0.5,0.224-0.5,0.5V57.689z"/>
	<path clip-path="url(#SVGID_5_)" fill="#231F20" d="M55.439,51.658c0,0.276,0.224,0.5,0.5,0.5s0.5-0.224,0.5-0.5v-1.005
		c0-0.277-0.224-0.5-0.5-0.5s-0.5,0.223-0.5,0.5V51.658z"/>
	<path clip-path="url(#SVGID_5_)" fill="#231F20" d="M55.439,60.706c0,0.276,0.224,0.5,0.5,0.5s0.5-0.224,0.5-0.5v-1.005
		c0-0.277-0.224-0.5-0.5-0.5s-0.5,0.223-0.5,0.5V60.706z"/>
	<path clip-path="url(#SVGID_5_)" fill="#231F20" d="M62.182,77.507c-0.276,0-0.5,0.224-0.5,0.5v1.006c0,0.276,0.224,0.5,0.5,0.5
		s0.5-0.224,0.5-0.5v-1.006C62.682,77.73,62.458,77.507,62.182,77.507"/>
	<path clip-path="url(#SVGID_5_)" fill="#231F20" d="M67.28,79.91h-1.005c-0.277,0-0.5,0.224-0.5,0.5s0.223,0.5,0.5,0.5h1.005
		c0.276,0,0.5-0.224,0.5-0.5S67.556,79.91,67.28,79.91"/>
	<path clip-path="url(#SVGID_5_)" fill="#231F20" d="M62.182,74.491c-0.276,0-0.5,0.224-0.5,0.5v1.005c0,0.276,0.224,0.5,0.5,0.5
		s0.5-0.224,0.5-0.5v-1.005C62.682,74.715,62.458,74.491,62.182,74.491"/>
	<path clip-path="url(#SVGID_5_)" fill="#231F20" d="M61.682,69.964c0,0.276,0.224,0.5,0.5,0.5s0.5-0.224,0.5-0.5v-1.005
		c0-0.277-0.224-0.5-0.5-0.5s-0.5,0.223-0.5,0.5V69.964z"/>
	<path clip-path="url(#SVGID_5_)" fill="#231F20" d="M70.296,79.91h-1.005c-0.277,0-0.5,0.224-0.5,0.5s0.223,0.5,0.5,0.5h1.005
		c0.276,0,0.5-0.224,0.5-0.5S70.572,79.91,70.296,79.91"/>
	<path clip-path="url(#SVGID_5_)" fill="#231F20" d="M61.682,66.948c0,0.276,0.224,0.5,0.5,0.5s0.5-0.224,0.5-0.5v-1.005
		c0-0.277-0.224-0.5-0.5-0.5s-0.5,0.223-0.5,0.5V66.948z"/>
	<path clip-path="url(#SVGID_5_)" fill="#231F20" d="M64.264,79.91h-1.005c-0.276,0-0.497,0.224-0.497,0.5s0.227,0.5,0.503,0.5
		h0.999c0.276,0,0.5-0.224,0.5-0.5S64.54,79.91,64.264,79.91"/>
	<path clip-path="url(#SVGID_5_)" fill="#231F20" d="M61.682,72.98c0,0.275,0.224,0.5,0.5,0.5s0.5-0.225,0.5-0.5v-1.005
		c0-0.276-0.224-0.5-0.5-0.5s-0.5,0.224-0.5,0.5V72.98z"/>
	<path clip-path="url(#SVGID_5_)" fill="#231F20" d="M61.682,63.932c0,0.276,0.224,0.5,0.5,0.5s0.5-0.224,0.5-0.5v-1.005
		c0-0.277-0.224-0.5-0.5-0.5s-0.5,0.223-0.5,0.5V63.932z"/>
	<path clip-path="url(#SVGID_5_)" fill="#231F20" d="M61.682,54.884c0,0.276,0.224,0.5,0.5,0.5s0.5-0.224,0.5-0.5v-1.005
		c0-0.277-0.224-0.5-0.5-0.5s-0.5,0.223-0.5,0.5V54.884z"/>
	<path clip-path="url(#SVGID_5_)" fill="#231F20" d="M62.182,52.368c0.276,0,0.5-0.224,0.5-0.5v-1.005c0-0.276-0.224-0.5-0.5-0.5
		s-0.5,0.224-0.5,0.5v1.005C61.682,52.144,61.906,52.368,62.182,52.368"/>
	<path clip-path="url(#SVGID_5_)" fill="#231F20" d="M61.682,60.916c0,0.276,0.224,0.5,0.5,0.5s0.5-0.224,0.5-0.5v-1.005
		c0-0.277-0.224-0.5-0.5-0.5s-0.5,0.223-0.5,0.5V60.916z"/>
	<path clip-path="url(#SVGID_5_)" fill="#231F20" d="M61.682,57.9c0,0.276,0.224,0.5,0.5,0.5s0.5-0.224,0.5-0.5v-1.005
		c0-0.277-0.224-0.5-0.5-0.5s-0.5,0.223-0.5,0.5V57.9z"/>
	<path clip-path="url(#SVGID_5_)" fill="#231F20" d="M68.221,47.895c-0.276,0-0.5,0.224-0.5,0.5s0.224,0.5,0.5,0.5h1.005
		c0.277,0,0.5-0.224,0.5-0.5s-0.223-0.5-0.5-0.5H68.221z"/>
	<path clip-path="url(#SVGID_5_)" fill="#231F20" d="M87.388,79.91c-0.276,0-0.5,0.224-0.5,0.5s0.224,0.5,0.5,0.5h1.005
		c0.276,0,0.5-0.224,0.5-0.5s-0.224-0.5-0.5-0.5H87.388z"/>
	<path clip-path="url(#SVGID_5_)" fill="#231F20" d="M86.317,47.895c-0.276,0-0.5,0.224-0.5,0.5s0.224,0.5,0.5,0.5h1.005
		c0.276,0,0.5-0.224,0.5-0.5s-0.224-0.5-0.5-0.5H86.317z"/>
	<path clip-path="url(#SVGID_5_)" fill="#231F20" d="M89.333,48.895h1.006c0.276,0,0.5-0.224,0.5-0.5s-0.224-0.5-0.5-0.5h-1.006
		c-0.276,0-0.5,0.224-0.5,0.5S89.057,48.895,89.333,48.895"/>
	<path clip-path="url(#SVGID_5_)" fill="#231F20" d="M94.438,75.433c0.276,0,0.5-0.224,0.5-0.5v-1.006c0-0.276-0.224-0.5-0.5-0.5
		s-0.5,0.224-0.5,0.5v1.006C93.938,75.209,94.162,75.433,94.438,75.433"/>
	<path clip-path="url(#SVGID_5_)" fill="#231F20" d="M89.903,80.41c0,0.276,0.224,0.5,0.5,0.5h1.006c0.276,0,0.5-0.224,0.5-0.5
		s-0.224-0.5-0.5-0.5h-1.006C90.127,79.91,89.903,80.134,89.903,80.41"/>
	<path clip-path="url(#SVGID_5_)" fill="#231F20" d="M94.438,78.448c0.276,0,0.5-0.224,0.5-0.5v-1.005c0-0.276-0.224-0.5-0.5-0.5
		s-0.5,0.224-0.5,0.5v1.005C93.938,78.225,94.162,78.448,94.438,78.448"/>
	<path clip-path="url(#SVGID_5_)" fill="#231F20" d="M92.35,48.895h1.019c0.276,0,0.493-0.224,0.493-0.5s-0.23-0.5-0.507-0.5H92.35
		c-0.276,0-0.5,0.224-0.5,0.5S92.073,48.895,92.35,48.895"/>
	<path clip-path="url(#SVGID_5_)" fill="#231F20" d="M83.301,47.895c-0.276,0-0.5,0.224-0.5,0.5s0.224,0.5,0.5,0.5h1.006
		c0.276,0,0.5-0.224,0.5-0.5s-0.224-0.5-0.5-0.5H83.301z"/>
	<path clip-path="url(#SVGID_5_)" fill="#231F20" d="M65.205,47.895c-0.276,0-0.5,0.224-0.5,0.5s0.224,0.5,0.5,0.5h1.005
		c0.277,0,0.5-0.224,0.5-0.5s-0.223-0.5-0.5-0.5H65.205z"/>
	<path clip-path="url(#SVGID_5_)" fill="#231F20" d="M80.285,47.895c-0.276,0-0.5,0.224-0.5,0.5s0.224,0.5,0.5,0.5h1.005
		c0.276,0,0.5-0.224,0.5-0.5s-0.224-0.5-0.5-0.5H80.285z"/>
	<path clip-path="url(#SVGID_5_)" fill="#231F20" d="M61.939,48.613c-0.151,0.231-0.086,0.541,0.145,0.692
		c0.084,0.055,0.179,0.081,0.273,0.081c0.163,0,0.323-0.079,0.419-0.226c0.1-0.153,0.268-0.252,0.45-0.264
		c0.275-0.017,0.484-0.255,0.467-0.531c-0.018-0.275-0.245-0.484-0.531-0.467C62.668,47.93,62.21,48.197,61.939,48.613"/>
	<path clip-path="url(#SVGID_5_)" fill="#231F20" d="M71.237,47.895c-0.276,0-0.5,0.224-0.5,0.5s0.224,0.5,0.5,0.5h1.005
		c0.276,0,0.5-0.224,0.5-0.5s-0.224-0.5-0.5-0.5H71.237z"/>
	<path clip-path="url(#SVGID_5_)" fill="#231F20" d="M74.253,47.895c-0.276,0-0.5,0.224-0.5,0.5s0.224,0.5,0.5,0.5h1.005
		c0.276,0,0.5-0.224,0.5-0.5s-0.224-0.5-0.5-0.5H74.253z"/>
	<path clip-path="url(#SVGID_5_)" fill="#231F20" d="M77.269,47.895c-0.276,0-0.5,0.224-0.5,0.5s0.224,0.5,0.5,0.5h1.006
		c0.276,0,0.5-0.224,0.5-0.5s-0.224-0.5-0.5-0.5H77.269z"/>
	<path clip-path="url(#SVGID_5_)" fill="#231F20" d="M76.328,79.91h-1.005c-0.276,0-0.5,0.224-0.5,0.5s0.224,0.5,0.5,0.5h1.005
		c0.276,0,0.5-0.224,0.5-0.5S76.604,79.91,76.328,79.91"/>
	<path clip-path="url(#SVGID_5_)" fill="#231F20" d="M85.377,79.91h-1.006c-0.276,0-0.5,0.224-0.5,0.5s0.224,0.5,0.5,0.5h1.006
		c0.276,0,0.5-0.224,0.5-0.5S85.653,79.91,85.377,79.91"/>
	<path clip-path="url(#SVGID_5_)" fill="#231F20" d="M93.843,79.646c-0.104,0.156-0.268,0.252-0.452,0.263
		c-0.275,0.016-0.485,0.253-0.47,0.528c0.016,0.266,0.235,0.471,0.499,0.471c0.01,0,0.02,0,0.029-0.001
		c0.494-0.028,0.953-0.294,1.228-0.708c0.152-0.23,0.089-0.541-0.141-0.693C94.308,79.354,93.996,79.418,93.843,79.646"/>
	<path clip-path="url(#SVGID_5_)" fill="#231F20" d="M94.438,51.304c0.276,0,0.5-0.224,0.5-0.5v-1.005c0-0.277-0.224-0.5-0.5-0.5
		s-0.5,0.223-0.5,0.5v1.005C93.938,51.08,94.162,51.304,94.438,51.304"/>
	<path clip-path="url(#SVGID_5_)" fill="#231F20" d="M73.312,79.91h-1.005c-0.277,0-0.5,0.224-0.5,0.5s0.223,0.5,0.5,0.5h1.005
		c0.276,0,0.5-0.224,0.5-0.5S73.589,79.91,73.312,79.91"/>
	<path clip-path="url(#SVGID_5_)" fill="#231F20" d="M94.438,72.416c0.276,0,0.5-0.224,0.5-0.5v-1.005c0-0.277-0.224-0.5-0.5-0.5
		s-0.5,0.223-0.5,0.5v1.005C93.938,72.192,94.162,72.416,94.438,72.416"/>
	<path clip-path="url(#SVGID_5_)" fill="#231F20" d="M79.345,79.91h-1.006c-0.276,0-0.5,0.224-0.5,0.5s0.224,0.5,0.5,0.5h1.006
		c0.276,0,0.5-0.224,0.5-0.5S79.621,79.91,79.345,79.91"/>
	<path clip-path="url(#SVGID_5_)" fill="#231F20" d="M82.36,79.91h-1.005c-0.276,0-0.5,0.224-0.5,0.5s0.224,0.5,0.5,0.5h1.005
		c0.276,0,0.5-0.224,0.5-0.5S82.637,79.91,82.36,79.91"/>
	<path clip-path="url(#SVGID_5_)" fill="#231F20" d="M94.438,54.32c0.276,0,0.5-0.224,0.5-0.5v-1.005c0-0.277-0.224-0.5-0.5-0.5
		s-0.5,0.223-0.5,0.5v1.005C93.938,54.096,94.162,54.32,94.438,54.32"/>
	<path clip-path="url(#SVGID_5_)" fill="#231F20" d="M94.438,60.353c0.276,0,0.5-0.224,0.5-0.5v-1.005c0-0.277-0.224-0.5-0.5-0.5
		s-0.5,0.223-0.5,0.5v1.005C93.938,60.128,94.162,60.353,94.438,60.353"/>
	<path clip-path="url(#SVGID_5_)" fill="#231F20" d="M94.438,57.336c0.276,0,0.5-0.224,0.5-0.5v-1.005c0-0.277-0.224-0.5-0.5-0.5
		s-0.5,0.223-0.5,0.5v1.005C93.938,57.112,94.162,57.336,94.438,57.336"/>
	<path clip-path="url(#SVGID_5_)" fill="#231F20" d="M94.438,63.369c0.276,0,0.5-0.224,0.5-0.5v-1.005c0-0.277-0.224-0.5-0.5-0.5
		s-0.5,0.223-0.5,0.5v1.005C93.938,63.145,94.162,63.369,94.438,63.369"/>
	<path clip-path="url(#SVGID_5_)" fill="#231F20" d="M94.438,69.4c0.276,0,0.5-0.224,0.5-0.5v-1.005c0-0.277-0.224-0.5-0.5-0.5
		s-0.5,0.223-0.5,0.5V68.9C93.938,69.176,94.162,69.4,94.438,69.4"/>
	<path clip-path="url(#SVGID_5_)" fill="#231F20" d="M94.438,66.384c0.276,0,0.5-0.224,0.5-0.5v-1.005c0-0.277-0.224-0.5-0.5-0.5
		s-0.5,0.223-0.5,0.5v1.005C93.938,66.16,94.162,66.384,94.438,66.384"/>
	<path clip-path="url(#SVGID_5_)" fill="#231F20" d="M82.454,52.467v-0.073c0-0.276-0.224-0.5-0.5-0.5
		c-0.07,0-0.137,0.015-0.197,0.041c-0.032-0.008-0.063-0.017-0.1-0.017c-0.078,0-0.149,0.021-0.215,0.052
		c-0.479,0.074-0.853,0.47-0.853,0.971l-0.001,13.735h-1.991l0.446,0.773c-0.039-0.01-0.077-0.024-0.119-0.024h-1.006
		c-0.276,0-0.5,0.224-0.5,0.5s0.224,0.5,0.5,0.5h1.006c0.229,0,0.412-0.156,0.473-0.364l2.191,3.796l2.993-5.181h-1.993V52.941
		C82.589,52.766,82.533,52.61,82.454,52.467"/>
	<path clip-path="url(#SVGID_5_)" fill="#231F20" d="M78.437,73.19c-0.276,0-0.526,0.112-0.707,0.293
		c-0.094,0.094-0.166,0.206-0.217,0.33c-0.108,0.093-0.18,0.225-0.18,0.377c0,0.153,0.071,0.285,0.18,0.376
		c0.148,0.366,0.505,0.624,0.924,0.624h6.305c0.554,0,1-0.446,1-1c0-0.552-0.446-1-1-1H78.437z"/>
	<path clip-path="url(#SVGID_5_)" fill="#231F20" d="M42.235,104.013v0.248v16.56c0,0.551,0.447,1,1,1h57.529
		c0.554,0,1.001-0.449,1.001-1v-16.56v-2.041V87.97V30.157c0-1.151-0.678-2.201-1.726-2.676l-8.642-3.918H53.99l-9.942,3.946
		c-1.101,0.436-1.813,1.484-1.813,2.669V87.97v14.25V104.013z M54.373,25.563h36.593l7.975,3.615H45.264L54.373,25.563z
		 M44.235,31.178h55.53v53.941c-0.295-0.104-0.604-0.171-0.933-0.171H45.168c-0.328,0-0.638,0.067-0.933,0.171V31.178z
		 M44.235,87.97c0-0.562,0.419-1.021,0.933-1.021h53.664c0.515,0,0.933,0.459,0.933,1.021v13.928v0.322
		c0,0.564-0.418,1.022-0.933,1.022H45.168c-0.514,0-0.933-0.458-0.933-1.022v-0.231V87.97z M99.765,119.82h-55.53v-14.56h55.53
		V119.82z"/>
</g>
</svg>
