<?xml version="1.0" encoding="utf-8"?>
<!-- Generator: Adobe Illustrator 16.0.4, SVG Export Plug-In . SVG Version: 6.00 Build 0)  -->
<!DOCTYPE svg PUBLIC "-//W3C//DTD SVG 1.1//EN" "http://www.w3.org/Graphics/SVG/1.1/DTD/svg11.dtd">
<svg version="1.1" id="Layer_1" xmlns="http://www.w3.org/2000/svg" xmlns:xlink="http://www.w3.org/1999/xlink" x="0px" y="0px"
	 width="144px" height="144px" viewBox="0 0 144 144" enable-background="new 0 0 144 144" xml:space="preserve">
<g>
	<defs>
		<path id="SVGID_1_" d="M47.888,44C45.741,44,44,45.741,44,47.888v48.224c0,2.146,1.741,3.888,3.888,3.888h48.224
			c2.146,0,3.888-1.741,3.888-3.888V47.888C100,45.741,98.259,44,96.112,44H47.888z"/>
	</defs>
	<clipPath id="SVGID_2_">
		<use xlink:href="#SVGID_1_"  overflow="visible"/>
	</clipPath>
	
		<linearGradient id="SVGID_3_" gradientUnits="userSpaceOnUse" x1="0" y1="144" x2="1" y2="144" gradientTransform="matrix(53.7223 53.7223 53.7223 -53.7223 -7690.8828 7781.1465)">
		<stop  offset="0" style="stop-color:#E6E7E8"/>
		<stop  offset="0.5" style="stop-color:#F6F6F6"/>
		<stop  offset="1" style="stop-color:#CBCCCE"/>
	</linearGradient>
	<polygon clip-path="url(#SVGID_2_)" fill="url(#SVGID_3_)" points="72,16 128,72 72,128 16,72 	"/>
</g>
<g>
	<defs>
		<rect id="SVGID_4_" width="144" height="144"/>
	</defs>
	<clipPath id="SVGID_5_">
		<use xlink:href="#SVGID_4_"  overflow="visible"/>
	</clipPath>
	<path clip-path="url(#SVGID_5_)" fill="none" stroke="#231F20" stroke-width="2" stroke-miterlimit="10" d="M96.111,100H47.889
		C45.741,100,44,98.259,44,96.112V47.888C44,45.741,45.741,44,47.889,44h48.223c2.147,0,3.889,1.741,3.889,3.888v48.224
		C100,98.259,98.259,100,96.111,100z"/>
</g>
<g>
	<defs>
		<path id="SVGID_6_" d="M47.888,44C45.741,44,44,45.741,44,47.888v48.224c0,2.146,1.741,3.888,3.888,3.888h48.224
			c2.146,0,3.888-1.741,3.888-3.888V47.888C100,45.741,98.259,44,96.112,44H47.888z"/>
	</defs>
	<clipPath id="SVGID_7_">
		<use xlink:href="#SVGID_6_"  overflow="visible"/>
	</clipPath>
	<path clip-path="url(#SVGID_7_)" d="M52.216,52.032h3.553c0.818,0,1.459-0.641,1.459-1.459v-6.985c0-0.804-0.655-1.459-1.459-1.459
		h-3.553c-0.805,0-1.459,0.655-1.459,1.459v6.985C50.757,51.391,51.398,52.032,52.216,52.032 M52.466,43.838h3.053v6.484h-3.053
		V43.838z"/>
	<path clip-path="url(#SVGID_7_)" d="M61.22,52.032h3.553c0.818,0,1.458-0.641,1.458-1.459v-6.985c0-0.804-0.654-1.459-1.458-1.459
		H61.22c-0.805,0-1.459,0.655-1.459,1.459v6.985C59.761,51.391,60.401,52.032,61.22,52.032 M61.47,43.838h3.053v6.484H61.47V43.838z
		"/>
	<path clip-path="url(#SVGID_7_)" d="M70.224,52.032h3.552c0.818,0,1.459-0.641,1.459-1.459v-6.985c0-0.804-0.654-1.459-1.459-1.459
		h-3.552c-0.805,0-1.459,0.655-1.459,1.459v6.985C68.765,51.391,69.405,52.032,70.224,52.032 M70.474,43.838h3.053v6.484h-3.053
		V43.838z"/>
	<path clip-path="url(#SVGID_7_)" d="M78.622,50.323c-0.511,0-0.854,0.343-0.854,0.855c0,0.519,0.335,0.854,0.854,0.854h4.762
		c0.52,0,0.855-0.335,0.855-0.854v-3.045c0-0.536-0.32-0.855-0.855-0.855s-0.854,0.319-0.854,0.855v2.19h-0.672V42.13h-3.236
		c-0.511,0-0.854,0.343-0.854,0.854c0,0.511,0.343,0.855,0.854,0.855h1.527v6.484H78.622z"/>
	<path clip-path="url(#SVGID_7_)" d="M87.626,50.323c-0.511,0-0.854,0.343-0.854,0.855c0,0.519,0.335,0.854,0.854,0.854h4.762
		c0.52,0,0.855-0.335,0.855-0.854v-3.045c0-0.536-0.32-0.855-0.855-0.855s-0.854,0.319-0.854,0.855v2.19h-0.672V42.13h-3.236
		c-0.511,0-0.854,0.343-0.854,0.854c0,0.511,0.343,0.855,0.854,0.855h1.527v6.484H87.626z"/>
	<path clip-path="url(#SVGID_7_)" d="M52.726,63.034v-6.986c0-0.804-0.655-1.459-1.459-1.459h-3.553
		c-0.805,0-1.459,0.655-1.459,1.459v6.986c0,0.817,0.641,1.458,1.459,1.458h3.553C52.085,64.492,52.726,63.851,52.726,63.034
		 M51.017,62.784h-3.053v-6.485h3.053V62.784z"/>
	<path clip-path="url(#SVGID_7_)" d="M61.73,63.034v-6.986c0-0.804-0.655-1.459-1.459-1.459h-3.553
		c-0.805,0-1.459,0.655-1.459,1.459v6.986c0,0.817,0.64,1.458,1.459,1.458h3.553C61.089,64.492,61.73,63.851,61.73,63.034
		 M60.021,62.784h-3.053v-6.485h3.053V62.784z"/>
	<path clip-path="url(#SVGID_7_)" d="M70.733,63.637v-3.045c0-0.535-0.32-0.854-0.855-0.854c-0.536,0-0.854,0.319-0.854,0.854v2.191
		h-0.672v-8.194h-3.236c-0.519,0-0.854,0.336-0.854,0.855c0,0.519,0.335,0.854,0.854,0.854h1.527v6.485h-1.527
		c-0.519,0-0.854,0.336-0.854,0.854c0,0.519,0.335,0.854,0.854,0.854h4.762C70.397,64.491,70.733,64.156,70.733,63.637"/>
	<path clip-path="url(#SVGID_7_)" d="M79.737,63.034v-6.986c0-0.804-0.654-1.459-1.459-1.459h-3.553
		c-0.805,0-1.459,0.655-1.459,1.459v6.986c0,0.817,0.641,1.458,1.459,1.458h3.553C79.097,64.492,79.737,63.851,79.737,63.034
		 M78.028,62.784h-3.054v-6.485h3.054V62.784z"/>
	<path clip-path="url(#SVGID_7_)" d="M88.741,63.637v-3.045c0-0.535-0.32-0.854-0.855-0.854s-0.854,0.319-0.854,0.854v2.191H86.36
		v-8.194h-3.236c-0.519,0-0.854,0.336-0.854,0.855c0,0.519,0.335,0.854,0.854,0.854h1.527v6.485h-1.527
		c-0.519,0-0.854,0.336-0.854,0.854c0,0.519,0.335,0.854,0.854,0.854h4.762C88.405,64.491,88.741,64.156,88.741,63.637"/>
	<path clip-path="url(#SVGID_7_)" d="M96.89,59.738c-0.535,0-0.854,0.319-0.854,0.854v2.192h-0.671V54.59h-3.236
		c-0.519,0-0.854,0.335-0.854,0.854s0.335,0.855,0.854,0.855h1.527v6.485h-1.527c-0.519,0-0.854,0.335-0.854,0.853
		c0,0.519,0.335,0.855,0.854,0.855h4.762c0.52,0,0.854-0.336,0.854-0.855v-3.045C97.744,60.057,97.425,59.738,96.89,59.738"/>
	<path clip-path="url(#SVGID_7_)" d="M56.735,72.196c-0.535,0-0.855,0.319-0.855,0.854v2.192h-0.672v-8.194h-3.235
		c-0.519,0-0.855,0.336-0.855,0.854c0,0.519,0.336,0.855,0.855,0.855H53.5v6.485h-1.526c-0.519,0-0.855,0.335-0.855,0.853
		c0,0.519,0.336,0.855,0.855,0.855h4.762c0.519,0,0.854-0.337,0.854-0.855v-3.045C57.589,72.516,57.271,72.196,56.735,72.196"/>
	<path clip-path="url(#SVGID_7_)" d="M65.134,67.048h-3.553c-0.805,0-1.459,0.655-1.459,1.459v6.986
		c0,0.816,0.641,1.458,1.459,1.458h3.553c0.818,0,1.459-0.642,1.459-1.458v-6.986C66.593,67.703,65.939,67.048,65.134,67.048
		 M64.884,75.243h-3.053v-6.485h3.053V75.243z"/>
	<path clip-path="url(#SVGID_7_)" d="M74.138,67.048h-3.553c-0.805,0-1.459,0.655-1.459,1.459v6.986
		c0,0.816,0.641,1.458,1.459,1.458h3.553c0.818,0,1.459-0.642,1.459-1.458v-6.986C75.597,67.703,74.942,67.048,74.138,67.048
		 M73.888,75.243h-3.053v-6.485h3.053V75.243z"/>
	<path clip-path="url(#SVGID_7_)" d="M92.993,72.196c-0.535,0-0.856,0.319-0.856,0.854v2.192h-0.671v-8.194h-3.234
		c-0.52,0-0.855,0.336-0.855,0.854c0,0.519,0.336,0.855,0.855,0.855h1.525v6.485h-1.525c-0.52,0-0.855,0.335-0.855,0.853
		c0,0.519,0.336,0.855,0.855,0.855h4.762c0.518,0,0.854-0.337,0.854-0.855v-3.045C93.847,72.516,93.528,72.196,92.993,72.196"/>
	<path clip-path="url(#SVGID_7_)" d="M78.622,75.242c-0.511,0-0.854,0.343-0.854,0.854c0,0.519,0.335,0.854,0.854,0.854h4.762
		c0.52,0,0.855-0.336,0.855-0.854v-3.045c0-0.536-0.32-0.855-0.855-0.855s-0.854,0.319-0.854,0.855v2.19h-0.672v-8.193h-3.236
		c-0.511,0-0.854,0.343-0.854,0.854c0,0.511,0.343,0.855,0.854,0.855h1.527v6.484H78.622z"/>
	<path clip-path="url(#SVGID_7_)" d="M52.726,87.953v-6.986c0-0.804-0.655-1.459-1.459-1.459h-3.553
		c-0.805,0-1.459,0.655-1.459,1.459v6.986c0,0.816,0.641,1.458,1.459,1.458h3.553C52.085,89.411,52.726,88.77,52.726,87.953
		 M51.017,87.703h-3.053v-6.485h3.053V87.703z"/>
	<path clip-path="url(#SVGID_7_)" d="M61.73,87.953v-6.986c0-0.804-0.655-1.459-1.459-1.459h-3.553
		c-0.805,0-1.459,0.655-1.459,1.459v6.986c0,0.816,0.64,1.458,1.459,1.458h3.553C61.089,89.411,61.73,88.77,61.73,87.953
		 M60.021,87.703h-3.053v-6.485h3.053V87.703z"/>
	<path clip-path="url(#SVGID_7_)" d="M70.733,88.557v-3.046c0-0.534-0.32-0.854-0.855-0.854c-0.536,0-0.854,0.319-0.854,0.854v2.191
		h-0.672v-8.194h-3.236c-0.519,0-0.854,0.336-0.854,0.855c0,0.519,0.335,0.854,0.854,0.854h1.527v6.485h-1.527
		c-0.519,0-0.854,0.335-0.854,0.854c0,0.519,0.335,0.854,0.854,0.854h4.762C70.397,89.41,70.733,89.075,70.733,88.557"/>
	<path clip-path="url(#SVGID_7_)" d="M79.737,87.953v-6.986c0-0.804-0.654-1.459-1.459-1.459h-3.553
		c-0.805,0-1.459,0.655-1.459,1.459v6.986c0,0.816,0.641,1.458,1.459,1.458h3.553C79.097,89.411,79.737,88.77,79.737,87.953
		 M78.028,87.703h-3.054v-6.485h3.054V87.703z"/>
	<path clip-path="url(#SVGID_7_)" d="M88.741,88.557v-3.046c0-0.534-0.32-0.854-0.855-0.854s-0.854,0.319-0.854,0.854v2.191H86.36
		v-8.194h-3.236c-0.519,0-0.854,0.336-0.854,0.855c0,0.519,0.335,0.854,0.854,0.854h1.527v6.485h-1.527
		c-0.519,0-0.854,0.335-0.854,0.854c0,0.519,0.335,0.854,0.854,0.854h4.762C88.405,89.41,88.741,89.075,88.741,88.557"/>
	<path clip-path="url(#SVGID_7_)" d="M96.89,84.657c-0.535,0-0.854,0.318-0.854,0.854v2.192h-0.671v-8.194h-3.236
		c-0.519,0-0.854,0.335-0.854,0.854c0,0.519,0.335,0.854,0.854,0.854h1.527v6.485h-1.527c-0.519,0-0.854,0.335-0.854,0.853
		c0,0.52,0.335,0.855,0.854,0.855h4.762c0.52,0,0.854-0.336,0.854-0.855v-3.045C97.744,84.976,97.425,84.657,96.89,84.657"/>
	<path clip-path="url(#SVGID_7_)" d="M102.249,75.494v-6.986c0-0.804-0.655-1.459-1.459-1.459h-3.553
		c-0.806,0-1.459,0.655-1.459,1.459v6.986c0,0.816,0.641,1.458,1.459,1.458h3.553C101.608,76.952,102.249,76.311,102.249,75.494
		 M100.54,75.244h-3.053v-6.485h3.053V75.244z"/>
	<path clip-path="url(#SVGID_7_)" d="M47.901,72.197c-0.535,0-0.854,0.319-0.854,0.855v2.191h-0.671V67.05H43.14
		c-0.518,0-0.853,0.335-0.853,0.854s0.335,0.855,0.853,0.855h1.528v6.485H43.14c-0.518,0-0.853,0.335-0.853,0.853
		c0,0.519,0.335,0.855,0.853,0.855h4.762c0.52,0,0.855-0.337,0.855-0.855v-3.044C48.756,72.517,48.437,72.197,47.901,72.197"/>
	<path clip-path="url(#SVGID_7_)" d="M56.735,97.116c-0.535,0-0.855,0.318-0.855,0.854v2.192h-0.672v-8.194h-3.235
		c-0.519,0-0.855,0.336-0.855,0.854s0.336,0.854,0.855,0.854H53.5v6.485h-1.526c-0.519,0-0.855,0.335-0.855,0.853
		c0,0.52,0.336,0.855,0.855,0.855h4.762c0.519,0,0.854-0.336,0.854-0.855V97.97C57.589,97.435,57.271,97.116,56.735,97.116"/>
	<path clip-path="url(#SVGID_7_)" d="M65.134,91.967h-3.553c-0.805,0-1.459,0.655-1.459,1.459v6.986
		c0,0.816,0.641,1.458,1.459,1.458h3.553c0.818,0,1.459-0.642,1.459-1.458v-6.986C66.593,92.622,65.939,91.967,65.134,91.967
		 M64.884,100.162h-3.053v-6.485h3.053V100.162z"/>
	<path clip-path="url(#SVGID_7_)" d="M74.138,91.967h-3.553c-0.805,0-1.459,0.655-1.459,1.459v6.986
		c0,0.816,0.641,1.458,1.459,1.458h3.553c0.818,0,1.459-0.642,1.459-1.458v-6.986C75.597,92.622,74.942,91.967,74.138,91.967
		 M73.888,100.162h-3.053v-6.485h3.053V100.162z"/>
	<path clip-path="url(#SVGID_7_)" d="M92.993,97.116c-0.535,0-0.856,0.318-0.856,0.854v2.192h-0.671v-8.194h-3.234
		c-0.52,0-0.855,0.336-0.855,0.854s0.336,0.854,0.855,0.854h1.525v6.485h-1.525c-0.52,0-0.855,0.335-0.855,0.853
		c0,0.52,0.336,0.855,0.855,0.855h4.762c0.518,0,0.854-0.336,0.854-0.855V97.97C93.847,97.435,93.528,97.116,92.993,97.116"/>
	<path clip-path="url(#SVGID_7_)" d="M78.622,100.161c-0.511,0-0.854,0.343-0.854,0.854c0,0.521,0.335,0.855,0.854,0.855h4.762
		c0.52,0,0.855-0.335,0.855-0.855v-3.044c0-0.536-0.32-0.854-0.855-0.854s-0.854,0.318-0.854,0.854v2.19h-0.672v-8.193h-3.236
		c-0.511,0-0.854,0.343-0.854,0.854c0,0.511,0.343,0.854,0.854,0.854h1.527v6.484H78.622z"/>
	<path clip-path="url(#SVGID_7_)" d="M102.249,100.413v-6.986c0-0.804-0.655-1.459-1.459-1.459h-3.553
		c-0.806,0-1.459,0.655-1.459,1.459v6.986c0,0.817,0.641,1.458,1.459,1.458h3.553C101.608,101.871,102.249,101.23,102.249,100.413
		 M100.54,100.163h-3.053v-6.485h3.053V100.163z"/>
	<path clip-path="url(#SVGID_7_)" d="M47.901,97.117c-0.535,0-0.854,0.318-0.854,0.854v2.191h-0.671v-8.194H43.14
		c-0.518,0-0.853,0.335-0.853,0.854c0,0.52,0.335,0.855,0.853,0.855h1.528v6.485H43.14c-0.518,0-0.853,0.335-0.853,0.853
		c0,0.52,0.335,0.855,0.853,0.855h4.762c0.52,0,0.855-0.336,0.855-0.855v-3.044C48.756,97.436,48.437,97.117,47.901,97.117"/>
	<path clip-path="url(#SVGID_7_)" d="M102.249,50.574v-6.986c0-0.804-0.655-1.459-1.459-1.459h-3.553
		c-0.806,0-1.459,0.655-1.459,1.459v6.986c0,0.817,0.641,1.458,1.459,1.458h3.553C101.608,52.032,102.249,51.391,102.249,50.574
		 M100.54,50.324h-3.053v-6.485h3.053V50.324z"/>
	<path clip-path="url(#SVGID_7_)" d="M47.901,47.278c-0.535,0-0.854,0.319-0.854,0.854v2.192h-0.671V42.13H43.14
		c-0.518,0-0.853,0.335-0.853,0.854s0.335,0.855,0.853,0.855h1.528v6.485H43.14c-0.518,0-0.853,0.335-0.853,0.853
		c0,0.519,0.335,0.855,0.853,0.855h4.762c0.52,0,0.855-0.336,0.855-0.855v-3.045C48.756,47.597,48.437,47.278,47.901,47.278"/>
</g>
</svg>
