<?xml version="1.0" encoding="utf-8"?>
<!-- Generator: Adobe Illustrator 16.0.4, SVG Export Plug-In . SVG Version: 6.00 Build 0)  -->
<!DOCTYPE svg PUBLIC "-//W3C//DTD SVG 1.1//EN" "http://www.w3.org/Graphics/SVG/1.1/DTD/svg11.dtd">
<svg version="1.1" id="Layer_1" xmlns="http://www.w3.org/2000/svg" xmlns:xlink="http://www.w3.org/1999/xlink" x="0px" y="0px"
	 width="144px" height="144px" viewBox="0 0 144 144" enable-background="new 0 0 144 144" xml:space="preserve">
<g>
	<defs>
		<path id="SVGID_1_" d="M53.99,31.448l-9.942,3.946c-1.101,0.437-1.813,1.484-1.813,2.67v56.729c0,0.138,0.029,0.271,0.079,0.39
			c-0.048,0.218-0.079,0.44-0.079,0.673v14.25c0,1.667,1.316,3.021,2.933,3.021h53.664c1.617,0,2.933-1.354,2.933-3.021v-14.25
			c0-0.232-0.03-0.455-0.079-0.673c0.051-0.119,0.079-0.252,0.079-0.39V38.042c0-1.15-0.678-2.2-1.725-2.677l-8.642-3.917H53.99z"/>
	</defs>
	<clipPath id="SVGID_2_">
		<use xlink:href="#SVGID_1_"  overflow="visible"/>
	</clipPath>
	
		<linearGradient id="SVGID_3_" gradientUnits="userSpaceOnUse" x1="0" y1="144.0137" x2="1" y2="144.0137" gradientTransform="matrix(67.0205 67.0205 67.0205 -67.0205 -9612.4541 9691.5596)">
		<stop  offset="0" style="stop-color:#E6E7E8"/>
		<stop  offset="0.5" style="stop-color:#F6F6F6"/>
		<stop  offset="1" style="stop-color:#CBCCCE"/>
	</linearGradient>
	<polygon clip-path="url(#SVGID_2_)" fill="url(#SVGID_3_)" points="72,1.683 142.604,72.287 72,142.892 1.396,72.287 	"/>
</g>
<g>
	<defs>
		<rect id="SVGID_4_" width="144" height="144"/>
	</defs>
	<clipPath id="SVGID_5_">
		<use xlink:href="#SVGID_4_"  overflow="visible"/>
	</clipPath>
	<path clip-path="url(#SVGID_5_)" fill="#231F20" d="M101.765,38.042c0-1.151-0.678-2.201-1.726-2.676l-8.642-3.918H53.991
		l-9.943,3.946c-1.101,0.436-1.812,1.484-1.812,2.669v56.73v1.062v14.25c0,1.666,1.315,3.021,2.932,3.021h53.665
		c1.617,0,2.933-1.355,2.933-3.021v-14.25v-1.062V38.042z M54.373,33.448h36.593l7.975,3.615H45.265L54.373,33.448z M99.765,110.105
		c0,0.563-0.418,1.021-0.933,1.021H45.167c-0.514,0-0.932-0.458-0.932-1.021v-14.25c0-0.563,0.418-1.022,0.932-1.022h53.665
		c0.515,0,0.933,0.459,0.933,1.022V110.105z M99.765,93.004c-0.295-0.103-0.605-0.171-0.933-0.171H45.167
		c-0.328,0-0.638,0.068-0.932,0.171V39.063h55.529V93.004z"/>
	<path clip-path="url(#SVGID_5_)" fill="#6D6E70" d="M99.765,110.105c0,0.563-0.418,1.021-0.933,1.021H45.167
		c-0.514,0-0.932-0.458-0.932-1.021v-14.25c0-0.562,0.418-1.021,0.932-1.021h53.665c0.515,0,0.933,0.459,0.933,1.021V110.105z"/>
	<path clip-path="url(#SVGID_5_)" fill="#231F20" d="M78.856,76.272H77.85c-0.275,0-0.5-0.223-0.5-0.5c0-0.275,0.225-0.5,0.5-0.5
		h1.007c0.276,0,0.5,0.225,0.5,0.5C79.356,76.05,79.133,76.272,78.856,76.272 M75.84,76.272h-1.005c-0.277,0-0.5-0.223-0.5-0.5
		c0-0.275,0.223-0.5,0.5-0.5h1.005c0.276,0,0.5,0.225,0.5,0.5C76.34,76.05,76.116,76.272,75.84,76.272 M72.824,76.272h-1.005
		c-0.277,0-0.5-0.223-0.5-0.5c0-0.275,0.223-0.5,0.5-0.5h1.005c0.275,0,0.5,0.225,0.5,0.5C73.324,76.05,73.1,76.272,72.824,76.272
		 M69.808,76.272h-1.005c-0.277,0-0.5-0.223-0.5-0.5c0-0.275,0.223-0.5,0.5-0.5h1.005c0.276,0,0.5,0.225,0.5,0.5
		C70.308,76.05,70.084,76.272,69.808,76.272 M66.792,76.272h-1.006c-0.276,0-0.5-0.223-0.5-0.5c0-0.275,0.224-0.5,0.5-0.5h1.006
		c0.276,0,0.5,0.225,0.5,0.5C67.292,76.05,67.068,76.272,66.792,76.272 M63.776,76.272H62.77c-0.276,0-0.5-0.223-0.5-0.5
		c0-0.275,0.224-0.5,0.5-0.5h1.006c0.276,0,0.5,0.225,0.5,0.5C64.276,76.05,64.052,76.272,63.776,76.272 M60.76,76.272h-1.006
		c-0.276,0-0.5-0.223-0.5-0.5c0-0.275,0.224-0.5,0.5-0.5h1.006c0.276,0,0.5,0.225,0.5,0.5C61.26,76.05,61.036,76.272,60.76,76.272
		 M57.744,76.272h-1.005c-0.277,0-0.5-0.223-0.5-0.5c0-0.275,0.223-0.5,0.5-0.5h1.005c0.276,0,0.5,0.225,0.5,0.5
		C58.244,76.05,58.02,76.272,57.744,76.272 M54.728,76.272h-1.006c-0.276,0-0.5-0.223-0.5-0.5c0-0.275,0.224-0.5,0.5-0.5h1.006
		c0.276,0,0.5,0.225,0.5,0.5C55.228,76.05,55.004,76.272,54.728,76.272 M51.712,76.272h-0.999c-0.277,0-0.504-0.223-0.504-0.5
		c0-0.275,0.221-0.5,0.497-0.5h1.006c0.276,0,0.5,0.225,0.5,0.5C52.212,76.05,51.988,76.272,51.712,76.272 M80.867,76.271
		c-0.265,0-0.483-0.205-0.499-0.471c-0.018-0.275,0.193-0.512,0.47-0.528c0.181-0.011,0.349-0.107,0.451-0.261
		c0.151-0.232,0.461-0.294,0.692-0.141c0.23,0.151,0.294,0.462,0.142,0.692c-0.274,0.414-0.733,0.679-1.227,0.707
		C80.887,76.271,80.877,76.271,80.867,76.271 M49.629,74.875c-0.276,0-0.5-0.224-0.5-0.5V73.37c0-0.277,0.224-0.5,0.5-0.5
		c0.277,0,0.5,0.223,0.5,0.5v1.005C50.129,74.651,49.906,74.875,49.629,74.875 M81.886,73.812c-0.276,0-0.5-0.224-0.5-0.5v-1.006
		c0-0.275,0.224-0.5,0.5-0.5s0.5,0.225,0.5,0.5v1.006C82.386,73.588,82.162,73.812,81.886,73.812 M49.629,71.859
		c-0.276,0-0.5-0.224-0.5-0.5v-1.005c0-0.277,0.224-0.5,0.5-0.5c0.277,0,0.5,0.223,0.5,0.5v1.005
		C50.129,71.635,49.906,71.859,49.629,71.859 M81.886,70.796c-0.276,0-0.5-0.224-0.5-0.5V69.29c0-0.276,0.224-0.5,0.5-0.5
		s0.5,0.224,0.5,0.5v1.006C82.386,70.572,82.162,70.796,81.886,70.796 M49.629,68.843c-0.276,0-0.5-0.224-0.5-0.5v-1.005
		c0-0.277,0.224-0.5,0.5-0.5c0.277,0,0.5,0.223,0.5,0.5v1.005C50.129,68.619,49.906,68.843,49.629,68.843 M81.886,67.779
		c-0.276,0-0.5-0.223-0.5-0.5v-1.005c0-0.276,0.224-0.5,0.5-0.5s0.5,0.224,0.5,0.5v1.005C82.386,67.556,82.162,67.779,81.886,67.779
		 M49.629,65.827c-0.276,0-0.5-0.224-0.5-0.5v-1.006c0-0.276,0.224-0.5,0.5-0.5c0.277,0,0.5,0.224,0.5,0.5v1.006
		C50.129,65.603,49.906,65.827,49.629,65.827 M81.886,64.763c-0.276,0-0.5-0.223-0.5-0.5v-1.005c0-0.276,0.224-0.5,0.5-0.5
		s0.5,0.224,0.5,0.5v1.005C82.386,64.54,82.162,64.763,81.886,64.763 M49.629,62.811c-0.276,0-0.5-0.223-0.5-0.5v-1.005
		c0-0.277,0.224-0.5,0.5-0.5c0.277,0,0.5,0.223,0.5,0.5v1.005C50.129,62.588,49.906,62.811,49.629,62.811 M81.886,61.748
		c-0.276,0-0.5-0.224-0.5-0.5v-1.006c0-0.276,0.224-0.5,0.5-0.5s0.5,0.224,0.5,0.5v1.006C82.386,61.524,82.162,61.748,81.886,61.748
		 M49.629,59.795c-0.276,0-0.5-0.224-0.5-0.5V58.29c0-0.277,0.224-0.5,0.5-0.5c0.277,0,0.5,0.223,0.5,0.5v1.005
		C50.129,59.571,49.906,59.795,49.629,59.795 M81.886,58.732c-0.276,0-0.5-0.224-0.5-0.5v-1.006c0-0.276,0.224-0.5,0.5-0.5
		s0.5,0.224,0.5,0.5v1.006C82.386,58.508,82.162,58.732,81.886,58.732 M49.629,56.779c-0.276,0-0.5-0.224-0.5-0.5v-1.005
		c0-0.277,0.224-0.5,0.5-0.5c0.277,0,0.5,0.223,0.5,0.5v1.005C50.129,56.555,49.906,56.779,49.629,56.779 M81.886,55.716
		c-0.276,0-0.5-0.224-0.5-0.5V54.21c0-0.276,0.224-0.5,0.5-0.5s0.5,0.224,0.5,0.5v1.006C82.386,55.492,82.162,55.716,81.886,55.716
		 M49.629,53.763c-0.276,0-0.5-0.224-0.5-0.5v-1.005c0-0.277,0.224-0.5,0.5-0.5c0.277,0,0.5,0.223,0.5,0.5v1.005
		C50.129,53.539,49.906,53.763,49.629,53.763 M81.886,52.699c-0.276,0-0.5-0.223-0.5-0.5v-1.005c0-0.276,0.224-0.5,0.5-0.5
		s0.5,0.224,0.5,0.5v1.005C82.386,52.476,82.162,52.699,81.886,52.699 M49.629,50.747c-0.276,0-0.5-0.224-0.5-0.5v-1.006
		c0-0.276,0.224-0.5,0.5-0.5c0.277,0,0.5,0.224,0.5,0.5v1.006C50.129,50.523,49.906,50.747,49.629,50.747 M81.886,49.683
		c-0.276,0-0.5-0.223-0.5-0.5v-1.005c0-0.276,0.224-0.5,0.5-0.5s0.5,0.224,0.5,0.5v1.005C82.386,49.46,82.162,49.683,81.886,49.683
		 M49.629,47.731c-0.276,0-0.5-0.224-0.5-0.5v-1.006c0-0.276,0.224-0.5,0.5-0.5c0.277,0,0.5,0.224,0.5,0.5v1.006
		C50.129,47.507,49.906,47.731,49.629,47.731 M81.886,46.667c-0.276,0-0.5-0.223-0.5-0.5v-1.005c0-0.277,0.224-0.5,0.5-0.5
		s0.5,0.223,0.5,0.5v1.005C82.386,46.444,82.162,46.667,81.886,46.667 M49.805,44.75c-0.094,0-0.189-0.027-0.272-0.081
		c-0.232-0.151-0.297-0.461-0.146-0.692c0.271-0.416,0.729-0.684,1.224-0.716c0.266-0.017,0.513,0.192,0.53,0.468
		c0.018,0.275-0.191,0.513-0.467,0.53c-0.182,0.012-0.35,0.11-0.45,0.264C50.128,44.67,49.969,44.75,49.805,44.75 M80.814,44.258
		c-0.021,0-0.053-0.001-0.074-0.004l-0.942,0.004c-0.276,0-0.5-0.224-0.5-0.5s0.224-0.5,0.5-0.5h1.005
		c0.276,0,0.505,0.224,0.505,0.5S81.091,44.258,80.814,44.258 M77.787,44.258h-1.006c-0.276,0-0.5-0.224-0.5-0.5s0.224-0.5,0.5-0.5
		h1.006c0.276,0,0.5,0.224,0.5,0.5S78.063,44.258,77.787,44.258 M74.77,44.258h-1.005c-0.275,0-0.5-0.224-0.5-0.5s0.225-0.5,0.5-0.5
		h1.005c0.277,0,0.5,0.224,0.5,0.5S75.047,44.258,74.77,44.258 M71.754,44.258h-1.005c-0.277,0-0.5-0.224-0.5-0.5s0.223-0.5,0.5-0.5
		h1.005c0.277,0,0.5,0.224,0.5,0.5S72.031,44.258,71.754,44.258 M68.739,44.258h-1.006c-0.276,0-0.5-0.224-0.5-0.5
		s0.224-0.5,0.5-0.5h1.006c0.276,0,0.5,0.224,0.5,0.5S69.015,44.258,68.739,44.258 M65.722,44.258h-1.005
		c-0.276,0-0.5-0.224-0.5-0.5s0.224-0.5,0.5-0.5h1.005c0.277,0,0.5,0.224,0.5,0.5S65.999,44.258,65.722,44.258 M62.706,44.258
		h-1.005c-0.276,0-0.5-0.224-0.5-0.5s0.224-0.5,0.5-0.5h1.005c0.277,0,0.5,0.224,0.5,0.5S62.983,44.258,62.706,44.258 M59.69,44.258
		h-1.005c-0.277,0-0.5-0.224-0.5-0.5s0.223-0.5,0.5-0.5h1.005c0.277,0,0.5,0.224,0.5,0.5S59.967,44.258,59.69,44.258 M56.674,44.258
		h-1.005c-0.277,0-0.5-0.224-0.5-0.5s0.223-0.5,0.5-0.5h1.005c0.276,0,0.5,0.224,0.5,0.5S56.95,44.258,56.674,44.258 M53.658,44.258
		h-1.005c-0.277,0-0.5-0.224-0.5-0.5s0.223-0.5,0.5-0.5h1.005c0.276,0,0.5,0.224,0.5,0.5S53.934,44.258,53.658,44.258"/>
	<path clip-path="url(#SVGID_5_)" fill="#231F20" d="M85.097,82.516h-1.005c-0.275,0-0.5-0.224-0.5-0.5s0.225-0.5,0.5-0.5h1.005
		c0.277,0,0.5,0.224,0.5,0.5S85.374,82.516,85.097,82.516 M82.082,82.516h-1.005c-0.277,0-0.5-0.224-0.5-0.5s0.223-0.5,0.5-0.5
		h1.005c0.276,0,0.5,0.224,0.5,0.5S82.358,82.516,82.082,82.516 M79.066,82.516h-1.006c-0.276,0-0.5-0.224-0.5-0.5
		s0.224-0.5,0.5-0.5h1.006c0.275,0,0.5,0.224,0.5,0.5S79.342,82.516,79.066,82.516 M76.049,82.516h-1.004
		c-0.276,0-0.5-0.224-0.5-0.5s0.224-0.5,0.5-0.5h1.004c0.277,0,0.5,0.224,0.5,0.5S76.326,82.516,76.049,82.516 M73.034,82.516
		h-1.006c-0.276,0-0.5-0.224-0.5-0.5s0.224-0.5,0.5-0.5h1.006c0.276,0,0.5,0.224,0.5,0.5S73.311,82.516,73.034,82.516
		 M70.018,82.516h-1.006c-0.276,0-0.5-0.224-0.5-0.5s0.224-0.5,0.5-0.5h1.006c0.276,0,0.5,0.224,0.5,0.5
		S70.294,82.516,70.018,82.516 M67.002,82.516h-1.006c-0.276,0-0.5-0.224-0.5-0.5s0.224-0.5,0.5-0.5h1.006
		c0.276,0,0.5,0.224,0.5,0.5S67.278,82.516,67.002,82.516 M63.985,82.516H62.98c-0.276,0-0.5-0.224-0.5-0.5s0.224-0.5,0.5-0.5h1.005
		c0.277,0,0.5,0.224,0.5,0.5S64.262,82.516,63.985,82.516 M60.969,82.516h-1.005c-0.276,0-0.5-0.224-0.5-0.5s0.224-0.5,0.5-0.5
		h1.005c0.277,0,0.5,0.224,0.5,0.5S61.246,82.516,60.969,82.516 M57.953,82.516h-0.998c-0.277,0-0.504-0.224-0.504-0.5
		s0.221-0.5,0.497-0.5h1.005c0.277,0,0.5,0.224,0.5,0.5S58.23,82.516,57.953,82.516 M87.109,82.514
		c-0.265,0-0.483-0.205-0.499-0.471c-0.018-0.275,0.193-0.513,0.47-0.528c0.181-0.011,0.349-0.108,0.451-0.261
		c0.15-0.231,0.461-0.296,0.691-0.142c0.231,0.152,0.295,0.462,0.143,0.692c-0.274,0.415-0.733,0.68-1.228,0.708
		C87.129,82.514,87.119,82.514,87.109,82.514 M55.871,81.117c-0.276,0-0.5-0.224-0.5-0.5v-1.005c0-0.277,0.224-0.5,0.5-0.5
		c0.277,0,0.5,0.223,0.5,0.5v1.005C56.371,80.894,56.148,81.117,55.871,81.117 M88.128,80.055c-0.276,0-0.5-0.224-0.5-0.5v-1.006
		c0-0.275,0.224-0.5,0.5-0.5s0.5,0.225,0.5,0.5v1.006C88.628,79.831,88.404,80.055,88.128,80.055 M55.871,78.101
		c-0.276,0-0.5-0.224-0.5-0.5v-1.005c0-0.276,0.224-0.5,0.5-0.5c0.277,0,0.5,0.224,0.5,0.5v1.005
		C56.371,77.877,56.148,78.101,55.871,78.101 M88.128,77.039c-0.276,0-0.5-0.224-0.5-0.5v-1.006c0-0.276,0.224-0.5,0.5-0.5
		s0.5,0.224,0.5,0.5v1.006C88.628,76.815,88.404,77.039,88.128,77.039 M55.871,75.085c-0.276,0-0.5-0.224-0.5-0.5V73.58
		c0-0.277,0.224-0.5,0.5-0.5c0.277,0,0.5,0.223,0.5,0.5v1.005C56.371,74.861,56.148,75.085,55.871,75.085 M88.128,74.022
		c-0.276,0-0.5-0.224-0.5-0.5v-1.006c0-0.275,0.224-0.5,0.5-0.5s0.5,0.225,0.5,0.5v1.006C88.628,73.799,88.404,74.022,88.128,74.022
		 M55.871,72.069c-0.276,0-0.5-0.224-0.5-0.5v-1.006c0-0.276,0.224-0.5,0.5-0.5c0.277,0,0.5,0.224,0.5,0.5v1.006
		C56.371,71.845,56.148,72.069,55.871,72.069 M88.128,71.006c-0.276,0-0.5-0.223-0.5-0.5v-1.005c0-0.276,0.224-0.5,0.5-0.5
		s0.5,0.224,0.5,0.5v1.005C88.628,70.783,88.404,71.006,88.128,71.006 M55.871,69.053c-0.276,0-0.5-0.223-0.5-0.5v-1.005
		c0-0.277,0.224-0.5,0.5-0.5c0.277,0,0.5,0.223,0.5,0.5v1.005C56.371,68.83,56.148,69.053,55.871,69.053 M88.128,67.99
		c-0.276,0-0.5-0.223-0.5-0.5v-1.005c0-0.277,0.224-0.5,0.5-0.5s0.5,0.223,0.5,0.5v1.005C88.628,67.767,88.404,67.99,88.128,67.99
		 M55.871,66.037c-0.276,0-0.5-0.224-0.5-0.5v-1.005c0-0.277,0.224-0.5,0.5-0.5c0.277,0,0.5,0.223,0.5,0.5v1.005
		C56.371,65.813,56.148,66.037,55.871,66.037 M88.128,64.974c-0.276,0-0.5-0.224-0.5-0.5v-1.005c0-0.277,0.224-0.5,0.5-0.5
		s0.5,0.223,0.5,0.5v1.005C88.628,64.75,88.404,64.974,88.128,64.974 M55.871,63.021c-0.276,0-0.5-0.224-0.5-0.5v-1.005
		c0-0.277,0.224-0.5,0.5-0.5c0.277,0,0.5,0.223,0.5,0.5v1.005C56.371,62.797,56.148,63.021,55.871,63.021 M88.128,61.958
		c-0.276,0-0.5-0.223-0.5-0.5v-1.005c0-0.276,0.224-0.5,0.5-0.5s0.5,0.224,0.5,0.5v1.005C88.628,61.735,88.404,61.958,88.128,61.958
		 M55.871,60.005c-0.276,0-0.5-0.224-0.5-0.5V58.5c0-0.277,0.224-0.5,0.5-0.5c0.277,0,0.5,0.223,0.5,0.5v1.005
		C56.371,59.781,56.148,60.005,55.871,60.005 M88.128,58.942c-0.276,0-0.5-0.223-0.5-0.5v-1.005c0-0.276,0.224-0.5,0.5-0.5
		s0.5,0.224,0.5,0.5v1.005C88.628,58.719,88.404,58.942,88.128,58.942 M55.871,56.989c-0.276,0-0.5-0.224-0.5-0.5v-1.006
		c0-0.276,0.224-0.5,0.5-0.5c0.277,0,0.5,0.224,0.5,0.5v1.006C56.371,56.765,56.148,56.989,55.871,56.989 M88.128,55.926
		c-0.276,0-0.5-0.223-0.5-0.5v-1.005c0-0.276,0.224-0.5,0.5-0.5s0.5,0.224,0.5,0.5v1.005C88.628,55.703,88.404,55.926,88.128,55.926
		 M55.871,53.973c-0.276,0-0.5-0.224-0.5-0.5v-1.006c0-0.276,0.224-0.5,0.5-0.5c0.277,0,0.5,0.224,0.5,0.5v1.006
		C56.371,53.749,56.148,53.973,55.871,53.973 M88.128,52.91c-0.276,0-0.5-0.223-0.5-0.5v-1.005c0-0.277,0.224-0.5,0.5-0.5
		s0.5,0.223,0.5,0.5v1.005C88.628,52.687,88.404,52.91,88.128,52.91 M56.047,50.992c-0.094,0-0.189-0.027-0.272-0.081
		c-0.232-0.151-0.297-0.461-0.146-0.692c0.271-0.416,0.729-0.684,1.224-0.716c0.266-0.017,0.513,0.192,0.53,0.468
		c0.018,0.275-0.191,0.513-0.467,0.53c-0.182,0.012-0.35,0.11-0.45,0.264C56.37,50.912,56.211,50.992,56.047,50.992 M87.058,50.5
		c-0.013,0-0.04,0-0.055-0.002L86.04,50.5c-0.277,0-0.5-0.224-0.5-0.5s0.223-0.5,0.5-0.5h1.005c0.276,0,0.506,0.224,0.506,0.5
		S87.335,50.5,87.058,50.5 M84.029,50.5h-1.006c-0.276,0-0.5-0.224-0.5-0.5s0.224-0.5,0.5-0.5h1.006c0.275,0,0.5,0.224,0.5,0.5
		S84.305,50.5,84.029,50.5 M81.012,50.5h-1.005c-0.275,0-0.5-0.224-0.5-0.5s0.225-0.5,0.5-0.5h1.005c0.277,0,0.5,0.224,0.5,0.5
		S81.289,50.5,81.012,50.5 M77.997,50.5h-1.006c-0.277,0-0.5-0.224-0.5-0.5s0.223-0.5,0.5-0.5h1.006c0.276,0,0.5,0.224,0.5,0.5
		S78.273,50.5,77.997,50.5 M74.98,50.5h-1.006c-0.275,0-0.5-0.224-0.5-0.5s0.225-0.5,0.5-0.5h1.006c0.275,0,0.5,0.224,0.5,0.5
		S75.256,50.5,74.98,50.5 M71.964,50.5h-1.005c-0.276,0-0.5-0.224-0.5-0.5s0.224-0.5,0.5-0.5h1.005c0.277,0,0.5,0.224,0.5,0.5
		S72.241,50.5,71.964,50.5 M68.948,50.5h-1.005c-0.276,0-0.5-0.224-0.5-0.5s0.224-0.5,0.5-0.5h1.005c0.277,0,0.5,0.224,0.5,0.5
		S69.225,50.5,68.948,50.5 M65.932,50.5h-1.005c-0.277,0-0.5-0.224-0.5-0.5s0.223-0.5,0.5-0.5h1.005c0.277,0,0.5,0.224,0.5,0.5
		S66.209,50.5,65.932,50.5 M62.916,50.5h-1.005c-0.277,0-0.5-0.224-0.5-0.5s0.223-0.5,0.5-0.5h1.005c0.276,0,0.5,0.224,0.5,0.5
		S63.192,50.5,62.916,50.5 M59.9,50.5h-1.005c-0.277,0-0.5-0.224-0.5-0.5s0.223-0.5,0.5-0.5H59.9c0.276,0,0.5,0.224,0.5,0.5
		S60.176,50.5,59.9,50.5"/>
	<path clip-path="url(#SVGID_5_)" fill="#231F20" d="M91.34,88.758h-1.006c-0.275,0-0.5-0.224-0.5-0.5s0.225-0.5,0.5-0.5h1.006
		c0.277,0,0.5,0.224,0.5,0.5S91.617,88.758,91.34,88.758 M88.324,88.758h-1.005c-0.277,0-0.5-0.224-0.5-0.5s0.223-0.5,0.5-0.5h1.005
		c0.276,0,0.5,0.224,0.5,0.5S88.601,88.758,88.324,88.758 M85.309,88.758h-1.006c-0.276,0-0.5-0.224-0.5-0.5s0.224-0.5,0.5-0.5
		h1.006c0.275,0,0.5,0.224,0.5,0.5S85.584,88.758,85.309,88.758 M82.291,88.758h-1.004c-0.276,0-0.5-0.224-0.5-0.5
		s0.224-0.5,0.5-0.5h1.004c0.277,0,0.5,0.224,0.5,0.5S82.568,88.758,82.291,88.758 M79.276,88.758h-1.006
		c-0.276,0-0.5-0.224-0.5-0.5s0.224-0.5,0.5-0.5h1.006c0.276,0,0.5,0.224,0.5,0.5S79.553,88.758,79.276,88.758 M76.261,88.758
		h-1.007c-0.275,0-0.5-0.224-0.5-0.5s0.225-0.5,0.5-0.5h1.007c0.276,0,0.5,0.224,0.5,0.5S76.537,88.758,76.261,88.758
		 M73.244,88.758h-1.006c-0.276,0-0.5-0.224-0.5-0.5s0.224-0.5,0.5-0.5h1.006c0.276,0,0.5,0.224,0.5,0.5
		S73.521,88.758,73.244,88.758 M70.228,88.758h-1.005c-0.276,0-0.5-0.224-0.5-0.5s0.224-0.5,0.5-0.5h1.005
		c0.277,0,0.5,0.224,0.5,0.5S70.504,88.758,70.228,88.758 M67.211,88.758h-1.005c-0.276,0-0.5-0.224-0.5-0.5s0.224-0.5,0.5-0.5
		h1.005c0.277,0,0.5,0.224,0.5,0.5S67.488,88.758,67.211,88.758 M64.196,88.758h-0.999c-0.276,0-0.503-0.224-0.503-0.5
		s0.22-0.5,0.496-0.5h1.006c0.276,0,0.5,0.224,0.5,0.5S64.472,88.758,64.196,88.758 M93.352,88.756
		c-0.265,0-0.483-0.205-0.499-0.471c-0.018-0.275,0.193-0.513,0.47-0.528c0.184-0.011,0.349-0.106,0.453-0.262
		c0.153-0.231,0.465-0.292,0.692-0.14c0.23,0.152,0.293,0.463,0.14,0.692c-0.275,0.414-0.734,0.679-1.228,0.707
		C93.371,88.756,93.361,88.756,93.352,88.756 M62.113,87.359c-0.276,0-0.5-0.224-0.5-0.5v-1.005c0-0.276,0.224-0.5,0.5-0.5
		c0.277,0,0.5,0.224,0.5,0.5v1.005C62.613,87.136,62.39,87.359,62.113,87.359 M94.371,86.297c-0.276,0-0.5-0.224-0.5-0.5v-1.005
		c0-0.276,0.224-0.5,0.5-0.5s0.5,0.224,0.5,0.5v1.005C94.871,86.073,94.647,86.297,94.371,86.297 M62.113,84.344
		c-0.276,0-0.5-0.224-0.5-0.5v-1.006c0-0.276,0.224-0.5,0.5-0.5c0.277,0,0.5,0.224,0.5,0.5v1.006
		C62.613,84.12,62.39,84.344,62.113,84.344 M94.371,83.281c-0.276,0-0.5-0.224-0.5-0.5v-1.006c0-0.276,0.224-0.5,0.5-0.5
		s0.5,0.224,0.5,0.5v1.006C94.871,83.058,94.647,83.281,94.371,83.281 M62.113,81.328c-0.276,0-0.5-0.225-0.5-0.501v-1.005
		c0-0.276,0.224-0.5,0.5-0.5c0.277,0,0.5,0.224,0.5,0.5v1.005C62.613,81.104,62.39,81.328,62.113,81.328 M94.371,80.266
		c-0.276,0-0.5-0.225-0.5-0.5V78.76c0-0.276,0.224-0.5,0.5-0.5s0.5,0.224,0.5,0.5v1.006C94.871,80.041,94.647,80.266,94.371,80.266
		 M62.113,78.312c-0.276,0-0.5-0.224-0.5-0.5v-1.005c0-0.276,0.224-0.5,0.5-0.5c0.277,0,0.5,0.224,0.5,0.5v1.005
		C62.613,78.088,62.39,78.312,62.113,78.312 M94.371,77.249c-0.276,0-0.5-0.224-0.5-0.5v-1.006c0-0.276,0.224-0.5,0.5-0.5
		s0.5,0.224,0.5,0.5v1.006C94.871,77.025,94.647,77.249,94.371,77.249 M62.113,75.295c-0.276,0-0.5-0.223-0.5-0.5V73.79
		c0-0.276,0.224-0.5,0.5-0.5c0.277,0,0.5,0.224,0.5,0.5v1.005C62.613,75.072,62.39,75.295,62.113,75.295 M94.371,74.233
		c-0.276,0-0.5-0.225-0.5-0.5v-1.006c0-0.276,0.224-0.5,0.5-0.5s0.5,0.224,0.5,0.5v1.006C94.871,74.009,94.647,74.233,94.371,74.233
		 M62.113,72.279c-0.276,0-0.5-0.224-0.5-0.5v-1.005c0-0.277,0.224-0.5,0.5-0.5c0.277,0,0.5,0.223,0.5,0.5v1.005
		C62.613,72.056,62.39,72.279,62.113,72.279 M94.371,71.217c-0.276,0-0.5-0.224-0.5-0.5v-1.006c0-0.276,0.224-0.5,0.5-0.5
		s0.5,0.224,0.5,0.5v1.006C94.871,70.993,94.647,71.217,94.371,71.217 M62.113,69.263c-0.276,0-0.5-0.224-0.5-0.5v-1.005
		c0-0.277,0.224-0.5,0.5-0.5c0.277,0,0.5,0.223,0.5,0.5v1.005C62.613,69.039,62.39,69.263,62.113,69.263 M94.371,68.2
		c-0.276,0-0.5-0.223-0.5-0.5v-1.005c0-0.276,0.224-0.5,0.5-0.5s0.5,0.224,0.5,0.5V67.7C94.871,67.977,94.647,68.2,94.371,68.2
		 M62.113,66.247c-0.276,0-0.5-0.224-0.5-0.5v-1.005c0-0.277,0.224-0.5,0.5-0.5c0.277,0,0.5,0.223,0.5,0.5v1.005
		C62.613,66.023,62.39,66.247,62.113,66.247 M94.371,65.185c-0.276,0-0.5-0.224-0.5-0.5v-1.006c0-0.276,0.224-0.5,0.5-0.5
		s0.5,0.224,0.5,0.5v1.006C94.871,64.961,94.647,65.185,94.371,65.185 M62.113,63.231c-0.276,0-0.5-0.224-0.5-0.5v-1.005
		c0-0.276,0.224-0.5,0.5-0.5c0.277,0,0.5,0.224,0.5,0.5v1.005C62.613,63.007,62.39,63.231,62.113,63.231 M94.371,62.169
		c-0.276,0-0.5-0.224-0.5-0.5v-1.006c0-0.276,0.224-0.5,0.5-0.5s0.5,0.224,0.5,0.5v1.006C94.871,61.945,94.647,62.169,94.371,62.169
		 M62.113,60.215c-0.276,0-0.5-0.223-0.5-0.5V58.71c0-0.277,0.224-0.5,0.5-0.5c0.277,0,0.5,0.223,0.5,0.5v1.005
		C62.613,59.992,62.39,60.215,62.113,60.215 M94.371,59.153c-0.276,0-0.5-0.224-0.5-0.5v-1.006c0-0.276,0.224-0.5,0.5-0.5
		s0.5,0.224,0.5,0.5v1.006C94.871,58.929,94.647,59.153,94.371,59.153 M62.288,57.233c-0.093,0-0.188-0.026-0.273-0.081
		c-0.231-0.152-0.296-0.461-0.144-0.693c0.271-0.415,0.729-0.682,1.223-0.714c0.266-0.017,0.513,0.192,0.531,0.468
		c0.017,0.275-0.191,0.513-0.467,0.53c-0.182,0.012-0.35,0.111-0.451,0.264C62.611,57.154,62.452,57.233,62.288,57.233
		 M93.301,56.742h-1.019c-0.277,0-0.5-0.224-0.5-0.5s0.223-0.5,0.5-0.5h1.005c0.276,0,0.506,0.224,0.506,0.5
		S93.577,56.742,93.301,56.742 M90.271,56.742h-1.006c-0.276,0-0.5-0.224-0.5-0.5s0.224-0.5,0.5-0.5h1.006
		c0.275,0,0.5,0.224,0.5,0.5S90.547,56.742,90.271,56.742 M87.254,56.742h-1.005c-0.275,0-0.5-0.224-0.5-0.5s0.225-0.5,0.5-0.5
		h1.005c0.277,0,0.5,0.224,0.5,0.5S87.531,56.742,87.254,56.742 M84.239,56.742h-1.006c-0.277,0-0.5-0.224-0.5-0.5
		s0.223-0.5,0.5-0.5h1.006c0.276,0,0.5,0.224,0.5,0.5S84.516,56.742,84.239,56.742 M81.223,56.742h-1.005
		c-0.276,0-0.5-0.224-0.5-0.5s0.224-0.5,0.5-0.5h1.005c0.275,0,0.5,0.224,0.5,0.5S81.498,56.742,81.223,56.742 M78.206,56.742
		h-1.005c-0.277,0-0.5-0.224-0.5-0.5s0.223-0.5,0.5-0.5h1.005c0.277,0,0.5,0.224,0.5,0.5S78.483,56.742,78.206,56.742 M75.19,56.742
		h-1.005c-0.276,0-0.5-0.224-0.5-0.5s0.224-0.5,0.5-0.5h1.005c0.275,0,0.5,0.224,0.5,0.5S75.466,56.742,75.19,56.742 M72.174,56.742
		h-1.004c-0.277,0-0.5-0.224-0.5-0.5s0.223-0.5,0.5-0.5h1.004c0.277,0,0.5,0.224,0.5,0.5S72.451,56.742,72.174,56.742
		 M69.158,56.742h-1.005c-0.277,0-0.5-0.224-0.5-0.5s0.223-0.5,0.5-0.5h1.005c0.276,0,0.5,0.224,0.5,0.5
		S69.434,56.742,69.158,56.742 M66.142,56.742h-1.005c-0.277,0-0.5-0.224-0.5-0.5s0.223-0.5,0.5-0.5h1.005
		c0.276,0,0.5,0.224,0.5,0.5S66.418,56.742,66.142,56.742"/>
</g>
</svg>
