<?xml version="1.0" encoding="utf-8"?>
<!-- Generator: Adobe Illustrator 18.1.0, SVG Export Plug-In . SVG Version: 6.00 Build 0)  -->
<svg version="1.1" id="Layer_1" xmlns="http://www.w3.org/2000/svg" xmlns:xlink="http://www.w3.org/1999/xlink" x="0px" y="0px"
	 viewBox="0 0 144 144" enable-background="new 0 0 144 144" xml:space="preserve">
<g>
	<g>
		<g>
			<circle fill="#92D400" cx="72" cy="72" r="25"/>
			<path fill="#231F20" d="M72,98c-14.3,0-26-11.7-26-26c0-14.3,11.7-26,26-26c14.3,0,26,11.7,26,26C98,86.3,86.3,98,72,98z M72,48
				c-13.2,0-24,10.8-24,24s10.8,24,24,24s24-10.8,24-24S85.2,48,72,48z"/>
		</g>
	</g>
	<g>
		<path fill="none" d="M69.3,86.1c-0.9,0-2-0.6-2.6-1.3l-7.5-9.6c-0.6-0.8-0.5-2.1,0.2-2.8l1-1c0.3-0.3,0.8-0.5,1.3-0.5
			c0.5,0,1,0.2,1.4,0.6l5.3,6.5c0.3,0.3,0.6,0.3,0.9-0.1l11.3-19c0.3-0.6,1-0.9,1.7-0.9c0.3,0,0.7,0.1,1,0.3l1,0.6
			c0.9,0.5,1.2,1.7,0.7,2.6L71.8,84.6C71.3,85.4,70.2,86.1,69.3,86.1z"/>
		<path d="M69.3,86.6c-1,0-2.3-0.6-3-1.5l-7.5-9.6c-0.8-1-0.7-2.5,0.2-3.4l1-1c0.9-0.9,2.5-0.9,3.4,0.1l5.3,6.5l11.3-19
			c0.7-1.1,2.2-1.5,3.3-0.8l1,0.6c1.1,0.7,1.5,2.2,0.9,3.3L72.2,84.8C71.6,85.8,70.4,86.6,69.3,86.6z M61.7,71.3
			c-0.3,0-0.7,0.1-0.9,0.4l-1,1c-0.5,0.5-0.6,1.5-0.1,2.1l7.5,9.6c0.5,0.6,1.5,1.1,2.2,1.1c0.7,0,1.6-0.6,2-1.2l13.1-23.2
			c0.4-0.7,0.2-1.6-0.5-1.9l-1-0.6c-0.6-0.4-1.6-0.1-1.9,0.5l-11.3,19c-0.4,0.6-1.2,0.7-1.7,0.1l-5.3-6.5
			C62.5,71.5,62.1,71.3,61.7,71.3z"/>
	</g>
</g>
</svg>
