<?xml version="1.0" encoding="utf-8"?>
<!-- Generator: Adobe Illustrator 16.0.4, SVG Export Plug-In . SVG Version: 6.00 Build 0)  -->
<!DOCTYPE svg PUBLIC "-//W3C//DTD SVG 1.1//EN" "http://www.w3.org/Graphics/SVG/1.1/DTD/svg11.dtd">
<svg version="1.1" id="Layer_1" xmlns="http://www.w3.org/2000/svg" xmlns:xlink="http://www.w3.org/1999/xlink" x="0px" y="0px"
	 width="144px" height="144px" viewBox="0 0 144 144" enable-background="new 0 0 144 144" xml:space="preserve">
<g>
	<defs>
		<path id="SVGID_1_" d="M54.182,23.451l-9.765,3.877c-0.714,0.282-1.182,0.972-1.182,1.739v56.729h57.53V29.047
			c0-0.762-0.445-1.452-1.139-1.767l-8.444-3.829H54.182z"/>
	</defs>
	<clipPath id="SVGID_2_">
		<use xlink:href="#SVGID_1_"  overflow="visible"/>
	</clipPath>
	
		<linearGradient id="SVGID_3_" gradientUnits="userSpaceOnUse" x1="0" y1="144.0215" x2="1" y2="144.0215" gradientTransform="matrix(57.5169 57.5169 57.5169 -57.5169 -8239.1836 8310.707)">
		<stop  offset="0" style="stop-color:#E6E7E8"/>
		<stop  offset="0.5" style="stop-color:#F6F6F6"/>
		<stop  offset="1" style="stop-color:#CBCCCE"/>
	</linearGradient>
	<polygon clip-path="url(#SVGID_2_)" fill="url(#SVGID_3_)" points="72,-5.314 131.938,54.624 72,114.561 12.062,54.624 	"/>
</g>
<g>
	<defs>
		<rect id="SVGID_4_" width="144" height="144"/>
	</defs>
	<clipPath id="SVGID_5_">
		<use xlink:href="#SVGID_4_"  overflow="visible"/>
	</clipPath>
	<path clip-path="url(#SVGID_5_)" fill="#6D6E70" d="M99.832,100.722c0,0.562-0.418,1.021-0.933,1.021H45.235
		c-0.514,0-0.932-0.458-0.932-1.021v-14.25c0-0.563,0.418-1.022,0.932-1.022h53.664c0.515,0,0.933,0.459,0.933,1.022V100.722z"/>
	<path clip-path="url(#SVGID_5_)" fill="#FFFFFF" d="M116.228,118.397H28.262c1.636-4.94,6.215-8.295,11.585-8.295h0.009
		l0.145,0.007c0.483,0.045,0.875-0.32,0.959-0.781c1.156-6.375,6.699-11.002,13.18-11.002c1.736,0,3.423,0.343,5.027,0.996
		c0.993,0.481,3.114,1.709,4.423,3.907c0.157,0.261,0.452,0.388,0.738,0.336c0.083-0.016,0.165-0.043,0.24-0.09
		c0.338-0.2,0.449-0.639,0.248-0.976c-1.127-1.891-2.729-3.137-3.949-3.877c2.47-9.157,10.782-15.535,20.294-15.535
		c9.139,0,17.202,5.843,19.964,14.49c-2.454-0.017-4.279,0.871-4.387,0.916c-0.362,0.149-0.537,0.565-0.387,0.931
		c0.15,0.364,0.567,0.537,0.932,0.387c0.026-0.012,2.541-1.012,5.399-0.539c7.964,1.722,13.694,8.761,13.694,16.959
		C116.377,116.927,116.329,117.64,116.228,118.397"/>
	<path clip-path="url(#SVGID_5_)" fill="#231F20" d="M99.832,99.222l2-0.046C101.115,99.123,100.437,99.151,99.832,99.222"/>
	<path clip-path="url(#SVGID_5_)" fill="#231F20" d="M42.303,86.472v14.25c0,0.381,0.077,0.742,0.202,1.079
		c0.55-0.646,1.151-1.242,1.798-1.785V86.472c0-0.564,0.419-1.023,0.933-1.023h22.62c1.071-0.763,2.21-1.429,3.402-2H45.236
		c-0.328,0-0.638,0.069-0.933,0.172V29.68h55.53v53.939c-0.295-0.102-0.605-0.171-0.934-0.171h-7.874
		c1.191,0.571,2.329,1.238,3.401,2h4.473c0.516,0,0.934,0.459,0.934,1.023v4.348c0.761,1.064,1.426,2.204,2,3.401v-7.749v-1.063
		v-56.75c0-1.151-0.679-2.201-1.727-2.677l-8.642-3.918H54.058l-9.942,3.946c-1.101,0.437-1.813,1.485-1.813,2.67v56.729V86.472z
		 M54.441,24.063h36.593l7.974,3.616H45.332L54.441,24.063z"/>
	<path clip-path="url(#SVGID_5_)" d="M103.082,97.396c-0.336-1.101-0.761-2.157-1.25-3.175c-0.574-1.197-1.239-2.337-2-3.401
		c-1.493-2.089-3.329-3.895-5.405-5.37c-1.072-0.764-2.21-1.43-3.4-2c-3.02-1.447-6.37-2.265-9.865-2.265
		c-3.521,0-6.882,0.816-9.904,2.265c-1.191,0.57-2.33,1.236-3.401,2c-3.998,2.847-7.078,6.956-8.597,11.856
		c-1.643-0.586-3.361-0.883-5.119-0.883c-3.718,0-7.159,1.342-9.837,3.592c-0.647,0.544-1.248,1.141-1.798,1.785
		c-1.542,1.807-2.684,3.98-3.255,6.407c-6.375,0.233-11.747,4.662-13.167,10.931c-0.062,0.282,0.004,0.578,0.186,0.806
		c0.181,0.225,0.454,0.356,0.743,0.356h90.032c0.463,0,0.86-0.334,0.938-0.791c0.2-1.164,0.299-2.236,0.299-3.277
		C118.28,107.131,111.923,99.302,103.082,97.396 M116.228,118.397H28.262c1.636-4.94,6.215-8.295,11.585-8.295h0.009l0.145,0.007
		c0.483,0.045,0.875-0.32,0.959-0.781c0.413-2.279,1.394-4.327,2.77-6.027c0.455-0.562,0.953-1.082,1.49-1.562
		c2.385-2.132,5.52-3.413,8.92-3.413c1.736,0,3.423,0.344,5.027,0.996c0.741,0.359,2.111,1.136,3.302,2.421
		c0.405,0.436,0.789,0.93,1.121,1.486c0.156,0.261,0.452,0.388,0.738,0.336c0.083-0.016,0.165-0.043,0.24-0.09
		c0.338-0.2,0.449-0.638,0.248-0.976c-0.159-0.266-0.328-0.516-0.503-0.757c-1.069-1.472-2.397-2.484-3.446-3.12
		c1.573-5.831,5.52-10.526,10.631-13.174c1.814-0.94,3.775-1.62,5.833-2c1.247-0.231,2.524-0.361,3.83-0.361
		c1.304,0,2.583,0.131,3.832,0.361c2.069,0.38,4.048,1.054,5.873,2c3.812,1.975,6.973,5.094,8.966,8.994
		c0.51,0.995,0.944,2.043,1.293,3.135c-0.458-0.003-0.885,0.032-1.293,0.081c-1.773,0.212-3.006,0.798-3.094,0.835
		c-0.362,0.149-0.537,0.565-0.387,0.931c0.15,0.364,0.567,0.538,0.932,0.387c0.017-0.007,1.056-0.419,2.549-0.59
		c0.604-0.069,1.283-0.098,2-0.046c0.279,0.021,0.562,0.049,0.851,0.097c7.964,1.722,13.694,8.761,13.694,16.959
		C116.377,116.927,116.329,117.64,116.228,118.397"/>
	<path clip-path="url(#SVGID_5_)" fill="#231F20" d="M78.925,66.425h-1.006c-0.276,0-0.5-0.223-0.5-0.5c0-0.276,0.224-0.5,0.5-0.5
		h1.006c0.276,0,0.5,0.224,0.5,0.5C79.425,66.202,79.201,66.425,78.925,66.425 M75.908,66.425h-1.005c-0.276,0-0.5-0.223-0.5-0.5
		c0-0.276,0.224-0.5,0.5-0.5h1.005c0.276,0,0.5,0.224,0.5,0.5C76.408,66.202,76.185,66.425,75.908,66.425 M72.893,66.425h-1.006
		c-0.276,0-0.5-0.223-0.5-0.5c0-0.276,0.224-0.5,0.5-0.5h1.006c0.275,0,0.5,0.224,0.5,0.5
		C73.393,66.202,73.168,66.425,72.893,66.425 M69.876,66.425h-1.005c-0.277,0-0.5-0.223-0.5-0.5c0-0.276,0.223-0.5,0.5-0.5h1.005
		c0.276,0,0.5,0.224,0.5,0.5C70.376,66.202,70.153,66.425,69.876,66.425 M66.86,66.425h-1.006c-0.276,0-0.5-0.223-0.5-0.5
		c0-0.276,0.224-0.5,0.5-0.5h1.006c0.276,0,0.5,0.224,0.5,0.5C67.36,66.202,67.137,66.425,66.86,66.425 M63.845,66.425h-1.006
		c-0.276,0-0.5-0.223-0.5-0.5c0-0.276,0.224-0.5,0.5-0.5h1.006c0.276,0,0.5,0.224,0.5,0.5
		C64.345,66.202,64.121,66.425,63.845,66.425 M60.829,66.425h-1.006c-0.276,0-0.5-0.223-0.5-0.5c0-0.276,0.224-0.5,0.5-0.5h1.006
		c0.276,0,0.5,0.224,0.5,0.5C61.329,66.202,61.104,66.425,60.829,66.425 M57.812,66.425h-1.005c-0.276,0-0.5-0.223-0.5-0.5
		c0-0.276,0.224-0.5,0.5-0.5h1.005c0.277,0,0.5,0.224,0.5,0.5C58.312,66.202,58.088,66.425,57.812,66.425 M54.795,66.425h-1.005
		c-0.276,0-0.5-0.223-0.5-0.5c0-0.276,0.224-0.5,0.5-0.5h1.005c0.277,0,0.5,0.224,0.5,0.5
		C55.295,66.202,55.073,66.425,54.795,66.425 M51.78,66.425h-0.999c-0.276,0-0.503-0.223-0.503-0.5c0-0.276,0.221-0.5,0.497-0.5
		h1.005c0.277,0,0.5,0.224,0.5,0.5C52.28,66.202,52.057,66.425,51.78,66.425 M80.936,66.423c-0.264,0-0.483-0.205-0.499-0.471
		c-0.017-0.275,0.194-0.512,0.47-0.528c0.185-0.011,0.35-0.106,0.453-0.262c0.152-0.23,0.465-0.292,0.692-0.14
		c0.23,0.153,0.293,0.464,0.14,0.694c-0.274,0.413-0.733,0.677-1.227,0.706C80.955,66.423,80.945,66.423,80.936,66.423
		 M49.698,65.028c-0.277,0-0.5-0.224-0.5-0.5v-1.006c0-0.276,0.223-0.5,0.5-0.5c0.276,0,0.5,0.224,0.5,0.5v1.006
		C50.198,64.804,49.974,65.028,49.698,65.028 M81.955,63.964c-0.277,0-0.5-0.224-0.5-0.5v-1.006c0-0.276,0.223-0.5,0.5-0.5
		c0.275,0,0.5,0.224,0.5,0.5v1.006C82.455,63.74,82.23,63.964,81.955,63.964 M49.698,62.012c-0.277,0-0.5-0.224-0.5-0.5v-1.006
		c0-0.276,0.223-0.5,0.5-0.5c0.276,0,0.5,0.224,0.5,0.5v1.006C50.198,61.788,49.974,62.012,49.698,62.012 M81.955,60.948
		c-0.277,0-0.5-0.224-0.5-0.5v-1.006c0-0.276,0.223-0.5,0.5-0.5c0.275,0,0.5,0.224,0.5,0.5v1.006
		C82.455,60.724,82.23,60.948,81.955,60.948 M49.698,58.995c-0.277,0-0.5-0.223-0.5-0.5V57.49c0-0.276,0.223-0.5,0.5-0.5
		c0.276,0,0.5,0.224,0.5,0.5v1.005C50.198,58.772,49.974,58.995,49.698,58.995 M81.955,57.931c-0.277,0-0.5-0.223-0.5-0.5v-1.005
		c0-0.276,0.223-0.5,0.5-0.5c0.275,0,0.5,0.224,0.5,0.5v1.005C82.455,57.708,82.23,57.931,81.955,57.931 M49.698,55.979
		c-0.277,0-0.5-0.223-0.5-0.5v-1.005c0-0.276,0.223-0.5,0.5-0.5c0.276,0,0.5,0.224,0.5,0.5v1.005
		C50.198,55.756,49.974,55.979,49.698,55.979 M81.955,54.916c-0.277,0-0.5-0.224-0.5-0.5V53.41c0-0.276,0.223-0.5,0.5-0.5
		c0.275,0,0.5,0.224,0.5,0.5v1.006C82.455,54.692,82.23,54.916,81.955,54.916 M49.698,52.963c-0.277,0-0.5-0.223-0.5-0.5v-1.005
		c0-0.277,0.223-0.5,0.5-0.5c0.276,0,0.5,0.223,0.5,0.5v1.005C50.198,52.74,49.974,52.963,49.698,52.963 M81.955,51.9
		c-0.277,0-0.5-0.224-0.5-0.5v-1.006c0-0.276,0.223-0.5,0.5-0.5c0.275,0,0.5,0.224,0.5,0.5V51.4
		C82.455,51.676,82.23,51.9,81.955,51.9 M49.698,49.947c-0.277,0-0.5-0.224-0.5-0.5v-1.005c0-0.276,0.223-0.5,0.5-0.5
		c0.276,0,0.5,0.224,0.5,0.5v1.005C50.198,49.723,49.974,49.947,49.698,49.947 M81.955,48.884c-0.277,0-0.5-0.224-0.5-0.5v-1.006
		c0-0.276,0.223-0.5,0.5-0.5c0.275,0,0.5,0.224,0.5,0.5v1.006C82.455,48.66,82.23,48.884,81.955,48.884 M49.698,46.931
		c-0.277,0-0.5-0.223-0.5-0.5v-1.005c0-0.276,0.223-0.5,0.5-0.5c0.276,0,0.5,0.224,0.5,0.5v1.005
		C50.198,46.708,49.974,46.931,49.698,46.931 M81.955,45.868c-0.277,0-0.5-0.224-0.5-0.5v-1.006c0-0.276,0.223-0.5,0.5-0.5
		c0.275,0,0.5,0.224,0.5,0.5v1.006C82.455,45.644,82.23,45.868,81.955,45.868 M49.698,43.915c-0.277,0-0.5-0.223-0.5-0.5V42.41
		c0-0.276,0.223-0.5,0.5-0.5c0.276,0,0.5,0.224,0.5,0.5v1.005C50.198,43.692,49.974,43.915,49.698,43.915 M81.955,42.851
		c-0.277,0-0.5-0.223-0.5-0.5v-1.005c0-0.276,0.223-0.5,0.5-0.5c0.275,0,0.5,0.224,0.5,0.5v1.005
		C82.455,42.628,82.23,42.851,81.955,42.851 M49.698,40.899c-0.277,0-0.5-0.223-0.5-0.5v-1.005c0-0.276,0.223-0.5,0.5-0.5
		c0.276,0,0.5,0.224,0.5,0.5v1.005C50.198,40.676,49.974,40.899,49.698,40.899 M81.955,39.835c-0.277,0-0.5-0.223-0.5-0.5V38.33
		c0-0.276,0.223-0.5,0.5-0.5c0.275,0,0.5,0.224,0.5,0.5v1.005C82.455,39.612,82.23,39.835,81.955,39.835 M49.698,37.883
		c-0.277,0-0.5-0.223-0.5-0.5v-1.005c0-0.277,0.223-0.5,0.5-0.5c0.276,0,0.5,0.223,0.5,0.5v1.005
		C50.198,37.66,49.974,37.883,49.698,37.883 M81.955,36.819c-0.277,0-0.5-0.223-0.5-0.5v-1.005c0-0.277,0.223-0.5,0.5-0.5
		c0.275,0,0.5,0.223,0.5,0.5v1.005C82.455,36.596,82.23,36.819,81.955,36.819 M49.872,34.902c-0.093,0-0.188-0.027-0.272-0.081
		c-0.231-0.151-0.297-0.461-0.146-0.692c0.272-0.416,0.729-0.684,1.224-0.716c0.274-0.01,0.513,0.191,0.531,0.468
		c0.017,0.275-0.191,0.513-0.467,0.53c-0.182,0.012-0.35,0.11-0.45,0.264C50.196,34.822,50.036,34.902,49.872,34.902 M80.883,34.41
		h-1.018c-0.276,0-0.5-0.224-0.5-0.5s0.224-0.5,0.5-0.5h1.005c0.276,0,0.506,0.224,0.506,0.5S81.159,34.41,80.883,34.41
		 M77.854,34.41h-1.006c-0.276,0-0.5-0.224-0.5-0.5s0.224-0.5,0.5-0.5h1.006c0.276,0,0.5,0.224,0.5,0.5S78.131,34.41,77.854,34.41
		 M74.838,34.41h-1.005c-0.276,0-0.5-0.224-0.5-0.5s0.224-0.5,0.5-0.5h1.005c0.276,0,0.5,0.224,0.5,0.5S75.114,34.41,74.838,34.41
		 M71.822,34.41h-1.005c-0.277,0-0.5-0.224-0.5-0.5s0.223-0.5,0.5-0.5h1.005c0.277,0,0.5,0.224,0.5,0.5S72.099,34.41,71.822,34.41
		 M68.807,34.41h-1.006c-0.276,0-0.5-0.224-0.5-0.5s0.224-0.5,0.5-0.5h1.006c0.276,0,0.5,0.224,0.5,0.5S69.083,34.41,68.807,34.41
		 M65.79,34.41h-1.005c-0.276,0-0.5-0.224-0.5-0.5s0.224-0.5,0.5-0.5h1.005c0.277,0,0.5,0.224,0.5,0.5S66.066,34.41,65.79,34.41
		 M62.773,34.41h-1.005c-0.276,0-0.5-0.224-0.5-0.5s0.224-0.5,0.5-0.5h1.005c0.277,0,0.5,0.224,0.5,0.5S63.051,34.41,62.773,34.41
		 M59.758,34.41h-1.005c-0.277,0-0.5-0.224-0.5-0.5s0.223-0.5,0.5-0.5h1.005c0.277,0,0.5,0.224,0.5,0.5S60.035,34.41,59.758,34.41
		 M56.742,34.41h-1.005c-0.277,0-0.5-0.224-0.5-0.5s0.223-0.5,0.5-0.5h1.005c0.276,0,0.5,0.224,0.5,0.5S57.018,34.41,56.742,34.41
		 M53.726,34.41h-1.005c-0.277,0-0.5-0.224-0.5-0.5s0.223-0.5,0.5-0.5h1.005c0.276,0,0.5,0.224,0.5,0.5S54.001,34.41,53.726,34.41"
		/>
	<path clip-path="url(#SVGID_5_)" fill="#231F20" d="M85.167,72.667h-1.006c-0.276,0-0.5-0.223-0.5-0.5c0-0.276,0.224-0.5,0.5-0.5
		h1.006c0.276,0,0.5,0.224,0.5,0.5C85.667,72.444,85.443,72.667,85.167,72.667 M82.15,72.667h-1.005c-0.276,0-0.5-0.223-0.5-0.5
		c0-0.276,0.224-0.5,0.5-0.5h1.005c0.276,0,0.5,0.224,0.5,0.5C82.65,72.444,82.427,72.667,82.15,72.667 M79.135,72.667h-1.006
		c-0.276,0-0.5-0.223-0.5-0.5c0-0.276,0.224-0.5,0.5-0.5h1.006c0.276,0,0.5,0.224,0.5,0.5
		C79.635,72.444,79.411,72.667,79.135,72.667 M76.118,72.667h-1.004c-0.277,0-0.5-0.223-0.5-0.5c0-0.276,0.223-0.5,0.5-0.5h1.004
		c0.276,0,0.5,0.224,0.5,0.5C76.618,72.444,76.395,72.667,76.118,72.667 M73.103,72.667h-1.006c-0.276,0-0.5-0.223-0.5-0.5
		c0-0.276,0.224-0.5,0.5-0.5h1.006c0.276,0,0.5,0.224,0.5,0.5C73.603,72.444,73.379,72.667,73.103,72.667 M70.087,72.667h-1.006
		c-0.276,0-0.5-0.223-0.5-0.5c0-0.276,0.224-0.5,0.5-0.5h1.006c0.276,0,0.5,0.224,0.5,0.5
		C70.587,72.444,70.363,72.667,70.087,72.667 M67.071,72.667h-1.006c-0.276,0-0.5-0.223-0.5-0.5c0-0.276,0.224-0.5,0.5-0.5h1.006
		c0.276,0,0.5,0.224,0.5,0.5C67.571,72.444,67.347,72.667,67.071,72.667 M64.054,72.667h-1.005c-0.276,0-0.5-0.223-0.5-0.5
		c0-0.276,0.224-0.5,0.5-0.5h1.005c0.277,0,0.5,0.224,0.5,0.5C64.554,72.444,64.331,72.667,64.054,72.667 M61.038,72.667h-1.005
		c-0.276,0-0.5-0.223-0.5-0.5c0-0.276,0.224-0.5,0.5-0.5h1.005c0.277,0,0.5,0.224,0.5,0.5
		C61.538,72.444,61.315,72.667,61.038,72.667 M58.022,72.667h-0.999c-0.276,0-0.503-0.223-0.503-0.5c0-0.276,0.221-0.5,0.497-0.5
		h1.005c0.277,0,0.5,0.224,0.5,0.5C58.522,72.444,58.299,72.667,58.022,72.667 M87.178,72.665c-0.264,0-0.483-0.205-0.499-0.471
		c-0.017-0.275,0.194-0.512,0.47-0.528c0.185-0.011,0.35-0.106,0.453-0.262c0.152-0.23,0.464-0.291,0.692-0.14
		c0.23,0.153,0.293,0.464,0.14,0.694c-0.274,0.413-0.733,0.677-1.227,0.706C87.197,72.665,87.188,72.665,87.178,72.665
		 M55.94,71.271c-0.277,0-0.5-0.224-0.5-0.5v-1.006c0-0.276,0.223-0.5,0.5-0.5c0.276,0,0.5,0.224,0.5,0.5v1.006
		C56.44,71.046,56.216,71.271,55.94,71.271 M88.197,70.206c-0.277,0-0.5-0.224-0.5-0.5V68.7c0-0.276,0.223-0.5,0.5-0.5
		c0.275,0,0.5,0.224,0.5,0.5v1.006C88.697,69.982,88.473,70.206,88.197,70.206 M55.94,68.254c-0.277,0-0.5-0.224-0.5-0.5v-1.006
		c0-0.276,0.223-0.5,0.5-0.5c0.276,0,0.5,0.224,0.5,0.5v1.006C56.44,68.03,56.216,68.254,55.94,68.254 M88.197,67.19
		c-0.277,0-0.5-0.224-0.5-0.5v-1.006c0-0.276,0.223-0.5,0.5-0.5c0.275,0,0.5,0.224,0.5,0.5v1.006
		C88.697,66.966,88.473,67.19,88.197,67.19 M55.94,65.237c-0.277,0-0.5-0.223-0.5-0.5v-1.005c0-0.276,0.223-0.5,0.5-0.5
		c0.276,0,0.5,0.224,0.5,0.5v1.005C56.44,65.014,56.216,65.237,55.94,65.237 M88.197,64.173c-0.277,0-0.5-0.223-0.5-0.5v-1.005
		c0-0.276,0.223-0.5,0.5-0.5c0.275,0,0.5,0.224,0.5,0.5v1.005C88.697,63.95,88.473,64.173,88.197,64.173 M55.94,62.221
		c-0.277,0-0.5-0.223-0.5-0.5v-1.005c0-0.276,0.223-0.5,0.5-0.5c0.276,0,0.5,0.224,0.5,0.5v1.005
		C56.44,61.999,56.216,62.221,55.94,62.221 M88.197,61.158c-0.277,0-0.5-0.224-0.5-0.5v-1.006c0-0.276,0.223-0.5,0.5-0.5
		c0.275,0,0.5,0.224,0.5,0.5v1.006C88.697,60.934,88.473,61.158,88.197,61.158 M55.94,59.205c-0.277,0-0.5-0.223-0.5-0.5V57.7
		c0-0.277,0.223-0.5,0.5-0.5c0.276,0,0.5,0.223,0.5,0.5v1.005C56.44,58.982,56.216,59.205,55.94,59.205 M88.197,58.142
		c-0.277,0-0.5-0.224-0.5-0.5v-1.006c0-0.276,0.223-0.5,0.5-0.5c0.275,0,0.5,0.224,0.5,0.5v1.006
		C88.697,57.918,88.473,58.142,88.197,58.142 M55.94,56.189c-0.277,0-0.5-0.224-0.5-0.5v-1.005c0-0.276,0.223-0.5,0.5-0.5
		c0.276,0,0.5,0.224,0.5,0.5v1.005C56.44,55.965,56.216,56.189,55.94,56.189 M88.197,55.126c-0.277,0-0.5-0.224-0.5-0.5V53.62
		c0-0.276,0.223-0.5,0.5-0.5c0.275,0,0.5,0.224,0.5,0.5v1.006C88.697,54.902,88.473,55.126,88.197,55.126 M55.94,53.173
		c-0.277,0-0.5-0.223-0.5-0.5v-1.005c0-0.276,0.223-0.5,0.5-0.5c0.276,0,0.5,0.224,0.5,0.5v1.005
		C56.44,52.95,56.216,53.173,55.94,53.173 M88.197,52.11c-0.277,0-0.5-0.224-0.5-0.5v-1.006c0-0.276,0.223-0.5,0.5-0.5
		c0.275,0,0.5,0.224,0.5,0.5v1.006C88.697,51.886,88.473,52.11,88.197,52.11 M55.94,50.157c-0.277,0-0.5-0.223-0.5-0.5v-1.005
		c0-0.276,0.223-0.5,0.5-0.5c0.276,0,0.5,0.224,0.5,0.5v1.005C56.44,49.934,56.216,50.157,55.94,50.157 M88.197,49.093
		c-0.277,0-0.5-0.223-0.5-0.5v-1.005c0-0.276,0.223-0.5,0.5-0.5c0.275,0,0.5,0.224,0.5,0.5v1.005
		C88.697,48.87,88.473,49.093,88.197,49.093 M55.94,47.141c-0.277,0-0.5-0.223-0.5-0.5v-1.005c0-0.276,0.223-0.5,0.5-0.5
		c0.276,0,0.5,0.224,0.5,0.5v1.005C56.44,46.918,56.216,47.141,55.94,47.141 M88.197,46.077c-0.277,0-0.5-0.223-0.5-0.5v-1.005
		c0-0.276,0.223-0.5,0.5-0.5c0.275,0,0.5,0.224,0.5,0.5v1.005C88.697,45.854,88.473,46.077,88.197,46.077 M55.94,44.125
		c-0.277,0-0.5-0.223-0.5-0.5V42.62c0-0.277,0.223-0.5,0.5-0.5c0.276,0,0.5,0.223,0.5,0.5v1.005
		C56.44,43.902,56.216,44.125,55.94,44.125 M88.197,43.062c-0.277,0-0.5-0.223-0.5-0.5v-1.005c0-0.277,0.223-0.5,0.5-0.5
		c0.275,0,0.5,0.223,0.5,0.5v1.005C88.697,42.838,88.473,43.062,88.197,43.062 M56.114,41.145c-0.093,0-0.188-0.027-0.272-0.081
		c-0.231-0.151-0.297-0.461-0.146-0.692c0.272-0.416,0.729-0.684,1.224-0.716c0.274-0.011,0.513,0.191,0.531,0.468
		c0.017,0.275-0.191,0.513-0.467,0.53c-0.182,0.012-0.35,0.11-0.45,0.264C56.438,41.064,56.278,41.145,56.114,41.145 M87.125,40.652
		h-1.018c-0.276,0-0.5-0.224-0.5-0.5s0.224-0.5,0.5-0.5h1.006c0.275,0,0.505,0.224,0.505,0.5S87.401,40.652,87.125,40.652
		 M84.097,40.652h-1.006c-0.276,0-0.5-0.224-0.5-0.5s0.224-0.5,0.5-0.5h1.006c0.276,0,0.5,0.224,0.5,0.5
		S84.373,40.652,84.097,40.652 M81.08,40.652h-1.005c-0.276,0-0.5-0.224-0.5-0.5s0.224-0.5,0.5-0.5h1.005c0.276,0,0.5,0.224,0.5,0.5
		S81.356,40.652,81.08,40.652 M78.064,40.652h-1.006c-0.276,0-0.5-0.224-0.5-0.5s0.224-0.5,0.5-0.5h1.006c0.276,0,0.5,0.224,0.5,0.5
		S78.341,40.652,78.064,40.652 M75.048,40.652h-1.005c-0.276,0-0.5-0.224-0.5-0.5s0.224-0.5,0.5-0.5h1.005
		c0.276,0,0.5,0.224,0.5,0.5S75.324,40.652,75.048,40.652 M72.032,40.652h-1.005c-0.276,0-0.5-0.224-0.5-0.5s0.224-0.5,0.5-0.5
		h1.005c0.276,0,0.5,0.224,0.5,0.5S72.309,40.652,72.032,40.652 M69.016,40.652h-1.005c-0.276,0-0.5-0.224-0.5-0.5
		s0.224-0.5,0.5-0.5h1.005c0.277,0,0.5,0.224,0.5,0.5S69.293,40.652,69.016,40.652 M66,40.652h-1.005c-0.277,0-0.5-0.224-0.5-0.5
		s0.223-0.5,0.5-0.5H66c0.277,0,0.5,0.224,0.5,0.5S66.277,40.652,66,40.652 M62.984,40.652h-1.005c-0.277,0-0.5-0.224-0.5-0.5
		s0.223-0.5,0.5-0.5h1.005c0.276,0,0.5,0.224,0.5,0.5S63.26,40.652,62.984,40.652 M59.968,40.652h-1.005c-0.277,0-0.5-0.224-0.5-0.5
		s0.223-0.5,0.5-0.5h1.005c0.276,0,0.5,0.224,0.5,0.5S60.244,40.652,59.968,40.652"/>
	<path clip-path="url(#SVGID_5_)" fill="#231F20" d="M91.409,78.91h-1.006c-0.276,0-0.5-0.224-0.5-0.5s0.224-0.5,0.5-0.5h1.006
		c0.276,0,0.5,0.224,0.5,0.5S91.686,78.91,91.409,78.91 M88.393,78.91h-1.005c-0.276,0-0.5-0.224-0.5-0.5s0.224-0.5,0.5-0.5h1.005
		c0.276,0,0.5,0.224,0.5,0.5S88.669,78.91,88.393,78.91 M85.377,78.91h-1.006c-0.276,0-0.5-0.224-0.5-0.5s0.224-0.5,0.5-0.5h1.006
		c0.276,0,0.5,0.224,0.5,0.5S85.653,78.91,85.377,78.91 M82.36,78.91h-1.004c-0.277,0-0.5-0.224-0.5-0.5s0.223-0.5,0.5-0.5h1.004
		c0.276,0,0.5,0.224,0.5,0.5S82.637,78.91,82.36,78.91 M79.345,78.91h-1.006c-0.275,0-0.5-0.224-0.5-0.5s0.225-0.5,0.5-0.5h1.006
		c0.276,0,0.5,0.224,0.5,0.5S79.621,78.91,79.345,78.91 M76.328,78.91h-1.005c-0.276,0-0.5-0.224-0.5-0.5s0.224-0.5,0.5-0.5h1.005
		c0.277,0,0.5,0.224,0.5,0.5S76.605,78.91,76.328,78.91 M73.313,78.91h-1.007c-0.275,0-0.5-0.224-0.5-0.5s0.224-0.5,0.5-0.5h1.007
		c0.275,0,0.5,0.224,0.5,0.5S73.589,78.91,73.313,78.91 M70.296,78.91h-1.005c-0.276,0-0.5-0.224-0.5-0.5s0.224-0.5,0.5-0.5h1.005
		c0.277,0,0.5,0.224,0.5,0.5S70.573,78.91,70.296,78.91 M67.28,78.91h-1.005c-0.276,0-0.5-0.224-0.5-0.5s0.224-0.5,0.5-0.5h1.005
		c0.277,0,0.5,0.224,0.5,0.5S67.557,78.91,67.28,78.91 M64.264,78.91h-0.999c-0.276,0-0.503-0.224-0.503-0.5s0.221-0.5,0.497-0.5
		h1.005c0.277,0,0.5,0.224,0.5,0.5S64.541,78.91,64.264,78.91 M93.42,78.908c-0.264,0-0.483-0.205-0.499-0.471
		c-0.017-0.275,0.194-0.513,0.47-0.528c0.185-0.011,0.349-0.106,0.452-0.263c0.153-0.23,0.465-0.293,0.693-0.141
		c0.229,0.152,0.293,0.463,0.141,0.693c-0.274,0.414-0.733,0.68-1.228,0.708C93.439,78.908,93.43,78.908,93.42,78.908
		 M62.182,77.513c-0.277,0-0.5-0.224-0.5-0.5v-1.006c0-0.276,0.223-0.5,0.5-0.5c0.276,0,0.5,0.224,0.5,0.5v1.006
		C62.682,77.289,62.458,77.513,62.182,77.513 M94.439,76.448c-0.277,0-0.5-0.224-0.5-0.5v-1.005c0-0.277,0.223-0.5,0.5-0.5
		c0.275,0,0.5,0.223,0.5,0.5v1.005C94.939,76.225,94.715,76.448,94.439,76.448 M62.182,74.496c-0.277,0-0.5-0.224-0.5-0.5V72.99
		c0-0.275,0.223-0.5,0.5-0.5c0.276,0,0.5,0.225,0.5,0.5v1.006C62.682,74.272,62.458,74.496,62.182,74.496 M94.439,73.433
		c-0.277,0-0.5-0.224-0.5-0.5v-1.005c0-0.277,0.223-0.5,0.5-0.5c0.275,0,0.5,0.223,0.5,0.5v1.005
		C94.939,73.209,94.715,73.433,94.439,73.433 M62.182,71.479c-0.277,0-0.5-0.223-0.5-0.5v-1.004c0-0.277,0.223-0.5,0.5-0.5
		c0.276,0,0.5,0.223,0.5,0.5v1.004C62.682,71.256,62.458,71.479,62.182,71.479 M94.439,70.417c-0.277,0-0.5-0.224-0.5-0.5v-1.005
		c0-0.277,0.223-0.5,0.5-0.5c0.275,0,0.5,0.223,0.5,0.5v1.005C94.939,70.192,94.715,70.417,94.439,70.417 M62.182,68.464
		c-0.277,0-0.5-0.224-0.5-0.5v-1.006c0-0.276,0.223-0.5,0.5-0.5c0.276,0,0.5,0.224,0.5,0.5v1.006
		C62.682,68.241,62.458,68.464,62.182,68.464 M94.439,67.4c-0.277,0-0.5-0.224-0.5-0.5v-1.006c0-0.276,0.223-0.5,0.5-0.5
		c0.275,0,0.5,0.224,0.5,0.5V66.9C94.939,67.176,94.715,67.4,94.439,67.4 M62.182,65.449c-0.277,0-0.5-0.224-0.5-0.5v-1.006
		c0-0.276,0.223-0.5,0.5-0.5c0.276,0,0.5,0.224,0.5,0.5v1.006C62.682,65.225,62.458,65.449,62.182,65.449 M94.439,64.384
		c-0.277,0-0.5-0.224-0.5-0.5v-1.006c0-0.276,0.223-0.5,0.5-0.5c0.275,0,0.5,0.224,0.5,0.5v1.006
		C94.939,64.161,94.715,64.384,94.439,64.384 M62.182,62.433c-0.277,0-0.5-0.224-0.5-0.5v-1.006c0-0.276,0.223-0.5,0.5-0.5
		c0.276,0,0.5,0.224,0.5,0.5v1.006C62.682,62.208,62.458,62.433,62.182,62.433 M94.439,61.369c-0.277,0-0.5-0.224-0.5-0.5v-1.005
		c0-0.277,0.223-0.5,0.5-0.5c0.275,0,0.5,0.223,0.5,0.5v1.005C94.939,61.145,94.715,61.369,94.439,61.369 M62.182,59.416
		c-0.277,0-0.5-0.223-0.5-0.5v-1.005c0-0.276,0.223-0.5,0.5-0.5c0.276,0,0.5,0.224,0.5,0.5v1.005
		C62.682,59.192,62.458,59.416,62.182,59.416 M94.439,58.353c-0.277,0-0.5-0.224-0.5-0.5v-1.005c0-0.277,0.223-0.5,0.5-0.5
		c0.275,0,0.5,0.223,0.5,0.5v1.005C94.939,58.128,94.715,58.353,94.439,58.353 M62.182,56.399c-0.277,0-0.5-0.223-0.5-0.5v-1.005
		c0-0.276,0.223-0.5,0.5-0.5c0.276,0,0.5,0.224,0.5,0.5v1.005C62.682,56.176,62.458,56.399,62.182,56.399 M94.439,55.336
		c-0.277,0-0.5-0.224-0.5-0.5v-1.005c0-0.277,0.223-0.5,0.5-0.5c0.275,0,0.5,0.223,0.5,0.5v1.005
		C94.939,55.112,94.715,55.336,94.439,55.336 M62.182,53.383c-0.277,0-0.5-0.223-0.5-0.5v-1.005c0-0.276,0.223-0.5,0.5-0.5
		c0.276,0,0.5,0.224,0.5,0.5v1.005C62.682,53.161,62.458,53.383,62.182,53.383 M94.439,52.32c-0.277,0-0.5-0.224-0.5-0.5v-1.006
		c0-0.276,0.223-0.5,0.5-0.5c0.275,0,0.5,0.224,0.5,0.5v1.006C94.939,52.097,94.715,52.32,94.439,52.32 M62.182,50.368
		c-0.277,0-0.5-0.223-0.5-0.5v-1.005c0-0.276,0.223-0.5,0.5-0.5c0.276,0,0.5,0.224,0.5,0.5v1.005
		C62.682,50.145,62.458,50.368,62.182,50.368 M94.439,49.305c-0.277,0-0.5-0.224-0.5-0.5v-1.006c0-0.276,0.223-0.5,0.5-0.5
		c0.275,0,0.5,0.224,0.5,0.5v1.006C94.939,49.081,94.715,49.305,94.439,49.305 M62.357,47.387c-0.094,0-0.189-0.027-0.273-0.082
		c-0.231-0.151-0.296-0.46-0.145-0.692c0.271-0.416,0.729-0.683,1.223-0.715c0.286-0.011,0.513,0.191,0.531,0.467
		c0.017,0.276-0.191,0.514-0.467,0.531c-0.182,0.012-0.349,0.111-0.45,0.264C62.68,47.307,62.52,47.387,62.357,47.387
		 M93.368,46.895H92.35c-0.276,0-0.5-0.224-0.5-0.5s0.224-0.5,0.5-0.5h1.006c0.275,0,0.506,0.224,0.506,0.5
		S93.645,46.895,93.368,46.895 M90.339,46.895h-1.006c-0.276,0-0.5-0.224-0.5-0.5s0.224-0.5,0.5-0.5h1.006
		c0.276,0,0.5,0.224,0.5,0.5S90.615,46.895,90.339,46.895 M87.322,46.895h-1.005c-0.276,0-0.5-0.224-0.5-0.5s0.224-0.5,0.5-0.5
		h1.005c0.276,0,0.5,0.224,0.5,0.5S87.599,46.895,87.322,46.895 M84.307,46.895h-1.006c-0.276,0-0.5-0.224-0.5-0.5
		s0.224-0.5,0.5-0.5h1.006c0.276,0,0.5,0.224,0.5,0.5S84.583,46.895,84.307,46.895 M81.29,46.895h-1.005c-0.276,0-0.5-0.224-0.5-0.5
		s0.224-0.5,0.5-0.5h1.005c0.276,0,0.5,0.224,0.5,0.5S81.566,46.895,81.29,46.895 M78.274,46.895h-1.006c-0.276,0-0.5-0.224-0.5-0.5
		s0.224-0.5,0.5-0.5h1.006c0.276,0,0.5,0.224,0.5,0.5S78.551,46.895,78.274,46.895 M75.258,46.895h-1.005
		c-0.276,0-0.5-0.224-0.5-0.5s0.224-0.5,0.5-0.5h1.005c0.276,0,0.5,0.224,0.5,0.5S75.534,46.895,75.258,46.895 M72.242,46.895
		h-1.005c-0.277,0-0.5-0.224-0.5-0.5s0.223-0.5,0.5-0.5h1.005c0.276,0,0.5,0.224,0.5,0.5S72.519,46.895,72.242,46.895
		 M69.226,46.895h-1.005c-0.277,0-0.5-0.224-0.5-0.5s0.223-0.5,0.5-0.5h1.005c0.276,0,0.5,0.224,0.5,0.5
		S69.502,46.895,69.226,46.895 M66.21,46.895h-1.005c-0.277,0-0.5-0.224-0.5-0.5s0.223-0.5,0.5-0.5h1.005c0.276,0,0.5,0.224,0.5,0.5
		S66.486,46.895,66.21,46.895"/>
</g>
</svg>
