<?xml version="1.0" encoding="utf-8"?>
<!-- Generator: Adobe Illustrator 16.0.4, SVG Export Plug-In . SVG Version: 6.00 Build 0)  -->
<!DOCTYPE svg PUBLIC "-//W3C//DTD SVG 1.1//EN" "http://www.w3.org/Graphics/SVG/1.1/DTD/svg11.dtd">
<svg version="1.1" id="Layer_1" xmlns="http://www.w3.org/2000/svg" xmlns:xlink="http://www.w3.org/1999/xlink" x="0px" y="0px"
	 width="144px" height="144px" viewBox="0 0 144 144" enable-background="new 0 0 144 144" xml:space="preserve">
<g>
	<defs>
		<path id="SVGID_1_" d="M53.957,24.172l-9.889,3.984c-0.721,0.291-1.196,1-1.196,1.789v58.317v32.861h58.256V88.262V29.923
			c0-0.782-0.451-1.492-1.153-1.815l-8.551-3.936H53.957z"/>
	</defs>
	<clipPath id="SVGID_2_">
		<use xlink:href="#SVGID_1_"  overflow="visible"/>
	</clipPath>
	
		<linearGradient id="SVGID_3_" gradientUnits="userSpaceOnUse" x1="0" y1="144.0166" x2="1" y2="144.0166" gradientTransform="matrix(75.1196 75.1196 75.1196 -75.1196 -10782.7236 10854.7822)">
		<stop  offset="0" style="stop-color:#E6E7E8"/>
		<stop  offset="0.5" style="stop-color:#F6F6F6"/>
		<stop  offset="1" style="stop-color:#CBCCCE"/>
	</linearGradient>
	<polygon clip-path="url(#SVGID_2_)" fill="url(#SVGID_3_)" points="72,-4.956 149.604,72.647 72,150.251 -5.604,72.647 	"/>
</g>
<g>
	<defs>
		<rect id="SVGID_4_" width="144" height="144"/>
	</defs>
	<clipPath id="SVGID_5_">
		<use xlink:href="#SVGID_4_"  overflow="visible"/>
	</clipPath>
	<path clip-path="url(#SVGID_5_)" fill="#6D6E70" d="M99.765,102.221c0,0.562-0.418,1.021-0.933,1.021H45.167
		c-0.514,0-0.932-0.458-0.932-1.021v-14.25c0-0.563,0.418-1.022,0.932-1.022h53.665c0.515,0,0.933,0.459,0.933,1.022V102.221z"/>
	<path clip-path="url(#SVGID_5_)" fill="#231F20" d="M49.291,113.863c0.761,0,1.376-0.615,1.376-1.375s-0.615-1.375-1.376-1.375
		c-0.759,0-1.375,0.615-1.375,1.375S48.532,113.863,49.291,113.863"/>
	<path clip-path="url(#SVGID_5_)" fill="#231F20" d="M54.17,113.863c0.759,0,1.375-0.615,1.375-1.375s-0.616-1.375-1.375-1.375
		c-0.76,0-1.375,0.615-1.375,1.375S53.41,113.863,54.17,113.863"/>
	<path clip-path="url(#SVGID_5_)" fill="#231F20" d="M93.501,116.91h2.998c0.276,0,0.501-0.224,0.501-0.5v-8
		c0-0.276-0.225-0.5-0.501-0.5h-2.998c-0.276,0-0.501,0.224-0.501,0.5v8C93,116.687,93.225,116.91,93.501,116.91 M94,108.91h2v7h-2
		V108.91z"/>
	<path clip-path="url(#SVGID_5_)" fill="#231F20" d="M87.5,116.91h3c0.276,0,0.5-0.224,0.5-0.5v-8c0-0.276-0.224-0.5-0.5-0.5h-3
		c-0.276,0-0.5,0.224-0.5,0.5v8C87,116.687,87.224,116.91,87.5,116.91 M88,108.91h2v7h-2V108.91z"/>
	<path clip-path="url(#SVGID_5_)" fill="#231F20" d="M42.235,104.013v0.248v16.56c0,0.551,0.447,1,1,1h57.529
		c0.554,0,1.001-0.449,1.001-1v-16.56v-2.041V87.97V30.157c0-1.151-0.678-2.201-1.726-2.676l-8.642-3.918H53.99l-9.942,3.946
		c-1.101,0.436-1.813,1.484-1.813,2.669V87.97v14.25V104.013z M54.373,25.563h36.593l7.975,3.615H45.264L54.373,25.563z
		 M44.235,31.178h55.53v53.941c-0.295-0.104-0.604-0.171-0.933-0.171H45.168c-0.328,0-0.638,0.067-0.933,0.171V31.178z
		 M44.235,87.97c0-0.562,0.419-1.021,0.933-1.021h53.664c0.515,0,0.933,0.459,0.933,1.021v13.928v0.322
		c0,0.564-0.418,1.022-0.933,1.022H45.168c-0.514,0-0.933-0.458-0.933-1.022v-0.231V87.97z M99.765,119.82h-55.53v-14.56h55.53
		V119.82z"/>
	<path clip-path="url(#SVGID_5_)" fill="#231F20" d="M78.925,68.425h-1.006c-0.276,0-0.5-0.223-0.5-0.5c0-0.276,0.224-0.5,0.5-0.5
		h1.006c0.276,0,0.5,0.224,0.5,0.5C79.425,68.202,79.201,68.425,78.925,68.425 M75.908,68.425h-1.005c-0.276,0-0.5-0.223-0.5-0.5
		c0-0.276,0.224-0.5,0.5-0.5h1.005c0.276,0,0.5,0.224,0.5,0.5C76.408,68.202,76.185,68.425,75.908,68.425 M72.893,68.425h-1.006
		c-0.276,0-0.5-0.223-0.5-0.5c0-0.276,0.224-0.5,0.5-0.5h1.006c0.275,0,0.5,0.224,0.5,0.5
		C73.393,68.202,73.168,68.425,72.893,68.425 M69.876,68.425h-1.005c-0.277,0-0.5-0.223-0.5-0.5c0-0.276,0.223-0.5,0.5-0.5h1.005
		c0.276,0,0.5,0.224,0.5,0.5C70.376,68.202,70.153,68.425,69.876,68.425 M66.86,68.425h-1.006c-0.276,0-0.5-0.223-0.5-0.5
		c0-0.276,0.224-0.5,0.5-0.5h1.006c0.276,0,0.5,0.224,0.5,0.5C67.36,68.202,67.137,68.425,66.86,68.425 M63.845,68.425h-1.006
		c-0.276,0-0.5-0.223-0.5-0.5c0-0.276,0.224-0.5,0.5-0.5h1.006c0.276,0,0.5,0.224,0.5,0.5
		C64.345,68.202,64.121,68.425,63.845,68.425 M60.829,68.425h-1.006c-0.276,0-0.5-0.223-0.5-0.5c0-0.276,0.224-0.5,0.5-0.5h1.006
		c0.276,0,0.5,0.224,0.5,0.5C61.329,68.202,61.104,68.425,60.829,68.425 M57.812,68.425h-1.005c-0.276,0-0.5-0.223-0.5-0.5
		c0-0.276,0.224-0.5,0.5-0.5h1.005c0.277,0,0.5,0.224,0.5,0.5C58.312,68.202,58.088,68.425,57.812,68.425 M54.795,68.425h-1.005
		c-0.276,0-0.5-0.223-0.5-0.5c0-0.276,0.224-0.5,0.5-0.5h1.005c0.277,0,0.5,0.224,0.5,0.5
		C55.295,68.202,55.073,68.425,54.795,68.425 M51.78,68.425h-0.999c-0.276,0-0.503-0.223-0.503-0.5c0-0.276,0.221-0.5,0.497-0.5
		h1.005c0.277,0,0.5,0.224,0.5,0.5C52.28,68.202,52.057,68.425,51.78,68.425 M80.936,68.423c-0.264,0-0.483-0.205-0.499-0.471
		c-0.017-0.275,0.194-0.512,0.47-0.528c0.185-0.011,0.35-0.106,0.453-0.262c0.152-0.231,0.465-0.292,0.692-0.14
		c0.23,0.153,0.293,0.464,0.14,0.694c-0.274,0.413-0.733,0.677-1.227,0.706C80.955,68.423,80.945,68.423,80.936,68.423
		 M49.698,67.028c-0.277,0-0.5-0.224-0.5-0.5v-1.006c0-0.276,0.223-0.5,0.5-0.5c0.276,0,0.5,0.224,0.5,0.5v1.006
		C50.198,66.804,49.974,67.028,49.698,67.028 M81.955,65.964c-0.277,0-0.5-0.224-0.5-0.5v-1.006c0-0.276,0.223-0.5,0.5-0.5
		c0.275,0,0.5,0.224,0.5,0.5v1.006C82.455,65.74,82.23,65.964,81.955,65.964 M49.698,64.012c-0.277,0-0.5-0.224-0.5-0.5v-1.006
		c0-0.276,0.223-0.5,0.5-0.5c0.276,0,0.5,0.224,0.5,0.5v1.006C50.198,63.788,49.974,64.012,49.698,64.012 M81.955,62.948
		c-0.277,0-0.5-0.224-0.5-0.5v-1.006c0-0.276,0.223-0.5,0.5-0.5c0.275,0,0.5,0.224,0.5,0.5v1.006
		C82.455,62.724,82.23,62.948,81.955,62.948 M49.698,60.995c-0.277,0-0.5-0.223-0.5-0.5V59.49c0-0.276,0.223-0.5,0.5-0.5
		c0.276,0,0.5,0.224,0.5,0.5v1.005C50.198,60.772,49.974,60.995,49.698,60.995 M81.955,59.931c-0.277,0-0.5-0.223-0.5-0.5v-1.005
		c0-0.276,0.223-0.5,0.5-0.5c0.275,0,0.5,0.224,0.5,0.5v1.005C82.455,59.708,82.23,59.931,81.955,59.931 M49.698,57.979
		c-0.277,0-0.5-0.223-0.5-0.5v-1.005c0-0.276,0.223-0.5,0.5-0.5c0.276,0,0.5,0.224,0.5,0.5v1.005
		C50.198,57.756,49.974,57.979,49.698,57.979 M81.955,56.916c-0.277,0-0.5-0.224-0.5-0.5V55.41c0-0.276,0.223-0.5,0.5-0.5
		c0.275,0,0.5,0.224,0.5,0.5v1.006C82.455,56.692,82.23,56.916,81.955,56.916 M49.698,54.963c-0.277,0-0.5-0.223-0.5-0.5v-1.005
		c0-0.277,0.223-0.5,0.5-0.5c0.276,0,0.5,0.223,0.5,0.5v1.005C50.198,54.74,49.974,54.963,49.698,54.963 M81.955,53.9
		c-0.277,0-0.5-0.224-0.5-0.5v-1.006c0-0.276,0.223-0.5,0.5-0.5c0.275,0,0.5,0.224,0.5,0.5V53.4
		C82.455,53.676,82.23,53.9,81.955,53.9 M49.698,51.947c-0.277,0-0.5-0.224-0.5-0.5v-1.005c0-0.276,0.223-0.5,0.5-0.5
		c0.276,0,0.5,0.224,0.5,0.5v1.005C50.198,51.723,49.974,51.947,49.698,51.947 M81.955,50.884c-0.277,0-0.5-0.224-0.5-0.5v-1.006
		c0-0.276,0.223-0.5,0.5-0.5c0.275,0,0.5,0.224,0.5,0.5v1.006C82.455,50.66,82.23,50.884,81.955,50.884 M49.698,48.931
		c-0.277,0-0.5-0.223-0.5-0.5v-1.005c0-0.276,0.223-0.5,0.5-0.5c0.276,0,0.5,0.224,0.5,0.5v1.005
		C50.198,48.708,49.974,48.931,49.698,48.931 M81.955,47.868c-0.277,0-0.5-0.224-0.5-0.5v-1.006c0-0.276,0.223-0.5,0.5-0.5
		c0.275,0,0.5,0.224,0.5,0.5v1.006C82.455,47.644,82.23,47.868,81.955,47.868 M49.698,45.915c-0.277,0-0.5-0.223-0.5-0.5V44.41
		c0-0.276,0.223-0.5,0.5-0.5c0.276,0,0.5,0.224,0.5,0.5v1.005C50.198,45.692,49.974,45.915,49.698,45.915 M81.955,44.851
		c-0.277,0-0.5-0.223-0.5-0.5v-1.005c0-0.276,0.223-0.5,0.5-0.5c0.275,0,0.5,0.224,0.5,0.5v1.005
		C82.455,44.628,82.23,44.851,81.955,44.851 M49.698,42.899c-0.277,0-0.5-0.223-0.5-0.5v-1.005c0-0.276,0.223-0.5,0.5-0.5
		c0.276,0,0.5,0.224,0.5,0.5v1.005C50.198,42.676,49.974,42.899,49.698,42.899 M81.955,41.835c-0.277,0-0.5-0.223-0.5-0.5V40.33
		c0-0.276,0.223-0.5,0.5-0.5c0.275,0,0.5,0.224,0.5,0.5v1.005C82.455,41.612,82.23,41.835,81.955,41.835 M49.698,39.883
		c-0.277,0-0.5-0.223-0.5-0.5v-1.005c0-0.277,0.223-0.5,0.5-0.5c0.276,0,0.5,0.223,0.5,0.5v1.005
		C50.198,39.66,49.974,39.883,49.698,39.883 M81.955,38.819c-0.277,0-0.5-0.223-0.5-0.5v-1.005c0-0.277,0.223-0.5,0.5-0.5
		c0.275,0,0.5,0.223,0.5,0.5v1.005C82.455,38.596,82.23,38.819,81.955,38.819 M49.872,36.902c-0.093,0-0.188-0.027-0.272-0.081
		c-0.231-0.151-0.297-0.461-0.146-0.692c0.272-0.416,0.729-0.684,1.224-0.716c0.274-0.017,0.513,0.192,0.531,0.468
		c0.017,0.275-0.191,0.513-0.467,0.53c-0.182,0.012-0.35,0.11-0.45,0.264C50.196,36.822,50.036,36.902,49.872,36.902 M80.883,36.41
		h-1.018c-0.276,0-0.5-0.224-0.5-0.5s0.224-0.5,0.5-0.5h1.005c0.276,0,0.506,0.224,0.506,0.5S81.159,36.41,80.883,36.41
		 M77.854,36.41h-1.006c-0.276,0-0.5-0.224-0.5-0.5s0.224-0.5,0.5-0.5h1.006c0.276,0,0.5,0.224,0.5,0.5S78.131,36.41,77.854,36.41
		 M74.838,36.41h-1.005c-0.276,0-0.5-0.224-0.5-0.5s0.224-0.5,0.5-0.5h1.005c0.276,0,0.5,0.224,0.5,0.5S75.114,36.41,74.838,36.41
		 M71.822,36.41h-1.005c-0.277,0-0.5-0.224-0.5-0.5s0.223-0.5,0.5-0.5h1.005c0.277,0,0.5,0.224,0.5,0.5S72.099,36.41,71.822,36.41
		 M68.807,36.41h-1.006c-0.276,0-0.5-0.224-0.5-0.5s0.224-0.5,0.5-0.5h1.006c0.276,0,0.5,0.224,0.5,0.5S69.083,36.41,68.807,36.41
		 M65.79,36.41h-1.005c-0.276,0-0.5-0.224-0.5-0.5s0.224-0.5,0.5-0.5h1.005c0.277,0,0.5,0.224,0.5,0.5S66.066,36.41,65.79,36.41
		 M62.773,36.41h-1.005c-0.276,0-0.5-0.224-0.5-0.5s0.224-0.5,0.5-0.5h1.005c0.277,0,0.5,0.224,0.5,0.5S63.051,36.41,62.773,36.41
		 M59.758,36.41h-1.005c-0.277,0-0.5-0.224-0.5-0.5s0.223-0.5,0.5-0.5h1.005c0.277,0,0.5,0.224,0.5,0.5S60.035,36.41,59.758,36.41
		 M56.742,36.41h-1.005c-0.277,0-0.5-0.224-0.5-0.5s0.223-0.5,0.5-0.5h1.005c0.276,0,0.5,0.224,0.5,0.5S57.018,36.41,56.742,36.41
		 M53.726,36.41h-1.005c-0.277,0-0.5-0.224-0.5-0.5s0.223-0.5,0.5-0.5h1.005c0.276,0,0.5,0.224,0.5,0.5S54.001,36.41,53.726,36.41"
		/>
	<path clip-path="url(#SVGID_5_)" fill="#231F20" d="M85.166,74.668h-1.005c-0.276,0-0.5-0.224-0.5-0.5s0.224-0.5,0.5-0.5h1.005
		c0.276,0,0.5,0.224,0.5,0.5S85.442,74.668,85.166,74.668 M82.15,74.668h-1.006c-0.276,0-0.5-0.224-0.5-0.5s0.224-0.5,0.5-0.5h1.006
		c0.276,0,0.5,0.224,0.5,0.5S82.427,74.668,82.15,74.668 M79.134,74.668h-1.005c-0.276,0-0.5-0.224-0.5-0.5s0.224-0.5,0.5-0.5h1.005
		c0.276,0,0.5,0.224,0.5,0.5S79.41,74.668,79.134,74.668 M76.118,74.668h-1.005c-0.277,0-0.5-0.224-0.5-0.5s0.223-0.5,0.5-0.5h1.005
		c0.276,0,0.5,0.224,0.5,0.5S76.395,74.668,76.118,74.668 M73.102,74.668h-1.005c-0.276,0-0.5-0.224-0.5-0.5s0.224-0.5,0.5-0.5
		h1.005c0.276,0,0.5,0.224,0.5,0.5S73.378,74.668,73.102,74.668 M70.086,74.668h-1.005c-0.277,0-0.5-0.224-0.5-0.5
		s0.223-0.5,0.5-0.5h1.005c0.277,0,0.5,0.224,0.5,0.5S70.363,74.668,70.086,74.668 M67.07,74.668h-1.005c-0.277,0-0.5-0.224-0.5-0.5
		s0.223-0.5,0.5-0.5h1.005c0.276,0,0.5,0.224,0.5,0.5S67.346,74.668,67.07,74.668 M64.054,74.668h-1.005c-0.277,0-0.5-0.224-0.5-0.5
		s0.223-0.5,0.5-0.5h1.005c0.276,0,0.5,0.224,0.5,0.5S64.33,74.668,64.054,74.668 M61.038,74.668h-1.005c-0.276,0-0.5-0.224-0.5-0.5
		s0.224-0.5,0.5-0.5h1.005c0.277,0,0.5,0.224,0.5,0.5S61.315,74.668,61.038,74.668 M58.022,74.668l-1.154-0.023
		c-0.203-0.063-0.351-0.253-0.351-0.478c-0.001-0.287,0.238-0.529,0.53-0.499h0.975c0.277,0,0.5,0.224,0.5,0.5
		S58.299,74.668,58.022,74.668 M87.178,74.666c-0.264,0-0.483-0.205-0.499-0.471c-0.017-0.275,0.194-0.513,0.47-0.528
		c0.185-0.011,0.35-0.106,0.453-0.262c0.152-0.232,0.464-0.291,0.692-0.14c0.23,0.152,0.293,0.463,0.14,0.692
		c-0.274,0.414-0.733,0.679-1.227,0.707C87.197,74.666,87.188,74.666,87.178,74.666 M55.94,73.27c-0.277,0-0.5-0.224-0.5-0.499
		v-1.006c0-0.276,0.223-0.5,0.5-0.5c0.276,0,0.5,0.224,0.5,0.5v1.006C56.44,73.046,56.216,73.27,55.94,73.27 M88.197,72.206
		c-0.277,0-0.5-0.223-0.5-0.5v-1.005c0-0.277,0.223-0.5,0.5-0.5c0.275,0,0.5,0.223,0.5,0.5v1.005
		C88.697,71.983,88.473,72.206,88.197,72.206 M55.94,70.254c-0.277,0-0.5-0.224-0.5-0.5v-1.006c0-0.276,0.223-0.5,0.5-0.5
		c0.276,0,0.5,0.224,0.5,0.5v1.006C56.44,70.03,56.216,70.254,55.94,70.254 M88.197,69.191c-0.277,0-0.5-0.224-0.5-0.5v-1.006
		c0-0.276,0.223-0.5,0.5-0.5c0.275,0,0.5,0.224,0.5,0.5v1.006C88.697,68.967,88.473,69.191,88.197,69.191 M55.94,67.237
		c-0.277,0-0.5-0.223-0.5-0.5v-1.005c0-0.276,0.223-0.5,0.5-0.5c0.276,0,0.5,0.224,0.5,0.5v1.005
		C56.44,67.014,56.216,67.237,55.94,67.237 M88.197,66.174c-0.277,0-0.5-0.223-0.5-0.5v-1.005c0-0.276,0.223-0.5,0.5-0.5
		c0.275,0,0.5,0.224,0.5,0.5v1.005C88.697,65.951,88.473,66.174,88.197,66.174 M55.94,64.221c-0.277,0-0.5-0.223-0.5-0.5v-1.005
		c0-0.276,0.223-0.5,0.5-0.5c0.276,0,0.5,0.224,0.5,0.5v1.005C56.44,63.999,56.216,64.221,55.94,64.221 M88.197,63.158
		c-0.277,0-0.5-0.223-0.5-0.5v-1.005c0-0.276,0.223-0.5,0.5-0.5c0.275,0,0.5,0.224,0.5,0.5v1.005
		C88.697,62.936,88.473,63.158,88.197,63.158 M55.94,61.205c-0.277,0-0.5-0.223-0.5-0.5V59.7c0-0.277,0.223-0.5,0.5-0.5
		c0.276,0,0.5,0.223,0.5,0.5v1.005C56.44,60.982,56.216,61.205,55.94,61.205 M88.197,60.142c-0.277,0-0.5-0.223-0.5-0.5v-1.005
		c0-0.277,0.223-0.5,0.5-0.5c0.275,0,0.5,0.223,0.5,0.5v1.005C88.697,59.919,88.473,60.142,88.197,60.142 M55.94,58.189
		c-0.277,0-0.5-0.224-0.5-0.5v-1.005c0-0.276,0.223-0.5,0.5-0.5c0.276,0,0.5,0.224,0.5,0.5v1.005
		C56.44,57.965,56.216,58.189,55.94,58.189 M88.197,57.126c-0.277,0-0.5-0.224-0.5-0.5v-1.005c0-0.277,0.223-0.5,0.5-0.5
		c0.275,0,0.5,0.223,0.5,0.5v1.005C88.697,56.902,88.473,57.126,88.197,57.126 M55.94,55.173c-0.277,0-0.5-0.223-0.5-0.5v-1.005
		c0-0.276,0.223-0.5,0.5-0.5c0.276,0,0.5,0.224,0.5,0.5v1.005C56.44,54.95,56.216,55.173,55.94,55.173 M88.197,54.11
		c-0.277,0-0.5-0.224-0.5-0.5v-1.005c0-0.277,0.223-0.5,0.5-0.5c0.275,0,0.5,0.223,0.5,0.5v1.005
		C88.697,53.886,88.473,54.11,88.197,54.11 M55.94,52.157c-0.277,0-0.5-0.223-0.5-0.5v-1.005c0-0.276,0.223-0.5,0.5-0.5
		c0.276,0,0.5,0.224,0.5,0.5v1.005C56.44,51.934,56.216,52.157,55.94,52.157 M88.197,51.094c-0.277,0-0.5-0.224-0.5-0.5v-1.005
		c0-0.276,0.223-0.5,0.5-0.5c0.275,0,0.5,0.224,0.5,0.5v1.005C88.697,50.87,88.473,51.094,88.197,51.094 M55.94,49.141
		c-0.277,0-0.5-0.223-0.5-0.5v-1.005c0-0.276,0.223-0.5,0.5-0.5c0.276,0,0.5,0.224,0.5,0.5v1.005
		C56.44,48.918,56.216,49.141,55.94,49.141 M88.197,48.078c-0.277,0-0.5-0.223-0.5-0.5v-1.005c0-0.276,0.223-0.5,0.5-0.5
		c0.275,0,0.5,0.224,0.5,0.5v1.005C88.697,47.855,88.473,48.078,88.197,48.078 M55.94,46.125c-0.277,0-0.5-0.223-0.5-0.5V44.62
		c0-0.277,0.223-0.5,0.5-0.5c0.276,0,0.5,0.223,0.5,0.5v1.005C56.44,45.902,56.216,46.125,55.94,46.125 M88.197,45.062
		c-0.277,0-0.5-0.223-0.5-0.5v-1.005c0-0.277,0.223-0.5,0.5-0.5c0.275,0,0.5,0.223,0.5,0.5v1.005
		C88.697,44.839,88.473,45.062,88.197,45.062 M56.114,43.145c-0.093,0-0.188-0.027-0.272-0.081
		c-0.231-0.151-0.297-0.461-0.146-0.692c0.272-0.416,0.729-0.684,1.224-0.716c0.274-0.017,0.513,0.192,0.531,0.468
		c0.017,0.275-0.191,0.513-0.467,0.53c-0.182,0.012-0.35,0.11-0.45,0.264C56.438,43.064,56.278,43.145,56.114,43.145 M87.125,42.652
		h-1.018c-0.276,0-0.5-0.224-0.5-0.5s0.224-0.5,0.5-0.5h1.006c0.275,0,0.505,0.224,0.505,0.5S87.401,42.652,87.125,42.652
		 M84.097,42.652h-1.006c-0.276,0-0.5-0.224-0.5-0.5s0.224-0.5,0.5-0.5h1.006c0.276,0,0.5,0.224,0.5,0.5
		S84.373,42.652,84.097,42.652 M81.08,42.652h-1.005c-0.276,0-0.5-0.224-0.5-0.5s0.224-0.5,0.5-0.5h1.005c0.276,0,0.5,0.224,0.5,0.5
		S81.356,42.652,81.08,42.652 M78.064,42.652h-1.006c-0.276,0-0.5-0.224-0.5-0.5s0.224-0.5,0.5-0.5h1.006c0.276,0,0.5,0.224,0.5,0.5
		S78.341,42.652,78.064,42.652 M75.048,42.652h-1.005c-0.276,0-0.5-0.224-0.5-0.5s0.224-0.5,0.5-0.5h1.005
		c0.276,0,0.5,0.224,0.5,0.5S75.324,42.652,75.048,42.652 M72.032,42.652h-1.005c-0.276,0-0.5-0.224-0.5-0.5s0.224-0.5,0.5-0.5
		h1.005c0.276,0,0.5,0.224,0.5,0.5S72.309,42.652,72.032,42.652 M69.016,42.652h-1.005c-0.276,0-0.5-0.224-0.5-0.5
		s0.224-0.5,0.5-0.5h1.005c0.277,0,0.5,0.224,0.5,0.5S69.293,42.652,69.016,42.652 M66,42.652h-1.005c-0.277,0-0.5-0.224-0.5-0.5
		s0.223-0.5,0.5-0.5H66c0.277,0,0.5,0.224,0.5,0.5S66.277,42.652,66,42.652 M62.984,42.652h-1.005c-0.277,0-0.5-0.224-0.5-0.5
		s0.223-0.5,0.5-0.5h1.005c0.276,0,0.5,0.224,0.5,0.5S63.26,42.652,62.984,42.652 M59.968,42.652h-1.005c-0.277,0-0.5-0.224-0.5-0.5
		s0.223-0.5,0.5-0.5h1.005c0.276,0,0.5,0.224,0.5,0.5S60.244,42.652,59.968,42.652"/>
	<path clip-path="url(#SVGID_5_)" fill="#231F20" d="M91.409,80.91h-1.006c-0.276,0-0.5-0.224-0.5-0.5s0.224-0.5,0.5-0.5h1.006
		c0.276,0,0.5,0.224,0.5,0.5S91.686,80.91,91.409,80.91 M88.393,80.91h-1.005c-0.276,0-0.5-0.224-0.5-0.5s0.224-0.5,0.5-0.5h1.005
		c0.276,0,0.5,0.224,0.5,0.5S88.669,80.91,88.393,80.91 M85.377,80.91h-1.006c-0.276,0-0.5-0.224-0.5-0.5s0.224-0.5,0.5-0.5h1.006
		c0.276,0,0.5,0.224,0.5,0.5S85.653,80.91,85.377,80.91 M82.36,80.91h-1.004c-0.277,0-0.5-0.224-0.5-0.5s0.223-0.5,0.5-0.5h1.004
		c0.276,0,0.5,0.224,0.5,0.5S82.637,80.91,82.36,80.91 M79.345,80.91h-1.006c-0.275,0-0.5-0.224-0.5-0.5s0.225-0.5,0.5-0.5h1.006
		c0.276,0,0.5,0.224,0.5,0.5S79.621,80.91,79.345,80.91 M76.328,80.91h-1.005c-0.276,0-0.5-0.224-0.5-0.5s0.224-0.5,0.5-0.5h1.005
		c0.277,0,0.5,0.224,0.5,0.5S76.605,80.91,76.328,80.91 M73.313,80.91h-1.007c-0.275,0-0.5-0.224-0.5-0.5s0.224-0.5,0.5-0.5h1.007
		c0.275,0,0.5,0.224,0.5,0.5S73.589,80.91,73.313,80.91 M70.296,80.91h-1.005c-0.276,0-0.5-0.224-0.5-0.5s0.224-0.5,0.5-0.5h1.005
		c0.277,0,0.5,0.224,0.5,0.5S70.573,80.91,70.296,80.91 M67.28,80.91h-1.005c-0.276,0-0.5-0.224-0.5-0.5s0.224-0.5,0.5-0.5h1.005
		c0.277,0,0.5,0.224,0.5,0.5S67.557,80.91,67.28,80.91 M64.264,80.91h-0.999c-0.276,0-0.503-0.224-0.503-0.5s0.221-0.5,0.497-0.5
		h1.005c0.277,0,0.5,0.224,0.5,0.5S64.541,80.91,64.264,80.91 M93.42,80.908c-0.264,0-0.483-0.205-0.499-0.471
		c-0.017-0.275,0.194-0.513,0.47-0.528c0.185-0.011,0.349-0.106,0.452-0.263c0.153-0.23,0.465-0.293,0.693-0.141
		c0.229,0.152,0.293,0.463,0.141,0.693c-0.274,0.414-0.733,0.68-1.228,0.708C93.439,80.908,93.43,80.908,93.42,80.908
		 M62.182,79.513c-0.277,0-0.5-0.224-0.5-0.5v-1.006c0-0.276,0.223-0.5,0.5-0.5c0.276,0,0.5,0.224,0.5,0.5v1.006
		C62.682,79.289,62.458,79.513,62.182,79.513 M94.439,78.448c-0.277,0-0.5-0.224-0.5-0.5v-1.005c0-0.277,0.223-0.5,0.5-0.5
		c0.275,0,0.5,0.223,0.5,0.5v1.005C94.939,78.225,94.715,78.448,94.439,78.448 M62.182,76.496c-0.277,0-0.5-0.224-0.5-0.5v-1.005
		c0-0.276,0.223-0.5,0.5-0.5c0.276,0,0.5,0.224,0.5,0.5v1.005C62.682,76.272,62.458,76.496,62.182,76.496 M94.439,75.433
		c-0.277,0-0.5-0.224-0.5-0.5v-1.006c0-0.276,0.223-0.5,0.5-0.5c0.275,0,0.5,0.224,0.5,0.5v1.006
		C94.939,75.209,94.715,75.433,94.439,75.433 M62.182,73.48c-0.277,0-0.5-0.225-0.5-0.501v-1.004c0-0.277,0.223-0.5,0.5-0.5
		c0.276,0,0.5,0.223,0.5,0.5v1.004C62.682,73.256,62.458,73.48,62.182,73.48 M94.439,72.416c-0.277,0-0.5-0.224-0.5-0.5v-1.005
		c0-0.277,0.223-0.5,0.5-0.5c0.275,0,0.5,0.223,0.5,0.5v1.005C94.939,72.192,94.715,72.416,94.439,72.416 M62.182,70.464
		c-0.277,0-0.5-0.224-0.5-0.5v-1.006c0-0.276,0.223-0.5,0.5-0.5c0.276,0,0.5,0.224,0.5,0.5v1.006
		C62.682,70.241,62.458,70.464,62.182,70.464 M94.439,69.4c-0.277,0-0.5-0.224-0.5-0.5v-1.006c0-0.276,0.223-0.5,0.5-0.5
		c0.275,0,0.5,0.224,0.5,0.5V68.9C94.939,69.176,94.715,69.4,94.439,69.4 M62.182,67.449c-0.277,0-0.5-0.224-0.5-0.5v-1.006
		c0-0.276,0.223-0.5,0.5-0.5c0.276,0,0.5,0.224,0.5,0.5v1.006C62.682,67.225,62.458,67.449,62.182,67.449 M94.439,66.384
		c-0.277,0-0.5-0.224-0.5-0.5v-1.006c0-0.276,0.223-0.5,0.5-0.5c0.275,0,0.5,0.224,0.5,0.5v1.006
		C94.939,66.161,94.715,66.384,94.439,66.384 M62.182,64.433c-0.277,0-0.5-0.224-0.5-0.5v-1.006c0-0.276,0.223-0.5,0.5-0.5
		c0.276,0,0.5,0.224,0.5,0.5v1.006C62.682,64.208,62.458,64.433,62.182,64.433 M94.439,63.369c-0.277,0-0.5-0.224-0.5-0.5v-1.005
		c0-0.277,0.223-0.5,0.5-0.5c0.275,0,0.5,0.223,0.5,0.5v1.005C94.939,63.145,94.715,63.369,94.439,63.369 M62.182,61.416
		c-0.277,0-0.5-0.223-0.5-0.5v-1.005c0-0.276,0.223-0.5,0.5-0.5c0.276,0,0.5,0.224,0.5,0.5v1.005
		C62.682,61.192,62.458,61.416,62.182,61.416 M94.439,60.353c-0.277,0-0.5-0.224-0.5-0.5v-1.005c0-0.277,0.223-0.5,0.5-0.5
		c0.275,0,0.5,0.223,0.5,0.5v1.005C94.939,60.128,94.715,60.353,94.439,60.353 M62.182,58.399c-0.277,0-0.5-0.223-0.5-0.5v-1.005
		c0-0.276,0.223-0.5,0.5-0.5c0.276,0,0.5,0.224,0.5,0.5v1.005C62.682,58.176,62.458,58.399,62.182,58.399 M94.439,57.336
		c-0.277,0-0.5-0.224-0.5-0.5v-1.005c0-0.277,0.223-0.5,0.5-0.5c0.275,0,0.5,0.223,0.5,0.5v1.005
		C94.939,57.112,94.715,57.336,94.439,57.336 M62.182,55.383c-0.277,0-0.5-0.223-0.5-0.5v-1.005c0-0.276,0.223-0.5,0.5-0.5
		c0.276,0,0.5,0.224,0.5,0.5v1.005C62.682,55.161,62.458,55.383,62.182,55.383 M94.439,54.32c-0.277,0-0.5-0.224-0.5-0.5v-1.006
		c0-0.276,0.223-0.5,0.5-0.5c0.275,0,0.5,0.224,0.5,0.5v1.006C94.939,54.097,94.715,54.32,94.439,54.32 M62.182,52.368
		c-0.277,0-0.5-0.223-0.5-0.5v-1.005c0-0.276,0.223-0.5,0.5-0.5c0.276,0,0.5,0.224,0.5,0.5v1.005
		C62.682,52.145,62.458,52.368,62.182,52.368 M94.439,51.305c-0.277,0-0.5-0.224-0.5-0.5v-1.006c0-0.276,0.223-0.5,0.5-0.5
		c0.275,0,0.5,0.224,0.5,0.5v1.006C94.939,51.081,94.715,51.305,94.439,51.305 M62.357,49.387c-0.094,0-0.189-0.027-0.273-0.082
		c-0.231-0.151-0.296-0.46-0.145-0.692c0.271-0.416,0.729-0.683,1.223-0.715c0.286-0.017,0.513,0.192,0.531,0.467
		c0.017,0.276-0.191,0.514-0.467,0.531c-0.182,0.012-0.349,0.111-0.45,0.264C62.68,49.307,62.52,49.387,62.357,49.387
		 M93.368,48.895H92.35c-0.276,0-0.5-0.224-0.5-0.5s0.224-0.5,0.5-0.5h1.006c0.275,0,0.506,0.224,0.506,0.5
		S93.645,48.895,93.368,48.895 M90.339,48.895h-1.006c-0.276,0-0.5-0.224-0.5-0.5s0.224-0.5,0.5-0.5h1.006
		c0.276,0,0.5,0.224,0.5,0.5S90.615,48.895,90.339,48.895 M87.322,48.895h-1.005c-0.276,0-0.5-0.224-0.5-0.5s0.224-0.5,0.5-0.5
		h1.005c0.276,0,0.5,0.224,0.5,0.5S87.599,48.895,87.322,48.895 M84.307,48.895h-1.006c-0.276,0-0.5-0.224-0.5-0.5
		s0.224-0.5,0.5-0.5h1.006c0.276,0,0.5,0.224,0.5,0.5S84.583,48.895,84.307,48.895 M81.29,48.895h-1.005c-0.276,0-0.5-0.224-0.5-0.5
		s0.224-0.5,0.5-0.5h1.005c0.276,0,0.5,0.224,0.5,0.5S81.566,48.895,81.29,48.895 M78.274,48.895h-1.006c-0.276,0-0.5-0.224-0.5-0.5
		s0.224-0.5,0.5-0.5h1.006c0.276,0,0.5,0.224,0.5,0.5S78.551,48.895,78.274,48.895 M75.258,48.895h-1.005
		c-0.276,0-0.5-0.224-0.5-0.5s0.224-0.5,0.5-0.5h1.005c0.276,0,0.5,0.224,0.5,0.5S75.534,48.895,75.258,48.895 M72.242,48.895
		h-1.005c-0.277,0-0.5-0.224-0.5-0.5s0.223-0.5,0.5-0.5h1.005c0.276,0,0.5,0.224,0.5,0.5S72.519,48.895,72.242,48.895
		 M69.226,48.895h-1.005c-0.277,0-0.5-0.224-0.5-0.5s0.223-0.5,0.5-0.5h1.005c0.276,0,0.5,0.224,0.5,0.5
		S69.502,48.895,69.226,48.895 M66.21,48.895h-1.005c-0.277,0-0.5-0.224-0.5-0.5s0.223-0.5,0.5-0.5h1.005c0.276,0,0.5,0.224,0.5,0.5
		S66.486,48.895,66.21,48.895"/>
</g>
</svg>
