<?xml version="1.0" encoding="utf-8"?>
<!-- Generator: Adobe Illustrator 16.0.4, SVG Export Plug-In . SVG Version: 6.00 Build 0)  -->
<!DOCTYPE svg PUBLIC "-//W3C//DTD SVG 1.1//EN" "http://www.w3.org/Graphics/SVG/1.1/DTD/svg11.dtd">
<svg version="1.1" id="Layer_1" xmlns="http://www.w3.org/2000/svg" xmlns:xlink="http://www.w3.org/1999/xlink" x="0px" y="0px"
	 width="144px" height="144px" viewBox="0 0 144 144" enable-background="new 0 0 144 144" xml:space="preserve">
<g>
	<defs>
		<path id="SVGID_1_" d="M27.743,66.674c-0.1,0.301,0.008,0.633,0.267,0.816l15.03,10.7c-0.058,0.224-0.095,0.456-0.095,0.695v35.39
			c0,0.532,0.431,0.964,0.964,0.964h55.43c0.533,0,0.963-0.432,0.963-0.964v-35.41c0-0.127-0.01-0.252-0.026-0.375l15.45-11
			c0.259-0.183,0.367-0.515,0.268-0.816c-0.102-0.302-0.401-0.493-0.703-0.495l-17.408,0.397c-0.135,0.003-0.268,0.045-0.381,0.119
			l-8.62,5.692c-0.05,0.034-0.084,0.081-0.124,0.124H54.978c-0.039-0.043-0.074-0.09-0.124-0.124l-8.62-5.692
			c-0.114-0.074-0.246-0.116-0.382-0.119l-17.407-0.397c-0.018-0.001-0.036-0.002-0.054-0.002
			C28.059,66.177,27.837,66.388,27.743,66.674"/>
	</defs>
	<clipPath id="SVGID_2_">
		<use xlink:href="#SVGID_1_"  overflow="visible"/>
	</clipPath>
	
		<linearGradient id="SVGID_3_" gradientUnits="userSpaceOnUse" x1="0" y1="143.9355" x2="1" y2="143.9355" gradientTransform="matrix(60.343 60.343 60.343 -60.343 -8647.8223 8742.1074)">
		<stop  offset="0" style="stop-color:#E6E7E8"/>
		<stop  offset="0.5" style="stop-color:#F6F6F6"/>
		<stop  offset="1" style="stop-color:#CBCCCE"/>
	</linearGradient>
	<polygon clip-path="url(#SVGID_2_)" fill="url(#SVGID_3_)" points="71.868,21.952 140.624,90.708 71.868,159.464 3.112,90.708 	"/>
</g>
<g>
	<defs>
		<rect id="SVGID_4_" width="144" height="144"/>
	</defs>
	<clipPath id="SVGID_5_">
		<use xlink:href="#SVGID_4_"  overflow="visible"/>
	</clipPath>
	<path clip-path="url(#SVGID_5_)" fill="#231F20" d="M117.796,65.942c-0.104-0.313-0.393-0.52-0.729-0.514L99,65.84
		c-0.141,0.003-0.278,0.046-0.396,0.124l-8.945,5.907c-0.053,0.035-0.088,0.084-0.129,0.129H54.471
		c-0.041-0.045-0.076-0.094-0.129-0.129l-8.946-5.907c-0.118-0.078-0.255-0.121-0.396-0.124l-18.067-0.412
		c-0.38-0.006-0.625,0.202-0.729,0.514c-0.103,0.312,0.009,0.656,0.277,0.847L42.08,77.896c-0.06,0.231-0.098,0.472-0.098,0.721
		v36.729c0,0.553,0.448,1,1,1h57.53c0.553,0,1-0.447,1-1v-36.75c0-0.132-0.012-0.262-0.028-0.391l16.035-11.416
		C117.787,66.598,117.899,66.254,117.796,65.942 M53.429,77.616H45.01l8.419-3.342V77.616z M54.429,74h35.143v3.616H54.429V74z
		 M90.571,74h0.142l7.974,3.616h-8.115V74z M44.75,67.335l7.786,5.141l-8.742,3.47c-0.372,0.148-0.695,0.37-0.965,0.639
		l-13.488-9.601L44.75,67.335z M43.982,79.616h55.529v34.729H43.982V79.616z M100.883,76.791c-0.287-0.368-0.656-0.673-1.097-0.873
		l-8.024-3.639l7.489-4.944l15.408-0.351L100.883,76.791z"/>
	<path clip-path="url(#SVGID_5_)" fill="#231F20" d="M95.812,49.409l1.409,1.409l-9.714,9.712c-0.194,0.195-0.293,0.451-0.293,0.707
		c0,0.144,0.039,0.285,0.102,0.418c0.019,0.094,0.055,0.185,0.128,0.258c0.055,0.055,0.12,0.09,0.188,0.114
		c0.392,0.287,0.937,0.271,1.289-0.083l9.713-9.712l1.408,1.408l1.548-5.779L95.812,49.409z"/>
	<path clip-path="url(#SVGID_5_)" fill="#231F20" d="M48.188,49.409l-1.409,1.409l9.713,9.712c0.195,0.195,0.293,0.451,0.293,0.707
		c0,0.144-0.039,0.285-0.101,0.418c-0.019,0.094-0.055,0.185-0.128,0.258c-0.055,0.055-0.12,0.09-0.189,0.114
		c-0.391,0.287-0.936,0.271-1.289-0.083l-9.713-9.712l-1.408,1.408l-1.548-5.779L48.188,49.409z"/>
	<path clip-path="url(#SVGID_5_)" fill="#231F20" d="M69.008,47.469H71v13.735c0,0.277,0.112,0.527,0.293,0.708
		c0.102,0.101,0.229,0.173,0.366,0.224c0.08,0.053,0.17,0.091,0.273,0.091c0.078,0,0.149-0.021,0.215-0.052
		C72.627,62.101,73,61.705,73,61.204V47.469h1.992L72,42.288L69.008,47.469z"/>
</g>
</svg>
