<?xml version="1.0" encoding="utf-8"?>
<!-- Generator: Adobe Illustrator 16.0.4, SVG Export Plug-In . SVG Version: 6.00 Build 0)  -->
<!DOCTYPE svg PUBLIC "-//W3C//DTD SVG 1.1//EN" "http://www.w3.org/Graphics/SVG/1.1/DTD/svg11.dtd">
<svg version="1.1" id="Layer_1" xmlns="http://www.w3.org/2000/svg" xmlns:xlink="http://www.w3.org/1999/xlink" x="0px" y="0px"
	 width="144px" height="144px" viewBox="0 0 144 144" enable-background="new 0 0 144 144" xml:space="preserve">
<g>
	<defs>
		<rect id="SVGID_1_" width="144" height="144"/>
	</defs>
	<clipPath id="SVGID_2_">
		<use xlink:href="#SVGID_1_"  overflow="visible"/>
	</clipPath>
	<g clip-path="url(#SVGID_2_)">
		<defs>
			<path id="SVGID_3_" d="M120.75,14.993c-3.25,0.069-60.946,0-60.946,0L56,23.535L51.333,32.5H30.482l-10.565,4.865V128.5
				l57.686,0.333l-0.436-40.416l42.834-8.528c0,0,3.66-0.132,4.188-2.168c0.527-2.035-0.048-59.409-0.048-59.409
				s-0.139-3.32-3.293-3.32C120.817,14.992,120.784,14.992,120.75,14.993"/>
		</defs>
		<clipPath id="SVGID_4_">
			<use xlink:href="#SVGID_3_"  overflow="visible"/>
		</clipPath>
		
			<linearGradient id="SVGID_5_" gradientUnits="userSpaceOnUse" x1="0" y1="144.0078" x2="1" y2="144.0078" gradientTransform="matrix(74.5771 74.5771 74.5771 -74.5771 -10710.8486 10768.0713)">
			<stop  offset="0" style="stop-color:#E6E7E8"/>
			<stop  offset="0.5" style="stop-color:#F6F6F6"/>
			<stop  offset="1" style="stop-color:#CBCCCE"/>
		</linearGradient>
		<polygon clip-path="url(#SVGID_4_)" fill="url(#SVGID_5_)" points="72.317,-37.408 181.638,71.913 72.317,181.233 -37.003,71.913 
					"/>
	</g>
	<g clip-path="url(#SVGID_2_)">
		<defs>
			<rect id="SVGID_6_" width="144" height="144"/>
		</defs>
		<clipPath id="SVGID_7_">
			<use xlink:href="#SVGID_6_"  overflow="visible"/>
		</clipPath>
		<path clip-path="url(#SVGID_7_)" d="M57.804,38.745c0,0.552,0.448,1,1,1c0.108,0,0.208-0.03,0.306-0.062
			c0.4-0.13,0.694-0.494,0.694-0.938v-2c0-0.444-0.294-0.808-0.694-0.938c-0.098-0.032-0.198-0.062-0.306-0.062
			c-0.552,0-1,0.448-1,1V38.745z"/>
		<path clip-path="url(#SVGID_7_)" d="M57.804,32.75c0,0.552,0.448,1,1,1c0.108,0,0.208-0.03,0.306-0.062
			c0.4-0.13,0.694-0.494,0.694-0.938v-2c0-0.444-0.294-0.808-0.694-0.938c-0.098-0.032-0.198-0.062-0.306-0.062
			c-0.552,0-1,0.448-1,1V32.75z"/>
		<path clip-path="url(#SVGID_7_)" fill="#231F20" d="M25.866,122.05c0.761,0,1.376-0.615,1.376-1.375s-0.615-1.375-1.376-1.375
			c-0.759,0-1.375,0.615-1.375,1.375S25.107,122.05,25.866,122.05"/>
		<path clip-path="url(#SVGID_7_)" fill="#231F20" d="M30.745,122.05c0.759,0,1.375-0.615,1.375-1.375s-0.616-1.375-1.375-1.375
			c-0.76,0-1.375,0.615-1.375,1.375S29.985,122.05,30.745,122.05"/>
		<path clip-path="url(#SVGID_7_)" fill="#231F20" d="M70.076,125.097h2.998c0.276,0,0.501-0.224,0.501-0.5v-8
			c0-0.275-0.225-0.5-0.501-0.5h-2.998c-0.276,0-0.501,0.225-0.501,0.5v8C69.575,124.873,69.8,125.097,70.076,125.097
			 M70.575,117.097h2v7h-2V117.097z"/>
		<path clip-path="url(#SVGID_7_)" fill="#231F20" d="M64.075,125.097h3c0.277,0,0.5-0.224,0.5-0.5v-8c0-0.275-0.223-0.5-0.5-0.5h-3
			c-0.276,0-0.5,0.225-0.5,0.5v8C63.575,124.873,63.799,125.097,64.075,125.097 M64.575,117.097h2v7h-2V117.097z"/>
		<path clip-path="url(#SVGID_7_)" d="M71.993,15.993h2c0.411,0,0.762-0.249,0.916-0.603c0.053-0.122,0.084-0.256,0.084-0.397
			c0-0.552-0.448-1-1-1h-2c-0.552,0-1,0.448-1,1c0,0.141,0.031,0.275,0.084,0.397C71.231,15.744,71.582,15.993,71.993,15.993"/>
		<path clip-path="url(#SVGID_7_)" d="M72.603,78.889h-2c-0.478,0-0.859,0.342-0.958,0.791c-0.015,0.069-0.042,0.135-0.042,0.209
			c0,0.554,0.448,1,1,1h2c0.552,0,1-0.446,1-1c0-0.074-0.027-0.14-0.042-0.209C73.462,79.23,73.081,78.889,72.603,78.889"/>
		<path clip-path="url(#SVGID_7_)" d="M78.603,78.889H78.34h-1.737c-0.093,0-0.178,0.023-0.263,0.047
			c-0.35,0.101-0.615,0.383-0.695,0.744c-0.015,0.069-0.042,0.135-0.042,0.209c0,0.459,0.316,0.83,0.737,0.947
			c0.086,0.024,0.17,0.053,0.263,0.053h1.737h0.263c0.552,0,1-0.446,1-1c0-0.074-0.027-0.14-0.042-0.209
			C79.462,79.23,79.081,78.889,78.603,78.889"/>
		<path clip-path="url(#SVGID_7_)" d="M77.993,15.993h2c0.411,0,0.762-0.249,0.916-0.603c0.053-0.122,0.084-0.256,0.084-0.397
			c0-0.552-0.448-1-1-1h-2c-0.552,0-1,0.448-1,1c0,0.141,0.031,0.275,0.084,0.397C77.231,15.744,77.582,15.993,77.993,15.993"/>
		<path clip-path="url(#SVGID_7_)" d="M84.603,78.889h-2c-0.478,0-0.859,0.342-0.958,0.791c-0.015,0.069-0.042,0.135-0.042,0.209
			c0,0.554,0.448,1,1,1h2c0.552,0,1-0.446,1-1c0-0.074-0.027-0.14-0.042-0.209C85.462,79.23,85.081,78.889,84.603,78.889"/>
		<path clip-path="url(#SVGID_7_)" d="M58.804,27.745c0.108,0,0.208-0.03,0.306-0.062c0.4-0.13,0.694-0.494,0.694-0.938v-2
			c0-0.444-0.294-0.808-0.694-0.938c-0.098-0.032-0.198-0.062-0.306-0.062c-0.552,0-1,0.448-1,1v2
			C57.804,27.297,58.252,27.745,58.804,27.745"/>
		<path clip-path="url(#SVGID_7_)" d="M66.603,78.889h-2c-0.478,0-0.859,0.342-0.958,0.791c-0.015,0.069-0.042,0.135-0.042,0.209
			c0,0.554,0.448,1,1,1h2c0.552,0,1-0.446,1-1c0-0.074-0.027-0.14-0.042-0.209C67.461,79.23,67.081,78.889,66.603,78.889"/>
		<path clip-path="url(#SVGID_7_)" d="M59.656,16.138c0.119,0.048,0.244,0.082,0.373,0.082c0.149,0,0.3-0.033,0.442-0.104
			c0.166-0.081,0.344-0.123,0.53-0.123h0.992c0.411,0,0.762-0.248,0.916-0.603c0.053-0.122,0.084-0.255,0.084-0.397
			c0-0.552-0.448-1-1-1h-0.992c-0.496,0-0.973,0.111-1.416,0.33c-0.495,0.245-0.698,0.844-0.453,1.34
			C59.245,15.891,59.437,16.049,59.656,16.138"/>
		<path clip-path="url(#SVGID_7_)" d="M65.993,15.993h2c0.411,0,0.762-0.249,0.916-0.603c0.053-0.122,0.084-0.256,0.084-0.397
			c0-0.552-0.448-1-1-1h-2c-0.552,0-1,0.448-1,1c0,0.141,0.031,0.275,0.084,0.397C65.231,15.744,65.582,15.993,65.993,15.993"/>
		<path clip-path="url(#SVGID_7_)" d="M108.603,78.889h-2c-0.478,0-0.859,0.342-0.958,0.791c-0.015,0.069-0.042,0.135-0.042,0.209
			c0,0.554,0.448,1,1,1h2c0.552,0,1-0.446,1-1c0-0.074-0.027-0.14-0.042-0.209C109.462,79.23,109.081,78.889,108.603,78.889"/>
		<path clip-path="url(#SVGID_7_)" d="M101.993,15.993h2c0.411,0,0.762-0.249,0.916-0.603c0.053-0.122,0.084-0.256,0.084-0.397
			c0-0.552-0.448-1-1-1h-2c-0.552,0-1,0.448-1,1c0,0.141,0.031,0.275,0.084,0.397C101.231,15.744,101.582,15.993,101.993,15.993"/>
		<path clip-path="url(#SVGID_7_)" d="M107.993,15.993h2c0.411,0,0.762-0.249,0.916-0.603c0.053-0.122,0.084-0.256,0.084-0.397
			c0-0.552-0.448-1-1-1h-2c-0.552,0-1,0.448-1,1c0,0.141,0.031,0.275,0.084,0.397C107.231,15.744,107.582,15.993,107.993,15.993"/>
		<path clip-path="url(#SVGID_7_)" d="M83.993,15.993h2c0.411,0,0.762-0.249,0.916-0.603c0.053-0.122,0.084-0.256,0.084-0.397
			c0-0.552-0.448-1-1-1h-2c-0.552,0-1,0.448-1,1c0,0.141,0.031,0.275,0.084,0.397C83.231,15.744,83.582,15.993,83.993,15.993"/>
		<path clip-path="url(#SVGID_7_)" d="M102.603,78.889h-2c-0.478,0-0.859,0.342-0.958,0.791c-0.015,0.069-0.042,0.135-0.042,0.209
			c0,0.554,0.448,1,1,1h2c0.552,0,1-0.446,1-1c0-0.074-0.027-0.14-0.042-0.209C103.462,79.23,103.081,78.889,102.603,78.889"/>
		<path clip-path="url(#SVGID_7_)" d="M95.993,15.993h2c0.411,0,0.762-0.249,0.916-0.603c0.053-0.122,0.084-0.256,0.084-0.397
			c0-0.552-0.448-1-1-1h-2c-0.552,0-1,0.448-1,1c0,0.141,0.031,0.275,0.084,0.397C95.231,15.744,95.582,15.993,95.993,15.993"/>
		<path clip-path="url(#SVGID_7_)" d="M89.993,15.993h2c0.411,0,0.762-0.249,0.916-0.603c0.053-0.122,0.084-0.256,0.084-0.397
			c0-0.552-0.448-1-1-1h-2c-0.552,0-1,0.448-1,1c0,0.141,0.031,0.275,0.084,0.397C89.231,15.744,89.582,15.993,89.993,15.993"/>
		<path clip-path="url(#SVGID_7_)" d="M90.603,78.889h-2c-0.478,0-0.859,0.342-0.958,0.791c-0.015,0.069-0.042,0.135-0.042,0.209
			c0,0.554,0.448,1,1,1h2c0.552,0,1-0.446,1-1c0-0.074-0.027-0.14-0.042-0.209C91.462,79.23,91.081,78.889,90.603,78.889"/>
		<path clip-path="url(#SVGID_7_)" d="M96.603,78.889h-2c-0.478,0-0.859,0.342-0.958,0.791c-0.015,0.069-0.042,0.135-0.042,0.209
			c0,0.554,0.448,1,1,1h2c0.552,0,1-0.446,1-1c0-0.074-0.027-0.14-0.042-0.209C97.462,79.23,97.081,78.889,96.603,78.889"/>
		<path clip-path="url(#SVGID_7_)" d="M113.993,15.993h2c0.411,0,0.762-0.249,0.916-0.603c0.053-0.122,0.084-0.256,0.084-0.397
			c0-0.552-0.448-1-1-1h-2c-0.552,0-1,0.448-1,1c0,0.141,0.031,0.275,0.084,0.397C113.231,15.744,113.582,15.993,113.993,15.993"/>
		<path clip-path="url(#SVGID_7_)" d="M124.189,51.535c-0.108,0-0.208,0.03-0.306,0.062c-0.4,0.13-0.694,0.494-0.694,0.938v2
			c0,0.444,0.294,0.807,0.694,0.938c0.098,0.032,0.197,0.062,0.306,0.062c0.552,0,1-0.448,1-1v-2
			C125.189,51.983,124.741,51.535,124.189,51.535"/>
		<path clip-path="url(#SVGID_7_)" d="M124.189,39.535c-0.108,0-0.208,0.03-0.306,0.062c-0.4,0.13-0.694,0.494-0.694,0.938v2
			c0,0.444,0.294,0.808,0.694,0.938c0.098,0.032,0.197,0.062,0.306,0.062c0.552,0,1-0.448,1-1v-2
			C125.189,39.983,124.741,39.535,124.189,39.535"/>
		<path clip-path="url(#SVGID_7_)" d="M124.189,45.535c-0.108,0-0.208,0.03-0.306,0.062c-0.4,0.13-0.694,0.494-0.694,0.938v2
			c0,0.444,0.294,0.808,0.694,0.938c0.098,0.032,0.197,0.062,0.306,0.062c0.552,0,1-0.448,1-1v-2
			C125.189,45.983,124.741,45.535,124.189,45.535"/>
		<path clip-path="url(#SVGID_7_)" d="M124.189,63.534c-0.108,0-0.208,0.03-0.306,0.062c-0.4,0.13-0.694,0.494-0.694,0.938v2
			c0,0.444,0.294,0.808,0.694,0.938c0.098,0.032,0.197,0.062,0.306,0.062c0.552,0,1-0.447,1-1v-2
			C125.189,63.981,124.741,63.534,124.189,63.534"/>
		<path clip-path="url(#SVGID_7_)" d="M124.189,57.534c-0.108,0-0.208,0.03-0.306,0.062c-0.4,0.13-0.694,0.494-0.694,0.938v2
			c0,0.444,0.294,0.808,0.694,0.938c0.098,0.032,0.197,0.062,0.306,0.062c0.552,0,1-0.447,1-1v-2
			C125.189,57.981,124.741,57.534,124.189,57.534"/>
		<path clip-path="url(#SVGID_7_)" d="M124.189,21.535c-0.108,0-0.208,0.03-0.306,0.062c-0.4,0.13-0.694,0.494-0.694,0.938v2
			c0,0.444,0.294,0.808,0.694,0.938c0.098,0.032,0.197,0.062,0.306,0.062c0.552,0,1-0.448,1-1v-2
			C125.189,21.983,124.741,21.535,124.189,21.535"/>
		<path clip-path="url(#SVGID_7_)" d="M124.189,33.535c-0.108,0-0.208,0.03-0.306,0.062c-0.4,0.13-0.694,0.494-0.694,0.938v2
			c0,0.444,0.294,0.808,0.694,0.938c0.098,0.032,0.197,0.062,0.306,0.062c0.552,0,1-0.448,1-1v-2
			C125.189,33.983,124.741,33.535,124.189,33.535"/>
		<path clip-path="url(#SVGID_7_)" d="M124.189,69.534c-0.108,0-0.208,0.03-0.306,0.062c-0.4,0.13-0.694,0.494-0.694,0.938v2
			c0,0.444,0.294,0.809,0.694,0.938c0.098,0.032,0.197,0.062,0.306,0.062c0.552,0,1-0.446,1-1v-2
			C125.189,69.981,124.741,69.534,124.189,69.534"/>
		<path clip-path="url(#SVGID_7_)" d="M125.049,16.251c-0.162-0.528-0.722-0.823-1.249-0.663c-0.243,0.075-0.429,0.24-0.552,0.441
			c-0.145,0.236-0.198,0.524-0.111,0.809c0.035,0.113,0.053,0.231,0.053,0.351v1.346c0,0.444,0.295,0.807,0.694,0.938
			c0.098,0.032,0.197,0.062,0.306,0.062c0.553,0,1-0.448,1-1v-1.346C125.189,16.87,125.143,16.554,125.049,16.251"/>
		<path clip-path="url(#SVGID_7_)" d="M124.189,27.535c-0.108,0-0.208,0.03-0.306,0.062c-0.4,0.13-0.694,0.494-0.694,0.938v2
			c0,0.444,0.294,0.808,0.694,0.938c0.098,0.032,0.197,0.062,0.306,0.062c0.552,0,1-0.448,1-1v-2
			C125.189,27.983,124.741,27.535,124.189,27.535"/>
		<path clip-path="url(#SVGID_7_)" d="M60.426,80.836c0.061,0.012,0.121,0.018,0.18,0.018c0.474,0,0.895-0.339,0.983-0.822
			c0.021-0.12,0.013-0.238-0.007-0.352c-0.071-0.399-0.376-0.733-0.799-0.811c-0.359-0.065-0.675-0.3-0.844-0.626
			c-0.165-0.315-0.477-0.489-0.807-0.517c-0.182-0.016-0.368,0.001-0.542,0.092c-0.49,0.255-0.681,0.858-0.426,1.349
			C58.618,80.037,59.463,80.661,60.426,80.836"/>
		<path clip-path="url(#SVGID_7_)" d="M57.804,62.745c0,0.553,0.448,1,1,1c0.108,0,0.208-0.03,0.306-0.062
			c0.4-0.13,0.694-0.494,0.694-0.938v-2c0-0.444-0.294-0.808-0.694-0.938c-0.098-0.032-0.198-0.062-0.306-0.062
			c-0.552,0-1,0.447-1,1V62.745z"/>
		<path clip-path="url(#SVGID_7_)" d="M57.804,68.745c0,0.553,0.448,1,1,1c0.108,0,0.208-0.03,0.306-0.062
			c0.4-0.13,0.694-0.494,0.694-0.938v-2c0-0.444-0.294-0.808-0.694-0.938c-0.098-0.032-0.198-0.062-0.306-0.062
			c-0.552,0-1,0.447-1,1V68.745z"/>
		<path clip-path="url(#SVGID_7_)" d="M57.804,56.745c0,0.553,0.448,1,1,1c0.108,0,0.208-0.03,0.306-0.062
			c0.4-0.13,0.694-0.494,0.694-0.938v-2c0-0.444-0.294-0.808-0.694-0.938c-0.098-0.032-0.198-0.062-0.306-0.062
			c-0.552,0-1,0.447-1,1V56.745z"/>
		<path clip-path="url(#SVGID_7_)" d="M57.804,50.745c0,0.552,0.448,1,1,1c0.108,0,0.208-0.03,0.306-0.062
			c0.4-0.13,0.694-0.494,0.694-0.938v-2c0-0.444-0.294-0.808-0.694-0.938c-0.098-0.032-0.198-0.062-0.306-0.062
			c-0.552,0-1,0.448-1,1V50.745z"/>
		<path clip-path="url(#SVGID_7_)" d="M124.189,75.534c-0.108,0-0.208,0.03-0.306,0.062c-0.4,0.13-0.694,0.494-0.694,0.938v1.156
			c0,0.157-0.029,0.309-0.086,0.45c-0.13,0.32-0.066,0.659,0.114,0.926c0.107,0.159,0.247,0.298,0.438,0.375
			c0.123,0.05,0.25,0.073,0.374,0.073c0.396,0,0.771-0.236,0.928-0.626c0.153-0.378,0.231-0.781,0.232-1.196v-1.158
			C125.189,75.981,124.741,75.534,124.189,75.534"/>
		<path clip-path="url(#SVGID_7_)" d="M120.603,78.889h-2c-0.477,0-0.85,0.343-0.947,0.791c-0.009,0.035-0.026,0.065-0.031,0.103
			l-2.084,0.42c0.033-0.101,0.062-0.202,0.062-0.313c0-0.074-0.026-0.14-0.042-0.209c-0.099-0.449-0.479-0.791-0.958-0.791h-2
			c-0.478,0-0.858,0.342-0.958,0.791c-0.015,0.069-0.042,0.135-0.042,0.209c0,0.469,0.329,0.844,0.765,0.952l-34.027,6.86l-2,0.402
			l-7.658,1.544H39.396V59.64l9.932-20.275l0.979-2l1.771-3.615l0.008-0.015l0.972-1.985l5.043-10.295
			c0.18,0.179,0.429,0.29,0.703,0.29c0.109,0,0.208-0.029,0.306-0.061c0.4-0.131,0.694-0.495,0.694-0.939v-2
			c0-0.443-0.294-0.807-0.694-0.938c-0.098-0.032-0.197-0.062-0.306-0.062c-0.495,0-0.887,0.367-0.967,0.839L51.388,31.75H30.566
			l-9.943,3.946c-1.101,0.436-1.812,1.484-1.812,2.669v57.792v14.25v1.793v0.248v16.559c0,0.551,0.446,1,1,1h57.528
			c0.554,0,1.001-0.449,1.001-1v-16.559v-2.041v-14.25V89.23l41.384-8.342h0.879c0.553,0,1-0.447,1-1
			c0-0.074-0.026-0.14-0.042-0.209C121.462,79.23,121.081,78.889,120.603,78.889 M30.948,33.75h19.46l-1.771,3.615H21.84
			L30.948,33.75z M76.34,128.007H20.81v-14.559h55.53V128.007z M76.34,110.084v0.323c0,0.563-0.418,1.021-0.933,1.021H21.743
			c-0.514,0-0.932-0.458-0.932-1.021v-0.232V96.157c0-0.563,0.418-1.022,0.932-1.022h53.665c0.515,0,0.933,0.459,0.933,1.022
			V110.084z M76.34,93.306c-0.295-0.103-0.605-0.171-0.933-0.171H21.743c-0.328,0-0.638,0.068-0.932,0.171V39.365h26.846
			l-2.775,5.667c0.056-0.022,0.117-0.037,0.181-0.037h0.5c0.277,0,0.5,0.224,0.5,0.5c0,0.277-0.223,0.5-0.5,0.5h-0.5
			c-0.229,0-0.414-0.157-0.473-0.367l-2.718,5.549l0.437-0.003c0.306-0.022,0.502,0.221,0.504,0.497s-0.221,0.501-0.497,0.503
			l-0.5,0.003h-0.003c-0.14,0-0.266-0.058-0.357-0.152l-3.483,7.111c-0.05,0.103-0.077,0.216-0.077,0.33v17.553
			c0.015-0.001,0.027-0.008,0.042-0.008h0.5c0.277,0,0.5,0.224,0.5,0.5s-0.223,0.5-0.5,0.5h-0.5c-0.015,0-0.027-0.007-0.042-0.009
			v5.26c0.015-0.002,0.027-0.009,0.042-0.009h0.5c0.277,0,0.5,0.224,0.5,0.5c0,0.275-0.223,0.5-0.5,0.5h-0.5
			c-0.015,0-0.027-0.007-0.042-0.008v6.152c0,0.414,0.336,0.75,0.75,0.75h30.111c0.049,0,0.099-0.005,0.148-0.015l7.435-1.499
			V93.306z"/>
		<path clip-path="url(#SVGID_7_)" d="M121.993,13.993h-2c-0.552,0-1,0.448-1,1c0,0.141,0.031,0.275,0.084,0.397
			c0.154,0.354,0.505,0.603,0.916,0.603h2c0.295,0,0.554-0.133,0.737-0.337c0.159-0.177,0.263-0.406,0.263-0.663
			C122.993,14.441,122.545,13.993,121.993,13.993"/>
		<path clip-path="url(#SVGID_7_)" d="M57.804,74.745c0,0.553,0.448,1,1,1c0.108,0,0.208-0.03,0.306-0.062
			c0.4-0.13,0.694-0.494,0.694-0.938v-2c0-0.443-0.294-0.808-0.694-0.938c-0.098-0.032-0.198-0.062-0.306-0.062
			c-0.552,0-1,0.447-1,1V74.745z"/>
		<path clip-path="url(#SVGID_7_)" d="M57.804,44.745c0,0.552,0.448,1,1,1c0.108,0,0.208-0.03,0.306-0.062
			c0.4-0.13,0.694-0.494,0.694-0.938v-2c0-0.444-0.294-0.808-0.694-0.938c-0.098-0.032-0.198-0.062-0.306-0.062
			c-0.552,0-1,0.448-1,1V44.745z"/>
		<g opacity="0.75" clip-path="url(#SVGID_7_)">
			<g>
				<defs>
					<rect id="SVGID_8_" x="20.811" y="95.135" width="55.529" height="16.294"/>
				</defs>
				<clipPath id="SVGID_9_">
					<use xlink:href="#SVGID_8_"  overflow="visible"/>
				</clipPath>
				<path clip-path="url(#SVGID_9_)" fill="#6D6E70" d="M75.407,95.135H21.743c-0.514,0-0.933,0.459-0.933,1.021v14.019v0.231
					c0,0.564,0.419,1.022,0.933,1.022h53.664c0.515,0,0.933-0.458,0.933-1.022v-0.322V96.156
					C76.34,95.594,75.922,95.135,75.407,95.135"/>
			</g>
		</g>
		<g opacity="0.75" clip-path="url(#SVGID_7_)">
			<g>
				<defs>
					<rect id="SVGID_10_" x="90.201" y="45.423" width="28.8" height="28.577"/>
				</defs>
				<clipPath id="SVGID_11_">
					<use xlink:href="#SVGID_10_"  overflow="visible"/>
				</clipPath>
				<path clip-path="url(#SVGID_11_)" fill="#6D6E70" d="M103.594,46.107l-0.001-0.683h-7.816h-1.613h-0.059h-1.353h-2.051
					c-0.275,0-0.501,0.224-0.501,0.501v5.779v1.332v0.192v3.531v5.382v0.99V73.5c0,0.275,0.226,0.501,0.501,0.501h27.798
					c0.277,0,0.502-0.226,0.502-0.501V45.925c0-0.277-0.225-0.501-0.502-0.501h-9.601h-1.31h-1.996l0.001,0.681L103.594,46.107z
					 M105.608,60.104l-2,0.002h2.986v7.491h-4v-7.491h1.014l-0.001-1l2-0.002L105.608,60.104z M105.605,58.104l-2,0.002l-0.001-1
					l2-0.002L105.605,58.104z M105.604,56.104l-2,0.002l-0.001-1l2-0.002L105.604,56.104z M105.602,54.104l-2,0.002l-0.001-1
					l2-0.002L105.602,54.104z M105.6,52.104l-2,0.002l-0.001-1l2-0.002L105.6,52.104z M105.598,50.104l-2,0.002l-0.001-1l2-0.002
					L105.598,50.104z M105.596,48.104l-2,0.002l-0.001-1l2-0.002L105.596,48.104z"/>
			</g>
		</g>
		<path clip-path="url(#SVGID_7_)" fill="#6D6E70" d="M104.601,65.396c0.415,0,0.751-0.336,0.751-0.751s-0.336-0.751-0.751-0.751
			s-0.751,0.336-0.751,0.751S104.186,65.396,104.601,65.396"/>
		<path clip-path="url(#SVGID_7_)" d="M102.595,67.598h4v-7.491h-2.987h-1.013V67.598z M104.601,63.894
			c0.415,0,0.751,0.336,0.751,0.751s-0.336,0.751-0.751,0.751s-0.751-0.336-0.751-0.751S104.186,63.894,104.601,63.894"/>
		<path clip-path="url(#SVGID_7_)" fill="#231F20" d="M65.997,52.004v0.754c0,1.322,1.075,2.396,2.396,2.396h1.509v1.51
			c0,1.321,1.075,2.396,2.396,2.396h1.675v1.675c0,1.321,1.074,2.396,2.396,2.396h3.061c0.198,3.098,1.016,4.765,2.446,4.928
			c0.065,0.008,0.133,0.012,0.201,0.012c1.515,0,3.271-1.911,5.035-4.94h2.089v10.368c0,0.828,0.674,1.501,1.501,1.501H118.5
			c0.827,0,1.501-0.673,1.501-1.501V45.924c0-0.827-0.674-1.501-1.501-1.501h-9.837c-0.491-0.967-1.714-1.778-3.667-2.415v-7.505
			c0-1.321-1.074-2.396-2.396-2.396h-1.675v-1.675c0-1.321-1.075-2.396-2.397-2.396H97.43c0.288-4.018,0-7.017-0.92-8.372
			c-0.479-0.708-1.057-0.911-1.458-0.957c-1.562-0.179-3.428,1.647-5.537,5.424h-9.181c-3.346-3.285-5.844-4.615-7.438-3.94
			c-1.13,0.479-1.586,1.81-1.376,3.94h-3.127c-1.321,0-2.396,1.075-2.396,2.396v18.655c-2.291,1.194-3.409,2.472-3.301,3.802
			C62.807,50.362,64.202,51.327,65.997,52.004 M73.973,58.07h-1.675c-0.775,0-1.406-0.631-1.406-1.406v-3.491
			c0.97,0.144,2.001,0.26,3.081,0.347V58.07z M73.973,34.503v17.694c-1.087-0.091-2.111-0.215-3.081-0.363V30.432
			c0-0.775,0.631-1.406,1.406-1.406h10.62c0.814,0.967,1.642,1.993,2.475,3.081h-9.023C75.047,32.107,73.973,33.182,73.973,34.503
			 M87.891,33.097h7.64c-0.191,1.224-0.425,2.518-0.699,3.876h-4.232C89.705,35.635,88.797,34.339,87.891,33.097 M88.895,36.973
			H74.963v-2.47c0-0.775,0.63-1.406,1.406-1.406h9.766C87.057,34.333,87.979,35.628,88.895,36.973 M94.693,37.633
			c-0.283,1.353-0.61,2.766-0.98,4.235c-0.155-0.255-0.311-0.511-0.467-0.767c-0.724-1.18-1.467-2.334-2.214-3.468H94.693z
			 M96.019,37.633h7.987v6.79h-8.797c-0.187-0.327-0.369-0.652-0.562-0.981C95.175,41.447,95.632,39.501,96.019,37.633
			 M95.679,32.107h-8.527c-0.807-1.077-1.609-2.108-2.404-3.081h11.301C95.957,29.988,95.834,31.02,95.679,32.107 M82.023,66.77
			c-0.523-0.06-1.124-1.057-1.298-3.638h4.866C84.087,65.584,82.806,66.859,82.023,66.77 M89.201,62.14h-1.529
			c0.513-0.946,1.023-1.982,1.529-3.085V62.14z M89.201,55.786c-1.038,2.53-2.067,4.663-3.025,6.354h-9.807
			c-0.776,0-1.406-0.63-1.406-1.405v-7.143c1.4,0.09,2.873,0.138,4.4,0.138c2.228,0,4.565-0.096,6.953-0.289
			c0.979-0.079,1.932-0.192,2.885-0.301V55.786z M89.201,45.924v5.9c-0.984,0.114-1.979,0.218-2.991,0.301
			c-4.002,0.324-7.85,0.364-11.247,0.14V37.633h14.383c0.916,1.363,1.819,2.769,2.7,4.204c0.402,0.657,0.79,1.303,1.167,1.942
			c-0.004,0.015-0.008,0.03-0.012,0.046c-0.056,0.204-0.112,0.397-0.169,0.598h-2.33C89.875,44.423,89.201,45.097,89.201,45.924
			 M104.996,43.402c0.866,0.313,1.531,0.661,1.976,1.021h-1.976V43.402z M105.593,45.104v0.319h1.996h1.31h9.602
			c0.275,0,0.501,0.225,0.501,0.501v27.575c0,0.276-0.226,0.501-0.501,0.501H90.702c-0.276,0-0.501-0.225-0.501-0.501V63.131V62.14
			v-5.381v-3.532v-0.191v-1.333v-5.779c0-0.276,0.225-0.501,0.501-0.501h2.05h1.353h0.059h1.613h7.816v-0.317L105.593,45.104z
			 M97.348,29.026h1.181c0.776,0,1.407,0.631,1.407,1.406v1.675h-2.947C97.14,31.031,97.259,30.004,97.348,29.026 M96.843,33.097
			h5.758c0.774,0,1.405,0.631,1.405,1.406v2.47h-7.854C96.421,35.634,96.65,34.339,96.843,33.097 M94.904,19.999
			c0.071,0.008,0.284,0.032,0.532,0.396c0.483,0.713,0.769,2.217,0.803,4.374c-0.427-0.392-0.991-0.637-1.615-0.637h-3.613
			C92.854,20.985,94.19,19.917,94.904,19.999 M94.624,25.121c0.775,0,1.406,0.63,1.406,1.406v1.509H83.925
			c-0.521-0.616-1.037-1.214-1.546-1.774c-0.365-0.402-0.719-0.778-1.067-1.141H94.624z M73.444,21.487
			c0.664-0.282,2.268,0.345,4.83,2.644h-5.343C72.77,22.678,72.954,21.696,73.444,21.487 M66.987,26.527
			c0-0.776,0.631-1.406,1.406-1.406h10.936c0.623,0.609,1.288,1.296,2.008,2.087c0.24,0.265,0.484,0.551,0.728,0.828h-9.766
			c-1.321,0-2.396,1.075-2.396,2.396v21.241c-1.162-0.212-2.129-0.454-2.915-0.712V26.527z M66.987,52.341
			c0.948,0.287,1.954,0.506,2.915,0.674v1.149h-1.509c-0.775,0-1.406-0.63-1.406-1.406V52.341z M65.997,46.688v3.904
			c-1.358-0.582-1.944-1.204-1.985-1.714C63.961,48.246,64.679,47.467,65.997,46.688"/>
		<rect x="103.605" y="57.105" clip-path="url(#SVGID_7_)" width="2" height="1"/>
		<rect x="103.597" y="49.105" clip-path="url(#SVGID_7_)" width="2" height="1"/>
		<rect x="103.595" y="47.105" clip-path="url(#SVGID_7_)" width="2" height="1"/>
		<rect x="103.599" y="51.105" clip-path="url(#SVGID_7_)" width="2" height="1"/>
		<rect x="103.601" y="53.105" clip-path="url(#SVGID_7_)" width="2" height="1"/>
		<rect x="103.608" y="59.105" clip-path="url(#SVGID_7_)" width="2" height="1"/>
		<polygon clip-path="url(#SVGID_7_)" points="103.593,45.423 103.594,46.106 105.594,46.104 105.593,45.423 105.593,45.104 
			103.593,45.106 		"/>
		<rect x="103.603" y="55.105" clip-path="url(#SVGID_7_)" width="2" height="1"/>
		<path clip-path="url(#SVGID_7_)" fill="#231F20" d="M44.563,45.495c0,0.047,0.015,0.089,0.027,0.132
			c0.059,0.211,0.244,0.368,0.473,0.368h0.5c0.276,0,0.5-0.224,0.5-0.5s-0.224-0.5-0.5-0.5h-0.5c-0.064,0-0.125,0.014-0.181,0.037
			C44.696,45.104,44.563,45.283,44.563,45.495"/>
		<path clip-path="url(#SVGID_7_)" fill="#231F20" d="M42.046,45.995h1.005c0.277,0,0.5-0.224,0.5-0.5s-0.223-0.5-0.5-0.5h-1.005
			c-0.276,0-0.5,0.224-0.5,0.5S41.771,45.995,42.046,45.995"/>
		<path clip-path="url(#SVGID_7_)" fill="#231F20" d="M32.996,45.995h1.006c0.276,0,0.5-0.224,0.5-0.5s-0.224-0.5-0.5-0.5h-1.006
			c-0.276,0-0.5,0.224-0.5,0.5S32.72,45.995,32.996,45.995"/>
		<path clip-path="url(#SVGID_7_)" fill="#231F20" d="M39.029,45.995h1.006c0.276,0,0.5-0.224,0.5-0.5s-0.224-0.5-0.5-0.5h-1.006
			c-0.276,0-0.5,0.224-0.5,0.5S38.753,45.995,39.029,45.995"/>
		<path clip-path="url(#SVGID_7_)" fill="#231F20" d="M25.867,72.516c0.276,0,0.5-0.224,0.5-0.5v-1.005c0-0.277-0.224-0.5-0.5-0.5
			s-0.5,0.223-0.5,0.5v1.005C25.367,72.292,25.591,72.516,25.867,72.516"/>
		<path clip-path="url(#SVGID_7_)" fill="#231F20" d="M25.867,60.448c0.276,0,0.5-0.224,0.5-0.5v-1.005c0-0.277-0.224-0.5-0.5-0.5
			s-0.5,0.223-0.5,0.5v1.005C25.367,60.224,25.591,60.448,25.867,60.448"/>
		<path clip-path="url(#SVGID_7_)" fill="#231F20" d="M25.867,63.465c0.276,0,0.5-0.224,0.5-0.5v-1.006c0-0.276-0.224-0.5-0.5-0.5
			s-0.5,0.224-0.5,0.5v1.006C25.367,63.241,25.591,63.465,25.867,63.465"/>
		<path clip-path="url(#SVGID_7_)" fill="#231F20" d="M25.867,66.482c0.276,0,0.5-0.224,0.5-0.5v-1.005c0-0.277-0.224-0.5-0.5-0.5
			s-0.5,0.223-0.5,0.5v1.005C25.367,66.258,25.591,66.482,25.867,66.482"/>
		<path clip-path="url(#SVGID_7_)" fill="#231F20" d="M25.867,54.415c0.276,0,0.5-0.224,0.5-0.5V52.91c0-0.277-0.224-0.5-0.5-0.5
			s-0.5,0.223-0.5,0.5v1.005C25.367,54.19,25.591,54.415,25.867,54.415"/>
		<path clip-path="url(#SVGID_7_)" fill="#231F20" d="M25.867,57.432c0.276,0,0.5-0.224,0.5-0.5v-1.006c0-0.276-0.224-0.5-0.5-0.5
			s-0.5,0.224-0.5,0.5v1.006C25.367,57.208,25.591,57.432,25.867,57.432"/>
		<path clip-path="url(#SVGID_7_)" fill="#231F20" d="M25.867,69.499c0.276,0,0.5-0.224,0.5-0.5v-1.006c0-0.276-0.224-0.5-0.5-0.5
			s-0.5,0.224-0.5,0.5v1.006C25.367,69.275,25.591,69.499,25.867,69.499"/>
		<path clip-path="url(#SVGID_7_)" fill="#231F20" d="M30.984,44.995h-1.005c-0.277,0-0.5,0.224-0.5,0.5s0.223,0.5,0.5,0.5h1.005
			c0.276,0,0.5-0.224,0.5-0.5S31.26,44.995,30.984,44.995"/>
		<path clip-path="url(#SVGID_7_)" fill="#231F20" d="M34.915,78.011h1.006c0.276,0,0.5-0.224,0.5-0.5s-0.224-0.5-0.5-0.5h-1.006
			c-0.276,0-0.5,0.224-0.5,0.5S34.639,78.011,34.915,78.011"/>
		<path clip-path="url(#SVGID_7_)" fill="#231F20" d="M37.018,44.995h-1.005c-0.277,0-0.5,0.224-0.5,0.5s0.223,0.5,0.5,0.5h1.005
			c0.276,0,0.5-0.224,0.5-0.5S37.294,44.995,37.018,44.995"/>
		<path clip-path="url(#SVGID_7_)" fill="#231F20" d="M26.367,75.032v-1.005c0-0.276-0.224-0.5-0.5-0.5s-0.5,0.224-0.5,0.5v1.005
			c0,0.276,0.224,0.5,0.5,0.5S26.367,75.309,26.367,75.032"/>
		<path clip-path="url(#SVGID_7_)" fill="#231F20" d="M25.867,51.398c0.276,0,0.5-0.224,0.5-0.5v-1.006c0-0.276-0.224-0.5-0.5-0.5
			s-0.5,0.224-0.5,0.5v1.006C25.367,51.174,25.591,51.398,25.867,51.398"/>
		<path clip-path="url(#SVGID_7_)" fill="#231F20" d="M29.887,77.011h-1.006c-0.276,0-0.5,0.224-0.5,0.5s0.224,0.5,0.5,0.5h1.006
			c0.276,0,0.5-0.224,0.5-0.5S30.163,77.011,29.887,77.011"/>
		<path clip-path="url(#SVGID_7_)" fill="#231F20" d="M27.968,44.995h-1.006c-0.276,0-0.5,0.224-0.5,0.5s0.224,0.5,0.5,0.5h1.006
			c0.276,0,0.5-0.224,0.5-0.5S28.244,44.995,27.968,44.995"/>
		<path clip-path="url(#SVGID_7_)" fill="#231F20" d="M26.908,77.009c-0.182-0.014-0.35-0.113-0.449-0.268
			c-0.15-0.233-0.459-0.301-0.691-0.151c-0.233,0.149-0.3,0.458-0.151,0.69c0.268,0.418,0.722,0.688,1.216,0.727
			c0.013,0.001,0.025,0.001,0.038,0.001c0.259,0,0.478-0.2,0.498-0.462C27.39,77.271,27.183,77.03,26.908,77.009"/>
		<path clip-path="url(#SVGID_7_)" fill="#231F20" d="M25.867,48.381c0.276,0,0.5-0.224,0.5-0.5v-1.006c0-0.276-0.224-0.5-0.5-0.5
			s-0.5,0.224-0.5,0.5v1.006C25.367,48.157,25.591,48.381,25.867,48.381"/>
		<path clip-path="url(#SVGID_7_)" fill="#231F20" d="M37.438,77.511c0,0.261,0.202,0.469,0.458,0.492
			c0.015,0.001,0.027,0.008,0.042,0.008h0.5c0.276,0,0.5-0.224,0.5-0.5s-0.224-0.5-0.5-0.5h-0.5c-0.015,0-0.027,0.007-0.042,0.008
			C37.64,77.042,37.438,77.25,37.438,77.511"/>
		<path clip-path="url(#SVGID_7_)" fill="#231F20" d="M41.312,51.681c0.001,0.135,0.056,0.255,0.143,0.345
			c0.091,0.093,0.217,0.152,0.357,0.152h0.003l0.5-0.004c0.277-0.002,0.499-0.227,0.497-0.503c-0.001-0.276-0.198-0.519-0.503-0.497
			l-0.438,0.003l-0.062,0.001C41.533,51.18,41.311,51.405,41.312,51.681"/>
		<path clip-path="url(#SVGID_7_)" fill="#231F20" d="M33.878,51.233h-0.003l-0.683,0.005c-0.15,0-0.298,0.021-0.441,0.062
			c-0.265,0.078-0.417,0.355-0.34,0.62c0.063,0.219,0.263,0.36,0.48,0.36c0.046,0,0.092-0.006,0.139-0.02
			c0.052-0.014,0.106-0.022,0.165-0.022l0.686-0.005c0.277-0.002,0.499-0.228,0.497-0.503S34.152,51.233,33.878,51.233"/>
		<path clip-path="url(#SVGID_7_)" fill="#231F20" d="M32.109,75.727c0.276,0,0.5-0.224,0.5-0.5v-0.992c0-0.276-0.224-0.5-0.5-0.5
			s-0.5,0.224-0.5,0.5v0.992C31.609,75.503,31.833,75.727,32.109,75.727"/>
		<path clip-path="url(#SVGID_7_)" fill="#231F20" d="M32.109,72.752c0.276,0,0.5-0.225,0.5-0.5v-0.993c0-0.277-0.224-0.5-0.5-0.5
			s-0.5,0.223-0.5,0.5v0.993C31.609,72.527,31.833,72.752,32.109,72.752"/>
		<path clip-path="url(#SVGID_7_)" fill="#231F20" d="M31.609,78.202c0,0.276,0.224,0.5,0.5,0.5s0.5-0.224,0.5-0.5v-0.191h0.294
			c0.277,0,0.5-0.224,0.5-0.5s-0.223-0.5-0.5-0.5h-0.336c-0.077-0.177-0.253-0.301-0.458-0.301c-0.237,0-0.426,0.167-0.478,0.388
			c-0.137,0.09-0.233,0.237-0.233,0.413c0,0.166,0.086,0.307,0.211,0.397V78.202z"/>
		<path clip-path="url(#SVGID_7_)" fill="#231F20" d="M32.109,66.801c0.276,0,0.5-0.224,0.5-0.5v-0.992c0-0.276-0.224-0.5-0.5-0.5
			s-0.5,0.224-0.5,0.5v0.992C31.609,66.577,31.833,66.801,32.109,66.801"/>
		<path clip-path="url(#SVGID_7_)" fill="#231F20" d="M32.109,69.776c0.276,0,0.5-0.224,0.5-0.5v-0.992c0-0.276-0.224-0.5-0.5-0.5
			s-0.5,0.224-0.5,0.5v0.992C31.609,69.552,31.833,69.776,32.109,69.776"/>
		<path clip-path="url(#SVGID_7_)" fill="#231F20" d="M32.109,81.677c0.276,0,0.5-0.224,0.5-0.5v-0.991c0-0.276-0.224-0.5-0.5-0.5
			s-0.5,0.224-0.5,0.5v0.991C31.609,81.453,31.833,81.677,32.109,81.677"/>
		<path clip-path="url(#SVGID_7_)" fill="#231F20" d="M35.948,83.253h-0.992c-0.276,0-0.5,0.224-0.5,0.5s0.224,0.5,0.5,0.5h0.992
			c0.276,0,0.5-0.224,0.5-0.5S36.224,83.253,35.948,83.253"/>
		<path clip-path="url(#SVGID_7_)" fill="#231F20" d="M33.074,83.24c-0.175-0.035-0.327-0.153-0.406-0.316
			c-0.121-0.247-0.423-0.349-0.669-0.229c-0.248,0.121-0.351,0.421-0.23,0.669c0.215,0.439,0.629,0.761,1.107,0.856
			c0.033,0.008,0.067,0.011,0.099,0.011c0.233,0,0.442-0.164,0.49-0.4C33.52,83.559,33.345,83.295,33.074,83.24"/>
		<path clip-path="url(#SVGID_7_)" fill="#231F20" d="M32.109,54.899c0.276,0,0.5-0.224,0.5-0.5v-0.992c0-0.276-0.224-0.5-0.5-0.5
			s-0.5,0.224-0.5,0.5v0.992C31.609,54.675,31.833,54.899,32.109,54.899"/>
		<path clip-path="url(#SVGID_7_)" fill="#231F20" d="M36.854,51.212h-0.003l-0.992,0.007c-0.276,0.002-0.499,0.227-0.497,0.503
			c0.002,0.275,0.226,0.497,0.5,0.497h0.004l0.991-0.007c0.277-0.002,0.499-0.228,0.497-0.503S37.128,51.212,36.854,51.212"/>
		<path clip-path="url(#SVGID_7_)" fill="#231F20" d="M38.837,52.198h0.003l0.992-0.007c0.276-0.002,0.499-0.227,0.497-0.503
			c-0.002-0.275-0.226-0.497-0.5-0.497h-0.004l-0.991,0.007c-0.277,0.002-0.499,0.228-0.497,0.503S38.563,52.198,38.837,52.198"/>
		<path clip-path="url(#SVGID_7_)" fill="#231F20" d="M32.109,57.875c0.276,0,0.5-0.224,0.5-0.5v-0.992c0-0.276-0.224-0.5-0.5-0.5
			s-0.5,0.224-0.5,0.5v0.992C31.609,57.65,31.833,57.875,32.109,57.875"/>
		<path clip-path="url(#SVGID_7_)" fill="#231F20" d="M32.109,60.85c0.276,0,0.5-0.224,0.5-0.5v-0.992c0-0.276-0.224-0.5-0.5-0.5
			s-0.5,0.224-0.5,0.5v0.992C31.609,60.626,31.833,60.85,32.109,60.85"/>
		<path clip-path="url(#SVGID_7_)" fill="#231F20" d="M32.109,63.825c0.276,0,0.5-0.224,0.5-0.5v-0.992c0-0.276-0.224-0.5-0.5-0.5
			s-0.5,0.224-0.5,0.5v0.992C31.609,63.601,31.833,63.825,32.109,63.825"/>
		<path clip-path="url(#SVGID_7_)" fill="#231F20" d="M37.438,83.753c0,0.261,0.202,0.469,0.458,0.492
			c0.015,0.001,0.027,0.008,0.042,0.008h0.5c0.276,0,0.5-0.224,0.5-0.5s-0.224-0.5-0.5-0.5h-0.5c-0.015,0-0.027,0.007-0.042,0.008
			C37.64,83.284,37.438,83.492,37.438,83.753"/>
	</g>
</g>
</svg>
