<?xml version="1.0" encoding="utf-8"?>
<!-- Generator: Adobe Illustrator 16.0.4, SVG Export Plug-In . SVG Version: 6.00 Build 0)  -->
<!DOCTYPE svg PUBLIC "-//W3C//DTD SVG 1.1//EN" "http://www.w3.org/Graphics/SVG/1.1/DTD/svg11.dtd">
<svg version="1.1" id="Layer_1" xmlns="http://www.w3.org/2000/svg" xmlns:xlink="http://www.w3.org/1999/xlink" x="0px" y="0px"
	 width="144px" height="144px" viewBox="0 0 144 144" enable-background="new 0 0 144 144" xml:space="preserve">
<g>
	<defs>
		<path id="SVGID_1_" d="M54.182,23.451l-9.765,3.877c-0.714,0.282-1.182,0.972-1.182,1.739v56.729h57.53V29.047
			c0-0.762-0.445-1.452-1.139-1.767l-8.444-3.829H54.182z"/>
	</defs>
	<clipPath id="SVGID_2_">
		<use xlink:href="#SVGID_1_"  overflow="visible"/>
	</clipPath>
	
		<linearGradient id="SVGID_3_" gradientUnits="userSpaceOnUse" x1="0" y1="144.0215" x2="1" y2="144.0215" gradientTransform="matrix(57.5169 57.5169 57.5169 -57.5169 -8239.1836 8310.707)">
		<stop  offset="0" style="stop-color:#E6E7E8"/>
		<stop  offset="0.5" style="stop-color:#F6F6F6"/>
		<stop  offset="1" style="stop-color:#CBCCCE"/>
	</linearGradient>
	<polygon clip-path="url(#SVGID_2_)" fill="url(#SVGID_3_)" points="72,-5.314 131.938,54.624 72,114.561 12.062,54.624 	"/>
</g>
<g>
	<defs>
		<rect id="SVGID_4_" width="144" height="144"/>
	</defs>
	<clipPath id="SVGID_5_">
		<use xlink:href="#SVGID_4_"  overflow="visible"/>
	</clipPath>
	<path clip-path="url(#SVGID_5_)" fill="#6D6E70" d="M99.832,100.722c0,0.562-0.418,1.021-0.933,1.021H45.235
		c-0.514,0-0.932-0.458-0.932-1.021v-14.25c0-0.563,0.418-1.022,0.932-1.022h53.664c0.515,0,0.933,0.459,0.933,1.022V100.722z"/>
	<path clip-path="url(#SVGID_5_)" fill="#FFFFFF" d="M116.228,118.397H28.262c1.636-4.94,6.215-8.295,11.585-8.295h0.009
		l0.145,0.007c0.483,0.045,0.875-0.32,0.959-0.781c1.156-6.375,6.699-11.002,13.18-11.002c1.736,0,3.423,0.343,5.027,0.996
		c0.993,0.481,3.114,1.709,4.423,3.907c0.157,0.261,0.452,0.388,0.738,0.336c0.083-0.016,0.165-0.043,0.24-0.09
		c0.338-0.2,0.449-0.639,0.248-0.976c-1.127-1.891-2.729-3.137-3.949-3.877c2.47-9.157,10.782-15.535,20.294-15.535
		c9.139,0,17.202,5.843,19.964,14.49c-2.454-0.017-4.279,0.871-4.387,0.916c-0.362,0.149-0.537,0.565-0.387,0.931
		c0.15,0.364,0.567,0.537,0.932,0.387c0.026-0.012,2.541-1.012,5.399-0.539c7.964,1.722,13.694,8.761,13.694,16.959
		C116.377,116.927,116.329,117.64,116.228,118.397"/>
	<path clip-path="url(#SVGID_5_)" fill="#231F20" d="M99.832,99.222l2-0.046C101.115,99.123,100.437,99.151,99.832,99.222"/>
	<path clip-path="url(#SVGID_5_)" fill="#231F20" d="M42.303,86.472v14.25c0,0.381,0.077,0.742,0.202,1.079
		c0.55-0.646,1.151-1.242,1.798-1.785V86.472c0-0.564,0.419-1.023,0.933-1.023h22.62c1.071-0.763,2.21-1.429,3.402-2H45.236
		c-0.328,0-0.638,0.069-0.933,0.172V29.68h55.53v53.939c-0.295-0.102-0.605-0.171-0.934-0.171h-7.874
		c1.191,0.571,2.329,1.238,3.401,2h4.473c0.516,0,0.934,0.459,0.934,1.023v4.348c0.761,1.064,1.426,2.204,2,3.401v-7.749v-1.063
		v-56.75c0-1.151-0.679-2.201-1.727-2.677l-8.642-3.918H54.058l-9.942,3.946c-1.101,0.437-1.813,1.485-1.813,2.67v56.729V86.472z
		 M54.441,24.063h36.593l7.974,3.616H45.332L54.441,24.063z"/>
	<path clip-path="url(#SVGID_5_)" fill="#231F20" d="M62.339,65.925c0,0.276,0.224,0.5,0.5,0.5h1.005c0.277,0,0.5-0.224,0.5-0.5
		s-0.223-0.5-0.5-0.5h-1.005C62.563,65.425,62.339,65.649,62.339,65.925"/>
	<path clip-path="url(#SVGID_5_)" fill="#231F20" d="M67.801,34.41h1.005c0.277,0,0.5-0.224,0.5-0.5s-0.223-0.5-0.5-0.5h-1.005
		c-0.276,0-0.5,0.224-0.5,0.5S67.525,34.41,67.801,34.41"/>
	<path clip-path="url(#SVGID_5_)" fill="#231F20" d="M64.785,34.41h1.005c0.277,0,0.5-0.224,0.5-0.5s-0.223-0.5-0.5-0.5h-1.005
		c-0.276,0-0.5,0.224-0.5,0.5S64.509,34.41,64.785,34.41"/>
	<path clip-path="url(#SVGID_5_)" fill="#231F20" d="M49.6,34.821c0.084,0.055,0.179,0.081,0.272,0.081
		c0.164,0,0.324-0.08,0.42-0.227c0.1-0.153,0.268-0.251,0.45-0.263c0.275-0.018,0.484-0.256,0.467-0.531
		c-0.018-0.276-0.257-0.478-0.531-0.467c-0.495,0.032-0.953,0.299-1.224,0.715C49.303,34.36,49.369,34.67,49.6,34.821"/>
	<path clip-path="url(#SVGID_5_)" fill="#231F20" d="M58.752,34.41h1.005c0.277,0,0.5-0.224,0.5-0.5s-0.223-0.5-0.5-0.5h-1.005
		c-0.276,0-0.5,0.224-0.5,0.5S58.477,34.41,58.752,34.41"/>
	<path clip-path="url(#SVGID_5_)" fill="#231F20" d="M70.816,34.41h1.005c0.277,0,0.5-0.224,0.5-0.5s-0.223-0.5-0.5-0.5h-1.005
		c-0.276,0-0.5,0.224-0.5,0.5S70.541,34.41,70.816,34.41"/>
	<path clip-path="url(#SVGID_5_)" fill="#231F20" d="M61.769,34.41h1.005c0.277,0,0.5-0.224,0.5-0.5s-0.223-0.5-0.5-0.5h-1.005
		c-0.276,0-0.5,0.224-0.5,0.5S61.493,34.41,61.769,34.41"/>
	<path clip-path="url(#SVGID_5_)" fill="#231F20" d="M81.954,48.884c0.276,0,0.5-0.224,0.5-0.5v-1.005c0-0.277-0.224-0.5-0.5-0.5
		s-0.5,0.223-0.5,0.5v1.005C81.454,48.66,81.678,48.884,81.954,48.884"/>
	<path clip-path="url(#SVGID_5_)" fill="#231F20" d="M81.954,36.819c0.276,0,0.5-0.224,0.5-0.5v-1.005c0-0.277-0.224-0.5-0.5-0.5
		s-0.5,0.223-0.5,0.5v1.005C81.454,36.595,81.678,36.819,81.954,36.819"/>
	<path clip-path="url(#SVGID_5_)" fill="#231F20" d="M81.954,39.835c0.276,0,0.5-0.224,0.5-0.5v-1.005c0-0.277-0.224-0.5-0.5-0.5
		s-0.5,0.223-0.5,0.5v1.005C81.454,39.611,81.678,39.835,81.954,39.835"/>
	<path clip-path="url(#SVGID_5_)" fill="#231F20" d="M49.697,63.022c-0.276,0-0.5,0.224-0.5,0.5v1.005c0,0.277,0.224,0.5,0.5,0.5
		s0.5-0.223,0.5-0.5v-1.005C50.197,63.247,49.973,63.022,49.697,63.022"/>
	<path clip-path="url(#SVGID_5_)" fill="#231F20" d="M76.849,34.41h1.006c0.276,0,0.5-0.224,0.5-0.5s-0.224-0.5-0.5-0.5h-1.006
		c-0.276,0-0.5,0.224-0.5,0.5S76.572,34.41,76.849,34.41"/>
	<path clip-path="url(#SVGID_5_)" fill="#231F20" d="M73.833,34.41h1.005c0.276,0,0.5-0.224,0.5-0.5s-0.224-0.5-0.5-0.5h-1.005
		c-0.276,0-0.5,0.224-0.5,0.5S73.557,34.41,73.833,34.41"/>
	<path clip-path="url(#SVGID_5_)" fill="#231F20" d="M79.865,34.41h1.018c0.276,0,0.493-0.224,0.493-0.5s-0.229-0.5-0.506-0.5
		h-1.005c-0.276,0-0.5,0.224-0.5,0.5S79.589,34.41,79.865,34.41"/>
	<path clip-path="url(#SVGID_5_)" fill="#231F20" d="M82.454,41.346c0-0.276-0.224-0.5-0.5-0.5s-0.5,0.224-0.5,0.5v1.005
		c0,0.277,0.224,0.5,0.5,0.5s0.5-0.223,0.5-0.5V41.346z"/>
	<path clip-path="url(#SVGID_5_)" fill="#231F20" d="M82.454,44.362c0-0.276-0.224-0.5-0.5-0.5s-0.5,0.224-0.5,0.5v1.005
		c0,0.277,0.224,0.5,0.5,0.5s0.5-0.223,0.5-0.5V44.362z"/>
	<path clip-path="url(#SVGID_5_)" fill="#231F20" d="M49.697,35.878c-0.276,0-0.5,0.224-0.5,0.5v1.005c0,0.277,0.224,0.5,0.5,0.5
		s0.5-0.223,0.5-0.5v-1.005C50.197,36.102,49.973,35.878,49.697,35.878"/>
	<path clip-path="url(#SVGID_5_)" fill="#231F20" d="M51.78,65.425h-1.005c-0.276,0-0.497,0.224-0.497,0.5s0.227,0.5,0.503,0.5
		h0.999c0.276,0,0.5-0.224,0.5-0.5S52.056,65.425,51.78,65.425"/>
	<path clip-path="url(#SVGID_5_)" fill="#231F20" d="M49.697,38.894c-0.276,0-0.5,0.224-0.5,0.5v1.005c0,0.277,0.224,0.5,0.5,0.5
		s0.5-0.223,0.5-0.5v-1.005C50.197,39.118,49.973,38.894,49.697,38.894"/>
	<path clip-path="url(#SVGID_5_)" fill="#231F20" d="M54.226,33.91c0-0.276-0.224-0.5-0.5-0.5h-1.005c-0.277,0-0.5,0.224-0.5,0.5
		s0.223,0.5,0.5,0.5h1.005C54.001,34.41,54.226,34.186,54.226,33.91"/>
	<path clip-path="url(#SVGID_5_)" fill="#231F20" d="M49.697,47.942c-0.276,0-0.5,0.224-0.5,0.5v1.005c0,0.276,0.224,0.5,0.5,0.5
		s0.5-0.224,0.5-0.5v-1.005C50.197,48.167,49.973,47.942,49.697,47.942"/>
	<path clip-path="url(#SVGID_5_)" fill="#231F20" d="M54.796,65.425h-1.005c-0.277,0-0.5,0.224-0.5,0.5s0.223,0.5,0.5,0.5h1.005
		c0.276,0,0.5-0.224,0.5-0.5S55.072,65.425,54.796,65.425"/>
	<path clip-path="url(#SVGID_5_)" fill="#231F20" d="M49.697,41.91c-0.276,0-0.5,0.224-0.5,0.5v1.005c0,0.277,0.224,0.5,0.5,0.5
		s0.5-0.223,0.5-0.5V42.41C50.197,42.134,49.973,41.91,49.697,41.91"/>
	<path clip-path="url(#SVGID_5_)" fill="#231F20" d="M49.697,44.926c-0.276,0-0.5,0.224-0.5,0.5v1.005c0,0.277,0.224,0.5,0.5,0.5
		s0.5-0.223,0.5-0.5v-1.005C50.197,45.15,49.973,44.926,49.697,44.926"/>
	<path clip-path="url(#SVGID_5_)" fill="#231F20" d="M49.697,50.958c-0.276,0-0.5,0.224-0.5,0.5v1.005c0,0.277,0.224,0.5,0.5,0.5
		s0.5-0.223,0.5-0.5v-1.005C50.197,51.182,49.973,50.958,49.697,50.958"/>
	<path clip-path="url(#SVGID_5_)" fill="#231F20" d="M72.893,66.425c0.275,0,0.5-0.224,0.5-0.5s-0.225-0.5-0.5-0.5h-1.005
		c-0.277,0-0.5,0.224-0.5,0.5s0.223,0.5,0.5,0.5H72.893z"/>
	<path clip-path="url(#SVGID_5_)" fill="#231F20" d="M56.742,34.41c0.276,0,0.5-0.224,0.5-0.5s-0.224-0.5-0.5-0.5h-1.005
		c-0.277,0-0.5,0.224-0.5,0.5s0.223,0.5,0.5,0.5H56.742z"/>
	<path clip-path="url(#SVGID_5_)" fill="#231F20" d="M60.828,66.425c0.276,0,0.5-0.224,0.5-0.5s-0.224-0.5-0.5-0.5h-1.005
		c-0.277,0-0.5,0.224-0.5,0.5s0.223,0.5,0.5,0.5H60.828z"/>
	<path clip-path="url(#SVGID_5_)" fill="#231F20" d="M69.876,66.425c0.276,0,0.5-0.224,0.5-0.5s-0.224-0.5-0.5-0.5h-1.005
		c-0.277,0-0.5,0.224-0.5,0.5s0.223,0.5,0.5,0.5H69.876z"/>
	<path clip-path="url(#SVGID_5_)" fill="#231F20" d="M66.86,66.425c0.276,0,0.5-0.224,0.5-0.5s-0.224-0.5-0.5-0.5h-1.005
		c-0.277,0-0.5,0.224-0.5,0.5s0.223,0.5,0.5,0.5H66.86z"/>
	<path clip-path="url(#SVGID_5_)" fill="#231F20" d="M57.812,66.425c0.276,0,0.5-0.224,0.5-0.5s-0.224-0.5-0.5-0.5h-1.005
		c-0.277,0-0.5,0.224-0.5,0.5s0.223,0.5,0.5,0.5H57.812z"/>
	<path clip-path="url(#SVGID_5_)" fill="#231F20" d="M75.908,66.425c0.276,0,0.5-0.224,0.5-0.5s-0.224-0.5-0.5-0.5h-1.005
		c-0.276,0-0.5,0.224-0.5,0.5s0.224,0.5,0.5,0.5H75.908z"/>
	<path clip-path="url(#SVGID_5_)" fill="#231F20" d="M78.925,66.425c0.276,0,0.5-0.224,0.5-0.5s-0.224-0.5-0.5-0.5h-1.006
		c-0.276,0-0.5,0.224-0.5,0.5s0.224,0.5,0.5,0.5H78.925z"/>
	<path clip-path="url(#SVGID_5_)" fill="#231F20" d="M49.697,60.006c-0.276,0-0.5,0.224-0.5,0.5v1.005c0,0.277,0.224,0.5,0.5,0.5
		s0.5-0.223,0.5-0.5v-1.005C50.197,60.23,49.973,60.006,49.697,60.006"/>
	<path clip-path="url(#SVGID_5_)" fill="#231F20" d="M49.697,53.974c-0.276,0-0.5,0.224-0.5,0.5v1.005c0,0.277,0.224,0.5,0.5,0.5
		s0.5-0.223,0.5-0.5v-1.005C50.197,54.198,49.973,53.974,49.697,53.974"/>
	<path clip-path="url(#SVGID_5_)" fill="#231F20" d="M49.697,56.99c-0.276,0-0.5,0.224-0.5,0.5v1.005c0,0.277,0.224,0.5,0.5,0.5
		s0.5-0.223,0.5-0.5V57.49C50.197,57.214,49.973,56.99,49.697,56.99"/>
	<path clip-path="url(#SVGID_5_)" fill="#231F20" d="M67.07,72.668c0.276,0,0.5-0.225,0.5-0.5c0-0.276-0.224-0.5-0.5-0.5h-1.005
		c-0.277,0-0.5,0.224-0.5,0.5c0,0.275,0.223,0.5,0.5,0.5H67.07z"/>
	<path clip-path="url(#SVGID_5_)" fill="#231F20" d="M87.207,72.665c0.493-0.029,0.952-0.293,1.227-0.708
		c0.153-0.23,0.091-0.54-0.14-0.693c-0.229-0.151-0.54-0.09-0.692,0.14c-0.104,0.156-0.269,0.251-0.453,0.262
		c-0.275,0.016-0.486,0.252-0.47,0.528c0.016,0.267,0.235,0.472,0.499,0.472C87.187,72.666,87.197,72.665,87.207,72.665"/>
	<path clip-path="url(#SVGID_5_)" fill="#231F20" d="M70.086,72.668c0.276,0,0.5-0.225,0.5-0.5c0-0.276-0.224-0.5-0.5-0.5h-1.005
		c-0.277,0-0.5,0.224-0.5,0.5c0,0.275,0.223,0.5,0.5,0.5H70.086z"/>
	<path clip-path="url(#SVGID_5_)" fill="#231F20" d="M76.118,72.668c0.276,0,0.5-0.225,0.5-0.5c0-0.276-0.224-0.5-0.5-0.5h-1.005
		c-0.276,0-0.5,0.224-0.5,0.5c0,0.275,0.224,0.5,0.5,0.5H76.118z"/>
	<path clip-path="url(#SVGID_5_)" fill="#231F20" d="M73.103,72.668c0.276,0,0.5-0.225,0.5-0.5c0-0.276-0.224-0.5-0.5-0.5h-1.005
		c-0.277,0-0.5,0.224-0.5,0.5c0,0.275,0.223,0.5,0.5,0.5H73.103z"/>
	<path clip-path="url(#SVGID_5_)" fill="#231F20" d="M56.439,54.685c0-0.276-0.224-0.5-0.5-0.5s-0.5,0.224-0.5,0.5v1.005
		c0,0.276,0.224,0.5,0.5,0.5s0.5-0.224,0.5-0.5V54.685z"/>
	<path clip-path="url(#SVGID_5_)" fill="#231F20" d="M55.939,66.249c-0.276,0-0.5,0.224-0.5,0.5v1.005c0,0.277,0.224,0.5,0.5,0.5
		s0.5-0.223,0.5-0.5v-1.005C56.439,66.473,56.215,66.249,55.939,66.249"/>
	<path clip-path="url(#SVGID_5_)" fill="#231F20" d="M83.091,40.652h1.006c0.276,0,0.5-0.224,0.5-0.5s-0.224-0.5-0.5-0.5h-1.006
		c-0.276,0-0.5,0.224-0.5,0.5S82.814,40.652,83.091,40.652"/>
	<path clip-path="url(#SVGID_5_)" fill="#231F20" d="M88.696,65.685c0-0.276-0.224-0.5-0.5-0.5s-0.5,0.224-0.5,0.5v1.005
		c0,0.277,0.224,0.5,0.5,0.5s0.5-0.223,0.5-0.5V65.685z"/>
	<path clip-path="url(#SVGID_5_)" fill="#231F20" d="M80.075,39.652c-0.276,0-0.5,0.224-0.5,0.5s0.224,0.5,0.5,0.5h1.005
		c0.276,0,0.5-0.224,0.5-0.5s-0.224-0.5-0.5-0.5H80.075z"/>
	<path clip-path="url(#SVGID_5_)" fill="#231F20" d="M88.696,47.588c0-0.276-0.224-0.5-0.5-0.5s-0.5,0.224-0.5,0.5v1.005
		c0,0.277,0.224,0.5,0.5,0.5s0.5-0.223,0.5-0.5V47.588z"/>
	<path clip-path="url(#SVGID_5_)" fill="#231F20" d="M55.939,69.265c-0.276,0-0.5,0.224-0.5,0.5v1.005c0,0.277,0.224,0.5,0.5,0.5
		s0.5-0.223,0.5-0.5v-1.005C56.439,69.489,56.215,69.265,55.939,69.265"/>
	<path clip-path="url(#SVGID_5_)" fill="#231F20" d="M88.696,53.621c0-0.276-0.224-0.5-0.5-0.5s-0.5,0.224-0.5,0.5v1.005
		c0,0.277,0.224,0.5,0.5,0.5s0.5-0.223,0.5-0.5V53.621z"/>
	<path clip-path="url(#SVGID_5_)" fill="#231F20" d="M88.696,62.668c0-0.276-0.224-0.5-0.5-0.5s-0.5,0.224-0.5,0.5v1.005
		c0,0.277,0.224,0.5,0.5,0.5s0.5-0.223,0.5-0.5V62.668z"/>
	<path clip-path="url(#SVGID_5_)" fill="#231F20" d="M88.196,68.201c-0.276,0-0.5,0.224-0.5,0.5v1.005c0,0.277,0.224,0.5,0.5,0.5
		s0.5-0.223,0.5-0.5v-1.005C88.696,68.425,88.473,68.201,88.196,68.201"/>
	<path clip-path="url(#SVGID_5_)" fill="#231F20" d="M88.696,56.637c0-0.276-0.224-0.5-0.5-0.5s-0.5,0.224-0.5,0.5v1.005
		c0,0.277,0.224,0.5,0.5,0.5s0.5-0.223,0.5-0.5V56.637z"/>
	<path clip-path="url(#SVGID_5_)" fill="#231F20" d="M77.059,39.652c-0.276,0-0.5,0.224-0.5,0.5s0.224,0.5,0.5,0.5h1.006
		c0.276,0,0.5-0.224,0.5-0.5s-0.224-0.5-0.5-0.5H77.059z"/>
	<path clip-path="url(#SVGID_5_)" fill="#231F20" d="M88.696,59.653c0-0.276-0.224-0.5-0.5-0.5s-0.5,0.224-0.5,0.5v1.005
		c0,0.277,0.224,0.5,0.5,0.5s0.5-0.223,0.5-0.5V59.653z"/>
	<path clip-path="url(#SVGID_5_)" fill="#231F20" d="M86.107,40.652h1.018c0.276,0,0.493-0.224,0.493-0.5s-0.229-0.5-0.506-0.5
		h-1.005c-0.276,0-0.5,0.224-0.5,0.5S85.831,40.652,86.107,40.652"/>
	<path clip-path="url(#SVGID_5_)" fill="#231F20" d="M56.439,48.652c0-0.276-0.224-0.5-0.5-0.5s-0.5,0.224-0.5,0.5v1.005
		c0,0.277,0.224,0.5,0.5,0.5s0.5-0.223,0.5-0.5V48.652z"/>
	<path clip-path="url(#SVGID_5_)" fill="#231F20" d="M55.939,63.232c-0.276,0-0.5,0.224-0.5,0.5v1.005c0,0.277,0.224,0.5,0.5,0.5
		s0.5-0.223,0.5-0.5v-1.005C56.439,63.457,56.215,63.232,55.939,63.232"/>
	<path clip-path="url(#SVGID_5_)" fill="#231F20" d="M74.043,39.652c-0.276,0-0.5,0.224-0.5,0.5s0.224,0.5,0.5,0.5h1.005
		c0.276,0,0.5-0.224,0.5-0.5s-0.224-0.5-0.5-0.5H74.043z"/>
	<path clip-path="url(#SVGID_5_)" fill="#231F20" d="M56.439,51.668c0-0.276-0.224-0.5-0.5-0.5s-0.5,0.224-0.5,0.5v1.005
		c0,0.277,0.224,0.5,0.5,0.5s0.5-0.223,0.5-0.5V51.668z"/>
	<path clip-path="url(#SVGID_5_)" fill="#231F20" d="M56.439,42.62c0-0.276-0.224-0.5-0.5-0.5s-0.5,0.224-0.5,0.5v1.005
		c0,0.277,0.224,0.5,0.5,0.5s0.5-0.223,0.5-0.5V42.62z"/>
	<path clip-path="url(#SVGID_5_)" fill="#231F20" d="M56.439,45.636c0-0.276-0.224-0.5-0.5-0.5s-0.5,0.224-0.5,0.5v1.005
		c0,0.277,0.224,0.5,0.5,0.5s0.5-0.223,0.5-0.5V45.636z"/>
	<path clip-path="url(#SVGID_5_)" fill="#231F20" d="M56.439,57.7c0-0.276-0.224-0.5-0.5-0.5s-0.5,0.224-0.5,0.5v1.005
		c0,0.277,0.224,0.5,0.5,0.5s0.5-0.223,0.5-0.5V57.7z"/>
	<path clip-path="url(#SVGID_5_)" fill="#231F20" d="M56.439,60.716c0-0.276-0.224-0.5-0.5-0.5s-0.5,0.224-0.5,0.5v1.005
		c0,0.277,0.224,0.5,0.5,0.5s0.5-0.223,0.5-0.5V60.716z"/>
	<path clip-path="url(#SVGID_5_)" fill="#231F20" d="M68.011,39.652c-0.276,0-0.5,0.224-0.5,0.5s0.224,0.5,0.5,0.5h1.005
		c0.277,0,0.5-0.224,0.5-0.5s-0.223-0.5-0.5-0.5H68.011z"/>
	<path clip-path="url(#SVGID_5_)" fill="#231F20" d="M71.027,39.652c-0.276,0-0.5,0.224-0.5,0.5s0.224,0.5,0.5,0.5h1.005
		c0.276,0,0.5-0.224,0.5-0.5s-0.224-0.5-0.5-0.5H71.027z"/>
	<path clip-path="url(#SVGID_5_)" fill="#231F20" d="M64.995,39.652c-0.276,0-0.5,0.224-0.5,0.5s0.224,0.5,0.5,0.5H66
		c0.277,0,0.5-0.224,0.5-0.5s-0.223-0.5-0.5-0.5H64.995z"/>
	<path clip-path="url(#SVGID_5_)" fill="#231F20" d="M55.696,40.371c-0.151,0.231-0.085,0.541,0.146,0.692
		c0.084,0.055,0.179,0.081,0.272,0.081c0.164,0,0.324-0.08,0.42-0.227c0.099-0.153,0.268-0.252,0.45-0.263
		c0.275-0.018,0.484-0.256,0.467-0.531c-0.018-0.276-0.257-0.479-0.531-0.467C56.425,39.687,55.967,39.955,55.696,40.371"/>
	<path clip-path="url(#SVGID_5_)" fill="#231F20" d="M88.696,50.604c0-0.276-0.224-0.5-0.5-0.5s-0.5,0.224-0.5,0.5v1.005
		c0,0.277,0.224,0.5,0.5,0.5s0.5-0.223,0.5-0.5V50.604z"/>
	<path clip-path="url(#SVGID_5_)" fill="#231F20" d="M58.022,71.667h-1.005c-0.276,0-0.497,0.224-0.497,0.5
		c0,0.275,0.227,0.5,0.503,0.5h0.999c0.276,0,0.5-0.225,0.5-0.5C58.522,71.892,58.298,71.667,58.022,71.667"/>
	<path clip-path="url(#SVGID_5_)" fill="#231F20" d="M88.196,43.062c0.276,0,0.5-0.224,0.5-0.5v-1.005c0-0.277-0.224-0.5-0.5-0.5
		s-0.5,0.223-0.5,0.5v1.005C87.696,42.837,87.92,43.062,88.196,43.062"/>
	<path clip-path="url(#SVGID_5_)" fill="#231F20" d="M88.196,46.078c0.276,0,0.5-0.224,0.5-0.5v-1.005c0-0.277-0.224-0.5-0.5-0.5
		s-0.5,0.223-0.5,0.5v1.005C87.696,45.854,87.92,46.078,88.196,46.078"/>
	<path clip-path="url(#SVGID_5_)" fill="#231F20" d="M60.468,40.152c0-0.276-0.224-0.5-0.5-0.5h-1.005c-0.277,0-0.5,0.224-0.5,0.5
		s0.223,0.5,0.5,0.5h1.005C60.244,40.652,60.468,40.428,60.468,40.152"/>
	<path clip-path="url(#SVGID_5_)" fill="#231F20" d="M64.054,72.668c0.276,0,0.5-0.225,0.5-0.5c0-0.276-0.224-0.5-0.5-0.5h-1.005
		c-0.277,0-0.5,0.224-0.5,0.5c0,0.275,0.223,0.5,0.5,0.5H64.054z"/>
	<path clip-path="url(#SVGID_5_)" fill="#231F20" d="M61.038,71.667h-1.005c-0.277,0-0.5,0.224-0.5,0.5c0,0.275,0.223,0.5,0.5,0.5
		h1.005c0.276,0,0.5-0.225,0.5-0.5C61.538,71.892,61.314,71.667,61.038,71.667"/>
	<path clip-path="url(#SVGID_5_)" fill="#231F20" d="M62.984,40.652c0.276,0,0.5-0.224,0.5-0.5s-0.224-0.5-0.5-0.5h-1.005
		c-0.277,0-0.5,0.224-0.5,0.5s0.223,0.5,0.5,0.5H62.984z"/>
	<path clip-path="url(#SVGID_5_)" fill="#231F20" d="M82.36,77.91h-1.005c-0.276,0-0.5,0.224-0.5,0.5s0.224,0.5,0.5,0.5h1.005
		c0.276,0,0.5-0.224,0.5-0.5S82.637,77.91,82.36,77.91"/>
	<path clip-path="url(#SVGID_5_)" fill="#231F20" d="M75.758,46.395c0-0.276-0.224-0.5-0.5-0.5h-1.005c-0.276,0-0.5,0.224-0.5,0.5
		s0.224,0.5,0.5,0.5h1.005C75.534,46.895,75.758,46.67,75.758,46.395"/>
	<path clip-path="url(#SVGID_5_)" fill="#231F20" d="M76.328,77.91h-1.005c-0.276,0-0.5,0.224-0.5,0.5s0.224,0.5,0.5,0.5h1.005
		c0.276,0,0.5-0.224,0.5-0.5S76.604,77.91,76.328,77.91"/>
	<path clip-path="url(#SVGID_5_)" fill="#231F20" d="M73.312,77.91h-1.005c-0.277,0-0.5,0.224-0.5,0.5s0.223,0.5,0.5,0.5h1.005
		c0.276,0,0.5-0.224,0.5-0.5S73.589,77.91,73.312,77.91"/>
	<path clip-path="url(#SVGID_5_)" fill="#231F20" d="M79.345,77.91h-1.006c-0.276,0-0.5,0.224-0.5,0.5s0.224,0.5,0.5,0.5h1.006
		c0.276,0,0.5-0.224,0.5-0.5S79.621,77.91,79.345,77.91"/>
	<path clip-path="url(#SVGID_5_)" fill="#231F20" d="M78.774,46.395c0-0.276-0.224-0.5-0.5-0.5h-1.006c-0.276,0-0.5,0.224-0.5,0.5
		s0.224,0.5,0.5,0.5h1.006C78.551,46.895,78.774,46.67,78.774,46.395"/>
	<path clip-path="url(#SVGID_5_)" fill="#231F20" d="M85.377,77.91h-1.006c-0.276,0-0.5,0.224-0.5,0.5s0.224,0.5,0.5,0.5h1.006
		c0.276,0,0.5-0.224,0.5-0.5S85.653,77.91,85.377,77.91"/>
	<path clip-path="url(#SVGID_5_)" fill="#231F20" d="M72.742,46.395c0-0.276-0.224-0.5-0.5-0.5h-1.005c-0.277,0-0.5,0.224-0.5,0.5
		s0.223,0.5,0.5,0.5h1.005C72.519,46.895,72.742,46.67,72.742,46.395"/>
	<path clip-path="url(#SVGID_5_)" fill="#231F20" d="M69.726,46.395c0-0.276-0.224-0.5-0.5-0.5h-1.005c-0.277,0-0.5,0.224-0.5,0.5
		s0.223,0.5,0.5,0.5h1.005C69.502,46.895,69.726,46.67,69.726,46.395"/>
	<path clip-path="url(#SVGID_5_)" fill="#231F20" d="M62.182,72.49c-0.276,0-0.5,0.225-0.5,0.5v1.006c0,0.276,0.224,0.5,0.5,0.5
		s0.5-0.224,0.5-0.5V72.99C62.682,72.715,62.458,72.49,62.182,72.49"/>
	<path clip-path="url(#SVGID_5_)" fill="#231F20" d="M70.296,77.91h-1.005c-0.277,0-0.5,0.224-0.5,0.5s0.223,0.5,0.5,0.5h1.005
		c0.276,0,0.5-0.224,0.5-0.5S70.572,77.91,70.296,77.91"/>
	<path clip-path="url(#SVGID_5_)" fill="#231F20" d="M64.264,77.91h-1.005c-0.276,0-0.497,0.224-0.497,0.5s0.227,0.5,0.503,0.5
		h0.999c0.276,0,0.5-0.224,0.5-0.5S64.54,77.91,64.264,77.91"/>
	<path clip-path="url(#SVGID_5_)" fill="#231F20" d="M62.182,75.507c-0.276,0-0.5,0.224-0.5,0.5v1.006c0,0.276,0.224,0.5,0.5,0.5
		s0.5-0.224,0.5-0.5v-1.006C62.682,75.73,62.458,75.507,62.182,75.507"/>
	<path clip-path="url(#SVGID_5_)" fill="#231F20" d="M87.822,46.395c0-0.276-0.224-0.5-0.5-0.5h-1.005c-0.276,0-0.5,0.224-0.5,0.5
		s0.224,0.5,0.5,0.5h1.005C87.599,46.895,87.822,46.67,87.822,46.395"/>
	<path clip-path="url(#SVGID_5_)" fill="#231F20" d="M67.28,77.91h-1.005c-0.277,0-0.5,0.224-0.5,0.5s0.223,0.5,0.5,0.5h1.005
		c0.276,0,0.5-0.224,0.5-0.5S67.556,77.91,67.28,77.91"/>
	<path clip-path="url(#SVGID_5_)" fill="#231F20" d="M66.71,46.395c0-0.276-0.224-0.5-0.5-0.5h-1.005c-0.277,0-0.5,0.224-0.5,0.5
		s0.223,0.5,0.5,0.5h1.005C66.486,46.895,66.71,46.67,66.71,46.395"/>
	<path clip-path="url(#SVGID_5_)" fill="#231F20" d="M91.409,77.91h-1.006c-0.276,0-0.5,0.224-0.5,0.5s0.224,0.5,0.5,0.5h1.006
		c0.276,0,0.5-0.224,0.5-0.5S91.686,77.91,91.409,77.91"/>
	<path clip-path="url(#SVGID_5_)" fill="#231F20" d="M94.438,62.379c-0.276,0-0.5,0.224-0.5,0.5v1.005c0,0.277,0.224,0.5,0.5,0.5
		s0.5-0.223,0.5-0.5v-1.005C94.938,62.603,94.715,62.379,94.438,62.379"/>
	<path clip-path="url(#SVGID_5_)" fill="#231F20" d="M94.438,68.411c-0.276,0-0.5,0.224-0.5,0.5v1.005c0,0.277,0.224,0.5,0.5,0.5
		s0.5-0.223,0.5-0.5v-1.005C94.938,68.635,94.715,68.411,94.438,68.411"/>
	<path clip-path="url(#SVGID_5_)" fill="#231F20" d="M94.438,56.347c-0.276,0-0.5,0.224-0.5,0.5v1.005c0,0.277,0.224,0.5,0.5,0.5
		s0.5-0.223,0.5-0.5v-1.005C94.938,56.571,94.715,56.347,94.438,56.347"/>
	<path clip-path="url(#SVGID_5_)" fill="#231F20" d="M94.438,65.395c-0.276,0-0.5,0.224-0.5,0.5V66.9c0,0.277,0.224,0.5,0.5,0.5
		s0.5-0.223,0.5-0.5v-1.005C94.938,65.619,94.715,65.395,94.438,65.395"/>
	<path clip-path="url(#SVGID_5_)" fill="#231F20" d="M88.393,77.91h-1.005c-0.276,0-0.5,0.224-0.5,0.5s0.224,0.5,0.5,0.5h1.005
		c0.276,0,0.5-0.224,0.5-0.5S88.669,77.91,88.393,77.91"/>
	<path clip-path="url(#SVGID_5_)" fill="#231F20" d="M94.438,53.331c-0.276,0-0.5,0.224-0.5,0.5v1.005c0,0.277,0.224,0.5,0.5,0.5
		s0.5-0.223,0.5-0.5v-1.005C94.938,53.555,94.715,53.331,94.438,53.331"/>
	<path clip-path="url(#SVGID_5_)" fill="#231F20" d="M94.438,50.315c-0.276,0-0.5,0.224-0.5,0.5v1.005c0,0.277,0.224,0.5,0.5,0.5
		s0.5-0.223,0.5-0.5v-1.005C94.938,50.539,94.715,50.315,94.438,50.315"/>
	<path clip-path="url(#SVGID_5_)" fill="#231F20" d="M94.438,47.299c-0.276,0-0.5,0.224-0.5,0.5v1.005c0,0.277,0.224,0.5,0.5,0.5
		s0.5-0.223,0.5-0.5v-1.005C94.938,47.523,94.715,47.299,94.438,47.299"/>
	<path clip-path="url(#SVGID_5_)" fill="#231F20" d="M94.438,71.427c-0.276,0-0.5,0.224-0.5,0.5v1.005c0,0.276,0.224,0.5,0.5,0.5
		s0.5-0.224,0.5-0.5v-1.005C94.938,71.651,94.715,71.427,94.438,71.427"/>
	<path clip-path="url(#SVGID_5_)" fill="#231F20" d="M61.939,46.613c-0.151,0.231-0.086,0.541,0.145,0.692
		c0.084,0.055,0.179,0.081,0.273,0.081c0.163,0,0.323-0.079,0.419-0.226c0.1-0.153,0.268-0.252,0.45-0.264
		c0.275-0.017,0.484-0.255,0.467-0.531c-0.018-0.276-0.245-0.479-0.531-0.467C62.668,45.93,62.21,46.197,61.939,46.613"/>
	<path clip-path="url(#SVGID_5_)" fill="#231F20" d="M90.839,46.395c0-0.276-0.224-0.5-0.5-0.5h-1.006c-0.276,0-0.5,0.224-0.5,0.5
		s0.224,0.5,0.5,0.5h1.006C90.615,46.895,90.839,46.67,90.839,46.395"/>
	<path clip-path="url(#SVGID_5_)" fill="#231F20" d="M93.861,46.395c0-0.276-0.23-0.5-0.507-0.5H92.35c-0.276,0-0.5,0.224-0.5,0.5
		s0.224,0.5,0.5,0.5h1.019C93.645,46.895,93.861,46.67,93.861,46.395"/>
	<path clip-path="url(#SVGID_5_)" fill="#231F20" d="M94.438,74.443c-0.276,0-0.5,0.224-0.5,0.5v1.005c0,0.276,0.224,0.5,0.5,0.5
		s0.5-0.224,0.5-0.5v-1.005C94.938,74.667,94.715,74.443,94.438,74.443"/>
	<path clip-path="url(#SVGID_5_)" fill="#231F20" d="M93.843,77.646c-0.104,0.156-0.268,0.252-0.452,0.263
		c-0.275,0.016-0.485,0.253-0.47,0.528c0.016,0.266,0.235,0.471,0.499,0.471c0.01,0,0.02,0,0.029-0.001
		c0.494-0.028,0.953-0.294,1.228-0.708c0.152-0.23,0.089-0.541-0.141-0.693C94.308,77.354,93.996,77.418,93.843,77.646"/>
	<path clip-path="url(#SVGID_5_)" fill="#231F20" d="M94.438,59.363c-0.276,0-0.5,0.224-0.5,0.5v1.005c0,0.277,0.224,0.5,0.5,0.5
		s0.5-0.223,0.5-0.5v-1.005C94.938,59.587,94.715,59.363,94.438,59.363"/>
	<path clip-path="url(#SVGID_5_)" fill="#231F20" d="M61.682,64.948c0,0.276,0.224,0.5,0.5,0.5s0.5-0.224,0.5-0.5v-1.005
		c0-0.277-0.224-0.5-0.5-0.5s-0.5,0.223-0.5,0.5V64.948z"/>
	<path clip-path="url(#SVGID_5_)" fill="#231F20" d="M62.682,66.959c0-0.276-0.224-0.5-0.5-0.5s-0.5,0.224-0.5,0.5v1.005
		c0,0.277,0.224,0.5,0.5,0.5s0.5-0.223,0.5-0.5V66.959z"/>
	<path clip-path="url(#SVGID_5_)" fill="#231F20" d="M62.182,69.475c-0.276,0-0.5,0.224-0.5,0.5v1.005c0,0.276,0.224,0.5,0.5,0.5
		s0.5-0.224,0.5-0.5v-1.005C62.682,69.699,62.458,69.475,62.182,69.475"/>
	<path clip-path="url(#SVGID_5_)" fill="#231F20" d="M81.79,46.395c0-0.276-0.224-0.5-0.5-0.5h-1.005c-0.276,0-0.5,0.224-0.5,0.5
		s0.224,0.5,0.5,0.5h1.005C81.566,46.895,81.79,46.67,81.79,46.395"/>
	<path clip-path="url(#SVGID_5_)" fill="#231F20" d="M83.301,45.895c-0.276,0-0.5,0.224-0.5,0.5s0.224,0.5,0.5,0.5h1.006
		c0.276,0,0.5-0.224,0.5-0.5s-0.224-0.5-0.5-0.5H83.301z"/>
	<path clip-path="url(#SVGID_5_)" fill="#231F20" d="M61.682,52.884c0,0.276,0.224,0.5,0.5,0.5s0.5-0.224,0.5-0.5v-1.005
		c0-0.277-0.224-0.5-0.5-0.5s-0.5,0.223-0.5,0.5V52.884z"/>
	<path clip-path="url(#SVGID_5_)" fill="#231F20" d="M62.182,50.368c0.276,0,0.5-0.224,0.5-0.5v-1.005c0-0.276-0.224-0.5-0.5-0.5
		s-0.5,0.224-0.5,0.5v1.005C61.682,50.144,61.906,50.368,62.182,50.368"/>
	<path clip-path="url(#SVGID_5_)" fill="#231F20" d="M61.682,61.932c0,0.276,0.224,0.5,0.5,0.5s0.5-0.224,0.5-0.5v-1.005
		c0-0.277-0.224-0.5-0.5-0.5s-0.5,0.223-0.5,0.5V61.932z"/>
	<path clip-path="url(#SVGID_5_)" fill="#231F20" d="M61.682,58.916c0,0.276,0.224,0.5,0.5,0.5s0.5-0.224,0.5-0.5v-1.005
		c0-0.277-0.224-0.5-0.5-0.5s-0.5,0.223-0.5,0.5V58.916z"/>
	<path clip-path="url(#SVGID_5_)" fill="#231F20" d="M61.682,55.9c0,0.276,0.224,0.5,0.5,0.5s0.5-0.224,0.5-0.5v-1.005
		c0-0.277-0.224-0.5-0.5-0.5s-0.5,0.223-0.5,0.5V55.9z"/>
	<path clip-path="url(#SVGID_5_)" d="M103.082,97.396c-0.336-1.101-0.761-2.157-1.25-3.175c-0.574-1.197-1.239-2.337-2-3.401
		c-1.493-2.089-3.329-3.895-5.405-5.37c-1.072-0.764-2.21-1.43-3.4-2c-3.02-1.447-6.37-2.265-9.865-2.265
		c-3.521,0-6.882,0.816-9.904,2.265c-1.191,0.57-2.33,1.236-3.401,2c-3.998,2.847-7.078,6.956-8.597,11.856
		c-1.643-0.586-3.361-0.883-5.119-0.883c-3.718,0-7.159,1.342-9.837,3.592c-0.647,0.544-1.248,1.141-1.798,1.785
		c-1.542,1.807-2.684,3.98-3.255,6.407c-6.375,0.233-11.747,4.662-13.167,10.931c-0.062,0.282,0.004,0.578,0.186,0.806
		c0.181,0.225,0.454,0.356,0.743,0.356h90.032c0.463,0,0.86-0.334,0.938-0.791c0.2-1.164,0.299-2.236,0.299-3.277
		C118.28,107.131,111.923,99.302,103.082,97.396 M116.228,118.397H28.262c1.636-4.94,6.215-8.295,11.585-8.295h0.009l0.145,0.007
		c0.483,0.045,0.875-0.32,0.959-0.781c0.413-2.279,1.394-4.327,2.77-6.027c0.455-0.562,0.953-1.082,1.49-1.562
		c2.385-2.132,5.52-3.413,8.92-3.413c1.736,0,3.423,0.344,5.027,0.996c0.741,0.359,2.111,1.136,3.302,2.421
		c0.405,0.436,0.789,0.93,1.121,1.486c0.156,0.261,0.452,0.388,0.738,0.336c0.083-0.016,0.165-0.043,0.24-0.09
		c0.338-0.2,0.449-0.638,0.248-0.976c-0.159-0.266-0.328-0.516-0.503-0.757c-1.069-1.472-2.397-2.484-3.446-3.12
		c1.573-5.831,5.52-10.526,10.631-13.174c1.814-0.94,3.775-1.62,5.833-2c1.247-0.231,2.524-0.361,3.83-0.361
		c1.304,0,2.583,0.131,3.832,0.361c2.069,0.38,4.048,1.054,5.873,2c3.812,1.975,6.973,5.094,8.966,8.994
		c0.51,0.995,0.944,2.043,1.293,3.135c-0.458-0.003-0.885,0.032-1.293,0.081c-1.773,0.212-3.006,0.798-3.094,0.835
		c-0.362,0.149-0.537,0.565-0.387,0.931c0.15,0.364,0.567,0.538,0.932,0.387c0.017-0.007,1.056-0.419,2.549-0.59
		c0.604-0.069,1.283-0.098,2-0.046c0.279,0.021,0.562,0.049,0.851,0.097c7.964,1.722,13.694,8.761,13.694,16.959
		C116.377,116.927,116.329,117.64,116.228,118.397"/>
	<path clip-path="url(#SVGID_5_)" fill="#231F20" d="M84.878,64.653h-1.991V50.918c0-0.277-0.112-0.527-0.293-0.708
		c-0.103-0.101-0.229-0.173-0.366-0.224c-0.08-0.053-0.17-0.091-0.273-0.091c-0.078,0-0.148,0.021-0.215,0.052
		c-0.479,0.074-0.853,0.47-0.853,0.971v13.735h-1.992l2.992,5.181L84.878,64.653z"/>
	<path clip-path="url(#SVGID_5_)" fill="#231F20" d="M85.039,71.168h-6.306c-0.276,0-0.526,0.112-0.708,0.292
		c-0.093,0.094-0.166,0.207-0.216,0.331c-0.107,0.092-0.181,0.224-0.181,0.377s0.073,0.284,0.181,0.376
		c0.148,0.365,0.505,0.624,0.924,0.623l6.306,0.001c0.552,0,1-0.448,1-1C86.039,71.616,85.591,71.168,85.039,71.168"/>
</g>
</svg>
