<?xml version="1.0" encoding="utf-8"?>
<!-- Generator: Adobe Illustrator 18.1.0, SVG Export Plug-In . SVG Version: 6.00 Build 0)  -->
<svg version="1.1" id="Layer_1" xmlns="http://www.w3.org/2000/svg" xmlns:xlink="http://www.w3.org/1999/xlink" x="0px" y="0px"
	 viewBox="0 0 144 144" enable-background="new 0 0 144 144" xml:space="preserve">
<linearGradient id="SVGID_1_" gradientUnits="userSpaceOnUse" x1="42.9324" y1="42.9324" x2="101.0676" y2="101.0676">
	<stop  offset="0" style="stop-color:#E6E6E6"/>
	<stop  offset="0.5" style="stop-color:#F7F7F7"/>
	<stop  offset="1" style="stop-color:#C4C4C4"/>
</linearGradient>
<path fill="url(#SVGID_1_)" d="M99.8,42.5H44.2c-1.1,0-2,0.9-2,2v55.1c0,1.1,0.9,2,2,2h55.5c1.1,0,2-0.9,2-2V44.5
	C101.8,43.4,100.9,42.5,99.8,42.5z"/>
<path fill="#231F20" d="M97.3,102.5h-2c-0.6,0-1-0.4-1-1s0.4-1,1-1h2c0.6,0,1,0.4,1,1S97.9,102.5,97.3,102.5z M91.3,102.5h-2
	c-0.6,0-1-0.4-1-1s0.4-1,1-1h2c0.6,0,1,0.4,1,1S91.9,102.5,91.3,102.5z M85.3,102.5h-2c-0.6,0-1-0.4-1-1s0.4-1,1-1h2
	c0.6,0,1,0.4,1,1S85.9,102.5,85.3,102.5z M79.3,102.5h-2c-0.6,0-1-0.4-1-1s0.4-1,1-1h2c0.6,0,1,0.4,1,1S79.9,102.5,79.3,102.5z
	 M73.3,102.5h-2c-0.6,0-1-0.4-1-1s0.4-1,1-1h2c0.6,0,1,0.4,1,1S73.9,102.5,73.3,102.5z M67.3,102.5h-2c-0.6,0-1-0.4-1-1s0.4-1,1-1h2
	c0.6,0,1,0.4,1,1S67.9,102.5,67.3,102.5z M61.3,102.5h-2c-0.6,0-1-0.4-1-1s0.4-1,1-1h2c0.6,0,1,0.4,1,1S61.9,102.5,61.3,102.5z
	 M55.3,102.5h-2c-0.6,0-1-0.4-1-1s0.4-1,1-1h2c0.6,0,1,0.4,1,1S55.9,102.5,55.3,102.5z M49.3,102.5h-2c-0.6,0-1-0.4-1-1s0.4-1,1-1h2
	c0.6,0,1,0.4,1,1S49.9,102.5,49.3,102.5z M43.4,102.3c-0.1,0-0.3,0-0.4-0.1c-0.9-0.4-1.6-1.3-1.7-2.3c-0.1-0.5,0.3-1,0.9-1.1
	c0.5-0.1,1,0.3,1.1,0.9c0,0.3,0.2,0.6,0.6,0.8c0.5,0.2,0.7,0.8,0.5,1.3C44.1,102.1,43.7,102.3,43.4,102.3z M101.2,102
	c-0.3,0-0.5-0.1-0.7-0.3c-0.4-0.4-0.4-1,0-1.4c0.2-0.2,0.3-0.4,0.3-0.7v-0.4c0-0.6,0.4-1,1-1s1,0.4,1,1v0.4c0,0.8-0.3,1.6-0.9,2.1
	C101.7,101.9,101.4,102,101.2,102z M42.2,96.8c-0.6,0-1-0.4-1-1v-2c0-0.6,0.4-1,1-1s1,0.4,1,1v2C43.2,96.3,42.8,96.8,42.2,96.8z
	 M101.8,96.1c-0.6,0-1-0.4-1-1v-2c0-0.6,0.4-1,1-1s1,0.4,1,1v2C102.8,95.7,102.3,96.1,101.8,96.1z M42.2,90.8c-0.6,0-1-0.4-1-1v-2
	c0-0.6,0.4-1,1-1s1,0.4,1,1v2C43.2,90.3,42.8,90.8,42.2,90.8z M101.8,90.1c-0.6,0-1-0.4-1-1v-2c0-0.6,0.4-1,1-1s1,0.4,1,1v2
	C102.8,89.7,102.3,90.1,101.8,90.1z M42.2,84.8c-0.6,0-1-0.4-1-1v-2c0-0.6,0.4-1,1-1s1,0.4,1,1v2C43.2,84.3,42.8,84.8,42.2,84.8z
	 M101.8,84.1c-0.6,0-1-0.4-1-1v-2c0-0.6,0.4-1,1-1s1,0.4,1,1v2C102.8,83.7,102.3,84.1,101.8,84.1z M42.2,78.8c-0.6,0-1-0.4-1-1v-2
	c0-0.6,0.4-1,1-1s1,0.4,1,1v2C43.2,78.3,42.8,78.8,42.2,78.8z M101.8,78.1c-0.6,0-1-0.4-1-1v-2c0-0.6,0.4-1,1-1s1,0.4,1,1v2
	C102.8,77.7,102.3,78.1,101.8,78.1z M42.2,72.8c-0.6,0-1-0.4-1-1v-2c0-0.6,0.4-1,1-1s1,0.4,1,1v2C43.2,72.3,42.8,72.8,42.2,72.8z
	 M101.8,72.1c-0.6,0-1-0.4-1-1v-2c0-0.6,0.4-1,1-1s1,0.4,1,1v2C102.8,71.7,102.3,72.1,101.8,72.1z M42.2,66.8c-0.6,0-1-0.4-1-1v-2
	c0-0.6,0.4-1,1-1s1,0.4,1,1v2C43.2,66.3,42.8,66.8,42.2,66.8z M101.8,66.1c-0.6,0-1-0.4-1-1v-2c0-0.6,0.4-1,1-1s1,0.4,1,1v2
	C102.8,65.7,102.3,66.1,101.8,66.1z M42.2,60.8c-0.6,0-1-0.4-1-1v-2c0-0.6,0.4-1,1-1s1,0.4,1,1v2C43.2,60.3,42.8,60.8,42.2,60.8z
	 M101.8,60.1c-0.6,0-1-0.4-1-1v-2c0-0.6,0.4-1,1-1s1,0.4,1,1v2C102.8,59.7,102.3,60.1,101.8,60.1z M42.2,54.8c-0.6,0-1-0.4-1-1v-2
	c0-0.6,0.4-1,1-1s1,0.4,1,1v2C43.2,54.3,42.8,54.8,42.2,54.8z M101.8,54.1c-0.6,0-1-0.4-1-1v-2c0-0.6,0.4-1,1-1s1,0.4,1,1v2
	C102.8,53.7,102.3,54.1,101.8,54.1z M42.2,48.8c-0.6,0-1-0.4-1-1v-2c0-0.6,0.4-1,1-1s1,0.4,1,1v2C43.2,48.3,42.8,48.8,42.2,48.8z
	 M101.8,48.1c-0.6,0-1-0.4-1-1v-2c0-0.6,0.4-1,1-1s1,0.4,1,1v2C102.8,47.7,102.3,48.1,101.8,48.1z M43.8,43.5c-0.5,0-0.9-0.3-1-0.8
	c-0.1-0.5,0.2-1.1,0.7-1.2c0.2-0.1,0.5-0.1,0.7-0.1h1.5c0.6,0,1,0.4,1,1s-0.4,1-1,1h-1.5c-0.1,0-0.2,0-0.2,0
	C43.9,43.5,43.8,43.5,43.8,43.5z M99.8,43.5h-2c-0.6,0-1-0.4-1-1s0.4-1,1-1h2c0.6,0,1,0.4,1,1S100.3,43.5,99.8,43.5z M93.8,43.5h-2
	c-0.6,0-1-0.4-1-1s0.4-1,1-1h2c0.6,0,1,0.4,1,1S94.3,43.5,93.8,43.5z M87.8,43.5h-2c-0.6,0-1-0.4-1-1s0.4-1,1-1h2c0.6,0,1,0.4,1,1
	S88.3,43.5,87.8,43.5z M81.8,43.5h-2c-0.6,0-1-0.4-1-1s0.4-1,1-1h2c0.6,0,1,0.4,1,1S82.3,43.5,81.8,43.5z M75.8,43.5h-2
	c-0.6,0-1-0.4-1-1s0.4-1,1-1h2c0.6,0,1,0.4,1,1S76.3,43.5,75.8,43.5z M69.8,43.5h-2c-0.6,0-1-0.4-1-1s0.4-1,1-1h2c0.6,0,1,0.4,1,1
	S70.3,43.5,69.8,43.5z M63.8,43.5h-2c-0.6,0-1-0.4-1-1s0.4-1,1-1h2c0.6,0,1,0.4,1,1S64.3,43.5,63.8,43.5z M57.8,43.5h-2
	c-0.6,0-1-0.4-1-1s0.4-1,1-1h2c0.6,0,1,0.4,1,1S58.3,43.5,57.8,43.5z M51.8,43.5h-2c-0.6,0-1-0.4-1-1s0.4-1,1-1h2c0.6,0,1,0.4,1,1
	S52.3,43.5,51.8,43.5z"/>
</svg>
