<?xml version="1.0" encoding="utf-8"?>
<!-- Generator: Adobe Illustrator 16.0.4, SVG Export Plug-In . SVG Version: 6.00 Build 0)  -->
<!DOCTYPE svg PUBLIC "-//W3C//DTD SVG 1.1//EN" "http://www.w3.org/Graphics/SVG/1.1/DTD/svg11.dtd">
<svg version="1.1" id="Layer_1" xmlns="http://www.w3.org/2000/svg" xmlns:xlink="http://www.w3.org/1999/xlink" x="0px" y="0px"
	 width="144px" height="144px" viewBox="0 0 144 144" enable-background="new 0 0 144 144" xml:space="preserve">
<g>
	<defs>
		<rect id="SVGID_1_" width="144" height="144"/>
	</defs>
	<clipPath id="SVGID_2_">
		<use xlink:href="#SVGID_1_"  overflow="visible"/>
	</clipPath>
	<path clip-path="url(#SVGID_2_)" fill="#EFAB1F" d="M97,66.354c0,13.808-11.193,25-25,25c-13.807,0-25-11.192-25-25
		c0-13.807,11.193-25,25-25C85.807,41.354,97,52.547,97,66.354"/>
	<path clip-path="url(#SVGID_2_)" fill="#231F20" d="M72,92.354c-14.336,0-26-11.663-26-26c0-14.336,11.664-26,26-26
		c14.337,0,26,11.664,26,26C98,80.69,86.337,92.354,72,92.354 M72,42.354c-13.233,0-24,10.767-24,24c0,13.233,10.767,24,24,24
		c13.233,0,24-10.767,24-24C96,53.121,85.233,42.354,72,42.354"/>
	<path clip-path="url(#SVGID_2_)" fill="#010101" d="M71.258,80.933c-0.661,0-1.277-0.118-1.832-0.352
		c-0.555-0.234-1.038-0.562-1.433-0.974c-0.391-0.403-0.707-0.888-0.939-1.438c-0.233-0.554-0.351-1.156-0.351-1.793
		c0-1.306,0.438-2.392,1.303-3.227c0.859-0.83,1.954-1.251,3.252-1.251c1.299,0,2.395,0.421,3.254,1.251
		c0.864,0.836,1.303,1.921,1.303,3.227c0,0.635-0.118,1.238-0.352,1.793c-0.23,0.549-0.546,1.033-0.939,1.439
		c-0.395,0.41-0.885,0.738-1.458,0.974C72.501,80.814,71.893,80.933,71.258,80.933 M71.258,72.898c-1.045,0-1.881,0.317-2.557,0.971
		c-0.672,0.648-0.998,1.469-0.998,2.508c0,0.502,0.092,0.975,0.273,1.404c0.183,0.437,0.431,0.817,0.737,1.133
		c0.306,0.318,0.666,0.562,1.102,0.745c0.841,0.355,1.961,0.372,2.872-0.002c0.442-0.182,0.818-0.431,1.117-0.742
		c0.308-0.317,0.554-0.698,0.737-1.133c0.182-0.432,0.273-0.904,0.273-1.405c0-1.038-0.326-1.858-0.999-2.508
		C73.141,73.216,72.304,72.898,71.258,72.898 M75.308,70.754h-7.981v-0.5c0-0.865,0.083-1.67,0.246-2.392
		c0.167-0.741,0.466-1.445,0.888-2.093c0.42-0.644,0.983-1.243,1.672-1.779c0.677-0.528,1.535-1.04,2.55-1.52
		c0.788-0.369,1.365-0.712,1.72-1.018c0.281-0.244,0.412-0.545,0.412-0.948c0-0.43-0.159-0.738-0.501-0.971
		c-0.271-0.182-0.846-0.401-2.041-0.401c-1.334,0-2.605,0.231-3.776,0.687c-1.196,0.467-2.366,1.074-3.475,1.804l-0.428,0.282
		l-4.004-6.433l0.418-0.265c1.666-1.057,3.434-1.901,5.257-2.509c1.838-0.612,3.899-0.923,6.126-0.923
		c1.618,0,3.101,0.163,4.409,0.482c1.327,0.326,2.479,0.823,3.423,1.479c0.961,0.669,1.709,1.518,2.225,2.523
		c0.517,1.003,0.778,2.182,0.778,3.504c0,1.67-0.432,3.049-1.281,4.098c-0.824,1.016-2.115,1.953-3.837,2.787
		c-1.041,0.508-1.781,1.043-2.199,1.589c-0.403,0.526-0.6,1.185-0.6,2.017V70.754z M68.337,69.754h5.992
		c0.074-0.83,0.337-1.542,0.784-2.125c0.521-0.68,1.356-1.295,2.556-1.88c1.591-0.77,2.767-1.617,3.497-2.518
		c0.702-0.866,1.059-2.033,1.059-3.468c0-1.161-0.225-2.186-0.667-3.047c-0.441-0.858-1.082-1.585-1.908-2.159
		c-0.841-0.585-1.881-1.032-3.089-1.328c-1.23-0.301-2.633-0.454-4.171-0.454c-2.119,0-4.074,0.293-5.809,0.872
		c-1.594,0.531-3.144,1.251-4.617,2.143l2.939,4.721c1.038-0.647,2.123-1.192,3.23-1.623c1.287-0.502,2.68-0.756,4.14-0.756
		c1.179,0,2.029,0.188,2.601,0.573c0.616,0.418,0.941,1.04,0.941,1.799c0,0.695-0.255,1.269-0.758,1.704
		c-0.429,0.371-1.066,0.753-1.947,1.167c-0.947,0.448-1.743,0.92-2.361,1.403c-0.602,0.469-1.09,0.986-1.45,1.537
		c-0.356,0.547-0.608,1.142-0.749,1.767C68.433,68.593,68.362,69.153,68.337,69.754"/>
</g>
</svg>
