<?xml version="1.0" encoding="utf-8"?>
<!-- Generator: Adobe Illustrator 16.0.4, SVG Export Plug-In . SVG Version: 6.00 Build 0)  -->
<!DOCTYPE svg PUBLIC "-//W3C//DTD SVG 1.1//EN" "http://www.w3.org/Graphics/SVG/1.1/DTD/svg11.dtd">
<svg version="1.1" id="Layer_1" xmlns="http://www.w3.org/2000/svg" xmlns:xlink="http://www.w3.org/1999/xlink" x="0px" y="0px"
	 width="144px" height="144px" viewBox="0 0 144 144" enable-background="new 0 0 144 144" xml:space="preserve">
<g>
	<defs>
		<path id="SVGID_1_" d="M70.682,44.408c-0.351,0-0.671,0.261-0.745,0.61c-0.203,0.986-0.408,1.987-0.611,2.973h-0.003
			c-0.203-0.986-0.407-1.987-0.611-2.973c-0.073-0.349-0.379-0.61-0.744-0.61H56.041c-0.35,0-0.671,0.261-0.744,0.61
			c-0.204,0.986-0.409,1.987-0.612,2.973h-0.01c-0.204-0.986-0.409-1.987-0.613-2.973c-0.072-0.349-0.379-0.61-0.743-0.61H41.392
			c-0.35,0-0.671,0.261-0.744,0.61c-0.205,0.986-0.408,1.987-0.612,2.973h-1.302h-0.75c-0.414,0-0.749,0.336-0.749,0.75v48.031
			c0,0.413,0.335,0.751,0.749,0.751h6.922c0.029,0.117,0.061,0.234,0.104,0.347c0.297,0.781,0.891,1.342,1.718,1.62
			c0.517,0.174,1.049,0.124,1.499-0.142c0.751-0.443,1.066-1.364,1.182-1.825h45.396c0.03,0.117,0.062,0.234,0.105,0.347
			c0.296,0.781,0.891,1.342,1.718,1.62c0.518,0.174,1.05,0.124,1.499-0.142c0.751-0.443,1.067-1.364,1.183-1.825h6.705
			c0.414,0,0.749-0.338,0.749-0.751V48.741c0-0.414-0.335-0.75-0.749-0.75h-0.75H83.965c-0.205-0.986-0.409-1.987-0.612-2.973
			c-0.072-0.349-0.379-0.61-0.744-0.61H70.682z"/>
	</defs>
	<clipPath id="SVGID_2_">
		<use xlink:href="#SVGID_1_"  overflow="visible"/>
	</clipPath>
	
		<linearGradient id="SVGID_3_" gradientUnits="userSpaceOnUse" x1="0" y1="144.0059" x2="1" y2="144.0059" gradientTransform="matrix(59.1782 59.1782 59.1782 -59.1782 -8479.2861 8564.7861)">
		<stop  offset="0" style="stop-color:#E6E7E8"/>
		<stop  offset="0.5" style="stop-color:#F6F6F6"/>
		<stop  offset="1" style="stop-color:#CBCCCE"/>
	</linearGradient>
	<polygon clip-path="url(#SVGID_2_)" fill="url(#SVGID_3_)" points="72,9.643 134.393,72.036 72,134.429 9.607,72.036 	"/>
</g>
<g>
	<defs>
		<rect id="SVGID_4_" width="144" height="144"/>
	</defs>
	<clipPath id="SVGID_5_">
		<use xlink:href="#SVGID_4_"  overflow="visible"/>
	</clipPath>
	<path clip-path="url(#SVGID_5_)" fill="#231F20" d="M48.203,90.087c-0.368-0.167-0.759-0.251-1.152-0.251
		c-0.333,0-0.666,0.06-0.988,0.181c-0.7,0.264-1.255,0.785-1.562,1.466c-0.185,0.41-0.264,0.857-0.235,1.327
		c0.017,0.275,0.243,0.472,0.53,0.468c0.275-0.017,0.485-0.254,0.468-0.529c-0.019-0.307,0.031-0.595,0.148-0.854
		c0.198-0.438,0.554-0.771,1.004-0.941c0.45-0.169,0.937-0.153,1.374,0.045c0.437,0.196,0.77,0.553,0.939,1.002
		c0.17,0.449,0.154,0.939-0.045,1.378c-0.115,0.255-0.298,0.481-0.543,0.672c-0.219,0.17-0.257,0.484-0.088,0.702
		s0.483,0.257,0.702,0.088c0.375-0.292,0.657-0.646,0.84-1.05c0.309-0.682,0.334-1.442,0.07-2.143
		C49.4,90.947,48.881,90.394,48.203,90.087"/>
	<path clip-path="url(#SVGID_5_)" fill="#231F20" d="M98.104,90.087c-0.368-0.167-0.761-0.251-1.152-0.251
		c-0.333,0-0.666,0.06-0.988,0.181c-0.699,0.264-1.256,0.785-1.562,1.466c-0.185,0.408-0.262,0.854-0.235,1.325
		c0.018,0.276,0.258,0.492,0.529,0.47c0.274-0.016,0.486-0.253,0.47-0.527c-0.018-0.31,0.032-0.598,0.148-0.855
		c0.196-0.438,0.554-0.771,1.004-0.941c0.451-0.171,0.938-0.153,1.374,0.045c0.437,0.196,0.77,0.553,0.938,1.003
		s0.154,0.938-0.045,1.377c-0.116,0.255-0.298,0.481-0.543,0.673c-0.218,0.17-0.257,0.484-0.087,0.702
		c0.17,0.219,0.483,0.256,0.702,0.086c0.374-0.292,0.656-0.646,0.839-1.049c0.309-0.681,0.334-1.441,0.071-2.142
		C99.303,90.948,98.784,90.394,98.104,90.087"/>
	<path clip-path="url(#SVGID_5_)" fill="#231F20" d="M106.016,47.991h-0.75H83.965c-0.204-0.986-0.408-1.986-0.612-2.973
		c-0.073-0.349-0.379-0.61-0.744-0.61H70.682c-0.35,0-0.671,0.261-0.744,0.61c-0.204,0.987-0.408,1.987-0.612,2.973h-0.002
		c-0.204-0.986-0.408-1.986-0.611-2.973c-0.073-0.349-0.379-0.61-0.745-0.61H56.042c-0.35,0-0.671,0.261-0.744,0.61
		c-0.205,0.987-0.409,1.987-0.612,2.973h-0.011c-0.204-0.986-0.408-1.986-0.612-2.973c-0.073-0.349-0.379-0.61-0.744-0.61H41.392
		c-0.35,0-0.671,0.261-0.744,0.61c-0.204,0.987-0.408,1.987-0.612,2.973h-1.301h-0.75c-0.414,0-0.75,0.336-0.75,0.75v48.032
		c0,0.414,0.336,0.75,0.75,0.75h6.921c0.029,0.118,0.061,0.235,0.104,0.349c0.298,0.779,0.892,1.34,1.718,1.62
		c0.517,0.174,1.049,0.123,1.499-0.142c0.752-0.444,1.067-1.366,1.183-1.827h45.397c0.028,0.118,0.062,0.235,0.104,0.349
		c0.296,0.779,0.892,1.34,1.719,1.62c0.517,0.174,1.049,0.123,1.497-0.142c0.753-0.444,1.068-1.366,1.185-1.827h6.704
		c0.414,0,0.75-0.336,0.75-0.75V48.741C106.766,48.327,106.43,47.991,106.016,47.991 M71.294,45.919h10.702
		c0.142,0.694,0.282,1.382,0.424,2.072H70.87C71.015,47.301,71.163,46.613,71.294,45.919 M56.653,45.919h10.702
		c0.141,0.694,0.283,1.382,0.424,2.072h-11.55C56.375,47.301,56.522,46.613,56.653,45.919 M47.262,97.554
		c-0.022-0.01-0.036-0.021-0.055-0.031h0.069C47.271,97.531,47.267,97.546,47.262,97.554 M97.163,97.554
		c-0.021-0.01-0.035-0.021-0.054-0.031h0.069C97.174,97.531,97.168,97.546,97.163,97.554 M105.266,96.022h-8.519
		c0.168-1.031,0.718-2.271,1.071-2.892c0.273-0.479,0.105-1.09-0.374-1.363c-0.157-0.09-0.326-0.132-0.494-0.132
		c-0.348,0-0.686,0.181-0.871,0.505c-0.15,0.266-1.152,2.085-1.346,3.882H46.846c0.168-1.031,0.716-2.271,1.07-2.892
		c0.273-0.479,0.106-1.09-0.374-1.363c-0.156-0.09-0.326-0.132-0.494-0.132c-0.347,0-0.685,0.181-0.869,0.505
		c-0.152,0.266-1.154,2.085-1.348,3.882h-6.097V49.491h1.907l0.006,0.015c0.031,0,0.057-0.011,0.087-0.015
		c0.334-0.038,0.59-0.274,0.657-0.581c0.063-0.307,0.124-0.613,0.188-0.919c0.145-0.69,0.294-1.378,0.425-2.072h10.702
		c0.141,0.694,0.282,1.382,0.424,2.072c0.063,0.306,0.125,0.612,0.188,0.919c0.067,0.307,0.335,0.543,0.66,0.581
		c0.029,0.004,0.055,0.015,0.084,0.015h1.235h13.415h1.225h3.379l0.03-0.015h9.922c0.028,0.004,0.054,0.015,0.084,0.015l0.006-0.015
		h21.907V96.022z"/>
	<path clip-path="url(#SVGID_5_)" fill="#231F20" d="M71.783,87.021h-1.006c-0.276,0-0.5-0.224-0.5-0.5s0.224-0.5,0.5-0.5h1.006
		c0.275,0,0.5,0.224,0.5,0.5S72.059,87.021,71.783,87.021 M68.767,87.021h-1.006c-0.276,0-0.5-0.224-0.5-0.5s0.224-0.5,0.5-0.5
		h1.006c0.276,0,0.5,0.224,0.5,0.5S69.043,87.021,68.767,87.021 M65.751,87.021h-1.005c-0.277,0-0.5-0.224-0.5-0.5
		s0.223-0.5,0.5-0.5h1.005c0.276,0,0.5,0.224,0.5,0.5S66.027,87.021,65.751,87.021 M62.735,87.021H61.73c-0.277,0-0.5-0.224-0.5-0.5
		s0.223-0.5,0.5-0.5h1.005c0.276,0,0.5,0.224,0.5,0.5S63.011,87.021,62.735,87.021 M59.719,87.021h-1.006
		c-0.276,0-0.5-0.224-0.5-0.5s0.224-0.5,0.5-0.5h1.006c0.276,0,0.5,0.224,0.5,0.5S59.995,87.021,59.719,87.021 M56.703,87.021
		h-1.006c-0.276,0-0.5-0.224-0.5-0.5s0.224-0.5,0.5-0.5h1.006c0.276,0,0.5,0.224,0.5,0.5S56.979,87.021,56.703,87.021
		 M53.687,87.021h-1.006c-0.276,0-0.5-0.224-0.5-0.5s0.224-0.5,0.5-0.5h1.006c0.276,0,0.5,0.224,0.5,0.5
		S53.963,87.021,53.687,87.021 M50.67,87.021h-1.005c-0.276,0-0.5-0.224-0.5-0.5s0.224-0.5,0.5-0.5h1.005c0.277,0,0.5,0.224,0.5,0.5
		S50.947,87.021,50.67,87.021 M47.654,87.021h-1.005c-0.276,0-0.5-0.224-0.5-0.5s0.224-0.5,0.5-0.5h1.005c0.277,0,0.5,0.224,0.5,0.5
		S47.931,87.021,47.654,87.021 M44.639,87.021H43.64c-0.277,0-0.504-0.224-0.504-0.5s0.22-0.5,0.497-0.5h1.006
		c0.276,0,0.5,0.224,0.5,0.5S44.915,87.021,44.639,87.021 M73.794,87.02c-0.264,0-0.483-0.205-0.499-0.471
		c-0.017-0.275,0.194-0.513,0.47-0.528c0.185-0.011,0.349-0.106,0.452-0.263c0.153-0.229,0.464-0.293,0.693-0.141
		s0.293,0.463,0.141,0.693c-0.274,0.414-0.733,0.68-1.228,0.708C73.813,87.02,73.804,87.02,73.794,87.02 M42.556,85.624
		c-0.277,0-0.5-0.223-0.5-0.5v-1.006c0-0.276,0.223-0.5,0.5-0.5c0.276,0,0.5,0.224,0.5,0.5v1.006
		C43.056,85.401,42.832,85.624,42.556,85.624 M74.813,84.56c-0.277,0-0.5-0.224-0.5-0.5v-1.005c0-0.276,0.223-0.5,0.5-0.5
		c0.275,0,0.5,0.224,0.5,0.5v1.005C75.313,84.336,75.089,84.56,74.813,84.56 M42.556,82.607c-0.277,0-0.5-0.224-0.5-0.5v-1.005
		c0-0.276,0.223-0.5,0.5-0.5c0.276,0,0.5,0.224,0.5,0.5v1.005C43.056,82.384,42.832,82.607,42.556,82.607 M74.813,81.544
		c-0.277,0-0.5-0.224-0.5-0.5v-1.006c0-0.276,0.223-0.5,0.5-0.5c0.275,0,0.5,0.224,0.5,0.5v1.006
		C75.313,81.32,75.089,81.544,74.813,81.544 M42.556,79.592c-0.277,0-0.5-0.224-0.5-0.5v-1.006c0-0.276,0.223-0.5,0.5-0.5
		c0.276,0,0.5,0.224,0.5,0.5v1.006C43.056,79.368,42.832,79.592,42.556,79.592 M74.813,78.527c-0.277,0-0.5-0.224-0.5-0.5v-1.005
		c0-0.276,0.223-0.5,0.5-0.5c0.275,0,0.5,0.224,0.5,0.5v1.005C75.313,78.304,75.089,78.527,74.813,78.527 M42.556,76.575
		c-0.277,0-0.5-0.224-0.5-0.5V75.07c0-0.276,0.223-0.5,0.5-0.5c0.276,0,0.5,0.224,0.5,0.5v1.005
		C43.056,76.352,42.832,76.575,42.556,76.575 M74.813,75.512c-0.277,0-0.5-0.224-0.5-0.5v-1.005c0-0.276,0.223-0.5,0.5-0.5
		c0.275,0,0.5,0.224,0.5,0.5v1.005C75.313,75.288,75.089,75.512,74.813,75.512 M42.556,73.56c-0.277,0-0.5-0.224-0.5-0.5v-1.006
		c0-0.276,0.223-0.5,0.5-0.5c0.276,0,0.5,0.224,0.5,0.5v1.006C43.056,73.336,42.832,73.56,42.556,73.56 M74.813,72.496
		c-0.277,0-0.5-0.225-0.5-0.5V70.99c0-0.276,0.223-0.5,0.5-0.5c0.275,0,0.5,0.224,0.5,0.5v1.006
		C75.313,72.271,75.089,72.496,74.813,72.496 M42.556,70.544c-0.277,0-0.5-0.224-0.5-0.5v-1.006c0-0.276,0.223-0.5,0.5-0.5
		c0.276,0,0.5,0.224,0.5,0.5v1.006C43.056,70.32,42.832,70.544,42.556,70.544 M74.813,69.48c-0.277,0-0.5-0.224-0.5-0.5v-1.006
		c0-0.276,0.223-0.5,0.5-0.5c0.275,0,0.5,0.224,0.5,0.5v1.006C75.313,69.256,75.089,69.48,74.813,69.48 M42.556,67.527
		c-0.277,0-0.5-0.223-0.5-0.5v-1.005c0-0.276,0.223-0.5,0.5-0.5c0.276,0,0.5,0.224,0.5,0.5v1.005
		C43.056,67.304,42.832,67.527,42.556,67.527 M74.813,66.464c-0.277,0-0.5-0.224-0.5-0.5v-1.005c0-0.277,0.223-0.5,0.5-0.5
		c0.275,0,0.5,0.223,0.5,0.5v1.005C75.313,66.24,75.089,66.464,74.813,66.464 M42.556,64.511c-0.277,0-0.5-0.223-0.5-0.5v-1.005
		c0-0.276,0.223-0.5,0.5-0.5c0.276,0,0.5,0.224,0.5,0.5v1.005C43.056,64.288,42.832,64.511,42.556,64.511 M74.813,63.448
		c-0.277,0-0.5-0.224-0.5-0.5v-1.005c0-0.277,0.223-0.5,0.5-0.5c0.275,0,0.5,0.223,0.5,0.5v1.005
		C75.313,63.224,75.089,63.448,74.813,63.448 M42.556,61.495c-0.277,0-0.5-0.223-0.5-0.5V59.99c0-0.276,0.223-0.5,0.5-0.5
		c0.276,0,0.5,0.224,0.5,0.5v1.005C43.056,61.272,42.832,61.495,42.556,61.495 M74.813,60.432c-0.277,0-0.5-0.224-0.5-0.5v-1.006
		c0-0.276,0.223-0.5,0.5-0.5c0.275,0,0.5,0.224,0.5,0.5v1.006C75.313,60.208,75.089,60.432,74.813,60.432 M42.556,58.48
		c-0.277,0-0.5-0.224-0.5-0.5v-1.006c0-0.276,0.223-0.5,0.5-0.5c0.276,0,0.5,0.224,0.5,0.5v1.006
		C43.056,58.256,42.832,58.48,42.556,58.48 M74.813,57.416c-0.277,0-0.5-0.224-0.5-0.5V55.91c0-0.276,0.223-0.5,0.5-0.5
		c0.275,0,0.5,0.224,0.5,0.5v1.006C75.313,57.192,75.089,57.416,74.813,57.416 M42.731,55.498c-0.093,0-0.188-0.027-0.272-0.081
		c-0.231-0.151-0.297-0.461-0.146-0.693c0.271-0.415,0.728-0.682,1.223-0.715c0.29-0.008,0.513,0.192,0.531,0.467
		c0.018,0.275-0.191,0.513-0.466,0.531c-0.182,0.012-0.35,0.111-0.45,0.264C43.055,55.418,42.895,55.498,42.731,55.498
		 M73.742,55.006h-1.02c-0.275,0-0.5-0.224-0.5-0.5s0.225-0.5,0.5-0.5h1.006c0.276,0,0.507,0.224,0.507,0.5
		S74.019,55.006,73.742,55.006 M70.712,55.006h-1.005c-0.276,0-0.5-0.224-0.5-0.5s0.224-0.5,0.5-0.5h1.005
		c0.277,0,0.5,0.224,0.5,0.5S70.989,55.006,70.712,55.006 M67.696,55.006h-1.005c-0.276,0-0.5-0.224-0.5-0.5s0.224-0.5,0.5-0.5
		h1.005c0.277,0,0.5,0.224,0.5,0.5S67.973,55.006,67.696,55.006 M64.68,55.006h-1.005c-0.277,0-0.5-0.224-0.5-0.5s0.223-0.5,0.5-0.5
		h1.005c0.277,0,0.5,0.224,0.5,0.5S64.957,55.006,64.68,55.006 M61.665,55.006h-1.006c-0.276,0-0.5-0.224-0.5-0.5s0.224-0.5,0.5-0.5
		h1.006c0.276,0,0.5,0.224,0.5,0.5S61.941,55.006,61.665,55.006 M58.648,55.006h-1.005c-0.276,0-0.5-0.224-0.5-0.5
		s0.224-0.5,0.5-0.5h1.005c0.277,0,0.5,0.224,0.5,0.5S58.925,55.006,58.648,55.006 M55.632,55.006h-1.005
		c-0.276,0-0.5-0.224-0.5-0.5s0.224-0.5,0.5-0.5h1.005c0.277,0,0.5,0.224,0.5,0.5S55.909,55.006,55.632,55.006 M52.616,55.006
		h-1.005c-0.277,0-0.5-0.224-0.5-0.5s0.223-0.5,0.5-0.5h1.005c0.277,0,0.5,0.224,0.5,0.5S52.893,55.006,52.616,55.006 M49.6,55.006
		h-1.005c-0.277,0-0.5-0.224-0.5-0.5s0.223-0.5,0.5-0.5H49.6c0.276,0,0.5,0.224,0.5,0.5S49.876,55.006,49.6,55.006 M46.584,55.006
		h-1.005c-0.277,0-0.5-0.224-0.5-0.5s0.223-0.5,0.5-0.5h1.005c0.276,0,0.5,0.224,0.5,0.5S46.86,55.006,46.584,55.006"/>
	<path clip-path="url(#SVGID_5_)" d="M78.812,66.009c0,0.414,0.336,0.75,0.75,0.75h21.046c0.415,0,0.75-0.336,0.75-0.75
		s-0.335-0.75-0.75-0.75H79.562C79.148,65.259,78.812,65.595,78.812,66.009"/>
	<path clip-path="url(#SVGID_5_)" d="M100.609,69.763H79.562c-0.415,0-0.75,0.336-0.75,0.75s0.335,0.75,0.75,0.75h21.047
		c0.413,0,0.75-0.336,0.75-0.75S101.022,69.763,100.609,69.763"/>
	<path clip-path="url(#SVGID_5_)" d="M92.525,74.269H79.563c-0.415,0-0.75,0.336-0.75,0.75c0,0.413,0.335,0.75,0.75,0.75h12.962
		c0.414,0,0.75-0.337,0.75-0.75C93.275,74.604,92.939,74.269,92.525,74.269"/>
	<line clip-path="url(#SVGID_5_)" fill="#6D6E70" x1="71.294" y1="45.918" x2="81.996" y2="45.918"/>
	<line clip-path="url(#SVGID_5_)" fill="#6D6E70" x1="56.653" y1="45.918" x2="67.355" y2="45.918"/>
</g>
</svg>
