<?xml version="1.0" encoding="utf-8"?>
<!-- Generator: Adobe Illustrator 18.1.0, SVG Export Plug-In . SVG Version: 6.00 Build 0)  -->
<svg version="1.1" id="Layer_1" xmlns="http://www.w3.org/2000/svg" xmlns:xlink="http://www.w3.org/1999/xlink" x="0px" y="0px"
	 viewBox="0 0 144 144" enable-background="new 0 0 144 144" xml:space="preserve">
<g>
	<polygon fill="#EFAB1F" points="72,45 97.9,89.9 46.1,89.9 	"/>
	<g>
		<g>
			<g>
				<path d="M44.4,91.9h55.2c0,0,0,0,0,0c0.6,0,1-0.4,1-1c0-0.2-0.1-0.5-0.2-0.7L72.9,42.5c-0.4-0.6-1.4-0.6-1.7,0L43.5,90.4
					c-0.2,0.3-0.2,0.7,0,1C43.7,91.7,44,91.9,44.4,91.9z M72,45l25.9,44.8H46.1L72,45z"/>
				<path d="M72,78.2c-1.9,0-3.6,1.7-3.6,3.6c0,2,1.6,3.6,3.6,3.6c2,0,3.6-1.6,3.6-3.6C75.6,79.9,73.9,78.2,72,78.2z M72,84.1
					c-1.3,0-2.3-1.1-2.3-2.3c0-1.3,1.1-2.4,2.3-2.4c1.3,0,2.3,1.1,2.3,2.4C74.3,83.1,73.2,84.1,72,84.1z"/>
				<path d="M69.8,75c0.1,0.3,0.3,0.5,0.6,0.5h3.2c0.3,0,0.6-0.2,0.6-0.5l1-5.5c0,0,0-0.1,0-0.1V57.9c0-0.3-0.3-0.6-0.6-0.6h-5.2
					c-0.3,0-0.6,0.3-0.6,0.6v11.5c0,0,0,0.1,0,0.1L69.8,75z M70,58.5H74v10.8l-0.9,4.9h-2.2L70,69.3V58.5z"/>
			</g>
		</g>
	</g>
</g>
</svg>
