<?xml version="1.0" encoding="utf-8"?>
<!-- Generator: Adobe Illustrator 16.0.4, SVG Export Plug-In . SVG Version: 6.00 Build 0)  -->
<!DOCTYPE svg PUBLIC "-//W3C//DTD SVG 1.1//EN" "http://www.w3.org/Graphics/SVG/1.1/DTD/svg11.dtd">
<svg version="1.1" id="Layer_1" xmlns="http://www.w3.org/2000/svg" xmlns:xlink="http://www.w3.org/1999/xlink" x="0px" y="0px"
	 width="144px" height="144px" viewBox="0 0 144 144" enable-background="new 0 0 144 144" xml:space="preserve">
<g>
	<defs>
		<path id="SVGID_1_" d="M54.182,23.104l-9.765,3.876c-0.713,0.283-1.182,0.972-1.182,1.74v56.729h57.53V28.698
			c0-0.76-0.445-1.451-1.139-1.766l-8.444-3.828H54.182z"/>
	</defs>
	<clipPath id="SVGID_2_">
		<use xlink:href="#SVGID_1_"  overflow="visible"/>
	</clipPath>
	
		<linearGradient id="SVGID_3_" gradientUnits="userSpaceOnUse" x1="0" y1="144.0215" x2="1" y2="144.0215" gradientTransform="matrix(57.5169 57.5169 57.5169 -57.5169 -8239.1836 8310.3594)">
		<stop  offset="0" style="stop-color:#E6E7E8"/>
		<stop  offset="0.5" style="stop-color:#F6F6F6"/>
		<stop  offset="1" style="stop-color:#CBCCCE"/>
	</linearGradient>
	<polygon clip-path="url(#SVGID_2_)" fill="url(#SVGID_3_)" points="72,-5.661 131.938,54.276 72,114.214 12.062,54.276 	"/>
</g>
<g>
	<defs>
		<rect id="SVGID_4_" width="144" height="144"/>
	</defs>
	<clipPath id="SVGID_5_">
		<use xlink:href="#SVGID_4_"  overflow="visible"/>
	</clipPath>
	<path clip-path="url(#SVGID_5_)" fill="#6D6E70" d="M99.832,100.722c0,0.562-0.418,1.021-0.933,1.021H45.235
		c-0.514,0-0.932-0.458-0.932-1.021v-14.25c0-0.563,0.418-1.022,0.932-1.022h53.664c0.515,0,0.933,0.459,0.933,1.022V100.722z"/>
	<path clip-path="url(#SVGID_5_)" fill="#FFFFFF" d="M116.228,118.397H28.262c1.636-4.94,6.215-8.295,11.585-8.295h0.009
		l0.145,0.007c0.483,0.045,0.875-0.32,0.959-0.781c1.156-6.375,6.699-11.002,13.18-11.002c1.736,0,3.423,0.343,5.027,0.996
		c0.993,0.481,3.114,1.709,4.423,3.907c0.157,0.261,0.452,0.388,0.738,0.336c0.083-0.016,0.165-0.043,0.24-0.09
		c0.338-0.2,0.449-0.639,0.248-0.976c-1.127-1.891-2.729-3.137-3.949-3.877c2.47-9.157,10.782-15.535,20.294-15.535
		c9.139,0,17.202,5.843,19.964,14.49c-2.454-0.017-4.279,0.871-4.387,0.916c-0.362,0.149-0.537,0.565-0.387,0.931
		c0.15,0.364,0.567,0.537,0.932,0.387c0.026-0.012,2.541-1.012,5.399-0.539c7.964,1.722,13.694,8.761,13.694,16.959
		C116.377,116.927,116.329,117.64,116.228,118.397"/>
	<path clip-path="url(#SVGID_5_)" fill="#231F20" d="M99.832,99.222l2-0.046C101.115,99.123,100.437,99.151,99.832,99.222"/>
	<path clip-path="url(#SVGID_5_)" d="M42.303,86.472v14.25c0,0.381,0.077,0.742,0.202,1.079c0.55-0.646,1.151-1.242,1.798-1.785
		V86.472c0-0.564,0.419-1.023,0.933-1.023h22.62c1.071-0.763,2.21-1.429,3.402-2H45.236c-0.328,0-0.638,0.069-0.933,0.172V29.68
		h55.53v53.939c-0.295-0.102-0.605-0.171-0.934-0.171h-7.874c1.191,0.571,2.329,1.238,3.401,2h4.473
		c0.516,0,0.934,0.459,0.934,1.023v4.348c0.761,1.064,1.426,2.204,2,3.401v-7.749v-1.063v-56.75c0-1.151-0.679-2.201-1.727-2.677
		l-8.642-3.918H54.058l-9.942,3.946c-1.101,0.437-1.813,1.485-1.813,2.67v56.729V86.472z M54.441,24.063h36.593l7.974,3.616H45.332
		L54.441,24.063z"/>
	<path clip-path="url(#SVGID_5_)" d="M103.082,97.396c-0.336-1.101-0.761-2.157-1.25-3.175c-0.574-1.197-1.239-2.337-2-3.401
		c-1.493-2.089-3.329-3.895-5.405-5.37c-1.072-0.764-2.21-1.43-3.4-2c-3.02-1.447-6.37-2.265-9.865-2.265
		c-3.521,0-6.882,0.816-9.904,2.265c-1.191,0.57-2.33,1.236-3.401,2c-3.998,2.847-7.078,6.956-8.597,11.856
		c-1.643-0.586-3.361-0.883-5.119-0.883c-3.718,0-7.159,1.342-9.837,3.592c-0.647,0.544-1.248,1.141-1.798,1.785
		c-1.542,1.807-2.684,3.98-3.255,6.407c-6.375,0.233-11.747,4.662-13.167,10.931c-0.062,0.282,0.004,0.578,0.186,0.806
		c0.181,0.225,0.454,0.356,0.743,0.356h90.032c0.463,0,0.86-0.334,0.938-0.791c0.2-1.164,0.299-2.236,0.299-3.277
		C118.28,107.131,111.923,99.302,103.082,97.396 M116.228,118.397H28.262c1.636-4.94,6.215-8.295,11.585-8.295h0.009l0.145,0.007
		c0.483,0.045,0.875-0.32,0.959-0.781c0.413-2.279,1.394-4.327,2.77-6.027c0.455-0.562,0.953-1.082,1.49-1.562
		c2.385-2.132,5.52-3.413,8.92-3.413c1.736,0,3.423,0.344,5.027,0.996c0.741,0.359,2.111,1.136,3.302,2.421
		c0.405,0.436,0.789,0.93,1.121,1.486c0.156,0.261,0.452,0.388,0.738,0.336c0.083-0.016,0.165-0.043,0.24-0.09
		c0.338-0.2,0.449-0.638,0.248-0.976c-0.159-0.266-0.328-0.516-0.503-0.757c-1.069-1.472-2.397-2.484-3.446-3.12
		c1.573-5.831,5.52-10.526,10.631-13.174c1.814-0.94,3.775-1.62,5.833-2c1.247-0.231,2.524-0.361,3.83-0.361
		c1.304,0,2.583,0.131,3.832,0.361c2.069,0.38,4.048,1.054,5.873,2c3.812,1.975,6.973,5.094,8.966,8.994
		c0.51,0.995,0.944,2.043,1.293,3.135c-0.458-0.003-0.885,0.032-1.293,0.081c-1.773,0.212-3.006,0.798-3.094,0.835
		c-0.362,0.149-0.537,0.565-0.387,0.931c0.15,0.364,0.567,0.538,0.932,0.387c0.017-0.007,1.056-0.419,2.549-0.59
		c0.604-0.069,1.283-0.098,2-0.046c0.279,0.021,0.562,0.049,0.851,0.097c7.964,1.722,13.694,8.761,13.694,16.959
		C116.377,116.927,116.329,117.64,116.228,118.397"/>
</g>
</svg>
