<?xml version="1.0" encoding="utf-8"?>
<!-- Generator: Adobe Illustrator 16.0.4, SVG Export Plug-In . SVG Version: 6.00 Build 0)  -->
<!DOCTYPE svg PUBLIC "-//W3C//DTD SVG 1.1//EN" "http://www.w3.org/Graphics/SVG/1.1/DTD/svg11.dtd">
<svg version="1.1" id="Layer_1" xmlns="http://www.w3.org/2000/svg" xmlns:xlink="http://www.w3.org/1999/xlink" x="0px" y="0px"
	 width="345.333px" height="169.667px" viewBox="0 0 345.333 169.667" enable-background="new 0 0 345.333 169.667"
	 xml:space="preserve">
<g>
	<defs>
		<path id="SVGID_1_" d="M173.219,105.946c-0.126,0.14-0.244,0.275-0.369,0.415c4.194,4.662,7.939,9.086,11.555,13.364
			c17.196,20.357,28.558,33.806,55.63,33.806c37.125,0,67.428-29.682,68.478-66.559l-19.058,22.798
			c-0.19,0.228-0.471,0.358-0.767,0.358h-0.004c-0.297-0.001-0.58-0.134-0.768-0.362l-10.274-12.435
			c-5.281,16.132-20.48,27.243-37.607,27.243c-21.531,0-36.647-18.184-37.279-18.958l-14.642-18.979L173.219,105.946z"/>
	</defs>
	<clipPath id="SVGID_2_">
		<use xlink:href="#SVGID_1_"  overflow="visible"/>
	</clipPath>
	
		<linearGradient id="SVGID_3_" gradientUnits="userSpaceOnUse" x1="0" y1="169.5205" x2="1" y2="169.5205" gradientTransform="matrix(73.5685 73.5685 73.5685 -73.5685 -12273.6455 12548.418)">
		<stop  offset="0" style="stop-color:#E6E7E8"/>
		<stop  offset="0.5" style="stop-color:#F6F6F6"/>
		<stop  offset="1" style="stop-color:#CBCCCE"/>
	</linearGradient>
	<polygon clip-path="url(#SVGID_2_)" fill="url(#SVGID_3_)" points="240.681,18.808 341.958,120.085 240.681,221.362 
		139.404,120.085 	"/>
</g>
<g>
	<defs>
		<path id="SVGID_4_" d="M37.734,63.991l-0.272-0.088c-0.147,0.454-0.591,0.758-1.078,0.69L19.355,62.11
			c-1.036-0.114-1.805,0.09-2.02,0.54c-0.241,0.506,0.044,1.543,1.056,2.55l35.425,42.364l35.119-42.502
			c1.068-1.079,1.348-2.12,1.103-2.624c-0.218-0.449-0.989-0.646-2.061-0.523l-16.976,2.577c-0.548,0.085-1.056-0.292-1.138-0.839
			c-0.064-0.41,0.134-0.8,0.468-1.003c7.398-10.786,19.578-17.221,32.651-17.221c21.529,0,36.645,18.184,37.278,18.959
			l14.641,18.977l14.894-19.307c0.128-0.141,0.246-0.276,0.372-0.416c-3.817-4.279-7.3-8.39-10.662-12.366
			c-17.082-20.204-29.424-34.802-56.523-34.802C73.1,16.474,46.879,35.569,37.734,63.991"/>
	</defs>
	<clipPath id="SVGID_5_">
		<use xlink:href="#SVGID_4_"  overflow="visible"/>
	</clipPath>
	
		<linearGradient id="SVGID_6_" gradientUnits="userSpaceOnUse" x1="0" y1="169.6885" x2="1" y2="169.6885" gradientTransform="matrix(79.1669 79.1669 79.1669 -79.1669 -13378.0059 13457.8994)">
		<stop  offset="0" style="stop-color:#E6E7E8"/>
		<stop  offset="0.5" style="stop-color:#F6F6F6"/>
		<stop  offset="1" style="stop-color:#CBCCCE"/>
	</linearGradient>
	<polygon clip-path="url(#SVGID_5_)" fill="url(#SVGID_6_)" points="93.63,-60.062 215.712,62.019 93.63,184.101 -28.451,62.019 	
		"/>
</g>
<g>
	<defs>
		<path id="SVGID_7_" d="M183.51,51.275c-3.812,4.51-7.757,9.174-12.182,14.065l-31.05,40.255
			c-0.651,0.797-15.767,18.98-37.296,18.98c-17.352,0-32.606-11.291-37.752-27.687l-10.638,12.878
			c-0.19,0.229-0.512,0.362-0.77,0.362c-0.296,0-0.578-0.131-0.768-0.358L34.52,87.602c1.373,36.585,31.546,65.93,68.462,65.93
			c27.099,0,39.441-14.599,56.523-34.803c3.813-4.51,7.756-9.174,12.182-14.064l31.051-40.255
			c0.648-0.796,15.765-18.98,37.296-18.98c13.104,0,25.341,6.477,32.729,17.323l-0.284,0.194c0.137,0.201,0.206,0.448,0.168,0.707
			c-0.084,0.547-0.592,0.924-1.14,0.839l-17.013-2.582c-1.031-0.118-1.808,0.078-2.024,0.528c-0.244,0.504,0.035,1.545,1.041,2.556
			l35.181,42.57l35.363-42.297c1.074-1.074,1.359-2.111,1.118-2.617c-0.215-0.451-0.989-0.651-2.058-0.536l-16.991,2.479
			c-0.549,0.077-1.055-0.299-1.134-0.845c-0.023-0.161,0.003-0.314,0.052-0.459c-9.351-28.024-35.395-46.815-65.008-46.815
			C212.934,16.474,200.592,31.071,183.51,51.275"/>
	</defs>
	<clipPath id="SVGID_8_">
		<use xlink:href="#SVGID_7_"  overflow="visible"/>
	</clipPath>
	
		<linearGradient id="SVGID_9_" gradientUnits="userSpaceOnUse" x1="0" y1="169.6787" x2="1" y2="169.6787" gradientTransform="matrix(137.0673 137.0673 137.0673 -137.0673 -23148.7949 23270.9297)">
		<stop  offset="0" style="stop-color:#E6E7E8"/>
		<stop  offset="0.5" style="stop-color:#F6F6F6"/>
		<stop  offset="1" style="stop-color:#CBCCCE"/>
	</linearGradient>
	<polygon clip-path="url(#SVGID_8_)" fill="url(#SVGID_9_)" points="179.967,-128.973 393.942,85.002 179.967,298.978 
		-34.008,85.002 	"/>
</g>
<g>
	<defs>
		<path id="SVGID_10_" d="M184.404,119.726c-3.615-4.278-7.36-8.702-11.555-13.364c0.125-0.14,0.243-0.275,0.369-0.415
			l14.895-19.308l14.642,18.979c0.632,0.774,15.748,18.958,37.279,18.958c17.127,0,32.326-11.111,37.607-27.243l10.274,12.435
			c0.188,0.229,0.471,0.361,0.768,0.362h0.004c0.296,0,0.576-0.131,0.767-0.358l19.058-22.798
			c-1.05,36.877-31.353,66.559-68.478,66.559C212.962,153.531,201.601,140.083,184.404,119.726 M102.982,47.429
			c20.566,0,35.58,18.042,35.712,18.202l14.944,19.371l-14.926,19.348c-0.15,0.184-15.164,18.226-35.73,18.226
			c-16.917,0-31.73-11.305-36.213-27.549l23.646-28.622c1.538-1.548,2.097-3.446,1.424-4.837c-0.36-0.745-1.369-1.952-4.126-1.635
			l-14.549,2.208C80.262,52.889,91.245,47.429,102.982,47.429 M204.322,104.373l-14.945-19.371l14.927-19.349
			c0.148-0.182,15.139-18.224,35.73-18.224c11.761,0,22.778,5.499,29.875,14.798l-15.151-2.299c-2.726-0.309-3.727,0.895-4.089,1.64
			c-0.672,1.391-0.114,3.289,1.362,4.768l24.085,29.15c-4.632,15.974-19.392,27.089-36.082,27.089
			C219.467,122.575,204.452,104.533,204.322,104.373 M102.982,16.474c27.099,0,39.441,14.598,56.523,34.802
			c3.362,3.976,6.845,8.087,10.662,12.366c-0.126,0.14-0.244,0.275-0.372,0.416l-14.894,19.307L140.26,64.388
			c-0.633-0.775-15.749-18.959-37.278-18.959c-13.073,0-25.253,6.435-32.651,17.221c-0.334,0.203-0.532,0.593-0.468,1.003
			c0.082,0.547,0.59,0.924,1.138,0.839l16.976-2.577c1.072-0.123,1.843,0.074,2.061,0.523c0.245,0.504-0.035,1.545-1.103,2.624
			l-35.119,42.502L18.391,65.2c-1.012-1.007-1.297-2.044-1.056-2.55c0.215-0.45,0.984-0.654,2.02-0.54l17.029,2.483
			c0.487,0.068,0.931-0.236,1.078-0.69l0.272,0.088C46.879,35.569,73.1,16.474,102.982,16.474 M140.278,105.595l31.05-40.255
			c4.425-4.891,8.369-9.555,12.182-14.065c17.082-20.204,29.424-34.801,56.524-34.801c29.613,0,55.657,18.791,65.008,46.815
			c-0.049,0.145-0.075,0.298-0.052,0.459c0.079,0.546,0.585,0.922,1.134,0.845l16.991-2.479c1.068-0.115,1.843,0.085,2.058,0.536
			c0.241,0.506-0.044,1.543-1.118,2.617l-35.363,42.297l-35.181-42.57c-1.006-1.011-1.285-2.052-1.041-2.556
			c0.217-0.45,0.993-0.646,2.024-0.528l17.013,2.582c0.548,0.085,1.056-0.292,1.14-0.839c0.038-0.259-0.031-0.506-0.168-0.707
			l0.284-0.194c-7.388-10.846-19.624-17.323-32.729-17.323c-21.531,0-36.647,18.184-37.296,18.98l-31.051,40.255
			c-4.426,4.891-8.369,9.555-12.182,14.064c-17.082,20.204-29.424,34.803-56.523,34.803c-36.916,0-67.089-29.345-68.462-65.93
			l18.534,22.169c0.19,0.228,0.472,0.358,0.768,0.358c0.258,0,0.58-0.133,0.77-0.362L65.23,96.889
			c5.146,16.396,20.4,27.687,37.752,27.687C124.511,124.575,139.627,106.392,140.278,105.595 M181.983,49.983
			c-3.303,3.906-6.725,7.939-10.477,12.155c-3.741-4.198-7.167-8.241-10.474-12.154c-17.43-20.615-30.023-35.51-58.051-35.51
			c-30.454,0-57.203,19.279-66.861,48.059l-16.514-2.407c-2.714-0.295-3.721,0.915-4.078,1.662
			c-0.665,1.396-0.095,3.292,1.389,4.762l15.539,18.585c0.073,38.829,31.68,70.396,70.525,70.396
			c28.026,0,40.621-14.896,58.051-35.512c3.302-3.905,6.724-7.939,10.477-12.155c4.112,4.578,7.805,8.937,11.366,13.152
			c16.927,20.037,29.158,34.515,57.158,34.515c38.889,0,70.526-31.64,70.526-70.529h-0.401l15.368-18.384
			c1.547-1.538,2.116-3.434,1.451-4.83c-0.357-0.746-1.352-1.952-4.115-1.657l-15.992,2.332
			c-9.678-28.736-36.428-47.989-66.837-47.989C212.006,14.474,199.412,29.369,181.983,49.983"/>
	</defs>
	<clipPath id="SVGID_11_">
		<use xlink:href="#SVGID_10_"  overflow="visible"/>
	</clipPath>
	
		<linearGradient id="SVGID_12_" gradientUnits="userSpaceOnUse" x1="0" y1="169.6514" x2="1" y2="169.6514" gradientTransform="matrix(173.8162 173.8162 173.8162 -173.8162 -29406.3789 29483.5078)">
		<stop  offset="0" style="stop-color:#E6E7E8"/>
		<stop  offset="0.5" style="stop-color:#F6F6F6"/>
		<stop  offset="1" style="stop-color:#CBCCCE"/>
	</linearGradient>
	<polygon clip-path="url(#SVGID_11_)" fill="url(#SVGID_12_)" points="171.254,-141.916 398.173,85.002 171.254,311.921 
		-55.665,85.002 	"/>
</g>
<g>
	<defs>
		<rect id="SVGID_13_" width="345.333" height="169.667"/>
	</defs>
	<clipPath id="SVGID_14_">
		<use xlink:href="#SVGID_13_"  overflow="visible"/>
	</clipPath>
	<path clip-path="url(#SVGID_14_)" fill="#231F20" d="M153.854,85.609l-15.415-19.98c-0.131-0.16-15.145-18.202-35.71-18.202
		c-12.502,0-24.149,6.193-31.157,16.567l-1.657-1.12c7.38-10.925,19.647-17.447,32.814-17.447c21.529,0,36.644,18.184,37.277,18.958
		l15.432,20.002L153.854,85.609z"/>
	<path clip-path="url(#SVGID_14_)" fill="#231F20" d="M239.779,155.529c-28,0-40.23-14.478-57.157-34.515
		c-3.781-4.473-7.688-9.1-12.111-13.988l1.484-1.342c4.445,4.913,8.364,9.553,12.154,14.039
		c17.197,20.358,28.559,33.806,55.63,33.806c37.787,0,68.528-30.742,68.528-68.529h2
		C310.308,123.89,278.669,155.529,239.779,155.529"/>
	<path clip-path="url(#SVGID_14_)" fill="#231F20" d="M288.433,110.127h-0.003c-0.297-0.001-0.579-0.134-0.769-0.362l-35.884-43.429
		c-1.477-1.48-2.035-3.378-1.362-4.77c0.361-0.744,1.362-1.949,4.089-1.639l17.05,2.587c0.546,0.083,0.921,0.593,0.838,1.138
		c-0.083,0.546-0.593,0.924-1.139,0.839l-17.013-2.582c-1.032-0.117-1.807,0.078-2.024,0.529c-0.244,0.503,0.035,1.544,1.041,2.555
		l35.181,42.571l35.363-42.298c1.074-1.074,1.359-2.112,1.118-2.617c-0.216-0.451-0.989-0.651-2.058-0.536l-16.992,2.479
		c-0.547,0.078-1.054-0.299-1.133-0.845c-0.08-0.547,0.299-1.055,0.844-1.135l17.029-2.483c2.765-0.293,3.758,0.912,4.115,1.659
		c0.665,1.395,0.096,3.291-1.451,4.829L289.2,109.77C289.01,109.996,288.729,110.127,288.433,110.127"/>
	<path clip-path="url(#SVGID_14_)" fill="#231F20" d="M53.567,110.127c-0.296,0-0.577-0.131-0.767-0.357L16.665,66.548
		c-1.485-1.47-2.054-3.366-1.389-4.761c0.356-0.747,1.356-1.958,4.078-1.663l17.065,2.487c0.546,0.08,0.925,0.588,0.845,1.135
		c-0.08,0.546-0.592,0.917-1.133,0.845l-17.029-2.483c-1.034-0.112-1.805,0.089-2.02,0.54c-0.242,0.505,0.044,1.544,1.055,2.55
		l35.427,42.365L88.682,65.06c1.068-1.079,1.347-2.119,1.103-2.623c-0.217-0.451-0.988-0.645-2.062-0.524L70.747,64.49
		c-0.544,0.086-1.056-0.293-1.139-0.839c-0.083-0.545,0.293-1.055,0.839-1.138l17.013-2.582c2.753-0.316,3.764,0.889,4.125,1.634
		c0.674,1.392,0.115,3.291-1.423,4.837l-35.823,43.362c-0.189,0.229-0.471,0.361-0.768,0.362H53.567z"/>
	<path clip-path="url(#SVGID_14_)" fill="#231F20" d="M102.728,155.529c-38.89,0-70.529-31.64-70.529-70.529h2
		c0,37.787,30.742,68.529,68.529,68.529c27.099,0,39.441-14.598,56.523-34.803c3.813-4.51,7.757-9.174,12.181-14.063l31.051-40.255
		c0.65-0.796,15.766-18.98,37.296-18.98c13.106,0,25.342,6.476,32.729,17.323l-1.652,1.126c-7.016-10.3-18.633-16.449-31.077-16.449
		c-20.593,0-35.581,18.041-35.729,18.224l-31.084,40.292c-4.452,4.926-8.385,9.577-12.187,14.075
		C143.349,140.634,130.755,155.529,102.728,155.529"/>
	<path clip-path="url(#SVGID_14_)" fill="#231F20" d="M102.728,124.573c-17.997,0-33.742-12.146-38.289-29.535l1.935-0.507
		c4.317,16.512,19.266,28.042,36.354,28.042c20.566,0,35.58-18.042,35.729-18.224l31.084-40.293
		c4.452-4.926,8.385-9.577,12.187-14.075c17.431-20.615,30.024-35.51,58.052-35.51c30.681,0,57.647,19.593,67.104,48.755
		l-1.902,0.618c-9.188-28.335-35.39-47.373-65.201-47.373c-27.1,0-39.441,14.598-56.523,34.802
		c-3.813,4.51-7.757,9.174-12.181,14.065l-31.052,40.255C139.372,106.39,124.258,124.573,102.728,124.573"/>
	<path clip-path="url(#SVGID_14_)" fill="#231F20" d="M239.779,124.573c-21.53,0-36.646-18.184-37.278-18.958l-15.432-20.001
		l1.584-1.222l15.414,19.981c0.131,0.158,15.146,18.2,35.712,18.2c16.865,0,31.764-11.344,36.231-27.587l1.928,0.531
		C273.234,112.626,257.542,124.573,239.779,124.573"/>
	<path clip-path="url(#SVGID_14_)" fill="#231F20" d="M170.607,64.422c-4.098-4.564-7.787-8.928-11.355-13.148
		c-17.082-20.205-29.425-34.803-56.524-34.803c-29.882,0-56.103,19.096-65.248,47.517l-1.904-0.612
		c9.412-29.251,36.399-48.905,67.152-48.905c28.027,0,40.621,14.895,58.051,35.511c3.558,4.21,7.239,8.562,11.316,13.104
		L170.607,64.422z"/>
</g>
</svg>
