<?xml version="1.0" encoding="utf-8"?>
<!-- Generator: Adobe Illustrator 16.0.4, SVG Export Plug-In . SVG Version: 6.00 Build 0)  -->
<!DOCTYPE svg PUBLIC "-//W3C//DTD SVG 1.1//EN" "http://www.w3.org/Graphics/SVG/1.1/DTD/svg11.dtd">
<svg version="1.1" id="Layer_1" xmlns="http://www.w3.org/2000/svg" xmlns:xlink="http://www.w3.org/1999/xlink" x="0px" y="0px"
	 width="144px" height="144px" viewBox="0 0 144 144" enable-background="new 0 0 144 144" xml:space="preserve">
<g>
	<defs>
		<path id="SVGID_1_" d="M53.957,23.171l-9.889,3.986c-0.721,0.29-1.196,0.999-1.196,1.788v58.317v32.861h58.256V87.262V28.923
			c0-0.782-0.451-1.492-1.153-1.815l-8.551-3.937H53.957z"/>
	</defs>
	<clipPath id="SVGID_2_">
		<use xlink:href="#SVGID_1_"  overflow="visible"/>
	</clipPath>
	
		<linearGradient id="SVGID_3_" gradientUnits="userSpaceOnUse" x1="0" y1="144.0156" x2="1" y2="144.0156" gradientTransform="matrix(75.1196 75.1196 75.1196 -75.1196 -10782.7236 10853.7822)">
		<stop  offset="0" style="stop-color:#E6E7E8"/>
		<stop  offset="0.5" style="stop-color:#F6F6F6"/>
		<stop  offset="1" style="stop-color:#CBCCCE"/>
	</linearGradient>
	<polygon clip-path="url(#SVGID_2_)" fill="url(#SVGID_3_)" points="72,-5.957 149.604,71.647 72,149.251 -5.604,71.647 	"/>
</g>
<g>
	<defs>
		<rect id="SVGID_4_" width="144" height="144"/>
	</defs>
	<clipPath id="SVGID_5_">
		<use xlink:href="#SVGID_4_"  overflow="visible"/>
	</clipPath>
	<path clip-path="url(#SVGID_5_)" fill="#6D6E70" d="M99.765,101.529c0,0.562-0.418,1.021-0.933,1.021H45.167
		c-0.514,0-0.932-0.458-0.932-1.021v-14.25c0-0.563,0.418-1.022,0.932-1.022h53.665c0.515,0,0.933,0.459,0.933,1.022V101.529z"/>
	<path clip-path="url(#SVGID_5_)" fill="#231F20" d="M49.291,113.172c0.761,0,1.376-0.615,1.376-1.375s-0.615-1.375-1.376-1.375
		c-0.759,0-1.375,0.615-1.375,1.375S48.532,113.172,49.291,113.172"/>
	<path clip-path="url(#SVGID_5_)" fill="#231F20" d="M54.17,113.172c0.759,0,1.375-0.615,1.375-1.375s-0.616-1.375-1.375-1.375
		c-0.76,0-1.375,0.615-1.375,1.375S53.41,113.172,54.17,113.172"/>
	<path clip-path="url(#SVGID_5_)" fill="#231F20" d="M93.501,116.219h2.998c0.276,0,0.501-0.224,0.501-0.5v-8
		c0-0.276-0.225-0.5-0.501-0.5h-2.998c-0.276,0-0.501,0.224-0.501,0.5v8C93,115.995,93.225,116.219,93.501,116.219 M94,108.219h2v7
		h-2V108.219z"/>
	<path clip-path="url(#SVGID_5_)" fill="#231F20" d="M87.5,116.219h3c0.276,0,0.5-0.224,0.5-0.5v-8c0-0.276-0.224-0.5-0.5-0.5h-3
		c-0.276,0-0.5,0.224-0.5,0.5v8C87,115.995,87.224,116.219,87.5,116.219 M88,108.219h2v7h-2V108.219z"/>
	<path clip-path="url(#SVGID_5_)" fill="#231F20" d="M71.387,67.234c0,0.276,0.224,0.5,0.5,0.5h1.005c0.276,0,0.501-0.224,0.501-0.5
		s-0.225-0.5-0.501-0.5h-1.005C71.611,66.734,71.387,66.958,71.387,67.234"/>
	<path clip-path="url(#SVGID_5_)" fill="#231F20" d="M81.954,44.16c0.276,0,0.5-0.224,0.5-0.5v-1.005c0-0.277-0.224-0.5-0.5-0.5
		s-0.5,0.223-0.5,0.5v1.005C81.454,43.936,81.678,44.16,81.954,44.16"/>
	<path clip-path="url(#SVGID_5_)" fill="#231F20" d="M73.833,35.719h1.005c0.276,0,0.5-0.224,0.5-0.5s-0.224-0.5-0.5-0.5h-1.005
		c-0.276,0-0.5,0.224-0.5,0.5S73.557,35.719,73.833,35.719"/>
	<path clip-path="url(#SVGID_5_)" fill="#231F20" d="M65.355,67.234c0,0.276,0.224,0.5,0.5,0.5h1.005c0.277,0,0.5-0.224,0.5-0.5
		s-0.223-0.5-0.5-0.5h-1.005C65.579,66.734,65.355,66.958,65.355,67.234"/>
	<path clip-path="url(#SVGID_5_)" fill="#231F20" d="M67.801,35.719h1.005c0.277,0,0.5-0.224,0.5-0.5s-0.223-0.5-0.5-0.5h-1.005
		c-0.276,0-0.5,0.224-0.5,0.5S67.525,35.719,67.801,35.719"/>
	<path clip-path="url(#SVGID_5_)" fill="#231F20" d="M68.371,67.234c0,0.276,0.224,0.5,0.5,0.5h1.005c0.277,0,0.5-0.224,0.5-0.5
		s-0.223-0.5-0.5-0.5h-1.005C68.595,66.734,68.371,66.958,68.371,67.234"/>
	<path clip-path="url(#SVGID_5_)" fill="#231F20" d="M70.816,35.719h1.005c0.277,0,0.5-0.224,0.5-0.5s-0.223-0.5-0.5-0.5h-1.005
		c-0.276,0-0.5,0.224-0.5,0.5S70.541,35.719,70.816,35.719"/>
	<path clip-path="url(#SVGID_5_)" fill="#231F20" d="M81.454,46.676c0,0.276,0.224,0.5,0.5,0.5s0.5-0.224,0.5-0.5v-1.005
		c0-0.277-0.224-0.5-0.5-0.5s-0.5,0.223-0.5,0.5V46.676z"/>
	<path clip-path="url(#SVGID_5_)" fill="#231F20" d="M81.954,41.144c0.276,0,0.5-0.224,0.5-0.5v-1.005c0-0.277-0.224-0.5-0.5-0.5
		s-0.5,0.223-0.5,0.5v1.005C81.454,40.92,81.678,41.144,81.954,41.144"/>
	<path clip-path="url(#SVGID_5_)" fill="#231F20" d="M81.954,38.128c0.276,0,0.5-0.224,0.5-0.5v-1.005c0-0.277-0.224-0.5-0.5-0.5
		s-0.5,0.223-0.5,0.5v1.005C81.454,37.904,81.678,38.128,81.954,38.128"/>
	<path clip-path="url(#SVGID_5_)" fill="#231F20" d="M81.954,48.187c-0.276,0-0.5,0.224-0.5,0.5v1.005c0,0.277,0.224,0.5,0.5,0.5
		s0.5-0.223,0.5-0.5v-1.005C82.454,48.411,82.23,48.187,81.954,48.187"/>
	<path clip-path="url(#SVGID_5_)" fill="#231F20" d="M76.849,35.719h1.006c0.276,0,0.5-0.224,0.5-0.5s-0.224-0.5-0.5-0.5h-1.006
		c-0.276,0-0.5,0.224-0.5,0.5S76.572,35.719,76.849,35.719"/>
	<path clip-path="url(#SVGID_5_)" fill="#231F20" d="M74.403,67.234c0,0.276,0.224,0.5,0.5,0.5h1.005c0.276,0,0.5-0.224,0.5-0.5
		s-0.224-0.5-0.5-0.5h-1.005C74.627,66.734,74.403,66.958,74.403,67.234"/>
	<path clip-path="url(#SVGID_5_)" fill="#231F20" d="M79.865,35.719h1.018c0.276,0,0.493-0.224,0.493-0.5s-0.229-0.5-0.506-0.5
		h-1.005c-0.276,0-0.5,0.224-0.5,0.5S79.589,35.719,79.865,35.719"/>
	<path clip-path="url(#SVGID_5_)" fill="#231F20" d="M49.697,48.24c0.276,0,0.5-0.224,0.5-0.5v-1.005c0-0.277-0.224-0.5-0.5-0.5
		s-0.5,0.223-0.5,0.5v1.005C49.197,48.016,49.421,48.24,49.697,48.24"/>
	<path clip-path="url(#SVGID_5_)" fill="#231F20" d="M52.72,35.719h1.005c0.277,0,0.5-0.224,0.5-0.5s-0.223-0.5-0.5-0.5H52.72
		c-0.276,0-0.5,0.224-0.5,0.5S52.444,35.719,52.72,35.719"/>
	<path clip-path="url(#SVGID_5_)" fill="#231F20" d="M49.697,63.32c0.276,0,0.5-0.224,0.5-0.5v-1.005c0-0.277-0.224-0.5-0.5-0.5
		s-0.5,0.223-0.5,0.5v1.005C49.197,63.096,49.421,63.32,49.697,63.32"/>
	<path clip-path="url(#SVGID_5_)" fill="#231F20" d="M50.278,67.234c0,0.276,0.227,0.5,0.503,0.5h0.999c0.276,0,0.5-0.224,0.5-0.5
		s-0.224-0.5-0.5-0.5h-1.005C50.499,66.734,50.278,66.958,50.278,67.234"/>
	<path clip-path="url(#SVGID_5_)" fill="#231F20" d="M55.736,35.719h1.005c0.277,0,0.5-0.224,0.5-0.5s-0.223-0.5-0.5-0.5h-1.005
		c-0.276,0-0.5,0.224-0.5,0.5S55.46,35.719,55.736,35.719"/>
	<path clip-path="url(#SVGID_5_)" fill="#231F20" d="M49.6,36.129c0.084,0.055,0.179,0.081,0.272,0.081
		c0.164,0,0.324-0.08,0.42-0.227c0.1-0.153,0.268-0.251,0.45-0.263c0.275-0.018,0.484-0.256,0.467-0.531
		c-0.018-0.276-0.257-0.484-0.531-0.467c-0.495,0.032-0.953,0.299-1.224,0.715C49.303,35.668,49.369,35.979,49.6,36.129"/>
	<path clip-path="url(#SVGID_5_)" fill="#231F20" d="M53.291,67.234c0,0.276,0.224,0.5,0.5,0.5h1.005c0.277,0,0.5-0.224,0.5-0.5
		s-0.223-0.5-0.5-0.5h-1.005C53.515,66.734,53.291,66.958,53.291,67.234"/>
	<path clip-path="url(#SVGID_5_)" fill="#231F20" d="M49.697,66.336c0.276,0,0.5-0.224,0.5-0.5v-1.005c0-0.277-0.224-0.5-0.5-0.5
		s-0.5,0.223-0.5,0.5v1.005C49.197,66.112,49.421,66.336,49.697,66.336"/>
	<path clip-path="url(#SVGID_5_)" fill="#231F20" d="M49.697,42.208c0.276,0,0.5-0.224,0.5-0.5v-1.005c0-0.277-0.224-0.5-0.5-0.5
		s-0.5,0.223-0.5,0.5v1.005C49.197,41.984,49.421,42.208,49.697,42.208"/>
	<path clip-path="url(#SVGID_5_)" fill="#231F20" d="M49.697,57.288c0.276,0,0.5-0.224,0.5-0.5v-1.005c0-0.277-0.224-0.5-0.5-0.5
		s-0.5,0.223-0.5,0.5v1.005C49.197,57.064,49.421,57.288,49.697,57.288"/>
	<path clip-path="url(#SVGID_5_)" fill="#231F20" d="M49.697,60.304c0.276,0,0.5-0.224,0.5-0.5v-1.005c0-0.277-0.224-0.5-0.5-0.5
		s-0.5,0.223-0.5,0.5v1.005C49.197,60.08,49.421,60.304,49.697,60.304"/>
	<path clip-path="url(#SVGID_5_)" fill="#231F20" d="M49.697,54.272c0.276,0,0.5-0.224,0.5-0.5v-1.005c0-0.277-0.224-0.5-0.5-0.5
		s-0.5,0.223-0.5,0.5v1.005C49.197,54.048,49.421,54.272,49.697,54.272"/>
	<path clip-path="url(#SVGID_5_)" fill="#231F20" d="M49.697,51.256c0.276,0,0.5-0.224,0.5-0.5v-1.005c0-0.276-0.224-0.5-0.5-0.5
		s-0.5,0.224-0.5,0.5v1.005C49.197,51.032,49.421,51.256,49.697,51.256"/>
	<path clip-path="url(#SVGID_5_)" fill="#231F20" d="M49.697,45.224c0.276,0,0.5-0.224,0.5-0.5v-1.005c0-0.277-0.224-0.5-0.5-0.5
		s-0.5,0.223-0.5,0.5v1.005C49.197,45,49.421,45.224,49.697,45.224"/>
	<path clip-path="url(#SVGID_5_)" fill="#231F20" d="M49.697,39.192c0.276,0,0.5-0.224,0.5-0.5v-1.005c0-0.277-0.224-0.5-0.5-0.5
		s-0.5,0.223-0.5,0.5v1.005C49.197,38.968,49.421,39.192,49.697,39.192"/>
	<path clip-path="url(#SVGID_5_)" fill="#231F20" d="M62.339,67.234c0,0.276,0.224,0.5,0.5,0.5h1.005c0.277,0,0.5-0.224,0.5-0.5
		s-0.223-0.5-0.5-0.5h-1.005C62.563,66.734,62.339,66.958,62.339,67.234"/>
	<path clip-path="url(#SVGID_5_)" fill="#231F20" d="M59.323,67.234c0,0.276,0.224,0.5,0.5,0.5h1.005c0.277,0,0.5-0.224,0.5-0.5
		s-0.223-0.5-0.5-0.5h-1.005C59.547,66.734,59.323,66.958,59.323,67.234"/>
	<path clip-path="url(#SVGID_5_)" fill="#231F20" d="M61.769,35.719h1.005c0.277,0,0.5-0.224,0.5-0.5s-0.223-0.5-0.5-0.5h-1.005
		c-0.276,0-0.5,0.224-0.5,0.5S61.493,35.719,61.769,35.719"/>
	<path clip-path="url(#SVGID_5_)" fill="#231F20" d="M64.785,35.719h1.005c0.277,0,0.5-0.224,0.5-0.5s-0.223-0.5-0.5-0.5h-1.005
		c-0.276,0-0.5,0.224-0.5,0.5S64.509,35.719,64.785,35.719"/>
	<path clip-path="url(#SVGID_5_)" fill="#231F20" d="M56.307,67.234c0,0.276,0.224,0.5,0.5,0.5h1.005c0.277,0,0.5-0.224,0.5-0.5
		s-0.223-0.5-0.5-0.5h-1.005C56.531,66.734,56.307,66.958,56.307,67.234"/>
	<path clip-path="url(#SVGID_5_)" fill="#231F20" d="M58.752,35.719h1.005c0.277,0,0.5-0.224,0.5-0.5s-0.223-0.5-0.5-0.5h-1.005
		c-0.276,0-0.5,0.224-0.5,0.5S58.477,35.719,58.752,35.719"/>
	<path clip-path="url(#SVGID_5_)" fill="#231F20" d="M87.696,71.015c0,0.276,0.224,0.5,0.5,0.5s0.5-0.224,0.5-0.5V70.01
		c0-0.277-0.224-0.5-0.5-0.5s-0.5,0.223-0.5,0.5V71.015z"/>
	<path clip-path="url(#SVGID_5_)" fill="#231F20" d="M88.196,44.371c0.276,0,0.5-0.224,0.5-0.5v-1.005c0-0.277-0.224-0.5-0.5-0.5
		s-0.5,0.223-0.5,0.5v1.005C87.696,44.147,87.92,44.371,88.196,44.371"/>
	<path clip-path="url(#SVGID_5_)" fill="#231F20" d="M87.207,73.974c0.493-0.028,0.952-0.293,1.227-0.707
		c0.153-0.23,0.091-0.54-0.14-0.692c-0.229-0.151-0.54-0.093-0.692,0.14c-0.104,0.155-0.269,0.251-0.453,0.262
		c-0.275,0.016-0.486,0.253-0.47,0.528c0.016,0.266,0.235,0.471,0.499,0.471C87.187,73.975,87.197,73.975,87.207,73.974"/>
	<path clip-path="url(#SVGID_5_)" fill="#231F20" d="M61.038,72.977h-1.005c-0.277,0-0.5,0.224-0.5,0.5s0.223,0.5,0.5,0.5h1.005
		c0.276,0,0.5-0.224,0.5-0.5S61.314,72.977,61.038,72.977"/>
	<path clip-path="url(#SVGID_5_)" fill="#231F20" d="M55.439,66.046c0,0.276,0.224,0.5,0.5,0.5s0.5-0.224,0.5-0.5v-1.005
		c0-0.277-0.224-0.5-0.5-0.5s-0.5,0.223-0.5,0.5V66.046z"/>
	<path clip-path="url(#SVGID_5_)" fill="#231F20" d="M58.022,72.977h-0.975c-0.292-0.03-0.531,0.212-0.53,0.499
		c0,0.225,0.148,0.414,0.351,0.478l1.154,0.023c0.276,0,0.5-0.224,0.5-0.5S58.298,72.977,58.022,72.977"/>
	<path clip-path="url(#SVGID_5_)" fill="#231F20" d="M64.054,73.977c0.276,0,0.5-0.224,0.5-0.5s-0.224-0.5-0.5-0.5h-1.005
		c-0.277,0-0.5,0.224-0.5,0.5s0.223,0.5,0.5,0.5H64.054z"/>
	<path clip-path="url(#SVGID_5_)" fill="#231F20" d="M87.696,68c0,0.276,0.224,0.5,0.5,0.5s0.5-0.224,0.5-0.5v-1.005
		c0-0.277-0.224-0.5-0.5-0.5s-0.5,0.223-0.5,0.5V68z"/>
	<path clip-path="url(#SVGID_5_)" fill="#231F20" d="M88.196,47.387c0.276,0,0.5-0.224,0.5-0.5v-1.005c0-0.277-0.224-0.5-0.5-0.5
		s-0.5,0.223-0.5,0.5v1.005C87.696,47.163,87.92,47.387,88.196,47.387"/>
	<path clip-path="url(#SVGID_5_)" fill="#231F20" d="M87.696,55.935c0,0.276,0.224,0.5,0.5,0.5s0.5-0.224,0.5-0.5V54.93
		c0-0.277-0.224-0.5-0.5-0.5s-0.5,0.223-0.5,0.5V55.935z"/>
	<path clip-path="url(#SVGID_5_)" fill="#231F20" d="M87.696,64.983c0,0.276,0.224,0.5,0.5,0.5s0.5-0.224,0.5-0.5v-1.005
		c0-0.277-0.224-0.5-0.5-0.5s-0.5,0.223-0.5,0.5V64.983z"/>
	<path clip-path="url(#SVGID_5_)" fill="#231F20" d="M88.196,50.403c0.276,0,0.5-0.224,0.5-0.5v-1.005c0-0.276-0.224-0.5-0.5-0.5
		s-0.5,0.224-0.5,0.5v1.005C87.696,50.179,87.92,50.403,88.196,50.403"/>
	<path clip-path="url(#SVGID_5_)" fill="#231F20" d="M67.07,73.977c0.276,0,0.5-0.224,0.5-0.5s-0.224-0.5-0.5-0.5h-1.005
		c-0.277,0-0.5,0.224-0.5,0.5s0.223,0.5,0.5,0.5H67.07z"/>
	<path clip-path="url(#SVGID_5_)" fill="#231F20" d="M87.696,52.919c0,0.276,0.224,0.5,0.5,0.5s0.5-0.224,0.5-0.5v-1.005
		c0-0.277-0.224-0.5-0.5-0.5s-0.5,0.223-0.5,0.5V52.919z"/>
	<path clip-path="url(#SVGID_5_)" fill="#231F20" d="M70.086,73.977c0.276,0,0.5-0.224,0.5-0.5s-0.224-0.5-0.5-0.5h-1.005
		c-0.277,0-0.5,0.224-0.5,0.5s0.223,0.5,0.5,0.5H70.086z"/>
	<path clip-path="url(#SVGID_5_)" fill="#231F20" d="M55.439,63.03c0,0.276,0.224,0.5,0.5,0.5s0.5-0.224,0.5-0.5v-1.005
		c0-0.277-0.224-0.5-0.5-0.5s-0.5,0.223-0.5,0.5V63.03z"/>
	<path clip-path="url(#SVGID_5_)" fill="#231F20" d="M76.118,73.977c0.276,0,0.5-0.224,0.5-0.5s-0.224-0.5-0.5-0.5h-1.006
		c-0.276,0-0.5,0.224-0.5,0.5s0.224,0.5,0.5,0.5H76.118z"/>
	<path clip-path="url(#SVGID_5_)" fill="#231F20" d="M87.696,61.967c0,0.276,0.224,0.5,0.5,0.5s0.5-0.224,0.5-0.5v-1.005
		c0-0.277-0.224-0.5-0.5-0.5s-0.5,0.223-0.5,0.5V61.967z"/>
	<path clip-path="url(#SVGID_5_)" fill="#231F20" d="M87.696,58.951c0,0.276,0.224,0.5,0.5,0.5s0.5-0.224,0.5-0.5v-1.005
		c0-0.277-0.224-0.5-0.5-0.5s-0.5,0.223-0.5,0.5V58.951z"/>
	<path clip-path="url(#SVGID_5_)" fill="#231F20" d="M73.102,73.977c0.276,0,0.5-0.224,0.5-0.5s-0.224-0.5-0.5-0.5h-1.005
		c-0.276,0-0.5,0.224-0.5,0.5s0.224,0.5,0.5,0.5H73.102z"/>
	<path clip-path="url(#SVGID_5_)" fill="#231F20" d="M80.075,40.961c-0.276,0-0.5,0.224-0.5,0.5c0,0.276,0.224,0.5,0.5,0.5h1.005
		c0.276,0,0.5-0.224,0.5-0.5c0-0.276-0.224-0.5-0.5-0.5H80.075z"/>
	<path clip-path="url(#SVGID_5_)" fill="#231F20" d="M77.059,40.961c-0.276,0-0.5,0.224-0.5,0.5c0,0.276,0.224,0.5,0.5,0.5h1.006
		c0.276,0,0.5-0.224,0.5-0.5c0-0.276-0.224-0.5-0.5-0.5H77.059z"/>
	<path clip-path="url(#SVGID_5_)" fill="#231F20" d="M55.939,70.573c-0.276,0-0.5,0.224-0.5,0.5v1.005c0,0.276,0.224,0.5,0.5,0.5
		s0.5-0.224,0.5-0.5v-1.005C56.439,70.797,56.215,70.573,55.939,70.573"/>
	<path clip-path="url(#SVGID_5_)" fill="#231F20" d="M55.939,67.557c-0.276,0-0.5,0.224-0.5,0.5v1.005c0,0.277,0.224,0.5,0.5,0.5
		s0.5-0.223,0.5-0.5v-1.005C56.439,67.781,56.215,67.557,55.939,67.557"/>
	<path clip-path="url(#SVGID_5_)" fill="#231F20" d="M55.439,47.95c0,0.276,0.224,0.5,0.5,0.5s0.5-0.224,0.5-0.5v-1.005
		c0-0.277-0.224-0.5-0.5-0.5s-0.5,0.223-0.5,0.5V47.95z"/>
	<path clip-path="url(#SVGID_5_)" fill="#231F20" d="M74.043,40.961c-0.276,0-0.5,0.224-0.5,0.5c0,0.276,0.224,0.5,0.5,0.5h1.005
		c0.276,0,0.5-0.224,0.5-0.5c0-0.276-0.224-0.5-0.5-0.5H74.043z"/>
	<path clip-path="url(#SVGID_5_)" fill="#231F20" d="M64.995,40.961c-0.276,0-0.5,0.224-0.5,0.5c0,0.276,0.224,0.5,0.5,0.5H66
		c0.277,0,0.5-0.224,0.5-0.5c0-0.276-0.223-0.5-0.5-0.5H64.995z"/>
	<path clip-path="url(#SVGID_5_)" fill="#231F20" d="M58.962,40.961c-0.276,0-0.5,0.224-0.5,0.5c0,0.276,0.224,0.5,0.5,0.5h1.005
		c0.277,0,0.5-0.224,0.5-0.5c0-0.276-0.223-0.5-0.5-0.5H58.962z"/>
	<path clip-path="url(#SVGID_5_)" fill="#231F20" d="M61.979,40.961c-0.276,0-0.5,0.224-0.5,0.5c0,0.276,0.224,0.5,0.5,0.5h1.005
		c0.277,0,0.5-0.224,0.5-0.5c0-0.276-0.223-0.5-0.5-0.5H61.979z"/>
	<path clip-path="url(#SVGID_5_)" fill="#231F20" d="M55.696,41.68c-0.151,0.231-0.085,0.541,0.146,0.692
		c0.084,0.055,0.179,0.081,0.272,0.081c0.164,0,0.324-0.08,0.42-0.227c0.099-0.153,0.268-0.252,0.45-0.263
		c0.275-0.018,0.484-0.256,0.467-0.531c-0.018-0.276-0.257-0.485-0.531-0.467C56.425,40.996,55.967,41.264,55.696,41.68"/>
	<path clip-path="url(#SVGID_5_)" fill="#231F20" d="M83.091,41.961h1.006c0.276,0,0.5-0.224,0.5-0.5c0-0.276-0.224-0.5-0.5-0.5
		h-1.006c-0.276,0-0.5,0.224-0.5,0.5C82.591,41.737,82.814,41.961,83.091,41.961"/>
	<path clip-path="url(#SVGID_5_)" fill="#231F20" d="M71.027,40.961c-0.276,0-0.5,0.224-0.5,0.5c0,0.276,0.224,0.5,0.5,0.5h1.005
		c0.276,0,0.5-0.224,0.5-0.5c0-0.276-0.224-0.5-0.5-0.5H71.027z"/>
	<path clip-path="url(#SVGID_5_)" fill="#231F20" d="M86.107,41.961h1.018c0.276,0,0.493-0.224,0.493-0.5
		c0-0.276-0.229-0.5-0.506-0.5h-1.005c-0.276,0-0.5,0.224-0.5,0.5C85.607,41.737,85.831,41.961,86.107,41.961"/>
	<path clip-path="url(#SVGID_5_)" fill="#231F20" d="M68.011,40.961c-0.276,0-0.5,0.224-0.5,0.5c0,0.276,0.224,0.5,0.5,0.5h1.005
		c0.277,0,0.5-0.224,0.5-0.5c0-0.276-0.223-0.5-0.5-0.5H68.011z"/>
	<path clip-path="url(#SVGID_5_)" fill="#231F20" d="M55.439,53.982c0,0.276,0.224,0.5,0.5,0.5s0.5-0.224,0.5-0.5v-1.005
		c0-0.277-0.224-0.5-0.5-0.5s-0.5,0.223-0.5,0.5V53.982z"/>
	<path clip-path="url(#SVGID_5_)" fill="#231F20" d="M55.939,45.434c0.276,0,0.5-0.224,0.5-0.5v-1.005c0-0.277-0.224-0.5-0.5-0.5
		s-0.5,0.223-0.5,0.5v1.005C55.439,45.21,55.664,45.434,55.939,45.434"/>
	<path clip-path="url(#SVGID_5_)" fill="#231F20" d="M55.439,56.998c0,0.276,0.224,0.5,0.5,0.5s0.5-0.224,0.5-0.5v-1.005
		c0-0.276-0.224-0.5-0.5-0.5s-0.5,0.224-0.5,0.5V56.998z"/>
	<path clip-path="url(#SVGID_5_)" fill="#231F20" d="M55.439,50.966c0,0.276,0.224,0.5,0.5,0.5s0.5-0.224,0.5-0.5v-1.005
		c0-0.277-0.224-0.5-0.5-0.5s-0.5,0.223-0.5,0.5V50.966z"/>
	<path clip-path="url(#SVGID_5_)" fill="#231F20" d="M55.439,60.014c0,0.276,0.224,0.5,0.5,0.5s0.5-0.224,0.5-0.5v-1.005
		c0-0.277-0.224-0.5-0.5-0.5s-0.5,0.223-0.5,0.5V60.014z"/>
	<path clip-path="url(#SVGID_5_)" fill="#231F20" d="M62.182,76.815c-0.276,0-0.5,0.224-0.5,0.5v1.006c0,0.276,0.224,0.5,0.5,0.5
		s0.5-0.224,0.5-0.5v-1.006C62.682,77.039,62.458,76.815,62.182,76.815"/>
	<path clip-path="url(#SVGID_5_)" fill="#231F20" d="M67.28,79.219h-1.005c-0.277,0-0.5,0.224-0.5,0.5s0.223,0.5,0.5,0.5h1.005
		c0.276,0,0.5-0.224,0.5-0.5S67.556,79.219,67.28,79.219"/>
	<path clip-path="url(#SVGID_5_)" fill="#231F20" d="M62.182,73.8c-0.276,0-0.5,0.224-0.5,0.5v1.005c0,0.276,0.224,0.5,0.5,0.5
		s0.5-0.224,0.5-0.5V74.3C62.682,74.023,62.458,73.8,62.182,73.8"/>
	<path clip-path="url(#SVGID_5_)" fill="#231F20" d="M61.682,69.273c0,0.276,0.224,0.5,0.5,0.5s0.5-0.224,0.5-0.5v-1.005
		c0-0.277-0.224-0.5-0.5-0.5s-0.5,0.223-0.5,0.5V69.273z"/>
	<path clip-path="url(#SVGID_5_)" fill="#231F20" d="M70.296,79.219h-1.005c-0.277,0-0.5,0.224-0.5,0.5s0.223,0.5,0.5,0.5h1.005
		c0.276,0,0.5-0.224,0.5-0.5S70.572,79.219,70.296,79.219"/>
	<path clip-path="url(#SVGID_5_)" fill="#231F20" d="M61.682,66.257c0,0.276,0.224,0.5,0.5,0.5s0.5-0.224,0.5-0.5v-1.005
		c0-0.277-0.224-0.5-0.5-0.5s-0.5,0.223-0.5,0.5V66.257z"/>
	<path clip-path="url(#SVGID_5_)" fill="#231F20" d="M64.264,79.219h-1.005c-0.276,0-0.497,0.224-0.497,0.5s0.227,0.5,0.503,0.5
		h0.999c0.276,0,0.5-0.224,0.5-0.5S64.54,79.219,64.264,79.219"/>
	<path clip-path="url(#SVGID_5_)" fill="#231F20" d="M61.682,72.288c0,0.276,0.224,0.5,0.5,0.5s0.5-0.224,0.5-0.5v-1.004
		c0-0.276-0.224-0.5-0.5-0.5s-0.5,0.224-0.5,0.5V72.288z"/>
	<path clip-path="url(#SVGID_5_)" fill="#231F20" d="M61.682,63.241c0,0.276,0.224,0.5,0.5,0.5s0.5-0.224,0.5-0.5v-1.005
		c0-0.277-0.224-0.5-0.5-0.5s-0.5,0.223-0.5,0.5V63.241z"/>
	<path clip-path="url(#SVGID_5_)" fill="#231F20" d="M61.682,54.192c0,0.276,0.224,0.5,0.5,0.5s0.5-0.224,0.5-0.5v-1.005
		c0-0.277-0.224-0.5-0.5-0.5s-0.5,0.223-0.5,0.5V54.192z"/>
	<path clip-path="url(#SVGID_5_)" fill="#231F20" d="M62.182,51.676c0.276,0,0.5-0.224,0.5-0.5v-1.005c0-0.276-0.224-0.5-0.5-0.5
		s-0.5,0.224-0.5,0.5v1.005C61.682,51.452,61.906,51.676,62.182,51.676"/>
	<path clip-path="url(#SVGID_5_)" fill="#231F20" d="M61.682,60.225c0,0.276,0.224,0.5,0.5,0.5s0.5-0.224,0.5-0.5V59.22
		c0-0.277-0.224-0.5-0.5-0.5s-0.5,0.223-0.5,0.5V60.225z"/>
	<path clip-path="url(#SVGID_5_)" fill="#231F20" d="M61.682,57.208c0,0.276,0.224,0.5,0.5,0.5s0.5-0.224,0.5-0.5v-1.005
		c0-0.277-0.224-0.5-0.5-0.5s-0.5,0.223-0.5,0.5V57.208z"/>
	<path clip-path="url(#SVGID_5_)" fill="#231F20" d="M68.221,47.203c-0.276,0-0.5,0.224-0.5,0.5s0.224,0.5,0.5,0.5h1.005
		c0.277,0,0.5-0.224,0.5-0.5s-0.223-0.5-0.5-0.5H68.221z"/>
	<path clip-path="url(#SVGID_5_)" fill="#231F20" d="M87.388,79.219c-0.276,0-0.5,0.224-0.5,0.5s0.224,0.5,0.5,0.5h1.005
		c0.276,0,0.5-0.224,0.5-0.5s-0.224-0.5-0.5-0.5H87.388z"/>
	<path clip-path="url(#SVGID_5_)" fill="#231F20" d="M86.317,47.203c-0.276,0-0.5,0.224-0.5,0.5s0.224,0.5,0.5,0.5h1.005
		c0.276,0,0.5-0.224,0.5-0.5s-0.224-0.5-0.5-0.5H86.317z"/>
	<path clip-path="url(#SVGID_5_)" fill="#231F20" d="M89.333,48.203h1.006c0.276,0,0.5-0.224,0.5-0.5s-0.224-0.5-0.5-0.5h-1.006
		c-0.276,0-0.5,0.224-0.5,0.5S89.057,48.203,89.333,48.203"/>
	<path clip-path="url(#SVGID_5_)" fill="#231F20" d="M94.438,74.741c0.276,0,0.5-0.224,0.5-0.5v-1.006c0-0.276-0.224-0.5-0.5-0.5
		s-0.5,0.224-0.5,0.5v1.006C93.938,74.518,94.162,74.741,94.438,74.741"/>
	<path clip-path="url(#SVGID_5_)" fill="#231F20" d="M89.903,79.719c0,0.276,0.224,0.5,0.5,0.5h1.006c0.276,0,0.5-0.224,0.5-0.5
		s-0.224-0.5-0.5-0.5h-1.006C90.127,79.219,89.903,79.442,89.903,79.719"/>
	<path clip-path="url(#SVGID_5_)" fill="#231F20" d="M94.438,77.757c0.276,0,0.5-0.225,0.5-0.5v-1.005c0-0.276-0.224-0.5-0.5-0.5
		s-0.5,0.224-0.5,0.5v1.005C93.938,77.532,94.162,77.757,94.438,77.757"/>
	<path clip-path="url(#SVGID_5_)" fill="#231F20" d="M92.35,48.203h1.019c0.276,0,0.493-0.224,0.493-0.5s-0.23-0.5-0.507-0.5H92.35
		c-0.276,0-0.5,0.224-0.5,0.5S92.073,48.203,92.35,48.203"/>
	<path clip-path="url(#SVGID_5_)" fill="#231F20" d="M83.301,47.203c-0.276,0-0.5,0.224-0.5,0.5s0.224,0.5,0.5,0.5h1.006
		c0.276,0,0.5-0.224,0.5-0.5s-0.224-0.5-0.5-0.5H83.301z"/>
	<path clip-path="url(#SVGID_5_)" fill="#231F20" d="M65.205,47.203c-0.276,0-0.5,0.224-0.5,0.5s0.224,0.5,0.5,0.5h1.005
		c0.277,0,0.5-0.224,0.5-0.5s-0.223-0.5-0.5-0.5H65.205z"/>
	<path clip-path="url(#SVGID_5_)" fill="#231F20" d="M80.285,47.203c-0.276,0-0.5,0.224-0.5,0.5s0.224,0.5,0.5,0.5h1.005
		c0.276,0,0.5-0.224,0.5-0.5s-0.224-0.5-0.5-0.5H80.285z"/>
	<path clip-path="url(#SVGID_5_)" fill="#231F20" d="M61.939,47.921c-0.151,0.231-0.086,0.541,0.145,0.692
		c0.084,0.055,0.179,0.081,0.273,0.081c0.163,0,0.323-0.079,0.419-0.226c0.1-0.153,0.268-0.252,0.45-0.264
		c0.275-0.017,0.484-0.255,0.467-0.531c-0.018-0.275-0.245-0.484-0.531-0.467C62.668,47.238,62.21,47.505,61.939,47.921"/>
	<path clip-path="url(#SVGID_5_)" fill="#231F20" d="M71.237,47.203c-0.276,0-0.5,0.224-0.5,0.5s0.224,0.5,0.5,0.5h1.005
		c0.276,0,0.5-0.224,0.5-0.5s-0.224-0.5-0.5-0.5H71.237z"/>
	<path clip-path="url(#SVGID_5_)" fill="#231F20" d="M74.253,47.203c-0.276,0-0.5,0.224-0.5,0.5s0.224,0.5,0.5,0.5h1.005
		c0.276,0,0.5-0.224,0.5-0.5s-0.224-0.5-0.5-0.5H74.253z"/>
	<path clip-path="url(#SVGID_5_)" fill="#231F20" d="M77.269,47.203c-0.276,0-0.5,0.224-0.5,0.5s0.224,0.5,0.5,0.5h1.006
		c0.276,0,0.5-0.224,0.5-0.5s-0.224-0.5-0.5-0.5H77.269z"/>
	<path clip-path="url(#SVGID_5_)" fill="#231F20" d="M76.328,79.219h-1.005c-0.276,0-0.5,0.224-0.5,0.5s0.224,0.5,0.5,0.5h1.005
		c0.276,0,0.5-0.224,0.5-0.5S76.604,79.219,76.328,79.219"/>
	<path clip-path="url(#SVGID_5_)" fill="#231F20" d="M85.377,79.219h-1.006c-0.276,0-0.5,0.224-0.5,0.5s0.224,0.5,0.5,0.5h1.006
		c0.276,0,0.5-0.224,0.5-0.5S85.653,79.219,85.377,79.219"/>
	<path clip-path="url(#SVGID_5_)" fill="#231F20" d="M93.843,78.955c-0.104,0.156-0.268,0.252-0.452,0.263
		c-0.275,0.016-0.485,0.253-0.47,0.528c0.016,0.266,0.235,0.471,0.499,0.471c0.01,0,0.02,0,0.029-0.001
		c0.494-0.029,0.953-0.294,1.228-0.708c0.152-0.23,0.089-0.541-0.141-0.693C94.308,78.662,93.996,78.726,93.843,78.955"/>
	<path clip-path="url(#SVGID_5_)" fill="#231F20" d="M94.438,50.613c0.276,0,0.5-0.224,0.5-0.5v-1.005c0-0.277-0.224-0.5-0.5-0.5
		s-0.5,0.223-0.5,0.5v1.005C93.938,50.389,94.162,50.613,94.438,50.613"/>
	<path clip-path="url(#SVGID_5_)" fill="#231F20" d="M73.312,79.219h-1.005c-0.277,0-0.5,0.224-0.5,0.5s0.223,0.5,0.5,0.5h1.005
		c0.276,0,0.5-0.224,0.5-0.5S73.589,79.219,73.312,79.219"/>
	<path clip-path="url(#SVGID_5_)" fill="#231F20" d="M94.438,71.725c0.276,0,0.5-0.224,0.5-0.5V70.22c0-0.277-0.224-0.5-0.5-0.5
		s-0.5,0.223-0.5,0.5v1.005C93.938,71.501,94.162,71.725,94.438,71.725"/>
	<path clip-path="url(#SVGID_5_)" fill="#231F20" d="M79.345,79.219h-1.006c-0.276,0-0.5,0.224-0.5,0.5s0.224,0.5,0.5,0.5h1.006
		c0.276,0,0.5-0.224,0.5-0.5S79.621,79.219,79.345,79.219"/>
	<path clip-path="url(#SVGID_5_)" fill="#231F20" d="M82.36,79.219h-1.005c-0.276,0-0.5,0.224-0.5,0.5s0.224,0.5,0.5,0.5h1.005
		c0.276,0,0.5-0.224,0.5-0.5S82.637,79.219,82.36,79.219"/>
	<path clip-path="url(#SVGID_5_)" fill="#231F20" d="M94.438,53.629c0.276,0,0.5-0.224,0.5-0.5v-1.005c0-0.277-0.224-0.5-0.5-0.5
		s-0.5,0.223-0.5,0.5v1.005C93.938,53.405,94.162,53.629,94.438,53.629"/>
	<path clip-path="url(#SVGID_5_)" fill="#231F20" d="M94.438,59.661c0.276,0,0.5-0.224,0.5-0.5v-1.005c0-0.277-0.224-0.5-0.5-0.5
		s-0.5,0.223-0.5,0.5v1.005C93.938,59.437,94.162,59.661,94.438,59.661"/>
	<path clip-path="url(#SVGID_5_)" fill="#231F20" d="M94.438,56.645c0.276,0,0.5-0.224,0.5-0.5V55.14c0-0.277-0.224-0.5-0.5-0.5
		s-0.5,0.223-0.5,0.5v1.005C93.938,56.421,94.162,56.645,94.438,56.645"/>
	<path clip-path="url(#SVGID_5_)" fill="#231F20" d="M94.438,62.677c0.276,0,0.5-0.224,0.5-0.5v-1.005c0-0.277-0.224-0.5-0.5-0.5
		s-0.5,0.223-0.5,0.5v1.005C93.938,62.453,94.162,62.677,94.438,62.677"/>
	<path clip-path="url(#SVGID_5_)" fill="#231F20" d="M94.438,68.709c0.276,0,0.5-0.224,0.5-0.5v-1.005c0-0.277-0.224-0.5-0.5-0.5
		s-0.5,0.223-0.5,0.5v1.005C93.938,68.485,94.162,68.709,94.438,68.709"/>
	<path clip-path="url(#SVGID_5_)" fill="#231F20" d="M94.438,65.693c0.276,0,0.5-0.224,0.5-0.5v-1.005c0-0.277-0.224-0.5-0.5-0.5
		s-0.5,0.223-0.5,0.5v1.005C93.938,65.469,94.162,65.693,94.438,65.693"/>
	<path clip-path="url(#SVGID_5_)" fill="#231F20" d="M82.454,51.776v-0.073c0-0.276-0.224-0.5-0.5-0.5
		c-0.07,0-0.137,0.015-0.197,0.041c-0.032-0.008-0.063-0.017-0.1-0.017c-0.078,0-0.149,0.021-0.215,0.052
		c-0.479,0.074-0.853,0.47-0.853,0.971l-0.001,13.735h-1.991l0.446,0.773c-0.039-0.01-0.077-0.024-0.119-0.024h-1.006
		c-0.276,0-0.5,0.224-0.5,0.5c0,0.276,0.224,0.5,0.5,0.5h1.006c0.229,0,0.412-0.156,0.473-0.364l2.191,3.796l2.993-5.181h-1.993
		V52.25C82.589,52.075,82.533,51.919,82.454,51.776"/>
	<path clip-path="url(#SVGID_5_)" fill="#231F20" d="M78.437,72.499c-0.276,0-0.526,0.112-0.707,0.293
		c-0.094,0.094-0.166,0.206-0.217,0.33c-0.108,0.092-0.18,0.225-0.18,0.377c0,0.153,0.071,0.285,0.18,0.376
		c0.148,0.366,0.505,0.624,0.924,0.624h6.305c0.554,0,1-0.446,1-1c0-0.552-0.446-1-1-1H78.437z"/>
	<path clip-path="url(#SVGID_5_)" fill="#231F20" d="M42.235,103.322v0.248v16.559c0,0.551,0.447,1,1,1h57.529
		c0.554,0,1.001-0.449,1.001-1V103.57v-2.041v-14.25V29.466c0-1.151-0.678-2.201-1.726-2.677l-8.642-3.918H53.99l-9.942,3.946
		c-1.101,0.437-1.813,1.485-1.813,2.67v57.792v14.25V103.322z M54.373,24.871h36.593l7.975,3.616H45.264L54.373,24.871z
		 M44.235,30.487h55.53v53.941c-0.295-0.103-0.604-0.172-0.933-0.172H45.168c-0.328,0-0.638,0.069-0.933,0.172V30.487z
		 M44.235,87.279c0-0.564,0.419-1.023,0.933-1.023h53.664c0.515,0,0.933,0.459,0.933,1.023v13.927v0.323
		c0,0.562-0.418,1.021-0.933,1.021H45.168c-0.514,0-0.933-0.458-0.933-1.021v-0.233V87.279z M99.765,119.129h-55.53V104.57h55.53
		V119.129z"/>
	<path clip-path="url(#SVGID_5_)" fill="#231F20" d="M73.362,122.808h-2.005c-0.414,0-0.75,0.336-0.75,0.75s0.336,0.75,0.75,0.75
		h2.005c0.414,0,0.75-0.336,0.75-0.75S73.776,122.808,73.362,122.808"/>
	<path clip-path="url(#SVGID_5_)" fill="#231F20" d="M78.376,122.808h-2.005c-0.414,0-0.75,0.336-0.75,0.75s0.336,0.75,0.75,0.75
		h2.005c0.414,0,0.75-0.336,0.75-0.75S78.79,122.808,78.376,122.808"/>
	<path clip-path="url(#SVGID_5_)" fill="#231F20" d="M39.717,26.498c-0.354-0.215-0.815-0.102-1.03,0.252
		c-0.403,0.663-0.661,1.419-0.749,2.186c-0.048,0.412,0.248,0.784,0.659,0.831c0.03,0.003,0.059,0.004,0.087,0.004
		c0.376,0,0.7-0.282,0.744-0.664c0.063-0.554,0.25-1.1,0.541-1.579C40.185,27.174,40.071,26.713,39.717,26.498"/>
	<path clip-path="url(#SVGID_5_)" fill="#231F20" d="M58.321,122.808h-2.005c-0.414,0-0.75,0.336-0.75,0.75s0.336,0.75,0.75,0.75
		h2.005c0.414,0,0.75-0.336,0.75-0.75S58.735,122.808,58.321,122.808"/>
	<path clip-path="url(#SVGID_5_)" fill="#231F20" d="M48.294,122.808h-2.005c-0.414,0-0.75,0.336-0.75,0.75s0.336,0.75,0.75,0.75
		h2.005c0.414,0,0.75-0.336,0.75-0.75S48.708,122.808,48.294,122.808"/>
	<path clip-path="url(#SVGID_5_)" fill="#231F20" d="M43.236,122.808c-0.567,0-1.114-0.121-1.624-0.359
		c-0.375-0.177-0.821-0.014-0.997,0.36c-0.176,0.376-0.014,0.822,0.361,0.998c0.711,0.332,1.471,0.501,2.26,0.501h0.044
		c0.414,0,0.728-0.336,0.728-0.75S43.649,122.808,43.236,122.808"/>
	<path clip-path="url(#SVGID_5_)" fill="#231F20" d="M83.39,122.808h-2.005c-0.414,0-0.75,0.336-0.75,0.75s0.336,0.75,0.75,0.75
		h2.005c0.414,0,0.75-0.336,0.75-0.75S83.804,122.808,83.39,122.808"/>
	<path clip-path="url(#SVGID_5_)" fill="#231F20" d="M53.308,122.808h-2.006c-0.414,0-0.75,0.336-0.75,0.75s0.336,0.75,0.75,0.75
		h2.006c0.414,0,0.75-0.336,0.75-0.75S53.722,122.808,53.308,122.808"/>
	<path clip-path="url(#SVGID_5_)" fill="#231F20" d="M63.335,122.808H61.33c-0.414,0-0.75,0.336-0.75,0.75s0.336,0.75,0.75,0.75
		h2.005c0.414,0,0.75-0.336,0.75-0.75S63.749,122.808,63.335,122.808"/>
	<path clip-path="url(#SVGID_5_)" fill="#231F20" d="M105.364,117.739c-0.414,0-0.75,0.336-0.75,0.75v0.469
		c0,0.432-0.07,0.856-0.212,1.262c-0.137,0.391,0.07,0.818,0.462,0.955c0.081,0.027,0.164,0.042,0.246,0.042
		c0.312,0,0.602-0.195,0.708-0.504c0.196-0.564,0.296-1.154,0.296-1.755v-0.469C106.114,118.075,105.778,117.739,105.364,117.739"/>
	<path clip-path="url(#SVGID_5_)" fill="#231F20" d="M88.403,122.808h-2.005c-0.414,0-0.75,0.336-0.75,0.75s0.336,0.75,0.75,0.75
		h2.005c0.414,0,0.75-0.336,0.75-0.75S88.817,122.808,88.403,122.808"/>
	<path clip-path="url(#SVGID_5_)" fill="#231F20" d="M105.364,107.712c-0.414,0-0.75,0.336-0.75,0.75v2.006
		c0,0.414,0.336,0.75,0.75,0.75s0.75-0.336,0.75-0.75v-2.006C106.114,108.048,105.778,107.712,105.364,107.712"/>
	<path clip-path="url(#SVGID_5_)" fill="#231F20" d="M105.364,102.698c-0.414,0-0.75,0.336-0.75,0.75v2.005
		c0,0.414,0.336,0.75,0.75,0.75s0.75-0.336,0.75-0.75v-2.005C106.114,103.034,105.778,102.698,105.364,102.698"/>
	<path clip-path="url(#SVGID_5_)" fill="#231F20" d="M105.364,112.726c-0.414,0-0.75,0.336-0.75,0.75v2.006
		c0,0.414,0.336,0.75,0.75,0.75s0.75-0.336,0.75-0.75v-2.006C106.114,113.062,105.778,112.726,105.364,112.726"/>
	<path clip-path="url(#SVGID_5_)" fill="#231F20" d="M93.417,122.808h-2.005c-0.414,0-0.75,0.336-0.75,0.75s0.336,0.75,0.75,0.75
		h2.005c0.414,0,0.75-0.336,0.75-0.75S93.831,122.808,93.417,122.808"/>
	<path clip-path="url(#SVGID_5_)" fill="#231F20" d="M98.432,122.808h-2.006c-0.414,0-0.75,0.336-0.75,0.75s0.336,0.75,0.75,0.75
		h2.006c0.414,0,0.75-0.336,0.75-0.75S98.846,122.808,98.432,122.808"/>
	<path clip-path="url(#SVGID_5_)" fill="#231F20" d="M102.881,122.171c-0.473,0.312-0.996,0.512-1.556,0.595
		c-0.409,0.061-0.692,0.442-0.632,0.853c0.056,0.372,0.376,0.64,0.742,0.64c0.036,0,0.072-0.003,0.11-0.008
		c0.777-0.115,1.505-0.393,2.161-0.827c0.346-0.229,0.442-0.692,0.213-1.039C103.692,122.039,103.228,121.942,102.881,122.171"/>
	<path clip-path="url(#SVGID_5_)" fill="#231F20" d="M68.349,122.808h-2.005c-0.414,0-0.75,0.336-0.75,0.75s0.336,0.75,0.75,0.75
		h2.005c0.414,0,0.75-0.336,0.75-0.75S68.763,122.808,68.349,122.808"/>
	<path clip-path="url(#SVGID_5_)" fill="#231F20" d="M75.736,21.192h2.005c0.414,0,0.75-0.336,0.75-0.75s-0.336-0.75-0.75-0.75
		h-2.005c-0.414,0-0.75,0.336-0.75,0.75S75.322,21.192,75.736,21.192"/>
	<path clip-path="url(#SVGID_5_)" fill="#231F20" d="M85.764,21.192h2.005c0.414,0,0.75-0.336,0.75-0.75s-0.336-0.75-0.75-0.75
		h-2.005c-0.414,0-0.75,0.336-0.75,0.75S85.35,21.192,85.764,21.192"/>
	<path clip-path="url(#SVGID_5_)" fill="#231F20" d="M65.708,21.192h2.005c0.414,0,0.75-0.336,0.75-0.75s-0.336-0.75-0.75-0.75
		h-2.005c-0.414,0-0.75,0.336-0.75,0.75S65.295,21.192,65.708,21.192"/>
	<path clip-path="url(#SVGID_5_)" fill="#231F20" d="M70.722,21.192h2.005c0.414,0,0.75-0.336,0.75-0.75s-0.336-0.75-0.75-0.75
		h-2.005c-0.414,0-0.75,0.336-0.75,0.75S70.309,21.192,70.722,21.192"/>
	<path clip-path="url(#SVGID_5_)" fill="#231F20" d="M80.75,21.192h2.005c0.414,0,0.75-0.336,0.75-0.75s-0.336-0.75-0.75-0.75H80.75
		c-0.414,0-0.75,0.336-0.75,0.75S80.336,21.192,80.75,21.192"/>
	<path clip-path="url(#SVGID_5_)" fill="#231F20" d="M99.677,24.724l1.801,0.881c0.106,0.052,0.22,0.076,0.329,0.076
		c0.277,0,0.545-0.154,0.676-0.42c0.181-0.372,0.027-0.821-0.345-1.003l-1.801-0.882c-0.375-0.181-0.822-0.027-1.004,0.345
		C99.152,24.092,99.305,24.542,99.677,24.724"/>
	<path clip-path="url(#SVGID_5_)" fill="#231F20" d="M90.777,21.192h0.793c0.337,0,0.674,0.045,1.003,0.134
		c0.065,0.017,0.131,0.026,0.195,0.026c0.331,0,0.634-0.221,0.724-0.555c0.108-0.4-0.128-0.812-0.527-0.919
		c-0.457-0.123-0.926-0.186-1.395-0.186h-0.793c-0.414,0-0.75,0.336-0.75,0.75S90.363,21.192,90.777,21.192"/>
	<path clip-path="url(#SVGID_5_)" fill="#231F20" d="M104.467,28.55c0.089,0.336,0.394,0.559,0.726,0.559
		c0.062,0,0.128-0.008,0.191-0.025c0.4-0.106,0.641-0.516,0.534-0.917c-0.198-0.75-0.564-1.461-1.058-2.057
		c-0.267-0.319-0.739-0.362-1.057-0.098c-0.318,0.265-0.362,0.737-0.099,1.056C104.061,27.497,104.324,28.009,104.467,28.55"/>
	<path clip-path="url(#SVGID_5_)" fill="#231F20" d="M95.174,22.52l1.802,0.881c0.105,0.052,0.219,0.077,0.328,0.077
		c0.278,0,0.545-0.155,0.675-0.421c0.182-0.372,0.027-0.821-0.345-1.003l-1.802-0.882c-0.37-0.181-0.821-0.026-1.003,0.345
		C94.648,21.888,94.802,22.337,95.174,22.52"/>
	<path clip-path="url(#SVGID_5_)" fill="#231F20" d="M38.636,111.893c0.414,0,0.75-0.336,0.75-0.75v-2.005
		c0-0.414-0.336-0.75-0.75-0.75c-0.414,0-0.75,0.336-0.75,0.75v2.005C37.886,111.557,38.222,111.893,38.636,111.893"/>
	<path clip-path="url(#SVGID_5_)" fill="#231F20" d="M41.593,25.992c0.098,0,0.197-0.019,0.293-0.06l1.845-0.785
		c0.382-0.162,0.559-0.603,0.397-0.984s-0.602-0.561-0.984-0.396l-1.845,0.785c-0.381,0.162-0.559,0.603-0.397,0.983
		C41.024,25.82,41.301,25.992,41.593,25.992"/>
	<path clip-path="url(#SVGID_5_)" fill="#231F20" d="M38.636,106.88c0.414,0,0.75-0.336,0.75-0.75v-2.007
		c0-0.413-0.336-0.75-0.75-0.75c-0.414,0-0.75,0.337-0.75,0.75v2.007C37.886,106.544,38.222,106.88,38.636,106.88"/>
	<path clip-path="url(#SVGID_5_)" fill="#231F20" d="M39.389,119.131c-0.018-0.414-0.383-0.761-0.782-0.716
		c-0.414,0.019-0.735,0.368-0.716,0.782c0.035,0.788,0.237,1.539,0.602,2.235c0.134,0.257,0.395,0.402,0.665,0.402
		c0.117,0,0.236-0.027,0.348-0.086c0.366-0.191,0.508-0.644,0.316-1.011C39.561,120.236,39.415,119.696,39.389,119.131"/>
	<path clip-path="url(#SVGID_5_)" fill="#231F20" d="M38.636,116.907c0.414,0,0.75-0.336,0.75-0.75v-2.006
		c0-0.414-0.336-0.75-0.75-0.75c-0.414,0-0.75,0.336-0.75,0.75v2.006C37.886,116.571,38.222,116.907,38.636,116.907"/>
	<path clip-path="url(#SVGID_5_)" fill="#231F20" d="M105.364,92.779c-0.414,0-0.75,0.336-0.75,0.75v2.006
		c0,0.414,0.336,0.75,0.75,0.75s0.75-0.336,0.75-0.75v-2.006C106.114,93.115,105.778,92.779,105.364,92.779"/>
	<path clip-path="url(#SVGID_5_)" fill="#231F20" d="M105.364,87.766c-0.414,0-0.75,0.336-0.75,0.75v2.005
		c0,0.414,0.336,0.75,0.75,0.75s0.75-0.336,0.75-0.75v-2.005C106.114,88.102,105.778,87.766,105.364,87.766"/>
	<path clip-path="url(#SVGID_5_)" fill="#231F20" d="M105.364,97.793c-0.414,0-0.75,0.336-0.75,0.75v2.006
		c0,0.414,0.336,0.75,0.75,0.75s0.75-0.336,0.75-0.75v-2.006C106.114,98.129,105.778,97.793,105.364,97.793"/>
	<path clip-path="url(#SVGID_5_)" fill="#231F20" d="M38.636,96.96c0.414,0,0.75-0.336,0.75-0.75v-2.005
		c0-0.414-0.336-0.75-0.75-0.75c-0.414,0-0.75,0.336-0.75,0.75v2.005C37.886,96.624,38.222,96.96,38.636,96.96"/>
	<path clip-path="url(#SVGID_5_)" fill="#231F20" d="M38.636,91.947c0.414,0,0.75-0.336,0.75-0.75V89.19
		c0-0.413-0.336-0.75-0.75-0.75c-0.414,0-0.75,0.337-0.75,0.75v2.007C37.886,91.611,38.222,91.947,38.636,91.947"/>
	<path clip-path="url(#SVGID_5_)" fill="#231F20" d="M38.636,101.975c0.414,0,0.75-0.336,0.75-0.75v-2.006
		c0-0.414-0.336-0.75-0.75-0.75c-0.414,0-0.75,0.336-0.75,0.75v2.006C37.886,101.639,38.222,101.975,38.636,101.975"/>
	<path clip-path="url(#SVGID_5_)" fill="#231F20" d="M105.364,77.847c-0.414,0-0.75,0.336-0.75,0.75v2.006
		c0,0.414,0.336,0.75,0.75,0.75s0.75-0.336,0.75-0.75v-2.006C106.114,78.183,105.778,77.847,105.364,77.847"/>
	<path clip-path="url(#SVGID_5_)" fill="#231F20" d="M105.364,72.833c-0.414,0-0.75,0.336-0.75,0.75v2.005
		c0,0.414,0.336,0.75,0.75,0.75s0.75-0.336,0.75-0.75v-2.005C106.114,73.169,105.778,72.833,105.364,72.833"/>
	<path clip-path="url(#SVGID_5_)" fill="#231F20" d="M105.364,82.86c-0.414,0-0.75,0.336-0.75,0.75v2.006
		c0,0.414,0.336,0.75,0.75,0.75s0.75-0.336,0.75-0.75V83.61C106.114,83.196,105.778,82.86,105.364,82.86"/>
	<path clip-path="url(#SVGID_5_)" fill="#231F20" d="M38.636,82.027c0.414,0,0.75-0.336,0.75-0.75v-2.005
		c0-0.414-0.336-0.75-0.75-0.75c-0.414,0-0.75,0.336-0.75,0.75v2.005C37.886,81.691,38.222,82.027,38.636,82.027"/>
	<path clip-path="url(#SVGID_5_)" fill="#231F20" d="M38.636,77.015c0.414,0,0.75-0.337,0.75-0.75v-2.007
		c0-0.414-0.336-0.75-0.75-0.75c-0.414,0-0.75,0.336-0.75,0.75v2.007C37.886,76.678,38.222,77.015,38.636,77.015"/>
	<path clip-path="url(#SVGID_5_)" fill="#231F20" d="M38.636,87.042c0.414,0,0.75-0.336,0.75-0.75v-2.006
		c0-0.414-0.336-0.75-0.75-0.75c-0.414,0-0.75,0.336-0.75,0.75v2.006C37.886,86.706,38.222,87.042,38.636,87.042"/>
	<path clip-path="url(#SVGID_5_)" fill="#231F20" d="M105.364,62.914c-0.414,0-0.75,0.336-0.75,0.75v2.006
		c0,0.414,0.336,0.75,0.75,0.75s0.75-0.336,0.75-0.75v-2.006C106.114,63.25,105.778,62.914,105.364,62.914"/>
	<path clip-path="url(#SVGID_5_)" fill="#231F20" d="M105.364,57.9c-0.414,0-0.75,0.336-0.75,0.75v2.005
		c0,0.414,0.336,0.75,0.75,0.75s0.75-0.336,0.75-0.75V58.65C106.114,58.236,105.778,57.9,105.364,57.9"/>
	<path clip-path="url(#SVGID_5_)" fill="#231F20" d="M105.364,67.928c-0.414,0-0.75,0.336-0.75,0.75v2.006
		c0,0.414,0.336,0.75,0.75,0.75s0.75-0.336,0.75-0.75v-2.006C106.114,68.264,105.778,67.928,105.364,67.928"/>
	<path clip-path="url(#SVGID_5_)" fill="#231F20" d="M38.636,67.095c0.414,0,0.75-0.336,0.75-0.75V64.34
		c0-0.414-0.336-0.75-0.75-0.75c-0.414,0-0.75,0.336-0.75,0.75v2.005C37.886,66.759,38.222,67.095,38.636,67.095"/>
	<path clip-path="url(#SVGID_5_)" fill="#231F20" d="M38.636,62.082c0.414,0,0.75-0.336,0.75-0.75v-2.006
		c0-0.414-0.336-0.75-0.75-0.75c-0.414,0-0.75,0.336-0.75,0.75v2.006C37.886,61.746,38.222,62.082,38.636,62.082"/>
	<path clip-path="url(#SVGID_5_)" fill="#231F20" d="M38.636,72.109c0.414,0,0.75-0.336,0.75-0.75v-2.006
		c0-0.414-0.336-0.75-0.75-0.75c-0.414,0-0.75,0.336-0.75,0.75v2.006C37.886,71.773,38.222,72.109,38.636,72.109"/>
	<path clip-path="url(#SVGID_5_)" fill="#231F20" d="M105.364,47.981c-0.414,0-0.75,0.336-0.75,0.75v2.006
		c0,0.414,0.336,0.75,0.75,0.75s0.75-0.336,0.75-0.75v-2.006C106.114,48.317,105.778,47.981,105.364,47.981"/>
	<path clip-path="url(#SVGID_5_)" fill="#231F20" d="M105.364,42.968c-0.414,0-0.75,0.336-0.75,0.75v2.005
		c0,0.414,0.336,0.75,0.75,0.75s0.75-0.336,0.75-0.75v-2.005C106.114,43.304,105.778,42.968,105.364,42.968"/>
	<path clip-path="url(#SVGID_5_)" fill="#231F20" d="M105.364,52.995c-0.414,0-0.75,0.336-0.75,0.75v2.006
		c0,0.414,0.336,0.75,0.75,0.75s0.75-0.336,0.75-0.75v-2.006C106.114,53.331,105.778,52.995,105.364,52.995"/>
	<path clip-path="url(#SVGID_5_)" fill="#231F20" d="M38.636,52.162c0.414,0,0.75-0.336,0.75-0.75v-2.005
		c0-0.414-0.336-0.75-0.75-0.75c-0.414,0-0.75,0.336-0.75,0.75v2.005C37.886,51.826,38.222,52.162,38.636,52.162"/>
	<path clip-path="url(#SVGID_5_)" fill="#231F20" d="M38.636,47.149c0.414,0,0.75-0.336,0.75-0.75v-2.006
		c0-0.414-0.336-0.75-0.75-0.75c-0.414,0-0.75,0.336-0.75,0.75v2.006C37.886,46.813,38.222,47.149,38.636,47.149"/>
	<path clip-path="url(#SVGID_5_)" fill="#231F20" d="M38.636,57.177c0.414,0,0.75-0.336,0.75-0.75v-2.006
		c0-0.414-0.336-0.75-0.75-0.75c-0.414,0-0.75,0.336-0.75,0.75v2.006C37.886,56.841,38.222,57.177,38.636,57.177"/>
	<path clip-path="url(#SVGID_5_)" fill="#231F20" d="M105.364,33.049c-0.414,0-0.75,0.336-0.75,0.75v2.006
		c0,0.414,0.336,0.75,0.75,0.75s0.75-0.336,0.75-0.75v-2.006C106.114,33.385,105.778,33.049,105.364,33.049"/>
	<path clip-path="url(#SVGID_5_)" fill="#231F20" d="M105.364,28.035c-0.414,0-0.75,0.336-0.75,0.75v2.005
		c0,0.414,0.336,0.75,0.75,0.75s0.75-0.336,0.75-0.75v-2.005C106.114,28.371,105.778,28.035,105.364,28.035"/>
	<path clip-path="url(#SVGID_5_)" fill="#231F20" d="M105.364,38.062c-0.414,0-0.75,0.336-0.75,0.75v2.006
		c0,0.414,0.336,0.75,0.75,0.75s0.75-0.336,0.75-0.75v-2.006C106.114,38.398,105.778,38.062,105.364,38.062"/>
	<path clip-path="url(#SVGID_5_)" fill="#231F20" d="M38.636,37.229c0.414,0,0.75-0.336,0.75-0.75v-2.005
		c0-0.414-0.336-0.75-0.75-0.75c-0.414,0-0.75,0.336-0.75,0.75v2.005C37.886,36.894,38.222,37.229,38.636,37.229"/>
	<path clip-path="url(#SVGID_5_)" fill="#231F20" d="M38.636,32.216c0.414,0,0.75-0.336,0.75-0.75V29.46
		c0-0.414-0.336-0.75-0.75-0.75c-0.414,0-0.75,0.336-0.75,0.75v2.006C37.886,31.88,38.222,32.216,38.636,32.216"/>
	<path clip-path="url(#SVGID_5_)" fill="#231F20" d="M38.636,42.244c0.414,0,0.75-0.336,0.75-0.75v-2.006
		c0-0.414-0.336-0.75-0.75-0.75c-0.414,0-0.75,0.336-0.75,0.75v2.006C37.886,41.908,38.222,42.244,38.636,42.244"/>
	<path clip-path="url(#SVGID_5_)" fill="#231F20" d="M50.821,22.067c0.098,0,0.197-0.019,0.293-0.06l1.197-0.509
		c0.182-0.077,0.368-0.14,0.558-0.188c0.402-0.102,0.644-0.511,0.543-0.912c-0.102-0.401-0.508-0.644-0.912-0.542
		c-0.264,0.066-0.523,0.154-0.776,0.262l-1.197,0.509c-0.381,0.162-0.558,0.603-0.396,0.984
		C50.252,21.896,50.529,22.067,50.821,22.067"/>
	<path clip-path="url(#SVGID_5_)" fill="#231F20" d="M55.681,21.192h2.006c0.414,0,0.75-0.336,0.75-0.75s-0.336-0.75-0.75-0.75
		h-2.006c-0.414,0-0.75,0.336-0.75,0.75S55.267,21.192,55.681,21.192"/>
	<path clip-path="url(#SVGID_5_)" fill="#231F20" d="M60.695,21.192H62.7c0.414,0,0.75-0.336,0.75-0.75s-0.336-0.75-0.75-0.75
		h-2.005c-0.414,0-0.75,0.336-0.75,0.75S60.281,21.192,60.695,21.192"/>
	<path clip-path="url(#SVGID_5_)" fill="#231F20" d="M46.207,24.029c0.098,0,0.197-0.019,0.293-0.06l1.845-0.785
		c0.382-0.162,0.559-0.603,0.397-0.984s-0.602-0.56-0.984-0.396l-1.845,0.785c-0.381,0.162-0.559,0.603-0.396,0.983
		C45.638,23.858,45.915,24.029,46.207,24.029"/>
</g>
</svg>
