<?xml version="1.0" encoding="utf-8"?>
<!-- Generator: Adobe Illustrator 16.0.4, SVG Export Plug-In . SVG Version: 6.00 Build 0)  -->
<!DOCTYPE svg PUBLIC "-//W3C//DTD SVG 1.1//EN" "http://www.w3.org/Graphics/SVG/1.1/DTD/svg11.dtd">
<svg version="1.1" id="Layer_1" xmlns="http://www.w3.org/2000/svg" xmlns:xlink="http://www.w3.org/1999/xlink" x="0px" y="0px"
	 width="300px" height="300px" viewBox="0 0 300 300" enable-background="new 0 0 300 300" xml:space="preserve">
<g>
	<defs>
		<path id="SVGID_1_" d="M125.259,150c0-13.664,11.077-24.741,24.741-24.741s24.741,11.077,24.741,24.741
			S163.664,174.741,150,174.741S125.259,163.664,125.259,150 M139.147,43.927c-0.466,0.034-0.821,0.06-1.029,0.073
			c-0.351,0.075-1.381,0.9-1.775,1.737c-0.35,1.467-1.286,11.682-2.345,25.583l-0.112,1.472l-1.441,0.326
			c-8.151,1.846-15.905,4.949-23.045,9.224l-1.234,0.74l-1.094-0.936c-10.259-8.78-17.444-14.762-18.751-15.609
			c-0.26-0.168-0.541-0.246-0.889-0.246c-0.92,0-1.934,0.562-2.323,0.829c-0.718,0.639-5.981,5.341-8.541,7.902
			c-2.28,2.279-5.374,5.865-6.861,7.587c-0.306,0.356-0.54,0.627-0.678,0.783c-0.196,0.301-0.34,1.612-0.027,2.484
			c0.585,0.942,4.828,6.194,15.002,18.079l0.986,1.152l-0.844,1.261c-5.322,7.961-9.115,16.743-11.27,26.103l-0.33,1.434
			l-1.467,0.112c-13.545,1.032-23.888,1.982-25.342,2.326c-0.838,0.395-1.663,1.425-1.74,1.81c-0.01,0.176-0.037,0.537-0.073,1.013
			c-0.165,2.268-0.512,6.985-0.512,10.203c0,3.614,0.395,10.64,0.451,11.62c0.073,0.367,0.541,2.408,1.861,2.689
			c1.904,0.407,14.771,1.488,25.211,2.292l1.478,0.114l0.321,1.447c2.172,9.784,6.12,18.936,11.735,27.202l0.859,1.265l-0.994,1.16
			c-8.597,10.038-14.579,17.243-15.332,18.465c-0.313,0.872-0.168,2.183,0.049,2.511c0.116,0.13,0.35,0.401,0.656,0.756
			c1.488,1.724,4.581,5.309,6.861,7.588c2.562,2.562,7.835,7.272,8.542,7.903c0.377,0.259,1.398,0.827,2.322,0.827
			c0.348,0,0.629-0.078,0.889-0.246c1.617-1.047,11.445-9.348,19.368-16.138l1.084-0.928l1.23,0.722
			c7.002,4.109,14.57,7.099,22.49,8.888l1.441,0.326l0.112,1.472c1.036,13.551,1.953,23.514,2.297,24.958
			c0.394,0.837,1.425,1.662,1.811,1.74c0.172,0.009,0.527,0.036,0.993,0.071c2.271,0.166,6.996,0.515,10.221,0.515
			c3.613,0,10.641-0.396,11.621-0.452c0.366-0.073,2.408-0.54,2.688-1.859c0.401-1.877,1.477-14.626,2.274-24.974l0.113-1.471
			l1.44-0.325c7.921-1.789,15.487-4.779,22.489-8.889l1.23-0.722l1.083,0.928c7.924,6.789,17.75,15.089,19.37,16.138
			c0.258,0.168,0.542,0.246,0.888,0.246c0.947,0,1.991-0.598,2.32-0.824c0.7-0.624,5.979-5.341,8.544-7.906
			c2.29-2.289,5.506-6.017,6.88-7.609l0.659-0.76c0.196-0.303,0.342-1.614,0.027-2.485c-0.753-1.226-6.735-8.43-15.332-18.465
			l-0.995-1.16l0.859-1.266c5.615-8.266,9.564-17.417,11.734-27.201l0.321-1.447l1.479-0.114
			c10.438-0.803,23.306-1.885,25.213-2.292c1.31-0.279,1.786-2.326,1.858-2.689c0.058-0.981,0.453-8.008,0.453-11.62
			c0-3.218-0.347-7.935-0.513-10.203c-0.035-0.476-0.062-0.837-0.075-1.048c-0.074-0.35-0.9-1.38-1.738-1.775
			c-1.455-0.344-11.798-1.294-25.343-2.326l-1.466-0.112l-0.33-1.434c-2.156-9.361-5.948-18.144-11.271-26.103l-0.842-1.261
			l0.985-1.152c10.175-11.886,14.417-17.138,15.001-18.079c0.313-0.872,0.169-2.184-0.049-2.511l-0.637-0.733
			c-1.375-1.593-4.591-5.321-6.881-7.61c-2.562-2.564-7.832-7.272-8.542-7.904c-0.377-0.259-1.396-0.827-2.322-0.827
			c-0.347,0-0.63,0.078-0.888,0.246c-1.306,0.845-8.49,6.827-18.751,15.609l-1.094,0.936l-1.235-0.74
			c-7.139-4.273-14.892-7.377-23.046-9.224l-1.44-0.327L166,71.32c-0.876-11.431-1.934-23.779-2.322-25.596
			c-0.279-1.313-2.302-1.782-2.691-1.861c-0.993-0.057-8.01-0.451-11.618-0.451C146.142,43.412,141.418,43.759,139.147,43.927"/>
	</defs>
	<clipPath id="SVGID_2_">
		<use xlink:href="#SVGID_1_"  overflow="visible"/>
	</clipPath>
	
		<linearGradient id="SVGID_3_" gradientUnits="userSpaceOnUse" x1="0" y1="300.002" x2="1" y2="300.002" gradientTransform="matrix(149.1609 149.1609 149.1609 -149.1609 -44672.7578 44824.4258)">
		<stop  offset="0" style="stop-color:#E6E7E8"/>
		<stop  offset="0.5" style="stop-color:#F6F6F6"/>
		<stop  offset="1" style="stop-color:#CBCCCE"/>
	</linearGradient>
	<polygon clip-path="url(#SVGID_2_)" fill="url(#SVGID_3_)" points="150,-63.176 363.177,150.001 150,363.177 -63.177,150.001 	"/>
</g>
<g>
	<defs>
		<rect id="SVGID_4_" width="300" height="300"/>
	</defs>
	<clipPath id="SVGID_5_">
		<use xlink:href="#SVGID_4_"  overflow="visible"/>
	</clipPath>
	<path clip-path="url(#SVGID_5_)" fill="#231F20" d="M149.368,260.589c-3.373,0-8.196-0.355-10.513-0.526
		c-0.449-0.033-0.789-0.058-0.989-0.071c-2.114-0.133-4.415-2.3-5.238-4.24c-0.187-0.44-0.678-1.597-2.458-24.682
		c-7.337-1.795-14.372-4.578-20.951-8.287c-5.68,4.859-16.682,14.215-18.724,15.538c-0.91,0.589-1.94,0.89-3.062,0.89
		c-2.475,0-4.542-1.49-4.769-1.66l-0.133-0.108c-0.242-0.216-5.972-5.314-8.792-8.135c-2.383-2.383-5.542-6.043-7.06-7.802
		c-0.294-0.343-0.519-0.603-0.651-0.752c-1.4-1.589-1.495-4.748-0.706-6.702c0.19-0.469,0.625-1.548,14.991-18.345
		c-5.182-7.936-8.926-16.621-11.149-25.86c-6.573-0.511-21.843-1.736-24.276-2.255c-3.35-0.716-4.715-4.161-4.994-6.083
		l-0.017-0.171c-0.019-0.324-0.465-7.981-0.465-11.968c0-3.364,0.354-8.18,0.524-10.495c0.034-0.457,0.059-0.805,0.072-1.007
		c0.133-2.112,2.3-4.414,4.24-5.238c0.448-0.19,1.615-0.685,25.074-2.489c2.191-8.806,5.774-17.11,10.667-24.725
		C65.941,88.979,65.51,87.913,65.322,87.452c-0.789-1.956-0.694-5.116,0.706-6.704c0.132-0.15,0.356-0.41,0.651-0.751
		c1.518-1.759,4.677-5.42,7.06-7.803c2.82-2.82,8.55-7.919,8.792-8.135l0.132-0.108c0.228-0.17,2.294-1.66,4.77-1.66
		c1.122,0,2.152,0.3,3.063,0.89c1.926,1.248,11.716,9.549,18.094,15c6.732-3.873,13.961-6.768,21.531-8.624
		c1.821-23.693,2.318-24.861,2.507-25.307c0.823-1.94,3.124-4.108,5.238-4.241c0.199-0.013,0.54-0.038,0.989-0.071
		c2.317-0.171,7.14-0.526,10.513-0.526c3.988,0,11.645,0.446,11.969,0.465l0.17,0.017c1.923,0.279,5.368,1.645,6.083,4.995
		c0.529,2.478,1.771,18.013,2.286,24.668c7.572,1.856,14.804,4.752,21.534,8.624c6.379-5.452,16.17-13.754,18.093-15
		c0.911-0.59,1.941-0.89,3.063-0.89c2.476,0,4.542,1.49,4.77,1.66l0.133,0.108c0.242,0.216,5.972,5.315,8.791,8.135
		c2.394,2.393,5.559,6.062,7.08,7.825l0.633,0.73c1.399,1.589,1.494,4.748,0.704,6.702c-0.187,0.461-0.617,1.528-14.665,17.964
		c4.892,7.614,8.475,15.918,10.666,24.725c23.461,1.804,24.627,2.3,25.072,2.489c1.94,0.823,4.107,3.125,4.242,5.237
		c0.013,0.203,0.039,0.551,0.072,1.008c0.17,2.315,0.523,7.132,0.523,10.495c0,3.987-0.446,11.644-0.466,11.969l-0.017,0.169
		c-0.278,1.923-1.644,5.368-4.992,6.084c-2.438,0.52-17.706,1.744-24.278,2.255c-2.221,9.239-5.966,17.925-11.147,25.86
		c14.363,16.791,14.801,17.875,14.989,18.346c0.79,1.952,0.695,5.11-0.705,6.701l-0.632,0.729c-1.521,1.763-4.687,5.431-7.08,7.824
		c-2.819,2.82-8.549,7.919-8.791,8.135l-0.133,0.108c-0.228,0.17-2.294,1.66-4.769,1.66h-0.001c-1.122,0-2.152-0.301-3.063-0.891
		c-2.044-1.324-13.044-10.679-18.722-15.537c-6.58,3.71-13.616,6.493-20.954,8.288c-0.579,7.427-1.732,21.678-2.237,24.042
		c-0.716,3.35-4.16,4.715-6.083,4.994l-0.17,0.017C161.013,260.143,153.355,260.589,149.368,260.589 M136.343,254.263
		c0.395,0.838,1.425,1.663,1.811,1.741c0.172,0.009,0.527,0.034,0.994,0.069c2.27,0.167,6.995,0.516,10.22,0.516
		c3.614,0,10.641-0.396,11.622-0.451c0.365-0.074,2.407-0.541,2.688-1.86c0.401-1.877,1.476-14.626,2.274-24.973l0.113-1.473
		l1.44-0.324c7.921-1.788,15.487-4.779,22.489-8.89l1.23-0.721l1.084,0.928c7.923,6.789,17.75,15.088,19.369,16.139
		c0.259,0.168,0.542,0.246,0.888,0.246c0.948,0,1.992-0.6,2.32-0.825c0.7-0.623,5.979-5.341,8.545-7.906
		c2.289-2.289,5.506-6.017,6.879-7.609l0.659-0.76c0.196-0.303,0.342-1.614,0.027-2.485c-0.753-1.226-6.735-8.431-15.332-18.466
		l-0.995-1.16l0.86-1.265c5.615-8.266,9.563-17.418,11.734-27.201l0.32-1.447l1.479-0.114c10.438-0.802,23.306-1.885,25.213-2.292
		c1.31-0.279,1.785-2.326,1.859-2.69c0.057-0.98,0.452-8.007,0.452-11.62c0-3.217-0.347-7.935-0.513-10.202
		c-0.035-0.476-0.062-0.838-0.075-1.049c-0.074-0.35-0.899-1.379-1.738-1.774c-1.454-0.344-11.798-1.295-25.342-2.327l-1.467-0.111
		l-0.33-1.434c-2.156-9.361-5.948-18.144-11.27-26.104l-0.843-1.261l0.985-1.152c10.175-11.885,14.417-17.137,15.001-18.079
		c0.313-0.872,0.169-2.183-0.049-2.511l-0.637-0.733c-1.374-1.592-4.591-5.32-6.88-7.61c-2.562-2.563-7.833-7.272-8.542-7.904
		c-0.377-0.258-1.397-0.827-2.323-0.827c-0.347,0-0.629,0.078-0.888,0.246c-1.306,0.846-8.49,6.828-18.751,15.61l-1.094,0.935
		l-1.234-0.739c-7.139-4.274-14.893-7.378-23.047-9.225l-1.439-0.326L166,71.32c-0.876-11.432-1.934-23.78-2.322-25.597
		c-0.28-1.313-2.302-1.782-2.692-1.86c-0.992-0.057-8.008-0.452-11.618-0.452c-3.226,0-7.95,0.348-10.22,0.515
		c-0.467,0.035-0.822,0.061-1.03,0.074c-0.351,0.075-1.38,0.899-1.775,1.737c-0.35,1.467-1.286,11.681-2.345,25.582l-0.112,1.473
		l-1.44,0.326c-8.152,1.846-15.906,4.949-23.045,9.224l-1.235,0.739l-1.094-0.935c-10.258-8.781-17.444-14.762-18.751-15.609
		c-0.259-0.169-0.541-0.247-0.888-0.247c-0.92,0-1.935,0.563-2.324,0.829c-0.717,0.639-5.981,5.342-8.541,7.902
		c-2.28,2.28-5.374,5.865-6.861,7.588c-0.306,0.356-0.54,0.626-0.677,0.782c-0.197,0.302-0.341,1.612-0.028,2.484
		c0.585,0.943,4.828,6.195,15.002,18.079l0.985,1.152l-0.842,1.261c-5.323,7.961-9.116,16.744-11.271,26.104l-0.33,1.434
		l-1.467,0.111c-13.545,1.033-23.888,1.983-25.341,2.327c-0.838,0.395-1.664,1.424-1.742,1.809
		c-0.009,0.176-0.036,0.538-0.071,1.014c-0.166,2.267-0.513,6.985-0.513,10.202c0,3.615,0.395,10.641,0.452,11.621
		c0.073,0.366,0.541,2.407,1.86,2.689c1.904,0.407,14.771,1.489,25.212,2.292l1.477,0.114l0.322,1.446
		c2.171,9.784,6.12,18.937,11.735,27.203l0.858,1.264l-0.994,1.16c-8.597,10.039-14.579,17.243-15.332,18.466
		c-0.313,0.871-0.168,2.184,0.049,2.512c0.116,0.129,0.35,0.399,0.656,0.755c1.488,1.724,4.581,5.309,6.861,7.588
		c2.562,2.562,7.836,7.273,8.543,7.904c0.377,0.258,1.397,0.827,2.322,0.827c0.347,0,0.629-0.078,0.888-0.246
		c1.617-1.049,11.445-9.349,19.369-16.139l1.084-0.928l1.229,0.721c7.003,4.11,14.569,7.101,22.489,8.89l1.442,0.324l0.112,1.474
		C135.082,242.855,135.999,252.818,136.343,254.263"/>
	<path clip-path="url(#SVGID_5_)" d="M150,175.241c-13.918,0-25.241-11.323-25.241-25.241s11.323-25.241,25.241-25.241
		s25.241,11.323,25.241,25.241S163.918,175.241,150,175.241 M150,127.759c-12.264,0-22.241,9.978-22.241,22.241
		c0,12.264,9.977,22.241,22.241,22.241c12.265,0,22.241-9.978,22.241-22.241C172.241,137.737,162.265,127.759,150,127.759"/>
</g>
</svg>
