<?xml version="1.0" encoding="utf-8"?>
<!-- Generator: Adobe Illustrator 16.0.4, SVG Export Plug-In . SVG Version: 6.00 Build 0)  -->
<!DOCTYPE svg PUBLIC "-//W3C//DTD SVG 1.1//EN" "http://www.w3.org/Graphics/SVG/1.1/DTD/svg11.dtd">
<svg version="1.1" id="Layer_1" xmlns="http://www.w3.org/2000/svg" xmlns:xlink="http://www.w3.org/1999/xlink" x="0px" y="0px"
	 width="144px" height="144px" viewBox="0 0 144 144" enable-background="new 0 0 144 144" xml:space="preserve">
<g>
	<defs>
		<path id="SVGID_1_" d="M46.155,44.5c-1.029,0-1.862,0.834-1.862,1.862v51.276c0,1.029,0.833,1.862,1.862,1.862h51.69
			c1.029,0,1.862-0.833,1.862-1.862V46.362c0-1.028-0.833-1.862-1.862-1.862H46.155z"/>
	</defs>
	<clipPath id="SVGID_2_">
		<use xlink:href="#SVGID_1_"  overflow="visible"/>
	</clipPath>
	
		<linearGradient id="SVGID_3_" gradientUnits="userSpaceOnUse" x1="0" y1="144" x2="1" y2="144" gradientTransform="matrix(54.1167 54.1167 54.1167 -54.1167 -7747.8726 7837.7515)">
		<stop  offset="0" style="stop-color:#E6E7E8"/>
		<stop  offset="0.5" style="stop-color:#F6F6F6"/>
		<stop  offset="1" style="stop-color:#CBCCCE"/>
	</linearGradient>
	<polygon clip-path="url(#SVGID_2_)" fill="url(#SVGID_3_)" points="72,16.793 127.207,72 72,127.207 16.793,72 	"/>
</g>
<g>
	<defs>
		<path id="SVGID_4_" d="M46.155,44.5c-1.029,0-1.862,0.834-1.862,1.862v51.276c0,1.029,0.833,1.862,1.862,1.862h51.69
			c1.029,0,1.862-0.833,1.862-1.862V46.362c0-1.028-0.833-1.862-1.862-1.862H46.155z"/>
	</defs>
	<clipPath id="SVGID_5_">
		<use xlink:href="#SVGID_4_"  overflow="visible"/>
	</clipPath>
	
		<linearGradient id="SVGID_6_" gradientUnits="userSpaceOnUse" x1="0" y1="144" x2="1" y2="144" gradientTransform="matrix(54.1167 54.1167 54.1167 -54.1167 -7747.8726 7837.7515)">
		<stop  offset="0" style="stop-color:#E6E7E8"/>
		<stop  offset="0.5" style="stop-color:#F6F6F6"/>
		<stop  offset="1" style="stop-color:#CBCCCE"/>
	</linearGradient>
	<polygon clip-path="url(#SVGID_5_)" fill="url(#SVGID_6_)" points="72,16.793 127.207,72 72,127.207 16.793,72 	"/>
</g>
<g>
	<defs>
		<rect id="SVGID_7_" width="144" height="144"/>
	</defs>
	<clipPath id="SVGID_8_">
		<use xlink:href="#SVGID_7_"  overflow="visible"/>
	</clipPath>
	<path clip-path="url(#SVGID_8_)" fill="#231F20" d="M97.846,100.5H46.154c-1.578,0-2.861-1.283-2.861-2.861V46.361
		c0-1.577,1.283-2.861,2.861-2.861h51.691c1.578,0,2.861,1.284,2.861,2.861v51.278C100.707,99.217,99.424,100.5,97.846,100.5
		 M46.154,45.5c-0.475,0-0.861,0.386-0.861,0.861v51.278c0,0.475,0.386,0.861,0.861,0.861h51.691c0.475,0,0.861-0.387,0.861-0.861
		V46.361c0-0.475-0.387-0.861-0.861-0.861H46.154z"/>
	<path clip-path="url(#SVGID_8_)" fill="#231F20" d="M70.514,73.525V72.84l3-0.002l0.001,0.686L70.514,73.525z M70.511,70.84
		l-0.002-2l3-0.003l0.002,2L70.511,70.84z M70.508,66.84l-0.002-2l3-0.003l0.002,2L70.508,66.84z M70.504,62.84l-0.003-2l3-0.003
		l0.003,2L70.504,62.84z M70.5,58.84l-0.002-2l3.001-0.003l0.001,2L70.5,58.84z M70.495,54.84l-0.002-2l3-0.003l0.002,2
		L70.495,54.84z M70.491,50.84l-0.002-2l3-0.003l0.003,2L70.491,50.84z M70.487,46.84l-0.002-2l3-0.003l0.002,2L70.487,46.84z"/>
	<path clip-path="url(#SVGID_8_)" fill="#231F20" d="M69.207,83.847h5.585V72.676h-5.585V83.847z M72,82.569
		c-0.771,0-1.396-0.625-1.396-1.396c0-0.771,0.625-1.397,1.396-1.397c0.771,0,1.396,0.626,1.396,1.397
		C73.396,81.944,72.771,82.569,72,82.569"/>
</g>
</svg>
