<?xml version="1.0" encoding="utf-8"?>
<!-- Generator: Adobe Illustrator 16.0.4, SVG Export Plug-In . SVG Version: 6.00 Build 0)  -->
<!DOCTYPE svg PUBLIC "-//W3C//DTD SVG 1.1//EN" "http://www.w3.org/Graphics/SVG/1.1/DTD/svg11.dtd">
<svg version="1.1" id="Layer_1" xmlns="http://www.w3.org/2000/svg" xmlns:xlink="http://www.w3.org/1999/xlink" x="0px" y="0px"
	 width="140px" height="140px" viewBox="0 0 140 140" enable-background="new 0 0 140 140" xml:space="preserve">
<g>
	<defs>
		<path id="SVGID_1_" d="M63.821,70c0-3.412,2.766-6.179,6.179-6.179c3.412,0,6.179,2.767,6.179,6.179
			c0,3.413-2.767,6.179-6.179,6.179C66.587,76.179,63.821,73.413,63.821,70 M67.289,43.509c-0.116,0.009-0.205,0.015-0.256,0.018
			c-0.088,0.019-0.345,0.225-0.444,0.435c-0.087,0.366-0.321,2.917-0.586,6.388l-0.028,0.368l-0.359,0.081
			c-2.035,0.462-3.972,1.237-5.755,2.304l-0.309,0.185l-0.273-0.233c-2.562-2.194-4.356-3.688-4.683-3.899
			c-0.064-0.043-0.135-0.061-0.222-0.061c-0.229,0-0.483,0.14-0.58,0.207c-0.179,0.159-1.493,1.333-2.133,1.972
			c-0.569,0.57-1.342,1.466-1.714,1.896c-0.076,0.089-0.135,0.156-0.169,0.195c-0.048,0.076-0.085,0.402-0.006,0.62
			c0.146,0.236,1.205,1.547,3.747,4.516l0.245,0.287l-0.21,0.316c-1.33,1.988-2.277,4.181-2.815,6.518l-0.083,0.358l-0.366,0.028
			c-3.383,0.258-5.966,0.495-6.329,0.582c-0.209,0.098-0.415,0.355-0.434,0.452c-0.003,0.043-0.009,0.134-0.018,0.252
			c-0.042,0.567-0.128,1.745-0.128,2.548c0,0.903,0.098,2.658,0.112,2.903c0.018,0.091,0.135,0.601,0.465,0.671
			c0.476,0.102,3.689,0.372,6.296,0.573l0.369,0.027l0.08,0.361c0.543,2.444,1.529,4.73,2.932,6.793l0.214,0.316l-0.249,0.29
			c-2.147,2.508-3.64,4.307-3.828,4.611c-0.079,0.219-0.042,0.545,0.012,0.627c0.028,0.032,0.087,0.101,0.163,0.189
			c0.372,0.43,1.145,1.326,1.714,1.895c0.64,0.641,1.957,1.816,2.134,1.974c0.093,0.064,0.348,0.207,0.579,0.207
			c0.087,0,0.158-0.021,0.222-0.062c0.404-0.262,2.858-2.334,4.837-4.029l0.271-0.232l0.307,0.18
			c1.749,1.027,3.639,1.773,5.617,2.221l0.36,0.081l0.028,0.367c0.258,3.385,0.488,5.872,0.573,6.233
			c0.099,0.208,0.356,0.415,0.452,0.434c0.043,0.003,0.132,0.01,0.248,0.018c0.567,0.043,1.747,0.129,2.553,0.129
			c0.903,0,2.657-0.098,2.902-0.112c0.092-0.018,0.602-0.135,0.672-0.465c0.1-0.469,0.369-3.652,0.568-6.237l0.027-0.366l0.36-0.081
			c1.978-0.447,3.868-1.193,5.616-2.221l0.307-0.18l0.271,0.232c1.979,1.694,4.434,3.767,4.838,4.029
			c0.064,0.041,0.135,0.062,0.221,0.062c0.237,0,0.498-0.149,0.58-0.206c0.174-0.155,1.493-1.334,2.134-1.975
			c0.571-0.571,1.375-1.503,1.718-1.899l0.164-0.19c0.049-0.076,0.086-0.402,0.008-0.621c-0.188-0.306-1.682-2.104-3.829-4.611
			l-0.248-0.29l0.214-0.316c1.402-2.062,2.389-4.349,2.931-6.793l0.08-0.361l0.369-0.027c2.607-0.201,5.821-0.472,6.297-0.573
			c0.327-0.07,0.446-0.58,0.464-0.672c0.016-0.245,0.114-2,0.114-2.902c0-0.803-0.087-1.981-0.129-2.548
			c-0.008-0.118-0.016-0.209-0.019-0.261c-0.019-0.088-0.225-0.345-0.435-0.443c-0.363-0.087-2.946-0.324-6.329-0.582l-0.366-0.028
			l-0.082-0.358c-0.539-2.337-1.485-4.531-2.814-6.518l-0.21-0.316l0.246-0.287c2.541-2.969,3.601-4.28,3.746-4.516
			c0.078-0.218,0.041-0.544-0.013-0.626l-0.159-0.184c-0.343-0.398-1.146-1.328-1.718-1.901c-0.64-0.64-1.956-1.815-2.133-1.973
			c-0.095-0.064-0.35-0.206-0.581-0.206c-0.086,0-0.156,0.018-0.221,0.061c-0.326,0.211-2.121,1.705-4.684,3.899l-0.273,0.233
			l-0.308-0.185c-1.782-1.067-3.72-1.842-5.757-2.304l-0.358-0.081l-0.028-0.368c-0.219-2.855-0.483-5.938-0.58-6.392
			c-0.07-0.328-0.575-0.445-0.673-0.465c-0.247-0.014-1.999-0.113-2.901-0.113C69.036,43.38,67.856,43.468,67.289,43.509"/>
	</defs>
	<clipPath id="SVGID_2_">
		<use xlink:href="#SVGID_1_"  overflow="visible"/>
	</clipPath>
	
		<linearGradient id="SVGID_3_" gradientUnits="userSpaceOnUse" x1="0" y1="140.002" x2="1" y2="140.002" gradientTransform="matrix(37.2515 37.2515 37.2515 -37.2515 -5163.8335 5266.77)">
		<stop  offset="0" style="stop-color:#E6E7E8"/>
		<stop  offset="0.5" style="stop-color:#F6F6F6"/>
		<stop  offset="1" style="stop-color:#CBCCCE"/>
	</linearGradient>
	<polygon clip-path="url(#SVGID_2_)" fill="url(#SVGID_3_)" points="70.001,16.761 123.239,70 70.001,123.238 16.762,70 	"/>
</g>
<g>
	<defs>
		<rect id="SVGID_4_" width="140" height="140"/>
	</defs>
	<clipPath id="SVGID_5_">
		<use xlink:href="#SVGID_4_"  overflow="visible"/>
	</clipPath>
	<path clip-path="url(#SVGID_5_)" fill="#221F1F" d="M69.842,97.618c-0.842,0-2.047-0.089-2.626-0.131
		c-0.112-0.009-0.197-0.015-0.247-0.018c-0.528-0.034-1.102-0.575-1.308-1.06c-0.047-0.109-0.169-0.398-0.614-6.164
		c-1.832-0.447-3.589-1.143-5.232-2.069c-1.418,1.214-4.166,3.55-4.676,3.881c-0.227,0.146-0.485,0.222-0.765,0.222
		c-0.618,0-1.134-0.372-1.191-0.415l-0.033-0.026c-0.06-0.055-1.492-1.327-2.196-2.031c-0.595-0.596-1.384-1.51-1.763-1.949
		c-0.073-0.085-0.129-0.15-0.163-0.188c-0.349-0.396-0.373-1.187-0.176-1.675c0.048-0.115,0.156-0.386,3.744-4.581
		c-1.294-1.981-2.229-4.15-2.784-6.458c-1.642-0.128-5.455-0.434-6.063-0.562c-0.837-0.179-1.178-1.04-1.247-1.521l-0.004-0.042
		c-0.005-0.08-0.117-1.992-0.117-2.989c0-0.84,0.089-2.043,0.131-2.621c0.009-0.114,0.015-0.201,0.018-0.252
		c0.033-0.527,0.575-1.102,1.059-1.308c0.112-0.047,0.403-0.171,6.262-0.621c0.547-2.2,1.442-4.274,2.664-6.175
		c-3.508-4.105-3.616-4.371-3.663-4.486c-0.197-0.489-0.173-1.278,0.176-1.675c0.034-0.037,0.089-0.102,0.163-0.187
		c0.379-0.44,1.168-1.354,1.763-1.949c0.704-0.704,2.136-1.978,2.196-2.032l0.033-0.027c0.057-0.042,0.573-0.414,1.191-0.414
		c0.28,0,0.538,0.075,0.765,0.222c0.481,0.312,2.926,2.385,4.519,3.746c1.681-0.967,3.487-1.69,5.377-2.153
		c0.455-5.918,0.579-6.209,0.626-6.321c0.206-0.484,0.78-1.026,1.308-1.059c0.05-0.003,0.135-0.009,0.247-0.018
		c0.579-0.042,1.784-0.131,2.626-0.131c0.996,0,2.908,0.111,2.989,0.116l0.042,0.004c0.481,0.07,1.341,0.411,1.521,1.248
		c0.132,0.619,0.441,4.498,0.57,6.16c1.892,0.464,3.697,1.187,5.378,2.154c1.594-1.361,4.038-3.435,4.519-3.746
		c0.228-0.147,0.484-0.222,0.765-0.222c0.618,0,1.134,0.372,1.191,0.414l0.033,0.027c0.061,0.054,1.491,1.328,2.195,2.032
		c0.599,0.598,1.389,1.514,1.769,1.954l0.158,0.183c0.35,0.396,0.372,1.185,0.176,1.673c-0.047,0.116-0.154,0.382-3.662,4.487
		c1.221,1.901,2.116,3.975,2.663,6.175c5.858,0.45,6.15,0.574,6.262,0.621c0.484,0.206,1.026,0.78,1.059,1.308
		c0.004,0.051,0.011,0.138,0.019,0.252c0.043,0.578,0.131,1.781,0.131,2.621c0,0.997-0.111,2.909-0.116,2.989l-0.004,0.042
		c-0.07,0.48-0.411,1.342-1.247,1.521c-0.608,0.129-4.422,0.435-6.062,0.562c-0.556,2.308-1.49,4.477-2.784,6.458
		c3.587,4.194,3.696,4.465,3.743,4.582c0.196,0.487,0.174,1.276-0.176,1.674l-0.158,0.182c-0.38,0.441-1.17,1.357-1.769,1.955
		c-0.704,0.704-2.135,1.977-2.195,2.031l-0.033,0.026c-0.058,0.043-0.573,0.415-1.191,0.415c-0.28,0-0.537-0.075-0.765-0.223
		c-0.51-0.33-3.258-2.666-4.676-3.88c-1.644,0.927-3.4,1.622-5.233,2.069c-0.144,1.855-0.432,5.414-0.558,6.005
		c-0.18,0.837-1.039,1.178-1.521,1.246l-0.042,0.006C72.75,97.507,70.838,97.618,69.842,97.618 M66.589,96.038
		c0.099,0.209,0.356,0.415,0.452,0.436c0.043,0.002,0.132,0.009,0.248,0.017c0.567,0.042,1.747,0.129,2.553,0.129
		c0.902,0,2.657-0.099,2.902-0.112c0.091-0.019,0.601-0.136,0.672-0.464c0.101-0.47,0.368-3.653,0.568-6.237l0.027-0.368l0.36-0.081
		c1.979-0.446,3.867-1.193,5.616-2.22l0.307-0.181l0.271,0.232c1.979,1.695,4.433,3.768,4.837,4.03
		c0.064,0.042,0.136,0.062,0.222,0.062c0.237,0,0.498-0.149,0.58-0.206c0.174-0.155,1.493-1.334,2.134-1.975
		c0.571-0.571,1.375-1.503,1.719-1.9l0.164-0.189c0.049-0.076,0.086-0.403,0.007-0.621c-0.188-0.307-1.683-2.105-3.829-4.611
		l-0.249-0.29l0.215-0.315c1.403-2.064,2.389-4.351,2.931-6.793l0.08-0.362l0.369-0.028c2.607-0.2,5.82-0.471,6.297-0.572
		c0.327-0.069,0.446-0.58,0.464-0.672c0.015-0.245,0.113-2,0.113-2.902c0-0.804-0.087-1.982-0.128-2.548
		c-0.009-0.119-0.015-0.209-0.019-0.262c-0.019-0.087-0.225-0.344-0.435-0.443c-0.363-0.086-2.946-0.324-6.329-0.581l-0.366-0.028
		l-0.082-0.358c-0.538-2.338-1.485-4.531-2.814-6.519l-0.21-0.315l0.246-0.288c2.541-2.968,3.6-4.28,3.746-4.515
		c0.078-0.218,0.042-0.545-0.013-0.627l-0.158-0.183c-0.344-0.398-1.147-1.329-1.719-1.901c-0.64-0.64-1.957-1.816-2.134-1.974
		c-0.094-0.064-0.349-0.206-0.58-0.206c-0.086,0-0.157,0.019-0.222,0.061c-0.326,0.212-2.12,1.705-4.682,3.899l-0.274,0.233
		l-0.308-0.184c-1.783-1.068-3.72-1.843-5.757-2.304l-0.358-0.082l-0.028-0.367c-0.219-2.855-0.482-5.939-0.58-6.393
		c-0.069-0.327-0.575-0.445-0.673-0.464c-0.248-0.014-2-0.113-2.901-0.113c-0.806,0-1.986,0.087-2.553,0.129
		c-0.116,0.008-0.205,0.015-0.257,0.018c-0.087,0.019-0.344,0.225-0.443,0.434c-0.087,0.366-0.321,2.917-0.586,6.389l-0.028,0.368
		l-0.359,0.081c-2.036,0.461-3.973,1.236-5.756,2.304l-0.308,0.184l-0.273-0.233c-2.562-2.193-4.357-3.687-4.683-3.899
		c-0.065-0.042-0.135-0.061-0.222-0.061c-0.23,0-0.483,0.14-0.58,0.207c-0.179,0.159-1.494,1.334-2.133,1.973
		c-0.57,0.57-1.342,1.465-1.714,1.895c-0.076,0.089-0.135,0.157-0.169,0.196c-0.049,0.075-0.085,0.402-0.007,0.62
		c0.146,0.235,1.206,1.547,3.747,4.515l0.246,0.288l-0.211,0.315c-1.329,1.988-2.276,4.181-2.814,6.519l-0.083,0.358l-0.366,0.028
		c-3.383,0.258-5.966,0.495-6.329,0.581c-0.209,0.098-0.415,0.356-0.435,0.452c-0.002,0.044-0.009,0.134-0.018,0.253
		c-0.041,0.566-0.128,1.744-0.128,2.548c0,0.902,0.099,2.657,0.113,2.902c0.018,0.092,0.135,0.602,0.465,0.672
		c0.475,0.102,3.689,0.371,6.296,0.572l0.369,0.028l0.08,0.362c0.543,2.442,1.529,4.729,2.931,6.793l0.215,0.315l-0.249,0.29
		c-2.147,2.507-3.641,4.307-3.829,4.611c-0.078,0.218-0.042,0.546,0.012,0.628c0.029,0.032,0.088,0.1,0.164,0.188
		c0.372,0.432,1.144,1.326,1.714,1.896c0.64,0.64,1.957,1.816,2.133,1.974c0.094,0.065,0.349,0.207,0.58,0.207
		c0.087,0,0.157-0.02,0.222-0.062c0.404-0.262,2.858-2.334,4.837-4.03l0.271-0.232l0.307,0.181c1.749,1.026,3.638,1.772,5.616,2.22
		l0.36,0.081l0.028,0.368C66.274,93.189,66.503,95.678,66.589,96.038"/>
	<path clip-path="url(#SVGID_5_)" d="M70,76.304c-3.476,0-6.304-2.828-6.304-6.303c0-3.477,2.828-6.305,6.304-6.305
		c3.476,0,6.304,2.828,6.304,6.305C76.304,73.476,73.476,76.304,70,76.304 M70,64.445c-3.063,0-5.555,2.492-5.555,5.556
		c0,3.062,2.492,5.554,5.555,5.554c3.063,0,5.555-2.492,5.555-5.554C75.555,66.938,73.063,64.445,70,64.445"/>
	<polygon clip-path="url(#SVGID_5_)" fill="#231F20" points="87.928,50.426 107.347,31.009 108.8,32.462 89.359,51.901 	"/>
	<polygon clip-path="url(#SVGID_5_)" fill="#231F20" points="51.838,89.617 32.558,108.895 31.104,107.442 50.406,88.142 	"/>
	<path clip-path="url(#SVGID_5_)" fill="#231F20" d="M37.296,113.633c-3.018,3.019-7.911,3.019-10.929,0
		c-3.017-3.017-3.017-7.911,0-10.929c3.018-3.017,7.911-3.017,10.929,0C40.313,105.722,40.313,110.616,37.296,113.633"/>
	<path clip-path="url(#SVGID_5_)" fill="#231F20" d="M113.633,37.296c3.019-3.018,3.019-7.911,0-10.929
		c-3.017-3.017-7.911-3.017-10.929,0c-3.017,3.018-3.017,7.911,0,10.929C105.722,40.313,110.616,40.313,113.633,37.296"/>
	<polygon clip-path="url(#SVGID_5_)" fill="#231F20" points="89.761,88.115 108.991,107.347 107.537,108.8 88.286,89.547 	"/>
	<polygon clip-path="url(#SVGID_5_)" fill="#231F20" points="50.751,52.207 31.104,32.558 32.558,31.104 52.227,50.775 	"/>
	<path clip-path="url(#SVGID_5_)" fill="#231F20" d="M26.367,37.296c-3.018-3.018-3.018-7.911,0-10.929
		c3.017-3.017,7.911-3.017,10.929,0c3.017,3.018,3.017,7.911,0,10.929C34.278,40.313,29.384,40.313,26.367,37.296"/>
	<path clip-path="url(#SVGID_5_)" fill="#231F20" d="M102.704,113.633c3.019,3.019,7.911,3.019,10.929,0
		c3.018-3.017,3.018-7.911,0-10.929c-3.018-3.017-7.91-3.017-10.929,0C99.688,105.722,99.688,110.616,102.704,113.633"/>
</g>
</svg>
