<?xml version="1.0" encoding="utf-8"?>
<!-- Generator: Adobe Illustrator 16.0.4, SVG Export Plug-In . SVG Version: 6.00 Build 0)  -->
<!DOCTYPE svg PUBLIC "-//W3C//DTD SVG 1.1//EN" "http://www.w3.org/Graphics/SVG/1.1/DTD/svg11.dtd">
<svg version="1.1" id="Layer_1" xmlns="http://www.w3.org/2000/svg" xmlns:xlink="http://www.w3.org/1999/xlink" x="0px" y="0px"
	 width="118.573px" height="144px" viewBox="0 0 118.573 144" enable-background="new 0 0 118.573 144" xml:space="preserve">
<g>
	<defs>
		<path id="SVGID_1_" d="M38.869,34.297c-1.213,0-2.196,0.984-2.196,2.197v1.563l-0.145-0.144L16.515,78.771v30.932h30.109
			l51.614-10.405l-0.105-0.104h1.729c1.214,0,2.196-0.983,2.196-2.196V36.494c0-1.213-0.982-2.197-2.196-2.197H38.869z"/>
	</defs>
	<clipPath id="SVGID_2_">
		<use xlink:href="#SVGID_1_"  overflow="visible"/>
	</clipPath>
	
		<linearGradient id="SVGID_3_" gradientUnits="userSpaceOnUse" x1="0" y1="144.0039" x2="1" y2="144.0039" gradientTransform="matrix(63.854 63.854 63.854 -63.854 -9165.54 9237.7842)">
		<stop  offset="0" style="stop-color:#E6E7E8"/>
		<stop  offset="0.5" style="stop-color:#F6F6F6"/>
		<stop  offset="1" style="stop-color:#CBCCCE"/>
	</linearGradient>
	<polygon clip-path="url(#SVGID_2_)" fill="url(#SVGID_3_)" points="59.286,-8.475 139.761,72 59.286,152.475 -21.188,72 	"/>
</g>
<g>
	<defs>
		<rect id="SVGID_4_" width="118.573" height="144"/>
	</defs>
	<clipPath id="SVGID_5_">
		<use xlink:href="#SVGID_4_"  overflow="visible"/>
	</clipPath>
	<path clip-path="url(#SVGID_5_)" d="M49.862,35.297h2c0.552,0,1-0.448,1-1c0-0.552-0.448-1-1-1h-2c-0.552,0-1,0.448-1,1
		C48.862,34.85,49.31,35.297,49.862,35.297"/>
	<path clip-path="url(#SVGID_5_)" d="M48.471,100.193h2c0.552,0,1-0.447,1-1s-0.448-1-1-1h-2c-0.552,0-1,0.447-1,1
		S47.919,100.193,48.471,100.193"/>
	<path clip-path="url(#SVGID_5_)" d="M35.673,58.05c0,0.552,0.448,1,1,1c0.552,0,1-0.448,1-1v-2c0-0.552-0.448-1-1-1
		c-0.552,0-1,0.448-1,1V58.05z"/>
	<path clip-path="url(#SVGID_5_)" d="M54.471,100.193h2c0.552,0,1-0.447,1-1s-0.448-1-1-1h-2c-0.552,0-1,0.447-1,1
		S53.919,100.193,54.471,100.193"/>
	<path clip-path="url(#SVGID_5_)" d="M55.862,35.297h2c0.552,0,1-0.448,1-1c0-0.552-0.448-1-1-1h-2c-0.552,0-1,0.448-1,1
		C54.862,34.85,55.31,35.297,55.862,35.297"/>
	<path clip-path="url(#SVGID_5_)" d="M60.472,100.193h2c0.552,0,1-0.447,1-1s-0.448-1-1-1h-2c-0.553,0-1,0.447-1,1
		S59.919,100.193,60.472,100.193"/>
	<path clip-path="url(#SVGID_5_)" d="M36.673,47.05c0.552,0,1-0.448,1-1v-2c0-0.552-0.448-1-1-1c-0.552,0-1,0.448-1,1v2
		C35.673,46.602,36.121,47.05,36.673,47.05"/>
	<path clip-path="url(#SVGID_5_)" d="M42.471,100.193h2c0.552,0,1-0.447,1-1s-0.448-1-1-1h-2c-0.552,0-1,0.447-1,1
		S41.919,100.193,42.471,100.193"/>
	<path clip-path="url(#SVGID_5_)" d="M35.673,52.05c0,0.552,0.448,1,1,1c0.552,0,1-0.448,1-1v-2c0-0.552-0.448-1-1-1
		c-0.552,0-1,0.448-1,1V52.05z"/>
	<path clip-path="url(#SVGID_5_)" d="M37.898,35.524c0.148,0,0.3-0.033,0.442-0.104c0.165-0.081,0.344-0.123,0.53-0.123h0.992
		c0.552,0,1-0.447,1-1c0-0.552-0.448-1-1-1H38.87c-0.496,0-0.973,0.111-1.416,0.331c-0.495,0.244-0.698,0.844-0.453,1.339
		C37.175,35.32,37.529,35.524,37.898,35.524"/>
	<path clip-path="url(#SVGID_5_)" d="M43.862,35.297h2c0.552,0,1-0.448,1-1c0-0.552-0.448-1-1-1h-2c-0.552,0-1,0.448-1,1
		C42.862,34.85,43.31,35.297,43.862,35.297"/>
	<path clip-path="url(#SVGID_5_)" d="M84.472,100.193h2c0.552,0,1-0.447,1-1s-0.448-1-1-1h-2c-0.553,0-1,0.447-1,1
		S83.919,100.193,84.472,100.193"/>
	<path clip-path="url(#SVGID_5_)" d="M79.861,35.297h2c0.553,0,1-0.448,1-1c0-0.552-0.447-1-1-1h-2c-0.552,0-1,0.448-1,1
		C78.861,34.85,79.31,35.297,79.861,35.297"/>
	<path clip-path="url(#SVGID_5_)" d="M85.861,35.297h2c0.553,0,1-0.448,1-1c0-0.552-0.447-1-1-1h-2c-0.552,0-1,0.448-1,1
		C84.861,34.85,85.31,35.297,85.861,35.297"/>
	<path clip-path="url(#SVGID_5_)" d="M61.861,35.297h2c0.553,0,1-0.448,1-1c0-0.552-0.447-1-1-1h-2c-0.552,0-1,0.448-1,1
		C60.861,34.85,61.31,35.297,61.861,35.297"/>
	<path clip-path="url(#SVGID_5_)" d="M78.472,100.193h2c0.552,0,1-0.447,1-1s-0.448-1-1-1h-2c-0.553,0-1,0.447-1,1
		S77.919,100.193,78.472,100.193"/>
	<path clip-path="url(#SVGID_5_)" d="M73.861,35.297h2c0.553,0,1-0.448,1-1c0-0.552-0.447-1-1-1h-2c-0.552,0-1,0.448-1,1
		C72.861,34.85,73.31,35.297,73.861,35.297"/>
	<path clip-path="url(#SVGID_5_)" d="M67.861,35.297h2c0.553,0,1-0.448,1-1c0-0.552-0.447-1-1-1h-2c-0.552,0-1,0.448-1,1
		C66.861,34.85,67.31,35.297,67.861,35.297"/>
	<path clip-path="url(#SVGID_5_)" d="M66.472,100.193h2c0.552,0,1-0.447,1-1s-0.448-1-1-1h-2c-0.553,0-1,0.447-1,1
		S65.919,100.193,66.472,100.193"/>
	<path clip-path="url(#SVGID_5_)" d="M72.472,100.193h2c0.552,0,1-0.447,1-1s-0.448-1-1-1h-2c-0.553,0-1,0.447-1,1
		S71.919,100.193,72.472,100.193"/>
	<path clip-path="url(#SVGID_5_)" d="M91.861,35.297h2c0.553,0,1-0.448,1-1c0-0.552-0.447-1-1-1h-2c-0.552,0-1,0.448-1,1
		C90.861,34.85,91.31,35.297,91.861,35.297"/>
	<path clip-path="url(#SVGID_5_)" d="M102.058,70.839c-0.552,0-1,0.448-1,1v2c0,0.552,0.448,1,1,1c0.553,0,1-0.448,1-1v-2
		C103.058,71.288,102.61,70.839,102.058,70.839"/>
	<path clip-path="url(#SVGID_5_)" d="M102.058,58.839c-0.552,0-1,0.448-1,1v2c0,0.552,0.448,1,1,1c0.553,0,1-0.448,1-1v-2
		C103.058,59.288,102.61,58.839,102.058,58.839"/>
	<path clip-path="url(#SVGID_5_)" d="M102.058,64.839c-0.552,0-1,0.448-1,1v2c0,0.552,0.448,1,1,1c0.553,0,1-0.448,1-1v-2
		C103.058,65.288,102.61,64.839,102.058,64.839"/>
	<path clip-path="url(#SVGID_5_)" d="M102.058,82.839c-0.552,0-1,0.447-1,1v2c0,0.553,0.448,1,1,1c0.553,0,1-0.447,1-1v-2
		C103.058,83.286,102.61,82.839,102.058,82.839"/>
	<path clip-path="url(#SVGID_5_)" d="M102.058,76.839c-0.552,0-1,0.447-1,1v2c0,0.553,0.448,1,1,1c0.553,0,1-0.447,1-1v-2
		C103.058,77.286,102.61,76.839,102.058,76.839"/>
	<path clip-path="url(#SVGID_5_)" d="M102.058,40.839c-0.552,0-1,0.448-1,1v2c0,0.552,0.448,1,1,1c0.553,0,1-0.448,1-1v-2
		C103.058,41.288,102.61,40.839,102.058,40.839"/>
	<path clip-path="url(#SVGID_5_)" d="M102.058,52.839c-0.552,0-1,0.448-1,1v2c0,0.552,0.448,1,1,1c0.553,0,1-0.448,1-1v-2
		C103.058,53.288,102.61,52.839,102.058,52.839"/>
	<path clip-path="url(#SVGID_5_)" d="M102.058,88.839c-0.552,0-1,0.447-1,1v2c0,0.553,0.448,1,1,1c0.553,0,1-0.447,1-1v-2
		C103.058,89.286,102.61,88.839,102.058,88.839"/>
	<path clip-path="url(#SVGID_5_)" d="M102.917,35.556c-0.161-0.528-0.722-0.823-1.249-0.663c-0.527,0.163-0.824,0.722-0.662,1.25
		c0.034,0.113,0.053,0.231,0.053,0.351v1.346c0,0.552,0.447,1,1,1c0.552,0,1-0.448,1-1v-1.346
		C103.059,36.175,103.012,35.859,102.917,35.556"/>
	<path clip-path="url(#SVGID_5_)" d="M102.058,46.839c-0.552,0-1,0.448-1,1v2c0,0.552,0.448,1,1,1c0.553,0,1-0.448,1-1v-2
		C103.058,47.288,102.61,46.839,102.058,46.839"/>
	<path clip-path="url(#SVGID_5_)" d="M38.294,100.141c0.061,0.012,0.121,0.017,0.18,0.017c0.474,0,0.895-0.338,0.983-0.821
		c0.098-0.543-0.262-1.063-0.806-1.162c-0.359-0.065-0.675-0.3-0.844-0.626c-0.256-0.489-0.86-0.682-1.349-0.425
		c-0.49,0.255-0.681,0.858-0.426,1.349C36.486,99.342,37.332,99.966,38.294,100.141"/>
	<path clip-path="url(#SVGID_5_)" d="M35.673,82.05c0,0.553,0.448,1,1,1c0.552,0,1-0.447,1-1v-2c0-0.553-0.448-1-1-1
		c-0.552,0-1,0.447-1,1V82.05z"/>
	<path clip-path="url(#SVGID_5_)" d="M35.673,88.05c0,0.553,0.448,1,1,1c0.552,0,1-0.447,1-1v-2c0-0.553-0.448-1-1-1
		c-0.552,0-1,0.447-1,1V88.05z"/>
	<path clip-path="url(#SVGID_5_)" d="M35.673,76.05c0,0.553,0.448,1,1,1c0.552,0,1-0.447,1-1v-2c0-0.553-0.448-1-1-1
		c-0.552,0-1,0.447-1,1V76.05z"/>
	<path clip-path="url(#SVGID_5_)" d="M35.673,70.05c0,0.552,0.448,1,1,1c0.552,0,1-0.448,1-1v-2c0-0.552-0.448-1-1-1
		c-0.552,0-1,0.448-1,1V70.05z"/>
	<path clip-path="url(#SVGID_5_)" d="M102.058,94.839c-0.552,0-1,0.447-1,1v1.156c0,0.157-0.028,0.309-0.086,0.45
		c-0.207,0.512,0.04,1.095,0.553,1.301c0.123,0.05,0.25,0.073,0.374,0.073c0.396,0,0.771-0.236,0.928-0.626
		c0.153-0.379,0.23-0.781,0.231-1.196v-1.158C103.058,95.286,102.61,94.839,102.058,94.839"/>
	<path clip-path="url(#SVGID_5_)" d="M98.472,98.193h-2c-0.515,0-0.923,0.393-0.979,0.893l-2.085,0.421
		c0.033-0.101,0.063-0.202,0.063-0.313c0-0.553-0.448-1-1-1h-2c-0.553,0-1,0.447-1,1c0,0.469,0.328,0.844,0.764,0.952l-43.685,8.807
		H17.264V78.944l18.705-38.185c0.181,0.179,0.429,0.29,0.704,0.29c0.552,0,1-0.447,1-1v-2c0-0.552-0.448-1-1-1
		c-0.495,0-0.888,0.367-0.968,0.839L15.841,78.44c-0.05,0.103-0.077,0.216-0.077,0.33v30.932c0,0.414,0.336,0.75,0.75,0.75h30.111
		c0.05,0,0.099-0.005,0.148-0.015l50.818-10.244h0.88c0.552,0,1-0.447,1-1S99.023,98.193,98.472,98.193"/>
	<path clip-path="url(#SVGID_5_)" d="M99.861,33.297h-2c-0.552,0-1,0.448-1,1c0,0.552,0.448,1,1,1h2c0.553,0,1-0.448,1-1
		C100.861,33.746,100.414,33.297,99.861,33.297"/>
	<path clip-path="url(#SVGID_5_)" d="M35.673,94.05c0,0.553,0.448,1,1,1c0.552,0,1-0.447,1-1v-2c0-0.553-0.448-1-1-1
		c-0.552,0-1,0.447-1,1V94.05z"/>
	<path clip-path="url(#SVGID_5_)" d="M35.673,64.05c0,0.552,0.448,1,1,1c0.552,0,1-0.448,1-1v-2c0-0.552-0.448-1-1-1
		c-0.552,0-1,0.448-1,1V64.05z"/>
</g>
</svg>
