<?xml version="1.0" encoding="UTF-8" standalone="no"?>
<svg
   id="Layer_1"
   data-name="Layer 1"
   viewBox="0 0 238.4 113.6"
   version="1.1"
   sodipodi:docname="okd_logo_dark.svg"
   inkscape:version="1.1 (c4e8f9e, 2021-05-24)"
   xmlns:inkscape="http://www.inkscape.org/namespaces/inkscape"
   xmlns:sodipodi="http://sodipodi.sourceforge.net/DTD/sodipodi-0.dtd"
   xmlns="http://www.w3.org/2000/svg"
   xmlns:svg="http://www.w3.org/2000/svg"
   xmlns:rdf="http://www.w3.org/1999/02/22-rdf-syntax-ns#"
   xmlns:cc="http://creativecommons.org/ns#"
   xmlns:dc="http://purl.org/dc/elements/1.1/">
  <sodipodi:namedview
     id="namedview156"
     pagecolor="#ffffff"
     bordercolor="#111111"
     borderopacity="1"
     inkscape:pageshadow="0"
     inkscape:pageopacity="0"
     inkscape:pagecheckerboard="1"
     showgrid="false"
     inkscape:zoom="4.7273491"
     inkscape:cx="79.960246"
     inkscape:cy="59.33558"
     inkscape:window-width="1296"
     inkscape:window-height="1003"
     inkscape:window-x="5071"
     inkscape:window-y="224"
     inkscape:window-maximized="0"
     inkscape:current-layer="Layer_1" />
  <defs
     id="defs143">
    <style
       id="style141">.cls-1{fill:#f22b29;}</style>
  </defs>
  <title
     id="title145">okd_logo_dark</title>
  <path
     class="cls-1"
     d="M47.4,35.3A38.12,38.12,0,0,1,75.1,46.6,36.93,36.93,0,0,1,86.6,74.1,39,39,0,0,1,75,102.2,37.37,37.37,0,0,1,47.3,114c-10.5,0-19.6-3.9-27.3-11.8A38.23,38.23,0,0,1,8.5,74.4,38.28,38.28,0,0,1,19.8,46.7,37.59,37.59,0,0,1,47.4,35.3Zm-25,39.4A25.55,25.55,0,0,0,29.9,93c5,5.2,10.9,7.9,17.6,7.9a24.08,24.08,0,0,0,17.8-7.7,25.74,25.74,0,0,0,7.5-18.6,26.3,26.3,0,0,0-7.5-18.7c-5-5.3-10.9-8-17.8-8-6.5,0-12.4,2.6-17.5,8A26.46,26.46,0,0,0,22.4,74.7Z"
     transform="translate(-8.5 -0.4)"
     id="path147" />
  <polygon
     points="101.8 63.2 101.8 63.2 101.7 0 88.3 0 88.3 112.4 101.8 112.4 101.8 81.1 101.8 81.1 101.8 63.2"
     id="polygon149" />
  <path
     d="M160.7,107.8a35.59,35.59,0,0,0-4.4-17c-2.9-5.4-5.6-9.2-8.1-11.3a27.64,27.64,0,0,0-5.8-4.1L138,72.9c12.5-6.4,19.6-16,21.5-28.7l1.2-6.7H146.6l-.9,5.1c-1.3,6.9-5,12.7-11.2,17.4a34,34,0,0,1-15.9,6.8V79.5a32.74,32.74,0,0,1,17.2,6.9c6,4.8,9.5,11.6,10.4,20.3l.6,6.1H161Z"
     transform="translate(-8.5 -0.4)"
     id="path151" />
  <path
     d="M233.3.4V72.5c0,8-2.5,14.8-7.6,20.3a24.94,24.94,0,0,1-36.5.7,24.59,24.59,0,0,1-7.5-17.8A24.23,24.23,0,0,1,190,57a28.8,28.8,0,0,1,20.1-7.5,22.75,22.75,0,0,1,2.4.1,40.71,40.71,0,0,1,4.3.7,70,70,0,0,1,8.1,3v-14a46,46,0,0,0-8.9-2.5,37.65,37.65,0,0,0-7.3-.6c-11.8,0-21.5,3.6-29,10.8s-11.3,16.6-11.3,28.1,3.7,20.9,11.1,28.1S196.4,114,208.2,114c10.2,0,18.6-2.8,25.1-8.3V114h13.6V.4Z"
     transform="translate(-8.5 -0.4)"
     id="path153" />
  <metadata
     id="metadata191">
    <rdf:RDF>
      <cc:Work
         rdf:about="">
        <dc:title>okd_logo_dark</dc:title>
      </cc:Work>
    </rdf:RDF>
  </metadata>
</svg>
