<?xml version="1.0" encoding="UTF-8" standalone="no"?>
<!-- Generator: Adobe Illustrator 22.1.0, SVG Export Plug-In . SVG Version: 6.00 Build 0)  -->

<svg
   version="1.1"
   id="Layer_1"
   x="47px"
   y="0px"
   viewBox="47 0 410 284.72222"
   height="410"
   xml:space="preserve"
   sodipodi:docname="okdLogo.svg"
   inkscape:export-filename="/Users/brian/Documents/Projects/okd.io/docs/img/okd_logo.png"
   inkscape:export-xdpi="213.33333"
   inkscape:export-ydpi="213.33333"
   width="410"
   inkscape:version="1.1 (c4e8f9e, 2021-05-24)"
   xmlns:inkscape="http://www.inkscape.org/namespaces/inkscape"
   xmlns:sodipodi="http://sodipodi.sourceforge.net/DTD/sodipodi-0.dtd"
   xmlns="http://www.w3.org/2000/svg"
   xmlns:svg="http://www.w3.org/2000/svg"><defs
   id="defs24" /><sodipodi:namedview
   id="namedview22"
   pagecolor="#ffffff"
   bordercolor="#111111"
   borderopacity="1"
   inkscape:pageshadow="0"
   inkscape:pageopacity="0"
   inkscape:pagecheckerboard="1"
   showgrid="false"
   inkscape:zoom="2.5"
   inkscape:cx="205"
   inkscape:cy="205"
   inkscape:window-width="2099"
   inkscape:window-height="1251"
   inkscape:window-x="4636"
   inkscape:window-y="79"
   inkscape:window-maximized="0"
   inkscape:current-layer="layer1"
   width="410px" />
<style
   type="text/css"
   id="style9">
	.st0{fill:#F22B29;}
	.st1{fill:#FFFFFF;}
</style>




<g
   inkscape:groupmode="layer"
   id="layer2"
   inkscape:label="background"><rect
     style="fill:#0000ff;fill-opacity:0;fill-rule:evenodd;stroke-width:1.09776"
     id="rect163"
     width="283.46457"
     height="283.46457"
     x="30.551497"
     y="-66.708817" /></g><g
   inkscape:groupmode="layer"
   id="layer1"
   inkscape:label="base"><path
     class="st1"
     d="m 423.34,21.88 v 84.645 34.32 c 0,13.2 -4.125,24.42 -12.54,33.495 -8.415,9.075 -18.48,13.695 -30.525,13.695 -11.55,0 -21.615,-4.125 -29.7,-12.54 -8.25,-8.415 -12.375,-18.15 -12.375,-29.37 0,-12.375 4.62,-22.605 13.695,-30.855 9.075,-8.25 20.13,-12.375 33.165,-12.375 0.99,0 2.31,0 3.96,0.165 1.65,0.165 3.96,0.495 7.095,1.155 3.96,1.155 8.415,2.805 13.365,4.95 v -23.1 c -5.94,-2.145 -10.89,-3.63 -14.685,-4.125 -3.3,-0.66 -7.26,-0.99 -12.045,-0.99 -19.47,0 -35.475,5.94 -47.85,17.82 -12.375,11.88 -18.645,27.39 -18.645,46.365 0,18.975 6.105,34.485 18.315,46.365 12.21,11.88 27.885,17.82 47.355,17.82 16.83,0 30.69,-4.62 41.415,-13.695 v 13.695 h 22.44 V 141.175 106.525 21.88 Z"
     id="path19"
     style="stroke-width:1.65" /><path
     class="st1"
     d="m 303.55,199.09 c 0,-9.735 -2.475,-19.14 -7.26,-28.05 -4.785,-8.91 -9.24,-15.18 -13.365,-18.645 -4.125,-3.465 -7.26,-5.775 -9.57,-6.765 l -7.26,-4.125 c 20.625,-10.56 32.34,-26.4 35.475,-47.355 l 1.98,-11.055 H 280.285 L 278.8,91.51 c -2.145,11.385 -8.25,20.955 -18.48,28.71 -8.085,6.105 -16.83,9.9 -26.235,11.22 v 20.955 c 11.22,1.32 20.625,5.115 28.38,11.385 9.9,7.92 15.675,19.14 17.16,33.495 l 0.99,10.065 h 23.43 z"
     id="path17"
     style="stroke-width:1.65" /><polygon
     class="st1"
     points="149.3,112.8 149.3,81.5 149.3,63.6 149.2,0.4 135.8,0.4 135.8,112.8 "
     id="polygon15"
     transform="matrix(1.65,0,0,1.65,-25.955,21.22)" /><g
     id="g13"
     transform="matrix(1.65,0,0,1.65,-25.955,21.22)">
	<path
   class="st0"
   d="m 86.4,35.3 c 10.8,0 20.1,3.8 27.7,11.3 7.7,7.5 11.5,16.7 11.5,27.5 0,10.8 -3.9,20.2 -11.6,28.1 C 106.3,110.1 97,114 86.3,114 75.8,114 66.7,110.1 59,102.2 51.3,94.4 47.5,85.1 47.5,74.4 c 0,-10.8 3.8,-20 11.3,-27.7 7.6,-7.6 16.8,-11.4 27.6,-11.4 z m -25,39.4 c 0,7 2.5,13.1 7.5,18.3 5,5.2 10.9,7.9 17.6,7.9 6.9,0 12.8,-2.6 17.8,-7.7 5,-5.1 7.5,-11.4 7.5,-18.6 0,-7.2 -2.5,-13.4 -7.5,-18.7 -5,-5.3 -10.9,-8 -17.8,-8 -6.5,0 -12.4,2.6 -17.5,8 -5,5.3 -7.6,11.5 -7.6,18.8 z"
   id="path11" />
</g></g></svg>
